<?xml version="1.0" standalone="no"?>
<!DOCTYPE svg PUBLIC "-//W3C//DTD SVG 1.1//EN" "http://www.w3.org/Graphics/SVG/1.1/DTD/svg11.dtd" >
<svg xmlns="http://www.w3.org/2000/svg" xmlns:xlink="http://www.w3.org/1999/xlink" version="1.1">
<metadata>
Created by FontForge 20161003 at Thu Oct  4 04:07:42 2018
 By www-data
Copyright (c) 2014-2017 Monotype Imaging Inc. All rights reserved.
</metadata>
<defs>
<font id="FrutigerRoman" horiz-adv-x="1139" >
  <font-face 
    font-family="FrutigerRoman"
    font-weight="400"
    font-stretch="normal"
    units-per-em="2048"
    panose-1="2 11 6 2 2 2 4 2 2 4"
    ascent="1577"
    descent="-471"
    x-height="1044"
    cap-height="1430"
    bbox="-372 -876 2825 2302"
    underline-thickness="50"
    underline-position="-175"
    unicode-range="U+000D-FEFC"
  />
<missing-glyph horiz-adv-x="1049" 
d="M1049 1470v-1470h-1049v1470h1049zM102 102h844v1264h-844v-1264zM457 541q0 51 8 86.5t31 73.5t69 87l33 34q43 42 62.5 72.5t19.5 76.5q0 49 -21.5 88.5t-57.5 62.5t-77 23q-69 0 -112 -48.5t-56 -146.5l-102 17q12 135 84.5 207.5t191.5 72.5q73 0 130.5 -33.5
t90.5 -94t33 -140.5q0 -75 -29 -127.5t-102 -120.5q-45 -42 -64 -66.5t-26.5 -60t-7.5 -104.5v-21h-94q-1 5 -2.5 23t-1.5 39zM569 377v-137h-114v137h114z" />
    <glyph glyph-name="uniFEF5" unicode="&#xfedf;&#xfe82;" horiz-adv-x="1449" arabic-form="isolated" 
d="M593 180v868h180v-868h336v1257h180v-1437h-1139v180h443zM955 1199q-42 -32 -117 -32q-42 0 -81.5 13.5t-109.5 43.5q-69 29 -105 40t-71 11q-30 0 -51.5 -8.5t-44.5 -33.5l-54 63q42 45 80 64.5t97 19.5q32 0 75.5 -13.5t111.5 -42.5q121 -54 169 -54q39 0 64.5 22
t41.5 70l75 -35q-20 -50 -39 -81t-41 -47z" />
    <glyph glyph-name="uniFEF6" unicode="&#xfee0;&#xfe82;" horiz-adv-x="1580" arabic-form="final" 
d="M1260 112q-29 -54 -75 -83t-103 -29h-932v180h443v868h179v-868h268q33 0 51 28.5t18 81.5v1147h181v-1171q91 -86 281 -86h11q70 0 70 -51v-75q0 -54 -66 -54h-13q-102 0 -177.5 27t-135.5 85zM960 1197q-42 -32 -117 -32q-42 0 -81.5 13.5t-109.5 43.5q-69 29 -105 40
t-71 11q-30 0 -51.5 -8.5t-44.5 -33.5l-54 63q42 45 80 64.5t97 19.5q32 0 75.5 -13.5t111.5 -42.5q121 -54 169 -54q39 0 64.5 22t41.5 70l75 -35q-20 -50 -39 -81t-41 -47z" />
    <glyph glyph-name="uniFEF7" unicode="&#xfedf;&#xfe84;" horiz-adv-x="1449" arabic-form="isolated" 
d="M593 180v868h180v-868h336v1257h180v-1437h-1139v180h443zM639 1260q-29 20 -47 55t-18 74q0 59 48 97.5t130 38.5q40 0 78 -6l-13 -85q-24 6 -58 6q-47 0 -73.5 -17.5t-26.5 -56.5q0 -28 19 -54t54 -39t70 -13h33v-84h-310v84h114z" />
    <glyph glyph-name="uniFEF8" unicode="&#xfee0;&#xfe84;" horiz-adv-x="1580" arabic-form="final" 
d="M1260 112q-29 -54 -75 -83t-103 -29h-932v180h443v868h179v-868h268q33 0 51 28.5t18 81.5v1147h181v-1171q91 -86 281 -86h11q70 0 70 -51v-75q0 -54 -66 -54h-13q-102 0 -177.5 27t-135.5 85zM639 1260q-29 20 -47 55t-18 74q0 59 48 97.5t130 38.5q40 0 78 -6l-13 -85
q-24 6 -58 6q-47 0 -73.5 -17.5t-26.5 -56.5q0 -28 19 -54t54 -39t70 -13h33v-84h-310v84h114z" />
    <glyph glyph-name="uniFEF9" unicode="&#xfedf;&#xfe88;" horiz-adv-x="1449" arabic-form="isolated" 
d="M593 180v868h180v-868h336v1257h180v-1437h-1139v180h443zM635 -410q-29 20 -47 55t-18 74q0 61 48.5 98.5t129.5 37.5q40 0 78 -6l-13 -85q-24 6 -58 6q-47 0 -73.5 -18t-26.5 -56q0 -30 19 -55t54.5 -38.5t81.5 -12.5h21v-84h-310v84h114z" />
    <glyph glyph-name="uniFEFA" unicode="&#xfee0;&#xfe88;" horiz-adv-x="1580" arabic-form="final" 
d="M1260 112q-29 -54 -75 -83t-103 -29h-932v180h443v868h179v-868h268q33 0 51 28.5t18 81.5v1147h181v-1171q91 -86 281 -86h11q70 0 70 -51v-75q0 -54 -66 -54h-13q-102 0 -177.5 27t-135.5 85zM635 -410q-29 20 -47 55t-18 74q0 61 48.5 98.5t129.5 37.5q40 0 78 -6
l-13 -85q-24 6 -58 6q-47 0 -73.5 -18t-26.5 -56q0 -30 19 -55t54.5 -38.5t81.5 -12.5h21v-84h-310v84h114z" />
    <glyph glyph-name="uniFEFB" unicode="&#xfedf;&#xfe8e;" horiz-adv-x="1449" arabic-form="isolated" 
d="M593 180v868h180v-868h336v1257h180v-1437h-1139v180h443z" />
    <glyph glyph-name="uniFEFC" unicode="&#xfee0;&#xfe8e;" horiz-adv-x="1580" arabic-form="final" 
d="M1260 112q-29 -54 -75 -83t-103 -29h-932v180h443v868h179v-868h268q33 0 51 28.5t18 81.5v1147h181v-1171q91 -86 281 -86h11q70 0 70 -51v-75q0 -54 -66 -54h-13q-102 0 -177.5 27t-135.5 85z" />
    <glyph glyph-name="uni06440671" unicode="&#xfedf;&#xfb51;" horiz-adv-x="1449" 
d="M593 180v868h180v-868h336v1257h180v-1437h-1139v180h443zM552 1265v168h68v-50q23 31 59 50.5t75 19.5q65 0 99.5 -42t34.5 -107v-109h-418v70h82zM744 1387q-28 0 -57 -12.5t-47 -37t-18 -55.5v-17h198v37q0 45 -19.5 65t-56.5 20z" />
    <glyph glyph-name="uni06440671.fina" unicode="&#xfee0;&#xfb51;" horiz-adv-x="1580" 
d="M1260 112q-29 -54 -75 -83t-103 -29h-932v180h443v868h179v-868h268q33 0 51 28.5t18 81.5v1147h181v-1171q91 -86 281 -86h11q70 0 70 -51v-75q0 -54 -66 -54h-13q-102 0 -177.5 27t-135.5 85zM552 1265v168h68v-50q23 31 59 50.5t75 19.5q65 0 99.5 -42t34.5 -107v-109
h-418v70h82zM744 1387q-28 0 -57 -12.5t-47 -37t-18 -55.5v-17h198v37q0 45 -19.5 65t-56.5 20z" />
    <glyph glyph-name="uni0621" unicode="&#x621;" horiz-adv-x="831" arabic-form="isolated" 
d="M323 160q-62 40 -97.5 101t-35.5 129q0 90 46.5 154.5t124 97.5t167.5 33q87 0 163 -13l-13 -156q-70 13 -135 13q-88 0 -143 -43t-55 -115q0 -95 88.5 -148t229.5 -53h51v-160h-593v160h202z" />
    <glyph glyph-name="uni0622" unicode="&#x622;" horiz-adv-x="540" arabic-form="isolated" 
d="M360 1436v-1437h-180v1437h180zM545 1536q-42 -32 -117 -32q-42 0 -81.5 13.5t-109.5 43.5q-69 29 -105 40t-71 11q-30 0 -51.5 -8.5t-44.5 -33.5l-54 63q42 45 80 64.5t97 19.5q32 0 75.5 -13.5t111.5 -42.5q121 -54 169 -54q39 0 64.5 22t41.5 70l75 -35
q-20 -50 -39 -81t-41 -47z" />
    <glyph glyph-name="uni0623" unicode="&#x623;" horiz-adv-x="540" arabic-form="isolated" 
d="M360 1436v-1437h-180v1437h180zM224 1645q-29 20 -47 55t-18 74q0 59 48 97.5t130 38.5q40 0 78 -6l-13 -85q-24 6 -58 6q-47 0 -73.5 -17.5t-26.5 -56.5q0 -28 19 -54t54 -39t70 -13h33v-84h-310v84h114z" />
    <glyph glyph-name="uni0624" unicode="&#x624;" horiz-adv-x="1095" arabic-form="isolated" 
d="M766 37q-91 -40 -204 -40q-121 0 -213 46t-147 135t-55 212q0 121 55 215.5t152 147.5t219 53q124 0 207.5 -57t124 -157.5t40.5 -233.5v-185q0 -284 -168 -429.5t-488 -170.5l-19 173q209 15 337 91t159 200zM541 637q-62 0 -111.5 -29.5t-78 -83t-28.5 -122.5
q0 -105 71 -165.5t198 -60.5q46 0 94.5 8.5t79.5 21.5v98q0 333 -225 333zM462 1131q-38 27 -62.5 73.5t-24.5 98.5q0 81 63.5 131.5t174.5 50.5q56 0 105 -8l-18 -114q-45 8 -78 8q-62 0 -97.5 -23.5t-35.5 -74.5q0 -37 24.5 -70.5t68.5 -52.5t103 -19h39v-112h-414v112
h152z" />
    <glyph glyph-name="uni0625" unicode="&#x625;" horiz-adv-x="540" arabic-form="isolated" 
d="M360 1436v-1437h-180v1437h180zM209 -410q-29 20 -47 55t-18 74q0 61 48.5 98.5t129.5 37.5q40 0 78 -6l-13 -85q-24 6 -58 6q-47 0 -73.5 -18t-26.5 -56q0 -30 19 -55t54.5 -38.5t81.5 -12.5h21v-84h-310v84h114z" />
    <glyph glyph-name="uni0626" unicode="&#x626;" horiz-adv-x="1537" arabic-form="isolated" 
d="M1207 597q-76 0 -139 -33.5t-63 -100.5q0 -40 36.5 -82t123.5 -107q85 -64 128.5 -122.5t43.5 -121.5q0 -102 -72 -210.5t-213 -181.5t-328 -73q-225 0 -377 78t-222 199t-70 254q0 105 31 203t85 173l152 -85q-44 -55 -66.5 -128.5t-22.5 -148.5q0 -116 60.5 -197
t170.5 -122t257 -41q104 0 204 30t164 86t64 129q0 42 -40 87t-119 104q-169 129 -169 269q0 103 54.5 174.5t143.5 107t193 35.5q100 0 220 -39l-46 -178q-96 42 -184 42zM152 682q-38 27 -62.5 73.5t-24.5 98.5q0 81 63.5 131.5t174.5 50.5q56 0 105 -8l-18 -114
q-45 8 -78 8q-62 0 -97.5 -23.5t-35.5 -74.5q0 -37 24.5 -70.5t68.5 -52.5t103 -19h39v-112h-414v112h152z" />
    <glyph glyph-name="uni0627" unicode="&#x627;" horiz-adv-x="540" arabic-form="isolated" 
d="M360 1436v-1437h-180v1437h180z" />
    <glyph glyph-name="uni0628" unicode="&#x628;" horiz-adv-x="1802" arabic-form="isolated" 
d="M241 32q-105 28 -158 83.5t-68 113.5t-15 120q0 64 8 125.5t12 85.5l170 -16q-15 -96 -15 -140q0 -106 43 -146q42 -41 142.5 -59.5t273.5 -18.5h828v593h180v-773h-1115q-166 0 -286 32zM835 -406q-45 0 -75.5 30.5t-30.5 75.5q0 43 31 75t75 32q43 0 75 -31.5t32 -75.5
q0 -43 -31.5 -74.5t-75.5 -31.5z" />
    <glyph glyph-name="uni0629" unicode="&#x629;" horiz-adv-x="895" arabic-form="isolated" 
d="M421 0h-65q-52 1 -95.5 10.5t-106 44.5t-108.5 112.5t-46 183.5q0 141 56.5 254t146.5 172.5t185 59.5q96 0 183.5 -57.5t140.5 -167.5t53 -260q0 -110 -54.5 -193.5t-135 -121t-154.5 -37.5zM596 384q0 80 -28 147.5t-76.5 106.5t-107.5 39q-61 0 -112.5 -36t-81.5 -103
t-30 -154q0 -102 58.5 -153t172.5 -51q106 0 155.5 58.5t49.5 145.5zM234 1026q-45 0 -75.5 30.5t-30.5 75.5q0 44 31 75.5t75 31.5t75.5 -32t31.5 -75q0 -45 -32 -75.5t-75 -30.5zM519 1026q-45 0 -75.5 30.5t-30.5 75.5q0 44 31 75.5t75 31.5q41 0 73 -29t34 -78
q0 -43 -31.5 -74.5t-75.5 -31.5z" />
    <glyph glyph-name="uni062A" unicode="&#x62a;" horiz-adv-x="1802" arabic-form="isolated" 
d="M241 32q-105 28 -158 83.5t-68 113.5t-15 120q0 64 8 125.5t12 85.5l170 -16q-15 -96 -15 -140q0 -106 43 -146q42 -41 142.5 -59.5t273.5 -18.5h828v593h180v-773h-1115q-166 0 -286 32zM734 1026q-45 0 -75.5 30.5t-30.5 75.5q0 44 31 75.5t75 31.5t75.5 -32t31.5 -75
q0 -45 -32 -75.5t-75 -30.5zM1019 1026q-45 0 -75.5 30.5t-30.5 75.5q0 44 31 75.5t75 31.5q41 0 73 -29t34 -78q0 -43 -31.5 -74.5t-75.5 -31.5z" />
    <glyph glyph-name="uni062B" unicode="&#x62b;" horiz-adv-x="1802" arabic-form="isolated" 
d="M241 32q-105 28 -158 83.5t-68 113.5t-15 120q0 64 8 125.5t12 85.5l170 -16q-15 -96 -15 -140q0 -106 43 -146q42 -41 142.5 -59.5t273.5 -18.5h828v593h180v-773h-1115q-166 0 -286 32zM834 1294q-45 0 -75.5 30.5t-30.5 75.5q0 44 31 75.5t75 31.5q43 0 75 -31t32 -76
q0 -44 -31.5 -75t-75.5 -31zM693 1026q-45 0 -75.5 30.5t-30.5 75.5q0 44 31 75.5t75 31.5q43 0 75 -31t32 -76q0 -44 -31.5 -75t-75.5 -31zM978 1026q-45 0 -75.5 30.5t-30.5 75.5q0 44 31 75.5t75 31.5q43 0 75 -31t32 -76q0 -44 -31.5 -75t-75.5 -31z" />
    <glyph glyph-name="uni062C" unicode="&#x62c;" horiz-adv-x="1075" arabic-form="isolated" 
d="M593 -364q-41 0 -68.5 27.5t-27.5 67.5q0 39 28 68t68 29q38 0 67 -28.5t29 -68.5q0 -38 -28.5 -66.5t-67.5 -28.5zM498 -755q-149 0 -261 59t-174.5 161.5t-62.5 228.5q0 152 66 263q64 107 174.5 165t230.5 58h282q-40 37 -55 151t-36 171.5t-54 91.5q-60 67 -172 67
q-91 0 -207 -40v163q78 23 133.5 33.5t121.5 10.5q148 0 239.5 -89t107.5 -241q19 -163 52 -240.5t92 -77.5v-180h-544q-80 0 -140 -42.5t-87.5 -108.5t-27.5 -137q0 -80 38 -148t112.5 -108.5t177.5 -40.5q80 0 195 23v-164q-51 -14 -98.5 -21.5t-102.5 -7.5z" />
    <glyph glyph-name="uni062D" unicode="&#x62d;" horiz-adv-x="1075" arabic-form="isolated" 
d="M498 -755q-149 0 -261 59t-174.5 161.5t-62.5 228.5q0 152 66 263q64 107 174.5 165t230.5 58h282q-40 37 -55 151t-36 171.5t-54 91.5q-60 67 -172 67q-91 0 -207 -40v163q78 23 133.5 33.5t121.5 10.5q148 0 239.5 -89t107.5 -241q19 -163 52 -240.5t92 -77.5v-180
h-544q-80 0 -140 -42.5t-87.5 -108.5t-27.5 -137q0 -80 38 -148t112.5 -108.5t177.5 -40.5q80 0 195 23v-164q-51 -14 -98.5 -21.5t-102.5 -7.5z" />
    <glyph glyph-name="uni062E" unicode="&#x62e;" horiz-adv-x="1075" arabic-form="isolated" 
d="M498 -755q-149 0 -261 59t-174.5 161.5t-62.5 228.5q0 152 66 263q64 107 174.5 165t230.5 58h282q-40 37 -55 151t-36 171.5t-54 91.5q-60 67 -172 67q-91 0 -207 -40v163q78 23 133.5 33.5t121.5 10.5q148 0 239.5 -89t107.5 -241q19 -163 52 -240.5t92 -77.5v-180
h-544q-80 0 -140 -42.5t-87.5 -108.5t-27.5 -137q0 -80 38 -148t112.5 -108.5t177.5 -40.5q80 0 195 23v-164q-51 -14 -98.5 -21.5t-102.5 -7.5zM459 1026q-45 0 -75.5 30.5t-30.5 75.5q0 43 31 75t75 32t75.5 -31.5t31.5 -75.5t-31.5 -75t-75.5 -31z" />
    <glyph glyph-name="uni062F" unicode="&#x62f;" horiz-adv-x="940" arabic-form="isolated" 
d="M417 180q115 0 172 28t57 99q0 88 -84 202.5t-241 242.5l133 131q170 -149 263 -294.5t93 -268.5q0 -156 -95.5 -238t-275.5 -82h-368v180h346z" />
    <glyph glyph-name="uni0630" unicode="&#x630;" horiz-adv-x="910" arabic-form="isolated" 
d="M417 180q115 0 172 28t57 99q0 88 -84 202.5t-241 242.5l133 131q170 -149 263 -294.5t93 -268.5q0 -156 -95.5 -238t-275.5 -82h-368v180h346zM428 1026q-45 0 -75.5 30.5t-30.5 75.5q0 43 31 75t75 32t75.5 -31.5t31.5 -75.5t-31.5 -75t-75.5 -31z" />
    <glyph glyph-name="uni0631" unicode="&#x631;" horiz-adv-x="641" arabic-form="isolated" 
d="M273 -88q28 66 28 193v668h180v-621q0 -268 -106 -401q-106 -135 -376 -169l-18 172q105 14 182.5 48t109.5 110z" />
    <glyph glyph-name="uni0632" unicode="&#x632;" horiz-adv-x="652" arabic-form="isolated" 
d="M273 -88q28 66 28 193v668h180v-621q0 -268 -106 -401q-106 -135 -376 -169l-18 172q105 14 182.5 48t109.5 110zM390 1026q-45 0 -75.5 30.5t-30.5 75.5q0 43 31 75t75 32t75.5 -31.5t31.5 -75.5t-31.5 -75t-75.5 -31z" />
    <glyph glyph-name="uni0633" unicode="&#x633;" horiz-adv-x="2461" arabic-form="isolated" 
d="M1680 93q-27 -43 -69.5 -68t-102.5 -25h-109q-138 0 -243 59q-39 -236 -197 -362q-157 -126 -402 -126q-177 0 -303 70.5t-190 191t-64 267.5q0 90 27.5 193t79.5 189l152 -85q-34 -59 -52 -129.5t-18 -144.5q0 -111 48 -196t135 -132t199 -47q128 0 221.5 51
t143.5 147.5t50 231.5q0 66 -19.5 161.5t-54.5 175.5l177 50q23 -58 46 -162.5t28 -170.5q46 -28 104.5 -40t148.5 -12h55q35 0 52 31.5t17 75.5v377h181v-422q88 -62 248 -62h151v593h181v-773h-328q-88 0 -164 24t-129 69z" />
    <glyph glyph-name="uni0634" unicode="&#x634;" horiz-adv-x="2461" arabic-form="isolated" 
d="M1680 93q-27 -43 -69.5 -68t-102.5 -25h-109q-138 0 -243 59q-39 -236 -197 -362q-157 -126 -402 -126q-177 0 -303 70.5t-190 191t-64 267.5q0 90 27.5 193t79.5 189l152 -85q-34 -59 -52 -129.5t-18 -144.5q0 -111 48 -196t135 -132t199 -47q128 0 221.5 51
t143.5 147.5t50 231.5q0 66 -19.5 161.5t-54.5 175.5l177 50q23 -58 46 -162.5t28 -170.5q46 -28 104.5 -40t148.5 -12h55q35 0 52 31.5t17 75.5v377h181v-422q88 -62 248 -62h151v593h181v-773h-328q-88 0 -164 24t-129 69zM1625 1294q-45 0 -75.5 30.5t-30.5 75.5
q0 44 31 75.5t75 31.5q43 0 75 -31t32 -76q0 -44 -31.5 -75t-75.5 -31zM1484 1026q-45 0 -75.5 30.5t-30.5 75.5q0 44 31 75.5t75 31.5q43 0 75 -31t32 -76q0 -44 -31.5 -75t-75.5 -31zM1769 1026q-45 0 -75.5 30.5t-30.5 75.5q0 44 31 75.5t75 31.5q43 0 75 -31t32 -76
q0 -44 -31.5 -75t-75.5 -31z" />
    <glyph glyph-name="uni0635" unicode="&#x635;" horiz-adv-x="2697" arabic-form="isolated" 
d="M1158 71q-23 -165 -107 -277t-211.5 -167.5t-282.5 -55.5q-161 0 -287 63t-198 182.5t-72 283.5q0 98 27.5 197t79.5 185l152 -85q-34 -59 -52 -129.5t-18 -144.5q0 -109 46.5 -194t133 -133t202.5 -48q130 0 223.5 52t142.5 149t49 229q0 75 -20 164.5t-54 172.5l177 50
q26 -74 45 -157.5t27 -159.5q96 -68 262 -68q55 173 163 331q109 161 245 248t281 87q147 0 244.5 -63.5t144 -174t46.5 -254.5v-354h-1134q-64 0 -131.5 17t-123.5 54zM2092 670q-156 0 -293 -139q-139 -143 -199 -351h767v156q0 161 -68 247.5t-207 86.5z" />
    <glyph glyph-name="uni0636" unicode="&#x636;" horiz-adv-x="2697" arabic-form="isolated" 
d="M1158 71q-23 -165 -107 -277t-211.5 -167.5t-282.5 -55.5q-161 0 -287 63t-198 182.5t-72 283.5q0 98 27.5 197t79.5 185l152 -85q-34 -59 -52 -129.5t-18 -144.5q0 -109 46.5 -194t133 -133t202.5 -48q130 0 223.5 52t142.5 149t49 229q0 75 -20 164.5t-54 172.5l177 50
q26 -74 45 -157.5t27 -159.5q96 -68 262 -68q55 173 163 331q109 161 245 248t281 87q147 0 244.5 -63.5t144 -174t46.5 -254.5v-354h-1134q-64 0 -131.5 17t-123.5 54zM2092 670q-156 0 -293 -139q-139 -143 -199 -351h767v156q0 161 -68 247.5t-207 86.5zM1847 1026
q-45 0 -75.5 30.5t-30.5 75.5q0 43 31 75t75 32t75.5 -31.5t31.5 -75.5t-31.5 -75t-75.5 -31z" />
    <glyph glyph-name="uni0637" unicode="&#x637;" horiz-adv-x="1525" arabic-form="isolated" 
d="M251 180q37 114 92 214v1043h180v-792q101 103 204.5 152t215.5 49q144 0 241 -62t144 -173t47 -257v-354h-1375v180h251zM920 670q-157 0 -297 -144q-141 -143 -195 -346h767v160q0 157 -68.5 243.5t-206.5 86.5z" />
    <glyph glyph-name="uni0638" unicode="&#x638;" horiz-adv-x="1525" arabic-form="isolated" 
d="M251 180q37 114 92 214v1043h180v-792q101 103 204.5 152t215.5 49q144 0 241 -62t144 -173t47 -257v-354h-1375v180h251zM920 670q-157 0 -297 -144q-141 -143 -195 -346h767v160q0 157 -68.5 243.5t-206.5 86.5zM942 1026q-45 0 -75.5 30.5t-30.5 75.5q0 43 31 75
t75 32t75.5 -31.5t31.5 -75.5t-31.5 -75t-75.5 -31z" />
    <glyph glyph-name="uni0639" unicode="&#x639;" horiz-adv-x="983" arabic-form="isolated" 
d="M498 -755q-156 0 -268.5 61.5t-171 166.5t-58.5 221q0 161 76.5 279t218.5 174q-40 49 -62.5 115.5t-22.5 141.5q0 116 52.5 211t143.5 149.5t202 54.5q107 0 194 -25l-18 -188q-95 29 -201 29q-96 0 -151 -53t-55 -154q0 -70 34 -126.5t93.5 -89t131.5 -32.5h247v-180
h-449q-77 0 -135.5 -37.5t-90.5 -103t-32 -147.5q0 -81 36.5 -148.5t110.5 -108t181 -40.5q80 0 195 23v-164q-51 -14 -98.5 -21.5t-102.5 -7.5z" />
    <glyph glyph-name="uni063A" unicode="&#x63a;" horiz-adv-x="983" arabic-form="isolated" 
d="M498 -755q-156 0 -268.5 61.5t-171 166.5t-58.5 221q0 161 76.5 279t218.5 174q-40 49 -62.5 115.5t-22.5 141.5q0 116 52.5 211t143.5 149.5t202 54.5q107 0 194 -25l-18 -188q-95 29 -201 29q-96 0 -151 -53t-55 -154q0 -70 34 -126.5t93.5 -89t131.5 -32.5h247v-180
h-449q-77 0 -135.5 -37.5t-90.5 -103t-32 -147.5q0 -81 36.5 -148.5t110.5 -108t181 -40.5q80 0 195 23v-164q-51 -14 -98.5 -21.5t-102.5 -7.5zM569 1026q-45 0 -75.5 30.5t-30.5 75.5q0 43 31 75t75 32t75.5 -31.5t31.5 -75.5t-31.5 -75t-75.5 -31z" />
    <glyph glyph-name="uni0641" unicode="&#x641;" horiz-adv-x="2083" arabic-form="isolated" 
d="M61 138q-61 73 -61 224q0 73 20 198l170 -16q-2 -18 -8.5 -57t-6.5 -83q0 -106 43 -146q42 -41 142.5 -59.5t273.5 -18.5h585v6q-28 31 -46 90.5t-18 125.5q0 112 54.5 206t148 148.5t207.5 54.5q99 0 182 -40t134.5 -132t51.5 -222v-417h-1406q-351 0 -466 138z
M1541 637q-62 0 -111.5 -29t-78 -81.5t-28.5 -119.5q0 -71 34 -122.5t93 -78t134 -26.5h170v194q0 127 -54.5 195t-158.5 68zM1571 1026q-45 0 -75.5 30.5t-30.5 75.5q0 43 31 75t75 32t75.5 -31.5t31.5 -75.5t-31.5 -75t-75.5 -31z" />
    <glyph glyph-name="uni0642" unicode="&#x642;" horiz-adv-x="1456" arabic-form="isolated" 
d="M923 -3q-117 0 -211.5 46.5t-149 135.5t-54.5 211q0 120 55 215t152 148t219 53q125 0 208 -57t123.5 -157t40.5 -231v-310q0 -194 -83.5 -343.5t-239 -232.5t-362.5 -83q-190 0 -330 63t-215.5 182t-75.5 284q0 98 27.5 197t79.5 185l152 -85q-34 -59 -52 -129.5
t-18 -144.5q0 -121 58 -206.5t157.5 -127t231.5 -41.5q137 0 248 46.5t177 143.5t66 242v36q-91 -40 -204 -40zM902 637q-62 0 -111.5 -30t-78 -84t-28.5 -121q0 -105 71 -165.5t198 -60.5q46 0 94.5 8.5t79.5 21.5v87q0 344 -225 344zM751 1026q-45 0 -75.5 30.5
t-30.5 75.5q0 44 31 75.5t75 31.5t75.5 -32t31.5 -75q0 -45 -32 -75.5t-75 -30.5zM1036 1026q-45 0 -75.5 30.5t-30.5 75.5q0 44 31 75.5t75 31.5q41 0 73 -29t34 -78q0 -43 -31.5 -74.5t-75.5 -31.5z" />
    <glyph glyph-name="uni0643" unicode="&#x643;" horiz-adv-x="1802" arabic-form="isolated" 
d="M241 32q-123 33 -182 110.5t-59 219.5q0 73 20 198l170 -16q-2 -18 -8.5 -57t-6.5 -83q0 -106 43 -146q42 -41 142.5 -59.5t273.5 -18.5h828v1257h180v-1437h-1115q-166 0 -286 32zM796 646q-37 27 -57 67t-20 85q0 79 61.5 120.5t148.5 41.5q57 0 93 -7l-16 -101
q-40 7 -69 7q-117 0 -117 -87q0 -41 26.5 -69.5t62 -42.5t87.5 -14h32v-99h-367v99h135z" />
    <glyph glyph-name="uni0644" unicode="&#x644;" horiz-adv-x="1325" arabic-form="isolated" 
d="M1165 174q0 -170 -69.5 -307t-209 -216.5t-329.5 -79.5q-191 0 -316.5 75.5t-183 195.5t-57.5 258q0 95 28.5 196.5t78.5 185.5l152 -85q-34 -59 -52 -129.5t-18 -144.5q0 -100 42 -185.5t129.5 -137.5t210.5 -52q130 0 223.5 52t142.5 148.5t49 227.5v1261h179v-1263z
" />
    <glyph glyph-name="uni0645" unicode="&#x645;" horiz-adv-x="1304" arabic-form="isolated" 
d="M0 -181q0 153 65 260t206 182q63 34 68 38q58 218 172 353.5t275 135.5q118 0 206 -62t135 -159.5t47 -199.5q0 -104 -49.5 -189.5t-136.5 -136.5t-201 -51q-101 0 -189.5 33.5t-155.5 96.5q-136 -13 -201 -87t-65 -206q0 -236 114 -527l-168 -56q-49 151 -85.5 311
t-36.5 264zM762 170q135 0 192.5 41t57.5 135q0 53 -25 117t-78.5 109.5t-130.5 45.5q-72 0 -135.5 -50t-101 -134t-52.5 -166q25 -25 77 -46.5t106.5 -36.5t89.5 -15z" />
    <glyph glyph-name="uni0646" unicode="&#x646;" horiz-adv-x="1309" arabic-form="isolated" 
d="M1165 178q0 -180 -71.5 -315t-209 -213.5t-327.5 -78.5q-196 0 -321.5 79t-180.5 198.5t-55 251.5q0 93 27.5 194.5t79.5 187.5l152 -85q-34 -59 -52 -129.5t-18 -144.5q0 -112 48 -197t134.5 -131.5t199.5 -46.5q132 0 224.5 54t141.5 149.5t49 226.5q0 164 -74 337
l177 50q37 -104 56.5 -206.5t19.5 -180.5zM655 806q-45 0 -75.5 30.5t-30.5 75.5q0 43 31 75t75 32t75.5 -31.5t31.5 -75.5t-31.5 -75t-75.5 -31z" />
    <glyph glyph-name="uni0648" unicode="&#x648;" horiz-adv-x="1095" arabic-form="isolated" 
d="M766 37q-91 -40 -204 -40q-121 0 -213 46t-147 135t-55 212q0 121 55 215.5t152 147.5t219 53q124 0 207.5 -57t124 -157.5t40.5 -233.5v-185q0 -284 -168 -429.5t-488 -170.5l-19 173q209 15 337 91t159 200zM541 637q-62 0 -111.5 -29.5t-78 -83t-28.5 -122.5
q0 -105 71 -165.5t198 -60.5q46 0 94.5 8.5t79.5 21.5v98q0 333 -225 333z" />
    <glyph glyph-name="uni0649" unicode="&#x649;" horiz-adv-x="1482" arabic-form="isolated" 
d="M1152 597q-76 0 -139 -33.5t-63 -100.5q0 -40 36.5 -82t123.5 -107q85 -64 128.5 -122.5t43.5 -121.5q0 -102 -72 -210.5t-213 -181.5t-328 -73q-225 0 -377 78t-222 199t-70 254q0 105 31 203t85 173l152 -85q-44 -55 -66.5 -128.5t-22.5 -148.5q0 -116 60.5 -197
t170.5 -122t257 -41q104 0 204 30t164 86t64 129q0 42 -40 87t-119 104q-169 129 -169 269q0 103 54.5 174.5t143.5 107t193 35.5q100 0 220 -39l-46 -178q-96 42 -184 42z" />
    <glyph glyph-name="uni064A" unicode="&#x64a;" horiz-adv-x="1482" arabic-form="isolated" 
d="M1152 597q-76 0 -139 -33.5t-63 -100.5q0 -40 36.5 -82t123.5 -107q85 -64 128.5 -122.5t43.5 -121.5q0 -102 -72 -210.5t-213 -181.5t-328 -73q-225 0 -377 78t-222 199t-70 254q0 105 31 203t85 173l152 -85q-44 -55 -66.5 -128.5t-22.5 -148.5q0 -116 60.5 -197
t170.5 -122t257 -41q104 0 204 30t164 86t64 129q0 42 -40 87t-119 104q-169 129 -169 269q0 103 54.5 174.5t143.5 107t193 35.5q100 0 220 -39l-46 -178q-96 42 -184 42zM517 -784q-45 0 -75.5 30.5t-30.5 75.5q0 43 31 75t75 32q43 0 75 -31.5t32 -75.5
q0 -43 -31.5 -74.5t-75.5 -31.5zM802 -784q-45 0 -75.5 30.5t-30.5 75.5q0 43 31 75t75 32q43 0 75 -31.5t32 -75.5q0 -43 -31.5 -74.5t-75.5 -31.5z" />
    <glyph glyph-name="uni0671" unicode="&#x671;" horiz-adv-x="540" arabic-form="isolated" 
d="M360 1436v-1437h-180v1437h180zM137 1624v168h68v-50q23 31 59 50.5t75 19.5q65 0 99.5 -42t34.5 -107v-109h-418v70h82zM329 1746q-28 0 -57 -12.5t-47 -37t-18 -55.5v-17h198v37q0 45 -19.5 65t-56.5 20z" />
    <glyph glyph-name="uni0679" unicode="&#x679;" horiz-adv-x="1802" arabic-form="isolated" 
d="M241 32q-105 28 -158 83.5t-68 113.5t-15 120q0 64 8 125.5t12 85.5l170 -16q-15 -96 -15 -140q0 -106 43 -146q42 -41 142.5 -59.5t273.5 -18.5h828v593h180v-773h-1115q-166 0 -286 32zM670 958v475h88v-318q32 45 78 69.5t96 24.5q86 0 133 -54.5t47 -150.5v-137h-532
v91h90zM923 1121q-41 0 -76.5 -24t-58.5 -61t-28 -78h264v53q0 110 -101 110z" />
    <glyph glyph-name="uni067E" unicode="&#x67e;" horiz-adv-x="1802" arabic-form="isolated" 
d="M241 32q-105 28 -158 83.5t-68 113.5t-15 120q0 64 8 125.5t12 85.5l170 -16q-15 -96 -15 -140q0 -106 43 -146q42 -41 142.5 -59.5t273.5 -18.5h828v593h180v-773h-1115q-166 0 -286 32zM720 -406q-45 0 -75.5 30.5t-30.5 75.5q0 44 31 75.5t75 31.5q43 0 75 -31t32 -76
q0 -44 -31.5 -75t-75.5 -31zM1005 -406q-45 0 -75.5 30.5t-30.5 75.5q0 44 31 75.5t75 31.5q43 0 75 -31t32 -76q0 -44 -31.5 -75t-75.5 -31zM864 -662q-45 0 -75.5 30.5t-30.5 75.5q0 44 31 75.5t75 31.5q43 0 75 -31t32 -76q0 -44 -31.5 -75t-75.5 -31z" />
    <glyph glyph-name="uni0686" unicode="&#x686;" horiz-adv-x="1075" arabic-form="isolated" 
d="M467 -305q-41 0 -68.5 27.5t-27.5 67.5t28 68.5t68 28.5q38 0 67 -28t29 -69q0 -39 -28.5 -67t-67.5 -28zM724 -305q-41 0 -68.5 27.5t-27.5 67.5t28 68.5t68 28.5q38 0 67 -28t29 -69q0 -39 -28.5 -67t-67.5 -28zM596 -536q-40 0 -67.5 27.5t-27.5 68.5q0 39 28 67.5
t67 28.5t68 -28t29 -68t-28.5 -68t-68.5 -28zM498 -755q-149 0 -261 59t-174.5 161.5t-62.5 228.5q0 152 66 263q64 107 174.5 165t230.5 58h282q-40 37 -55 151t-36 171.5t-54 91.5q-60 67 -172 67q-91 0 -207 -40v163q78 23 133.5 33.5t121.5 10.5q148 0 239.5 -89
t107.5 -241q19 -163 52 -240.5t92 -77.5v-180h-544q-80 0 -140 -42.5t-87.5 -108.5t-27.5 -137q0 -80 38 -148t112.5 -108.5t177.5 -40.5q80 0 195 23v-164q-51 -14 -98.5 -21.5t-102.5 -7.5z" />
    <glyph glyph-name="uni0688" unicode="&#x688;" horiz-adv-x="940" arabic-form="isolated" 
d="M417 180q115 0 172 28t57 99q0 88 -84 202.5t-241 242.5l133 131q170 -149 263 -294.5t93 -268.5q0 -156 -95.5 -238t-275.5 -82h-368v180h346zM241 1118v475h88v-318q32 45 78 69.5t96 24.5q86 0 133 -54.5t47 -150.5v-137h-532v91h90zM494 1281q-41 0 -76.5 -24
t-58.5 -61t-28 -78h264v53q0 110 -101 110z" />
    <glyph glyph-name="uni0691" unicode="&#x691;" horiz-adv-x="762" arabic-form="isolated" 
d="M273 -88q28 66 28 193v668h180v-621q0 -268 -106 -401q-106 -135 -376 -169l-18 172q105 14 182.5 48t109.5 110zM160 1133v475h88v-318q32 45 78 69.5t96 24.5q86 0 133 -54.5t47 -150.5v-137h-532v91h90zM413 1296q-41 0 -76.5 -24t-58.5 -61t-28 -78h264v53
q0 110 -101 110z" />
    <glyph glyph-name="uni0698" unicode="&#x698;" horiz-adv-x="805" arabic-form="isolated" 
d="M273 -88q28 66 28 193v668h180v-621q0 -268 -106 -401q-106 -135 -376 -169l-18 172q105 14 182.5 48t109.5 110zM394 1294q-45 0 -75.5 30.5t-30.5 75.5q0 44 31 75.5t75 31.5q43 0 75 -31t32 -76q0 -44 -31.5 -75t-75.5 -31zM253 1026q-45 0 -75.5 30.5t-30.5 75.5
q0 44 31 75.5t75 31.5q43 0 75 -31t32 -76q0 -44 -31.5 -75t-75.5 -31zM538 1026q-45 0 -75.5 30.5t-30.5 75.5q0 44 31 75.5t75 31.5q43 0 75 -31t32 -76q0 -44 -31.5 -75t-75.5 -31z" />
    <glyph glyph-name="uni06A4" unicode="&#x6a4;" horiz-adv-x="2083" arabic-form="isolated" 
d="M61 138q-61 73 -61 224q0 73 20 198l170 -16q-2 -18 -8.5 -57t-6.5 -83q0 -106 43 -146q42 -41 142.5 -59.5t273.5 -18.5h585v6q-28 31 -46 90.5t-18 125.5q0 112 54.5 206t148 148.5t207.5 54.5q99 0 182 -40t134.5 -132t51.5 -222v-417h-1406q-351 0 -466 138z
M1541 637q-62 0 -111.5 -29t-78 -81.5t-28.5 -119.5q0 -71 34 -122.5t93 -78t134 -26.5h170v194q0 127 -54.5 195t-158.5 68zM1559 1294q-45 0 -75.5 30.5t-30.5 75.5q0 44 31 75.5t75 31.5q43 0 75 -31t32 -76q0 -44 -31.5 -75t-75.5 -31zM1418 1026q-45 0 -75.5 30.5
t-30.5 75.5q0 44 31 75.5t75 31.5q43 0 75 -31t32 -76q0 -44 -31.5 -75t-75.5 -31zM1703 1026q-45 0 -75.5 30.5t-30.5 75.5q0 44 31 75.5t75 31.5q43 0 75 -31t32 -76q0 -44 -31.5 -75t-75.5 -31z" />
    <glyph glyph-name="uni06A9" unicode="&#x6a9;" horiz-adv-x="1710" arabic-form="isolated" 
d="M0 362q0 73 20 198l170 -16q-15 -96 -15 -140q0 -81 27.5 -126.5t127 -71.5t307.5 -26h556q114 0 168.5 28.5t54.5 98.5q0 87 -89 184t-280 216l393 671l131 -92l-305 -534q156 -93 235 -202.5t79 -229.5q0 -155 -95.5 -237.5t-270.5 -82.5h-680q-237 0 -354.5 55
t-148.5 130.5t-31 176.5z" />
    <glyph glyph-name="uni06AF" unicode="&#x6af;" horiz-adv-x="1710" arabic-form="isolated" 
d="M1359 1422l-411 -663l-120 71l406 665zM0 362q0 73 20 198l170 -16q-15 -96 -15 -140q0 -84 27 -129t126.5 -70t310.5 -25h554q114 0 168.5 28.5t54.5 98.5q0 86 -89.5 183.5t-279.5 216.5l393 671l131 -92l-305 -534q156 -93 235 -202.5t79 -229.5q0 -155 -95.5 -237.5
t-270.5 -82.5h-684q-216 0 -332.5 45.5t-157 123.5t-40.5 193z" />
    <glyph glyph-name="uni06BA" unicode="&#x6ba;" horiz-adv-x="1295" arabic-form="isolated" 
d="M1165 178q0 -180 -71.5 -315t-209 -213.5t-327.5 -78.5q-196 0 -321.5 79t-180.5 198.5t-55 251.5q0 93 27.5 194.5t79.5 187.5l152 -85q-34 -59 -52 -129.5t-18 -144.5q0 -112 48 -197t134.5 -131.5t199.5 -46.5q132 0 224.5 54t141.5 149.5t49 226.5q0 164 -74 337
l177 50q37 -104 56.5 -206.5t19.5 -180.5z" />
    <glyph glyph-name="uni06BE" unicode="&#x6be;" horiz-adv-x="1470" arabic-form="isolated" 
d="M130 -193h-87q-43 79 -43 158q2 106 58.5 160.5t172.5 54.5h128q-61 113 -61 240q0 106 45 196.5t129 147.5l-52 13q8 27 30.5 69.5t52.5 86.5q321 -64 489 -144q170 -79 249 -200.5t79 -309.5q0 -34 -11 -279h-1011q-87 0 -125 -47.5t-43 -145.5zM826 436
q0 79 -22 137.5t-62.5 90t-92.5 31.5q-59 0 -103.5 -38.5t-67.5 -98.5t-23 -122q0 -79 32.5 -150.5t97.5 -105.5h172q27 50 48 125t21 131zM1154 298q0 133 -61 215t-176 113q48 -78 48 -198q0 -64 -14 -131.5t-36 -116.5h230q9 60 9 118z" />
    <glyph glyph-name="uni06C1" unicode="&#x6c1;" horiz-adv-x="895" arabic-form="isolated" 
d="M421 0h-65q-52 1 -95.5 10.5t-106 44.5t-108.5 112.5t-46 183.5q0 141 56.5 254t146.5 172.5t185 59.5q96 0 183.5 -57.5t140.5 -167.5t53 -260q0 -110 -54.5 -193.5t-135 -121t-154.5 -37.5zM596 384q0 80 -28 147.5t-76.5 106.5t-107.5 39q-61 0 -112.5 -36t-81.5 -103
t-30 -154q0 -102 58.5 -153t172.5 -51q106 0 155.5 58.5t49.5 145.5z" />
    <glyph glyph-name="uni06C2.fina" unicode="&#x6c2;" horiz-adv-x="777" 
d="M460 183q-45 60 -80.5 89.5t-71.5 29.5q-76 0 -124 -89q-47 -89 -47 -222v-48h-132q-5 22 -5 64q0 204 99 340q47 61 107 95t121 34q45 0 84.5 -24.5t71 -59t78.5 -96.5q47 -61 90 -88.5t86 -27.5h42q70 0 70 -51v-75q0 -54 -66 -54h-54q-75 0 -137.5 44t-131.5 139z
M249 807q-38 27 -62.5 73.5t-24.5 98.5q0 81 63.5 131.5t174.5 50.5q56 0 105 -8l-18 -114q-45 8 -78 8q-62 0 -97.5 -23.5t-35.5 -74.5q0 -37 24.5 -70.5t68.5 -52.5t103 -19h39v-112h-414v112h152z" />
    <glyph glyph-name="uni06C3.fina" unicode="&#x6c3;" horiz-adv-x="998" 
d="M621 151q-73 -44 -140 -63.5t-137 -19.5q-90 0 -169 35t-127 103.5t-48 162.5q0 125 89 216.5t222.5 148t304.5 99.5v106h179v-625q0 -51 10.5 -79t38 -41.5t79.5 -13.5h77q70 0 70 -51v-75q0 -54 -66 -54h-123q-113 0 -179.5 40t-80.5 111zM239 529q-70 -58 -70 -137
q0 -74 57 -115t153 -41q137 0 237 68v368q-95 -15 -204.5 -52.5t-172.5 -90.5zM401 1076q-45 0 -75.5 30.5t-30.5 75.5q0 44 31 75.5t75 31.5t75.5 -32t31.5 -75q0 -45 -32 -75.5t-75 -30.5zM686 1076q-45 0 -75.5 30.5t-30.5 75.5q0 44 31 75.5t75 31.5q41 0 73 -29t34 -78
q0 -43 -31.5 -74.5t-75.5 -31.5z" />
    <glyph glyph-name="uni06CC" unicode="&#x6cc;" horiz-adv-x="1482" arabic-form="isolated" 
d="M1152 597q-76 0 -139 -33.5t-63 -100.5q0 -40 36.5 -82t123.5 -107q85 -64 128.5 -122.5t43.5 -121.5q0 -102 -72 -210.5t-213 -181.5t-328 -73q-225 0 -377 78t-222 199t-70 254q0 105 31 203t85 173l152 -85q-44 -55 -66.5 -128.5t-22.5 -148.5q0 -116 60.5 -197
t170.5 -122t257 -41q104 0 204 30t164 86t64 129q0 42 -40 87t-119 104q-169 129 -169 269q0 103 54.5 174.5t143.5 107t193 35.5q100 0 220 -39l-46 -178q-96 42 -184 42z" />
    <glyph glyph-name="uni06D2" unicode="&#x6d2;" horiz-adv-x="1823" arabic-form="isolated" 
d="M336 379q-145 -61 -145 -134q0 -57 68.5 -84.5t180.5 -36t299 -8.5q226 0 481.5 18.5t479.5 59.5q-4 -43 -6.5 -90.5t-5.5 -93.5q-201 -38 -463 -58t-482 -20q-374 0 -558.5 69.5t-184.5 212.5q0 89 51.5 156.5t127.5 113t176 87.5l287 120l52 -159q-192 -81 -358 -153z
" />
    <glyph glyph-name="uni06D3" unicode="&#x6d3;" horiz-adv-x="1823" arabic-form="isolated" 
d="M336 379q-145 -61 -145 -134q0 -57 68.5 -84.5t180.5 -36t299 -8.5q226 0 481.5 18.5t479.5 59.5q-4 -43 -6.5 -90.5t-5.5 -93.5q-201 -38 -463 -58t-482 -20q-374 0 -558.5 69.5t-184.5 212.5q0 89 51.5 156.5t127.5 113t176 87.5l287 120l52 -159q-192 -81 -358 -153z
M225 929q-38 27 -62.5 73.5t-24.5 98.5q0 81 63.5 131.5t174.5 50.5q56 0 105 -8l-18 -114q-45 8 -78 8q-62 0 -97.5 -23.5t-35.5 -74.5q0 -37 24.5 -70.5t68.5 -52.5t103 -19h39v-112h-414v112h152z" />
    <glyph glyph-name="uni06D5.fina" unicode="&#x6d5;" horiz-adv-x="998" 
d="M621 151q-73 -44 -140 -63.5t-137 -19.5q-90 0 -169 35t-127 103.5t-48 162.5q0 125 89 216.5t222.5 148t304.5 99.5v106h179v-625q0 -51 10.5 -79t38 -41.5t79.5 -13.5h77q70 0 70 -51v-75q0 -54 -66 -54h-123q-113 0 -179.5 40t-80.5 111zM239 529q-70 -58 -70 -137
q0 -74 57 -115t153 -41q137 0 237 68v368q-95 -15 -204.5 -52.5t-172.5 -90.5z" />
    <glyph glyph-name="uniFB51" unicode="&#x671;" horiz-adv-x="512" arabic-form="final" 
d="M163 283v1153h180v-1083q0 -75 12 -112.5t33 -49t56 -11.5h70q70 0 70 -51v-75q0 -54 -66 -54h-104q-81 0 -138.5 37.5t-85 103t-27.5 142.5zM117 1624v168h68v-50q23 31 59 50.5t75 19.5q65 0 99.5 -42t34.5 -107v-109h-418v70h82zM309 1746q-28 0 -57 -12.5t-47 -37
t-18 -55.5v-17h198v37q0 45 -19.5 65t-56.5 20z" />
    <glyph glyph-name="uniFB57" unicode="&#x67e;" horiz-adv-x="1840" arabic-form="final" 
d="M1539 95q-62 -95 -168 -95h-844q-350 0 -466 138q-61 73 -61 224q0 73 20 198l170 -16q-2 -18 -8.5 -57t-6.5 -83q0 -106 43 -146q42 -41 142.5 -59.5t273.5 -18.5h694q32 0 50.5 28t18.5 79v485h181v-529q88 -63 255 -63h9q70 0 70 -51v-75q0 -54 -66 -54h-13
q-102 0 -172.5 25.5t-121.5 69.5zM686 -406q-45 0 -75.5 30.5t-30.5 75.5q0 44 31 75.5t75 31.5q43 0 75 -31t32 -76q0 -44 -31.5 -75t-75.5 -31zM971 -406q-45 0 -75.5 30.5t-30.5 75.5q0 44 31 75.5t75 31.5q43 0 75 -31t32 -76q0 -44 -31.5 -75t-75.5 -31zM830 -662
q-45 0 -75.5 30.5t-30.5 75.5q0 44 31 75.5t75 31.5q43 0 75 -31t32 -76q0 -44 -31.5 -75t-75.5 -31z" />
    <glyph glyph-name="uniFB58" unicode="&#x67e;" horiz-adv-x="670" arabic-form="initial" 
d="M-72 54v75q0 51 70 51h331v593h181v-773h-516q-66 0 -66 54zM250 -406q-45 0 -75.5 30.5t-30.5 75.5q0 44 31 75.5t75 31.5q43 0 75 -31t32 -76q0 -44 -31.5 -75t-75.5 -31zM535 -406q-45 0 -75.5 30.5t-30.5 75.5q0 44 31 75.5t75 31.5q43 0 75 -31t32 -76
q0 -44 -31.5 -75t-75.5 -31zM394 -662q-45 0 -75.5 30.5t-30.5 75.5q0 44 31 75.5t75 31.5q43 0 75 -31t32 -76q0 -44 -31.5 -75t-75.5 -31z" />
    <glyph glyph-name="uniFB59" unicode="&#x67e;" horiz-adv-x="713" arabic-form="medial" 
d="M412 95q-62 -95 -171 -95h-247q-66 0 -66 54v75q0 51 70 51h204q33 0 51 28.5t18 82.5v481h181v-530q92 -62 246 -62h17q70 0 70 -51v-75q0 -54 -66 -54h-13q-101 0 -170.5 25t-123.5 70zM212 -406q-45 0 -75.5 30.5t-30.5 75.5q0 44 31 75.5t75 31.5q43 0 75 -31t32 -76
q0 -44 -31.5 -75t-75.5 -31zM497 -406q-45 0 -75.5 30.5t-30.5 75.5q0 44 31 75.5t75 31.5q43 0 75 -31t32 -76q0 -44 -31.5 -75t-75.5 -31zM356 -662q-45 0 -75.5 30.5t-30.5 75.5q0 44 31 75.5t75 31.5q43 0 75 -31t32 -76q0 -44 -31.5 -75t-75.5 -31z" />
    <glyph glyph-name="uniFB67" unicode="&#x679;" horiz-adv-x="1840" arabic-form="final" 
d="M1539 95q-62 -95 -168 -95h-844q-350 0 -466 138q-61 73 -61 224q0 73 20 198l170 -16q-2 -18 -8.5 -57t-6.5 -83q0 -106 43 -146q42 -41 142.5 -59.5t273.5 -18.5h694q32 0 50.5 28t18.5 79v485h181v-529q88 -63 255 -63h9q70 0 70 -51v-75q0 -54 -66 -54h-13
q-102 0 -172.5 25.5t-121.5 69.5zM670 958v475h88v-318q32 45 78 69.5t96 24.5q86 0 133 -54.5t47 -150.5v-137h-532v91h90zM923 1121q-41 0 -76.5 -24t-58.5 -61t-28 -78h264v53q0 110 -101 110z" />
    <glyph glyph-name="uniFB68" unicode="&#x679;" horiz-adv-x="792" arabic-form="initial" 
d="M-72 54v75q0 51 70 51h331v593h181v-773h-516q-66 0 -66 54zM190 1057v475h88v-318q32 45 78 69.5t96 24.5q86 0 133 -54.5t47 -150.5v-137h-532v91h90zM443 1220q-41 0 -76.5 -24t-58.5 -61t-28 -78h264v53q0 110 -101 110z" />
    <glyph glyph-name="uniFB69" unicode="&#x679;" horiz-adv-x="713" arabic-form="medial" 
d="M412 95q-62 -95 -171 -95h-247q-66 0 -66 54v75q0 51 70 51h204q33 0 51 28.5t18 82.5v481h181v-530q92 -62 246 -62h17q70 0 70 -51v-75q0 -54 -66 -54h-13q-101 0 -170.5 25t-123.5 70zM189 1057v475h88v-318q32 45 78 69.5t96 24.5q86 0 133 -54.5t47 -150.5v-137
h-532v91h90zM442 1220q-41 0 -76.5 -24t-58.5 -61t-28 -78h264v53q0 110 -101 110z" />
    <glyph glyph-name="uniFB6B" unicode="&#x6a4;" horiz-adv-x="2088" arabic-form="final" 
d="M1586 33q-123 -16 -336 -24.5t-423 -8.5h-249q-250 0 -369 42t-164 120t-45 200q0 49 8 111.5t12 86.5l170 -16q-2 -18 -8.5 -57t-6.5 -83q0 -106 43 -146q42 -41 142.5 -59.5t273.5 -18.5h585l-1 4q-47 41 -75 105t-28 130q0 109 53.5 198.5t151.5 141.5t225 52
q104 0 185 -43t126.5 -123t45.5 -188q0 -63 -16.5 -128.5t-54.5 -148.5h259q70 0 70 -51v-75q0 -54 -66 -54h-131q-200 0 -377 33zM1720 424q0 74 -30.5 124.5t-79 75.5t-102.5 25q-58 0 -110.5 -24.5t-83 -72t-30.5 -113.5q0 -78 40.5 -136.5t106.5 -90.5t152 -32h58
q36 51 57.5 117.5t21.5 126.5zM1505 1294q-45 0 -75.5 30.5t-30.5 75.5q0 44 31 75.5t75 31.5q43 0 75 -31t32 -76q0 -44 -31.5 -75t-75.5 -31zM1364 1026q-45 0 -75.5 30.5t-30.5 75.5q0 44 31 75.5t75 31.5q43 0 75 -31t32 -76q0 -44 -31.5 -75t-75.5 -31zM1649 1026
q-45 0 -75.5 30.5t-30.5 75.5q0 44 31 75.5t75 31.5q43 0 75 -31t32 -76q0 -44 -31.5 -75t-75.5 -31z" />
    <glyph glyph-name="uniFB6C" unicode="&#x6a4;" horiz-adv-x="1185" arabic-form="initial" 
d="M-72 54v75q0 51 70 51h323v6q-28 31 -46 90.5t-18 125.5q0 117 55 210.5t148.5 146t209.5 52.5q113 0 195.5 -49t126 -138t43.5 -207v-417h-1041q-66 0 -66 54zM643 637q-62 0 -111 -29.5t-78 -81.5t-29 -119q0 -71 34 -122.5t93.5 -78t134.5 -26.5h169v191
q0 129 -54.5 197.5t-158.5 68.5zM634 1294q-45 0 -75.5 30.5t-30.5 75.5q0 44 31 75.5t75 31.5q43 0 75 -31t32 -76q0 -44 -31.5 -75t-75.5 -31zM493 1026q-45 0 -75.5 30.5t-30.5 75.5q0 44 31 75.5t75 31.5q43 0 75 -31t32 -76q0 -44 -31.5 -75t-75.5 -31zM778 1026
q-45 0 -75.5 30.5t-30.5 75.5q0 44 31 75.5t75 31.5q43 0 75 -31t32 -76q0 -44 -31.5 -75t-75.5 -31z" />
    <glyph glyph-name="uniFB6D" unicode="&#x6a4;" horiz-adv-x="1148" arabic-form="medial" 
d="M648 33q-77 -14 -224.5 -23.5t-294.5 -9.5h-135q-66 0 -66 54v75q0 51 70 51h281l-1 4q-44 38 -73.5 105.5t-29.5 129.5q0 109 56.5 201t154.5 141.5t219 49.5q100 0 181 -42t128.5 -123t47.5 -189q0 -63 -16.5 -128.5t-54.5 -148.5h259q70 0 70 -51v-75q0 -54 -66 -54
h-131q-102 0 -193 7t-182 26zM780 424q0 64 -26 115t-74 80.5t-112 29.5q-56 0 -109.5 -24.5t-84 -72t-30.5 -113.5q0 -78 40 -137t109.5 -90.5t149.5 -31.5h58q36 51 57.5 117.5t21.5 126.5zM553 1294q-45 0 -75.5 30.5t-30.5 75.5q0 44 31 75.5t75 31.5q43 0 75 -31
t32 -76q0 -44 -31.5 -75t-75.5 -31zM412 1026q-45 0 -75.5 30.5t-30.5 75.5q0 44 31 75.5t75 31.5q43 0 75 -31t32 -76q0 -44 -31.5 -75t-75.5 -31zM697 1026q-45 0 -75.5 30.5t-30.5 75.5q0 44 31 75.5t75 31.5q43 0 75 -31t32 -76q0 -44 -31.5 -75t-75.5 -31z" />
    <glyph glyph-name="uniFB7B" unicode="&#x686;" horiz-adv-x="1068" arabic-form="final" 
d="M498 -755q-140 0 -252.5 54.5t-179 161.5t-66.5 233q0 146 63 256t172.5 170t238.5 60h279q-44 44 -59 169q-11 97 -34.5 161.5t-77.5 107.5t-143 43q-101 0 -210 -40v163q97 27 143 35.5t112 8.5q100 0 174 -40.5t116.5 -112.5t55.5 -169q22 -187 56 -254q32 -72 88 -72
h96q70 0 70 -51v-75q0 -54 -66 -54h-639q-79 0 -138.5 -39.5t-90 -105t-30.5 -143.5q0 -87 42.5 -156t116 -105t169.5 -36q80 0 195 23v-164q-51 -14 -98.5 -21.5t-102.5 -7.5zM467 -305q-41 0 -68.5 27.5t-27.5 67.5t28 68.5t68 28.5q38 0 67 -28t29 -69q0 -39 -28.5 -67
t-67.5 -28zM724 -305q-41 0 -68.5 27.5t-27.5 67.5t28 68.5t68 28.5q38 0 67 -28t29 -69q0 -39 -28.5 -67t-67.5 -28zM596 -536q-40 0 -67.5 27.5t-27.5 68.5q0 39 28 67.5t67 28.5t68 -28t29 -68t-28.5 -68t-68.5 -28z" />
    <glyph glyph-name="uniFB7C" unicode="&#x686;" horiz-adv-x="1033" arabic-form="initial" 
d="M-72 54v75q0 51 64 51h719q-44 44 -59 169q-11 92 -34.5 158.5t-76.5 110t-144 43.5q-46 0 -108.5 -11.5t-101.5 -28.5v163q97 27 143 35.5t112 8.5q144 0 232 -83.5t114 -238.5q26 -194 56 -256q33 -70 89 -70v-180h-939q-66 0 -66 54zM349 -406q-45 0 -75.5 30.5
t-30.5 75.5q0 44 31 75.5t75 31.5q43 0 75 -31t32 -76q0 -44 -31.5 -75t-75.5 -31zM634 -406q-45 0 -75.5 30.5t-30.5 75.5q0 44 31 75.5t75 31.5q43 0 75 -31t32 -76q0 -44 -31.5 -75t-75.5 -31zM493 -662q-45 0 -75.5 30.5t-30.5 75.5q0 44 31 75.5t75 31.5q43 0 75 -31
t32 -76q0 -44 -31.5 -75t-75.5 -31z" />
    <glyph glyph-name="uniFB7D" unicode="&#x686;" horiz-adv-x="1026" arabic-form="medial" 
d="M-72 54v75q0 51 66 51h717q-44 44 -59 169q-21 171 -85.5 241.5t-169.5 70.5q-47 0 -110 -12t-100 -28v163q76 22 132 33t123 11q145 0 232 -82.5t114 -239.5q21 -153 32.5 -205.5t39 -86.5t70.5 -34h98q70 0 70 -51v-75q0 -54 -66 -54h-1038q-66 0 -66 54zM349 -406
q-45 0 -75.5 30.5t-30.5 75.5q0 44 31 75.5t75 31.5q43 0 75 -31t32 -76q0 -44 -31.5 -75t-75.5 -31zM634 -406q-45 0 -75.5 30.5t-30.5 75.5q0 44 31 75.5t75 31.5q43 0 75 -31t32 -76q0 -44 -31.5 -75t-75.5 -31zM493 -662q-45 0 -75.5 30.5t-30.5 75.5q0 44 31 75.5
t75 31.5q43 0 75 -31t32 -76q0 -44 -31.5 -75t-75.5 -31z" />
    <glyph glyph-name="uniFB89" unicode="&#x688;" horiz-adv-x="1099" arabic-form="final" 
d="M772 119q-94 -119 -311 -119h-368v180h349q116 0 171 28.5t55 98.5q0 88 -84 202.5t-241 242.5l133 131q170 -149 263 -294.5t93 -268.5q0 -40 -6 -69q48 -37 112 -54t154 -17h9q70 0 70 -51v-75q0 -54 -66 -54h-13q-105 0 -181 28t-139 91zM241 1118v475h88v-318
q32 45 78 69.5t96 24.5q86 0 133 -54.5t47 -150.5v-137h-532v91h90zM494 1281q-41 0 -76.5 -24t-58.5 -61t-28 -78h264v53q0 110 -101 110z" />
    <glyph glyph-name="uniFB8B" unicode="&#x698;" horiz-adv-x="716" arabic-form="final" 
d="M340 -287q-106 -100 -341 -131l-18 172q80 10 143.5 32.5t99.5 54.5q77 68 77 262v670h180v-593h237q70 0 70 -51v-75q0 -54 -66 -54h-251q-26 -189 -131 -287zM394 1294q-45 0 -75.5 30.5t-30.5 75.5q0 44 31 75.5t75 31.5q43 0 75 -31t32 -76q0 -44 -31.5 -75
t-75.5 -31zM253 1026q-45 0 -75.5 30.5t-30.5 75.5q0 44 31 75.5t75 31.5q43 0 75 -31t32 -76q0 -44 -31.5 -75t-75.5 -31zM538 1026q-45 0 -75.5 30.5t-30.5 75.5q0 44 31 75.5t75 31.5q43 0 75 -31t32 -76q0 -44 -31.5 -75t-75.5 -31z" />
    <glyph glyph-name="uniFB8D" unicode="&#x691;" horiz-adv-x="716" arabic-form="final" 
d="M340 -287q-106 -100 -341 -131l-18 172q80 10 143.5 32.5t99.5 54.5q77 68 77 262v670h180v-593h237q70 0 70 -51v-75q0 -54 -66 -54h-251q-26 -189 -131 -287zM160 1133v475h88v-318q32 45 78 69.5t96 24.5q86 0 133 -54.5t47 -150.5v-137h-532v91h90zM413 1296
q-41 0 -76.5 -24t-58.5 -61t-28 -78h264v53q0 110 -101 110z" />
    <glyph glyph-name="uniFB8F" unicode="&#x6a9;" horiz-adv-x="1853" arabic-form="final" 
d="M1523 122q-47 -60 -125.5 -91t-182.5 -31h-676q-229 0 -347.5 50t-155 127t-36.5 185q0 73 20 198l170 -16q-15 -96 -15 -140q0 -83 28 -128.5t127.5 -70.5t308.5 -25h554q114 0 168.5 28.5t54.5 98.5q0 86 -89.5 183.5t-279.5 216.5l393 671l131 -92l-305 -534
q156 -93 235 -202.5t79 -229.5q0 -24 -5 -65q50 -39 114.5 -57t153.5 -18h12q70 0 70 -51v-75q0 -54 -66 -54h-15q-104 0 -182 29.5t-139 92.5z" />
    <glyph glyph-name="uniFB90" unicode="&#x6a9;" horiz-adv-x="829" arabic-form="initial" 
d="M-72 54v75q0 51 70 51h316q111 0 166 28t55 99q0 86 -91.5 180t-283.5 205l399 686l131 -92l-305 -534q156 -93 235 -202.5t79 -229.5q0 -155 -94.5 -237.5t-271.5 -82.5h-339q-66 0 -66 54z" />
    <glyph glyph-name="uniFB91" unicode="&#x6a9;" horiz-adv-x="956" arabic-form="medial" 
d="M635 113q-47 -56 -123.5 -84.5t-178.5 -28.5h-339q-66 0 -66 54v75q0 51 70 51h316q111 0 166 28t55 99q0 86 -91.5 180t-283.5 205l399 686l131 -92l-305 -534q156 -93 235 -202.5t79 -229.5q0 -42 -7 -76q47 -32 108.5 -48t149.5 -16h8q70 0 70 -51v-75q0 -54 -66 -54
h-15q-103 0 -178 28t-134 85z" />
    <glyph glyph-name="uniFB93" unicode="&#x6af;" horiz-adv-x="1856" arabic-form="final" 
d="M1359 1422l-411 -663l-120 71l406 665zM1523 122q-47 -60 -125.5 -91t-182.5 -31h-676q-229 0 -347.5 50t-155 127t-36.5 185q0 73 20 198l170 -16q-15 -96 -15 -140q0 -83 28 -128.5t127.5 -70.5t308.5 -25h554q114 0 168.5 28.5t54.5 98.5q0 86 -89.5 183.5
t-279.5 216.5l393 671l131 -92l-305 -534q156 -93 235 -202.5t79 -229.5q0 -24 -5 -65q50 -39 114.5 -57t153.5 -18h12q70 0 70 -51v-75q0 -54 -66 -54h-15q-104 0 -182 29.5t-139 92.5z" />
    <glyph glyph-name="uniFB94" unicode="&#x6af;" horiz-adv-x="829" arabic-form="initial" 
d="M468 1422l-411 -663l-120 71l406 665zM-72 54v75q0 51 70 51h311q115 0 170.5 28t55.5 99q0 87 -91.5 181t-283.5 204l399 686l131 -92l-305 -534q156 -93 235 -202.5t79 -229.5q0 -156 -94.5 -238t-276.5 -82h-334q-66 0 -66 54z" />
    <glyph glyph-name="uniFB95" unicode="&#x6af;" horiz-adv-x="956" arabic-form="medial" 
d="M468 1422l-411 -663l-120 71l406 665zM635 113q-95 -113 -307 -113h-334q-66 0 -66 54v75q0 51 70 51h311q115 0 170.5 28t55.5 99q0 87 -91.5 181t-283.5 204l399 686l131 -92l-305 -534q156 -93 235 -202.5t79 -229.5q0 -42 -7 -76q41 -30 105.5 -47t148.5 -17h12
q70 0 70 -51v-75q0 -54 -66 -54h-13q-105 0 -180 27.5t-134 85.5z" />
    <glyph glyph-name="uniFB9F" unicode="&#x6ba;" horiz-adv-x="1437" arabic-form="final" 
d="M1158 77q-22 -158 -100 -271.5t-205 -174t-296 -60.5q-171 0 -297 67t-193 187t-67 275q0 91 27.5 193.5t79.5 188.5l152 -85q-34 -59 -52 -129.5t-18 -144.5q0 -109 46 -194t132.5 -133t203.5 -48q131 0 224.5 52t142 149t48.5 229q0 76 -20.5 168t-53.5 169l177 50
q24 -66 44 -151t28 -160q49 -40 113.5 -57t152.5 -17h12q70 0 70 -51v-75q0 -54 -66 -54h-13q-92 0 -156.5 19t-115.5 58z" />
    <glyph glyph-name="uniFBA5" unicode="&#x6c0;" horiz-adv-x="998" arabic-form="final" 
d="M621 151q-73 -44 -140 -63.5t-137 -19.5q-90 0 -169 35t-127 103.5t-48 162.5q0 125 89 216.5t222.5 148t304.5 99.5v106h179v-625q0 -51 10.5 -79t38 -41.5t79.5 -13.5h77q70 0 70 -51v-75q0 -54 -66 -54h-123q-113 0 -179.5 40t-80.5 111zM239 529q-70 -58 -70 -137
q0 -74 57 -115t153 -41q137 0 237 68v368q-95 -15 -204.5 -52.5t-172.5 -90.5zM378 1196q-38 27 -62.5 73.5t-24.5 98.5q0 81 63.5 131.5t174.5 50.5q56 0 105 -8l-18 -114q-45 8 -78 8q-62 0 -97.5 -23.5t-35.5 -74.5q0 -37 24.5 -70.5t68.5 -52.5t103 -19h39v-112h-414
v112h152z" />
    <glyph glyph-name="uniFBA7" unicode="&#x6c1;" horiz-adv-x="777" arabic-form="final" 
d="M460 183q-45 60 -80.5 89.5t-71.5 29.5q-76 0 -124 -89q-47 -89 -47 -222v-48h-132q-5 22 -5 64q0 204 99 340q47 61 107 95t121 34q45 0 84.5 -24.5t71 -59t78.5 -96.5q47 -61 90 -88.5t86 -27.5h42q70 0 70 -51v-75q0 -54 -66 -54h-54q-75 0 -137.5 44t-131.5 139z" />
    <glyph glyph-name="uniFBA8" unicode="&#x6c1;" horiz-adv-x="670" arabic-form="initial" 
d="M330 -428q-60 0 -94.5 41t-34.5 113q0 57 29.5 130t82.5 144h-319q-66 0 -66 54v75q0 51 70 51h331v593h181v-773h-73q-54 -68 -78 -123.5t-24 -107.5q0 -47 26.5 -74.5t69.5 -27.5h22q-39 -95 -123 -95z" />
    <glyph glyph-name="uniFBA9" unicode="&#x6c1;" horiz-adv-x="1028" arabic-form="medial" 
d="M823 -56q-80 -65 -126.5 -224.5t-47.5 -383.5q-199 67 -314.5 186.5t-115.5 272.5q0 99 29 205h-254q-66 0 -66 54v75q0 51 67 51h417q-53 -207 -53 -320q0 -109 44 -178.5t139 -105.5q12 271 129 438q60 82 142 124t180 42h37q70 0 70 -51v-75q0 -54 -66 -54h-63
q-38 0 -77 -13.5t-71 -42.5z" />
    <glyph glyph-name="uniFBAB" unicode="&#x6be;" horiz-adv-x="1300" arabic-form="final" 
d="M1075 -256q0 -103 -46 -179.5t-116 -117t-140 -40.5q-97 0 -195 54t-167 186.5t-70 352.5h-42q-82 0 -123.5 -45.5t-45.5 -147.5h-87q-17 31 -30 76q-13 43 -13 82q0 215 232 215h130q33 162 112 310q45 82 107 152t128 112t111 42q69 0 135.5 -55t100.5 -143.5
t34 -167.5q0 -74 -25.5 -136.5t-71.5 -108.5v-5h309q70 0 70 -51v-75q0 -54 -66 -54h-335v-5q104 -97 104 -251zM931 392q0 50 -20 101.5t-55.5 85t-70.5 33.5q-31 0 -91 -66q-64 -74 -108 -170t-54 -196h172q63 0 115 26.5t82 74.5t30 111zM785 -419q40 0 69 28t44 69.5
t15 82.5q0 59 -26.5 114.5t-75.5 90t-113 34.5h-193q0 -129 40 -225.5t106 -145t134 -48.5z" />
    <glyph glyph-name="uniFBAC" unicode="&#x6be;" horiz-adv-x="1392" arabic-form="initial" 
d="M130 -193h-87q-43 79 -43 158q2 106 58.5 160.5t172.5 54.5h128q-61 113 -61 240q0 106 45 196.5t129 147.5l-52 13q8 27 30.5 69.5t52.5 86.5q321 -64 489 -144q170 -79 249 -200.5t79 -309.5q0 -34 -11 -279h-1011q-87 0 -125 -47.5t-43 -145.5zM826 436
q0 79 -22 137.5t-62.5 90t-92.5 31.5q-59 0 -103.5 -38.5t-67.5 -98.5t-23 -122q0 -79 32.5 -150.5t97.5 -105.5h172q27 50 48 125t21 131zM1154 298q0 133 -61 215t-176 113q48 -78 48 -198q0 -64 -14 -131.5t-36 -116.5h230q9 60 9 118z" />
    <glyph glyph-name="uniFBAD" unicode="&#x6be;" horiz-adv-x="1179" arabic-form="medial" 
d="M954 -256q0 -101 -42 -173.5t-111.5 -118t-148.5 -45.5q-120 0 -223 73t-156 205.5t-53 314.5h-226q-66 0 -66 54v75q0 51 70 51h243q20 90 45.5 160.5t65.5 146.5q41 77 102 148t129 116t116 45q74 0 137.5 -55.5t98 -138.5t34.5 -172q0 -74 -25.5 -136.5t-71.5 -108.5
v-5h309q70 0 70 -51v-75q0 -54 -66 -54h-335v-5q104 -97 104 -251zM810 392q0 50 -18 97t-54 85t-74 38q-21 0 -61 -36t-77 -91.5t-60 -107.5q-48 -106 -55 -197h170q62 0 114.5 26t83.5 74.5t31 111.5zM664 -419q40 0 69 28t44 69.5t15 82.5q0 63 -27.5 118t-78.5 88
t-112 33h-190q0 -132 40.5 -228t106 -143.5t133.5 -47.5z" />
    <glyph glyph-name="uniFBAF" unicode="&#x6d2;" horiz-adv-x="920" arabic-form="final" 
d="M170 -141q0 -72 88.5 -108t205 -46t253.5 -10q463 0 934 68q-13 -137 -15 -171q-188 -32 -428.5 -52.5t-525.5 -20.5q-342 0 -512 84t-170 241q0 165 175.5 250.5t493.5 85.5h253q70 0 70 -51v-75q0 -54 -66 -54h-371q-184 0 -284.5 -39t-100.5 -102z" />
    <glyph glyph-name="uniFBB1" unicode="&#x6d3;" horiz-adv-x="920" arabic-form="final" 
d="M170 -141q0 -72 88.5 -108t205 -46t253.5 -10q463 0 934 68q-13 -137 -15 -171q-188 -32 -428.5 -52.5t-525.5 -20.5q-342 0 -512 84t-170 241q0 165 175.5 250.5t493.5 85.5h253q70 0 70 -51v-75q0 -54 -66 -54h-371q-184 0 -284.5 -39t-100.5 -102zM248 554
q-38 27 -62.5 73.5t-24.5 98.5q0 81 63.5 131.5t174.5 50.5q56 0 105 -8l-18 -114q-45 8 -78 8q-62 0 -97.5 -23.5t-35.5 -74.5q0 -37 24.5 -70.5t68.5 -52.5t103 -19h39v-112h-414v112h152z" />
    <glyph glyph-name="uniFBE8" unicode="&#x649;" horiz-adv-x="670" arabic-form="initial" 
d="M-72 54v75q0 51 70 51h331v593h181v-773h-516q-66 0 -66 54z" />
    <glyph glyph-name="uniFBE9" unicode="&#x649;" horiz-adv-x="713" arabic-form="medial" 
d="M412 95q-62 -95 -171 -95h-247q-66 0 -66 54v75q0 51 70 51h204q33 0 51 28.5t18 82.5v481h181v-530q92 -62 246 -62h17q70 0 70 -51v-75q0 -54 -66 -54h-13q-101 0 -170.5 25t-123.5 70z" />
    <glyph glyph-name="uniFBFD" unicode="&#x6cc;" horiz-adv-x="1971" arabic-form="final" 
d="M1598 282v321h-46q-156 0 -215 -60q-58 -58 -58 -180v-296q0 -140 -79 -255t-219.5 -181t-309.5 -66q-240 0 -391 84t-215.5 207t-64.5 241q0 103 30 202t86 173l148 -81q-41 -57 -63 -131t-22 -149q0 -117 59.5 -198t169.5 -122t259 -41q114 0 213 35.5t159 103
t60 158.5v333q0 195 102 294.5t305 99.5h272v-422q0 -67 10 -104t33 -52.5t65 -15.5h97q70 0 70 -51v-75q0 -54 -66 -54h-129q-87 0 -145.5 38.5t-86.5 102.5t-28 141z" />
    <glyph glyph-name="uniFBFE" unicode="&#x6cc;" horiz-adv-x="784" arabic-form="initial" 
d="M-72 54v75q0 51 70 51h331v593h181v-773h-516q-66 0 -66 54zM232 -406q-45 0 -75.5 30.5t-30.5 75.5q0 43 31 75t75 32q43 0 75 -31.5t32 -75.5q0 -43 -31.5 -74.5t-75.5 -31.5zM517 -406q-45 0 -75.5 30.5t-30.5 75.5q0 43 31 75t75 32q43 0 75 -31.5t32 -75.5
q0 -43 -31.5 -74.5t-75.5 -31.5z" />
    <glyph glyph-name="uniFBFF" unicode="&#x6cc;" horiz-adv-x="713" arabic-form="medial" 
d="M412 95q-62 -95 -171 -95h-247q-66 0 -66 54v75q0 51 70 51h204q33 0 51 28.5t18 82.5v481h181v-530q92 -62 246 -62h17q70 0 70 -51v-75q0 -54 -66 -54h-13q-101 0 -170.5 25t-123.5 70zM223 -406q-45 0 -75.5 30.5t-30.5 75.5q0 43 31 75t75 32q43 0 75 -31.5t32 -75.5
q0 -43 -31.5 -74.5t-75.5 -31.5zM508 -406q-45 0 -75.5 30.5t-30.5 75.5q0 43 31 75t75 32q43 0 75 -31.5t32 -75.5q0 -43 -31.5 -74.5t-75.5 -31.5z" />
    <glyph glyph-name="uni064C0651" unicode="&#xfc5e;" horiz-adv-x="0" arabic-form="isolated" 
d="M272 1590q0 -43 -19 -79.5t-55.5 -58t-81.5 -21.5q-34 0 -64 17t-52 44q-22 -28 -53 -44.5t-66 -16.5q-73 0 -114 45.5t-41 110.5v152h77v-155q0 -35 22.5 -55.5t57.5 -20.5q33 0 56.5 23.5t23.5 53.5v132h72v-132q0 -30 23.5 -53.5t56.5 -23.5q32 0 56 19t24 57v156h77
v-150zM-161 2063q94 -128 186 -128q36 0 77 16q-37 27 -56 63t-19 73t17.5 69t48.5 51.5t68 19.5q54 0 90.5 -32.5t36.5 -101.5q0 -68 -43.5 -120t-105.5 -79.5t-116 -27.5q-116 0 -185 104l-86 -82l-42 46q40 41 74.5 74.5t54.5 54.5zM224 2089q0 33 -19 52t-45 19
q-28 0 -48 -19t-20 -52q0 -60 64 -109q68 47 68 109z" />
    <glyph glyph-name="uni064D0651" unicode="&#xfc5f;" horiz-adv-x="0" arabic-form="isolated" 
d="M272 1993q0 -43 -19 -79.5t-55.5 -58t-81.5 -21.5q-34 0 -64 17t-52 44q-22 -28 -53 -44.5t-66 -16.5q-73 0 -114 45.5t-41 110.5v152h77v-155q0 -35 22.5 -55.5t57.5 -20.5q33 0 56.5 23.5t23.5 53.5v132h72v-132q0 -30 23.5 -53.5t56.5 -23.5q32 0 56 19t24 57v156h77
v-150zM214 1699v-81h-433v81h433zM214 1512v-81h-433v81h433z" />
    <glyph glyph-name="uni064E0651" unicode="&#xfc60;" horiz-adv-x="0" arabic-form="isolated" 
d="M272 1590q0 -43 -19 -79.5t-55.5 -58t-81.5 -21.5q-34 0 -64 17t-52 44q-22 -28 -53 -44.5t-66 -16.5q-73 0 -114 45.5t-41 110.5v152h77v-155q0 -35 22.5 -55.5t57.5 -20.5q33 0 56.5 23.5t23.5 53.5v132h72v-132q0 -30 23.5 -53.5t56.5 -23.5q32 0 56 19t24 57v156h77
v-150zM214 1937v-81h-433v81h433z" />
    <glyph glyph-name="uni064F0651" unicode="&#xfc61;" horiz-adv-x="0" arabic-form="isolated" 
d="M272 1590q0 -43 -19 -79.5t-55.5 -58t-81.5 -21.5q-34 0 -64 17t-52 44q-22 -28 -53 -44.5t-66 -16.5q-73 0 -114 45.5t-41 110.5v152h77v-155q0 -35 22.5 -55.5t57.5 -20.5q33 0 56.5 23.5t23.5 53.5v132h72v-132q0 -30 23.5 -53.5t56.5 -23.5q32 0 56 19t24 57v156h77
v-150zM-11 1935q18 0 41 4t42 12q-74 58 -74 136q0 37 17.5 69t48.5 51.5t68 19.5q54 0 90.5 -32.5t36.5 -101.5t-46 -121q-45 -52 -106 -79t-122 -27q-105 0 -201 32l16 68q51 -17 94 -24t95 -7zM195 2089q0 33 -19 52t-45 19q-28 0 -48 -20t-20 -51q0 -60 64 -109
q68 47 68 109z" />
    <glyph glyph-name="uni06500651" unicode="&#xfc62;" horiz-adv-x="0" arabic-form="isolated" 
d="M272 1795q0 -43 -19 -79.5t-55.5 -58t-81.5 -21.5q-34 0 -64 17t-52 44q-22 -28 -53 -44.5t-66 -16.5q-73 0 -114 45.5t-41 110.5v152h77v-155q0 -35 22.5 -55.5t57.5 -20.5q33 0 56.5 23.5t23.5 53.5v132h72v-132q0 -30 23.5 -53.5t56.5 -23.5q32 0 56 19t24 57v156h77
v-150zM214 1512v-81h-433v81h433z" />
    <glyph glyph-name="uni06510670" unicode="&#xfc63;" horiz-adv-x="302" arabic-form="isolated" 
d="M272 1590q0 -43 -19 -79.5t-55.5 -58t-81.5 -21.5q-34 0 -64 17t-52 44q-22 -28 -53 -44.5t-66 -16.5q-73 0 -114 45.5t-41 110.5v152h77v-155q0 -35 22.5 -55.5t57.5 -20.5q33 0 56.5 23.5t23.5 53.5v132h72v-132q0 -30 23.5 -53.5t56.5 -23.5q32 0 56 19t24 57v156h77
v-150zM40 2217v-356h-87v356h87z" />
    <glyph glyph-name="uniFDF2" unicode="&#xfdf2;" horiz-adv-x="2879" arabic-form="isolated" 
d="M1431 96q-29 -47 -72 -71.5t-96 -24.5h-389q-214 0 -253 151q-73 -46 -140 -64.5t-137 -18.5q-93 0 -171.5 35t-125.5 103t-47 163q0 129 89.5 218.5t222.5 145t304 100.5v106h179v-629q0 -48 11 -76t38.5 -41t76.5 -13h294q74 0 74 110v1147h181v-1193q91 -64 246 -64
h307v1257h180v-1437h-488q-88 0 -157.5 24t-126.5 72zM2699 1436v-1437h-180v1437h180zM616 304v368q-134 -29 -221 -58.5t-156.5 -83.5t-69.5 -138q0 -74 57 -115t153 -41q137 0 237 68z" />
    <glyph glyph-name="uniFDFA" unicode="&#xfdfa;" horiz-adv-x="2165" arabic-form="isolated" 
d="M1702 16l35 74q24 -74 24 -108q0 -67 -22.5 -101.5t-67.5 -34.5q-46 0 -98 39q-31 -53 -121 -53q-98 0 -98 53q-44 -32 -143 -51.5t-235 -19.5q-229 0 -321 77t-96 238l-42 -63q-38 -55 -56 -56q3 -3 14 -30q10 -26 10 -54q0 -41 -20.5 -71.5t-54.5 -30.5q-40 0 -125 47
q-17 -41 -52 -72q-36 -33 -75 -33q-38 0 -74 -14q-12 0 -12 10q0 12 52 33q54 22 75 37l48 36l23 17q-20 36 -20 81q0 46 37 86q38 42 69 42q6 0 30 -12t42 -12q24 0 46 18q24 21 32 35l43 80q-98 27 -138 82t-55 147h-4q-60 -102 -162 -102q-36 0 -75 14q-37 13 -37 28
q0 50 85 114q84 65 177 94l-4 34l41 68v-2q17 -219 43 -285q28 -66 115 -94l-27 270l39 87l35 -367q120 -12 194 -12q212 0 363 81l16 45q14 33 23 33q8 0 8 -18q0 -19 -8 -51q72 -72 120 -72q56 0 86 88l-26 330h-9q-72 0 -114.5 37.5t-56.5 113.5h-4q-16 -65 -36.5 -101
t-47.5 -46l4 -4h29q114 0 114 -80q0 -41 -26 -73q-26 -31 -135 -86q-109 -56 -218 -56q-95 0 -152 48t-57 134q0 64 33 137q-29 8 -48 29.5t-30 58.5h-4q-31 -104 -113 -104q-48 0 -72 36t-24 110v12l-59 -52q-13 -12 -76 -12q-100 0 -100 37q0 21 27 64q29 45 46 53l160 78
v20l35 74l8 -240q3 -92 66 -92q34 0 65 25q33 26 29 53l-33 223l37 80q32 -178 53 -309q10 -64 72 -64q47 0 47 28q0 38 -32 143l-42 140l27 68q82 -252 82 -322q0 -40 -23 -94q-23 -53 -49 -53q-12 0 -18 6q-15 -42 -15 -80q0 -153 187 -153q102 0 195 45q92 44 100 59
q-4 13 -98 28l-105 17q-8 6 -8 17q0 16 17 41q17 24 19 24t36 17q59 31 85 67q11 17 11 57q0 188 -41 469l34 114q37 -324 68 -484q32 -153 158 -174l-10 196l43 92l16 -286q54 18 123 73q40 -30 71 -48t70 -25q50 52 147 122q95 68 131 68q38 0 87 -31q49 -30 49 -65
q0 -26 -27 -70q-24 -39 -49 -61q-27 -21 -97 -38t-161 -17q-49 0 -98 4q-49 -97 -78 -97q-8 0 -8 13q0 29 45 96q-85 33 -99 53q-43 -28 -66.5 -40.5t-35.5 -12.5q14 -273 48 -354q35 -80 175 -88l4 4q-43 31 -43 88q0 63 55 142t136 79q56 0 108 -35q51 -34 51 -63
q-59 18 -108 18q-74 0 -130 -28q-56 -29 -56 -56q0 -32 58 -87q54 -51 85 -51q29 0 137 35q100 31 137 52l-34 -76q-205 -108 -392 -108q-195 0 -243 149q-60 -133 -117 -133q-53 0 -137 90q-130 -115 -404 -115q-74 0 -143 11q15 -138 51 -190q36 -54 130.5 -81.5
t244.5 -27.5q232 0 338 65q16 39 30 57.5t28 18.5q7 0 7 -16q0 -30 -24 -91q12 -26 56 -26q51 0 99 24q24 73 40 104.5t29 31.5q7 -4 7 -23q0 -34 -20 -88q65 -27 90 -27q12 0 16 6v3q0 13 -16 77zM1669 1444l-12 -45l-400 -197l9 51zM664 1362q0 -66 -43 -66q-26 0 -43 17
q-16 -14 -32.5 -22.5t-29.5 -8.5q-43 0 -43 57q0 23 2 41q2 7 3.5 10.5t5 7t8.5 7.5v-14q0 -62 34 -62q22 0 39 33l-4 47l19 29l8 -63q5 -32 30 -32q24 0 24 24l-7 52l14 21q15 -37 15 -78zM975 915q-3 -69 -9.5 -104.5t-17.5 -43.5l-51 495l45 116zM1716 1187
q-164 -81 -164 -108q0 -23 54 -51l-19 -49q-67 22 -67 82q0 57 44 84q38 24 182 100q131 69 259 115l-18 -51q-113 -43 -271 -122zM281 952q-48 -21 -48 -40q0 -21 52 -21q59 0 104 27l-2 79q-50 -21 -106 -45zM1757 791q92 0 180 18q88 19 88 51q0 13 -36 32q-34 19 -55 19
q-39 0 -110 -42q-66 -39 -108 -76q2 0 13 -1t28 -1zM250 496q-84 -39 -84 -64q0 -20 62 -20q71 0 122 49q0 9 -2 45l-2 33q-14 -4 -96 -43zM1939 -82q-27 0 -50 29t-23 61q0 47 33 107q33 61 55 61q28 0 68 -54q42 -52 42 -118q0 -104 -84 -228t-178 -124q-42 0 -120 32
q-76 31 -76 48q0 8 10 8q9 0 55 -15q45 -16 76 -16q136 0 283 217l-15 45q-36 -53 -76 -53zM922 84l59 72l96 -72l56 68l100 -76l-53 -64l-99 72l-57 -74zM1986 70q-13 16 -34 16q-16 0 -26 -13q-11 -14 -15 -38q3 -18 19 -27q16 -10 43 -10q16 0 23 6q7 4 9 16
q-6 34 -19 50zM397 -15q-41 35 -79 35q-12 0 -19.5 -6t-7.5 -18q0 -25 52 -55q52 -31 81 -31q14 0 14 10q0 29 -41 65zM844 -367q59 0 92 5q30 4 85 38q54 33 73 33q16 0 38 -16q23 -17 28 -17q30 0 34 31q6 31 25 31q8 0 8 -13v-7q0 -8 -3 -10q3 -5 11.5 -9t12.5 -4
q25 0 25 28q0 27 20 29q1 -8 1 -23q0 -40 -12 -50q-13 -15 -43 -15q-16 0 -29 8q-29 -32 -61 -32q-15 0 -34 17q-17 17 -25 17q-16 0 -77 -35q-58 -36 -145 -36q-83 0 -88 15v2q4 13 64 13z" />
    <glyph glyph-name="uniFE82" unicode="&#x622;" horiz-adv-x="527" arabic-form="final" 
d="M150 283v1153h180v-1083q0 -75 12 -112.5t33 -49t56 -11.5h70q70 0 70 -51v-75q0 -54 -66 -54h-104q-81 0 -138.5 37.5t-85 103t-27.5 142.5zM519 1536q-42 -32 -117 -32q-42 0 -81.5 13.5t-109.5 43.5q-69 29 -105 40t-71 11q-30 0 -51.5 -8.5t-44.5 -33.5l-54 63
q42 45 80 64.5t97 19.5q32 0 75.5 -13.5t111.5 -42.5q121 -54 169 -54q39 0 64.5 22t41.5 70l75 -35q-20 -50 -39 -81t-41 -47z" />
    <glyph glyph-name="uniFE84" unicode="&#x623;" horiz-adv-x="512" arabic-form="final" 
d="M163 283v1153h180v-1083q0 -75 12 -112.5t33 -49t56 -11.5h70q70 0 70 -51v-75q0 -54 -66 -54h-104q-81 0 -138.5 37.5t-85 103t-27.5 142.5zM204 1645q-29 20 -47 55t-18 74q0 59 48 97.5t130 38.5q40 0 78 -6l-13 -85q-24 6 -58 6q-47 0 -73.5 -17.5t-26.5 -56.5
q0 -28 19 -54t54 -39t70 -13h33v-84h-310v84h114z" />
    <glyph glyph-name="uniFE86" unicode="&#x624;" horiz-adv-x="1161" arabic-form="final" 
d="M289 -427l-19 173q203 14 326.5 79t156.5 175h-173q-136 0 -234 51t-148.5 139.5t-50.5 199.5q0 121 54.5 215.5t152 147.5t219.5 53q120 0 205.5 -56.5t126 -157.5t40.5 -235v-177h218q70 0 70 -51v-75q0 -54 -66 -54h-235q-34 -144 -124 -233t-220 -132.5t-299 -61.5z
M541 637q-62 0 -111.5 -29.5t-78 -83t-28.5 -122.5q0 -105 70 -163.5t188 -58.5h185v127q0 158 -55 244t-170 86zM465 1131q-38 27 -62.5 73.5t-24.5 98.5q0 81 63.5 131.5t174.5 50.5q56 0 105 -8l-18 -114q-45 8 -78 8q-62 0 -97.5 -23.5t-35.5 -74.5q0 -37 24.5 -70.5
t68.5 -52.5t103 -19h39v-112h-414v112h152z" />
    <glyph glyph-name="uniFE88" unicode="&#x625;" horiz-adv-x="499" arabic-form="final" 
d="M150 283v1153h180v-1083q0 -75 12 -112.5t33 -49t56 -11.5h70q70 0 70 -51v-75q0 -54 -66 -54h-104q-81 0 -138.5 37.5t-85 103t-27.5 142.5zM189 -410q-29 20 -47 55t-18 74q0 61 48.5 98.5t129.5 37.5q40 0 78 -6l-13 -85q-24 6 -58 6q-47 0 -73.5 -18t-26.5 -56
q0 -30 19 -55t54.5 -38.5t81.5 -12.5h21v-84h-310v84h114z" />
    <glyph glyph-name="uniFE8A" unicode="&#x626;" horiz-adv-x="2033" arabic-form="final" 
d="M1650 282v321h-46q-156 0 -215 -60q-58 -58 -58 -180v-296q0 -140 -79 -255t-219.5 -181t-309.5 -66q-240 0 -391 84t-215.5 207t-64.5 241q0 103 30 202t86 173l148 -81q-41 -57 -63 -131t-22 -149q0 -117 59.5 -198t169.5 -122t259 -41q114 0 213 35.5t159 103
t60 158.5v333q0 195 102 294.5t305 99.5h272v-422q0 -67 10 -104t33 -52.5t65 -15.5h97q70 0 70 -51v-75q0 -54 -66 -54h-129q-87 0 -145.5 38.5t-86.5 102.5t-28 141zM152 714q-38 27 -62.5 73.5t-24.5 98.5q0 81 63.5 131.5t174.5 50.5q56 0 105 -8l-18 -114q-45 8 -78 8
q-62 0 -97.5 -23.5t-35.5 -74.5q0 -37 24.5 -70.5t68.5 -52.5t103 -19h39v-112h-414v112h152z" />
    <glyph glyph-name="uniFE8B" unicode="&#x626;" horiz-adv-x="670" arabic-form="initial" 
d="M-72 54v75q0 51 70 51h331v593h181v-773h-516q-66 0 -66 54zM333 1041q-38 27 -62.5 73.5t-24.5 98.5q0 81 63.5 131.5t174.5 50.5q56 0 105 -8l-18 -114q-45 8 -78 8q-62 0 -97.5 -23.5t-35.5 -74.5q0 -37 24.5 -70.5t68.5 -52.5t103 -19h39v-112h-414v112h152z" />
    <glyph glyph-name="uniFE8C" unicode="&#x626;" horiz-adv-x="713" arabic-form="medial" 
d="M412 95q-62 -95 -171 -95h-247q-66 0 -66 54v75q0 51 70 51h204q33 0 51 28.5t18 82.5v481h181v-530q92 -62 246 -62h17q70 0 70 -51v-75q0 -54 -66 -54h-13q-101 0 -170.5 25t-123.5 70zM291 1041q-38 27 -62.5 73.5t-24.5 98.5q0 81 63.5 131.5t174.5 50.5q56 0 105 -8
l-18 -114q-45 8 -78 8q-62 0 -97.5 -23.5t-35.5 -74.5q0 -37 24.5 -70.5t68.5 -52.5t103 -19h39v-112h-414v112h152z" />
    <glyph glyph-name="uniFE8E" unicode="&#x627;" horiz-adv-x="509" arabic-form="final" 
d="M160 283v1153h180v-1083q0 -75 12 -112.5t33 -49t56 -11.5h70q70 0 70 -51v-75q0 -54 -66 -54h-104q-81 0 -138.5 37.5t-85 103t-27.5 142.5z" />
    <glyph glyph-name="uniFE90" unicode="&#x628;" horiz-adv-x="1840" arabic-form="final" 
d="M1539 95q-62 -95 -168 -95h-844q-350 0 -466 138q-61 73 -61 224q0 73 20 198l170 -16q-2 -18 -8.5 -57t-6.5 -83q0 -106 43 -146q42 -41 142.5 -59.5t273.5 -18.5h694q32 0 50.5 28t18.5 79v485h181v-529q88 -63 255 -63h9q70 0 70 -51v-75q0 -54 -66 -54h-13
q-102 0 -172.5 25.5t-121.5 69.5zM822 -406q-45 0 -75.5 30.5t-30.5 75.5q0 43 31 75t75 32q43 0 75 -31.5t32 -75.5q0 -43 -31.5 -74.5t-75.5 -31.5z" />
    <glyph glyph-name="uniFE91" unicode="&#x628;" horiz-adv-x="687" arabic-form="initial" 
d="M-72 54v75q0 51 70 51h331v593h181v-773h-516q-66 0 -66 54zM420 -406q-45 0 -75.5 30.5t-30.5 75.5q0 43 31 75t75 32q43 0 75 -31.5t32 -75.5q0 -43 -31.5 -74.5t-75.5 -31.5z" />
    <glyph glyph-name="uniFE92" unicode="&#x628;" horiz-adv-x="713" arabic-form="medial" 
d="M412 95q-62 -95 -171 -95h-247q-66 0 -66 54v75q0 51 70 51h204q33 0 51 28.5t18 82.5v481h181v-530q92 -62 246 -62h17q70 0 70 -51v-75q0 -54 -66 -54h-13q-101 0 -170.5 25t-123.5 70zM359 -406q-45 0 -75.5 30.5t-30.5 75.5q0 43 31 75t75 32q43 0 75 -31.5t32 -75.5
q0 -43 -31.5 -74.5t-75.5 -31.5z" />
    <glyph glyph-name="uniFE94" unicode="&#x629;" horiz-adv-x="998" arabic-form="final" 
d="M621 151q-73 -44 -140 -63.5t-137 -19.5q-90 0 -169 35t-127 103.5t-48 162.5q0 125 89 216.5t222.5 148t304.5 99.5v106h179v-625q0 -51 10.5 -79t38 -41.5t79.5 -13.5h77q70 0 70 -51v-75q0 -54 -66 -54h-123q-113 0 -179.5 40t-80.5 111zM239 529q-70 -58 -70 -137
q0 -74 57 -115t153 -41q137 0 237 68v368q-95 -15 -204.5 -52.5t-172.5 -90.5zM401 1076q-45 0 -75.5 30.5t-30.5 75.5q0 44 31 75.5t75 31.5t75.5 -32t31.5 -75q0 -45 -32 -75.5t-75 -30.5zM686 1076q-45 0 -75.5 30.5t-30.5 75.5q0 44 31 75.5t75 31.5q41 0 73 -29t34 -78
q0 -43 -31.5 -74.5t-75.5 -31.5z" />
    <glyph glyph-name="uniFE96" unicode="&#x62a;" horiz-adv-x="1840" arabic-form="final" 
d="M1539 95q-62 -95 -168 -95h-844q-350 0 -466 138q-61 73 -61 224q0 73 20 198l170 -16q-2 -18 -8.5 -57t-6.5 -83q0 -106 43 -146q42 -41 142.5 -59.5t273.5 -18.5h694q32 0 50.5 28t18.5 79v485h181v-529q88 -63 255 -63h9q70 0 70 -51v-75q0 -54 -66 -54h-13
q-102 0 -172.5 25.5t-121.5 69.5zM703 1026q-45 0 -75.5 30.5t-30.5 75.5q0 44 31 75.5t75 31.5t75.5 -32t31.5 -75q0 -45 -32 -75.5t-75 -30.5zM988 1026q-45 0 -75.5 30.5t-30.5 75.5q0 44 31 75.5t75 31.5q41 0 73 -29t34 -78q0 -43 -31.5 -74.5t-75.5 -31.5z" />
    <glyph glyph-name="uniFE97" unicode="&#x62a;" horiz-adv-x="670" arabic-form="initial" 
d="M-72 54v75q0 51 70 51h331v593h181v-773h-516q-66 0 -66 54zM257 1026q-45 0 -75.5 30.5t-30.5 75.5q0 44 31 75.5t75 31.5t75.5 -32t31.5 -75q0 -45 -32 -75.5t-75 -30.5zM542 1026q-45 0 -75.5 30.5t-30.5 75.5q0 44 31 75.5t75 31.5q41 0 73 -29t34 -78
q0 -43 -31.5 -74.5t-75.5 -31.5z" />
    <glyph glyph-name="uniFE98" unicode="&#x62a;" horiz-adv-x="713" arabic-form="medial" 
d="M412 95q-62 -95 -171 -95h-247q-66 0 -66 54v75q0 51 70 51h204q33 0 51 28.5t18 82.5v481h181v-530q92 -62 246 -62h17q70 0 70 -51v-75q0 -54 -66 -54h-13q-101 0 -170.5 25t-123.5 70zM213 1026q-45 0 -75.5 30.5t-30.5 75.5q0 44 31 75.5t75 31.5t75.5 -32t31.5 -75
q0 -45 -32 -75.5t-75 -30.5zM498 1026q-45 0 -75.5 30.5t-30.5 75.5q0 44 31 75.5t75 31.5q41 0 73 -29t34 -78q0 -43 -31.5 -74.5t-75.5 -31.5z" />
    <glyph glyph-name="uniFE9A" unicode="&#x62b;" horiz-adv-x="1840" arabic-form="final" 
d="M1539 95q-62 -95 -168 -95h-844q-350 0 -466 138q-61 73 -61 224q0 73 20 198l170 -16q-2 -18 -8.5 -57t-6.5 -83q0 -106 43 -146q42 -41 142.5 -59.5t273.5 -18.5h694q32 0 50.5 28t18.5 79v485h181v-529q88 -63 255 -63h9q70 0 70 -51v-75q0 -54 -66 -54h-13
q-102 0 -172.5 25.5t-121.5 69.5zM800 1294q-45 0 -75.5 30.5t-30.5 75.5q0 44 31 75.5t75 31.5q43 0 75 -31t32 -76q0 -44 -31.5 -75t-75.5 -31zM659 1026q-45 0 -75.5 30.5t-30.5 75.5q0 44 31 75.5t75 31.5q43 0 75 -31t32 -76q0 -44 -31.5 -75t-75.5 -31zM944 1026
q-45 0 -75.5 30.5t-30.5 75.5q0 44 31 75.5t75 31.5q43 0 75 -31t32 -76q0 -44 -31.5 -75t-75.5 -31z" />
    <glyph glyph-name="uniFE9B" unicode="&#x62b;" horiz-adv-x="670" arabic-form="initial" 
d="M-72 54v75q0 51 70 51h331v593h181v-773h-516q-66 0 -66 54zM395 1294q-45 0 -75.5 30.5t-30.5 75.5q0 44 31 75.5t75 31.5q43 0 75 -31t32 -76q0 -44 -31.5 -75t-75.5 -31zM254 1026q-45 0 -75.5 30.5t-30.5 75.5q0 44 31 75.5t75 31.5q43 0 75 -31t32 -76
q0 -44 -31.5 -75t-75.5 -31zM539 1026q-45 0 -75.5 30.5t-30.5 75.5q0 44 31 75.5t75 31.5q43 0 75 -31t32 -76q0 -44 -31.5 -75t-75.5 -31z" />
    <glyph glyph-name="uniFE9C" unicode="&#x62b;" horiz-adv-x="713" arabic-form="medial" 
d="M412 95q-62 -95 -171 -95h-247q-66 0 -66 54v75q0 51 70 51h204q33 0 51 28.5t18 82.5v481h181v-530q92 -62 246 -62h17q70 0 70 -51v-75q0 -54 -66 -54h-13q-101 0 -170.5 25t-123.5 70zM346 1294q-45 0 -75.5 30.5t-30.5 75.5q0 44 31 75.5t75 31.5q43 0 75 -31t32 -76
q0 -44 -31.5 -75t-75.5 -31zM205 1026q-45 0 -75.5 30.5t-30.5 75.5q0 44 31 75.5t75 31.5q43 0 75 -31t32 -76q0 -44 -31.5 -75t-75.5 -31zM490 1026q-45 0 -75.5 30.5t-30.5 75.5q0 44 31 75.5t75 31.5q43 0 75 -31t32 -76q0 -44 -31.5 -75t-75.5 -31z" />
    <glyph glyph-name="uniFE9E" unicode="&#x62c;" horiz-adv-x="1068" arabic-form="final" 
d="M498 -755q-140 0 -252.5 54.5t-179 161.5t-66.5 233q0 146 63 256t172.5 170t238.5 60h279q-44 44 -59 169q-11 97 -34.5 161.5t-77.5 107.5t-143 43q-101 0 -210 -40v163q97 27 143 35.5t112 8.5q94 0 169 -41t119.5 -112.5t57.5 -168.5q22 -187 56 -254q32 -72 88 -72
h96q70 0 70 -51v-75q0 -54 -66 -54h-639q-79 0 -138.5 -39.5t-90 -105t-30.5 -143.5q0 -87 42.5 -156t116 -105t169.5 -36q80 0 195 23v-164q-51 -14 -98.5 -21.5t-102.5 -7.5zM553 -364q-41 0 -68.5 27.5t-27.5 67.5q0 39 28 68t68 29q38 0 67 -28.5t29 -68.5
q0 -38 -28.5 -66.5t-67.5 -28.5z" />
    <glyph glyph-name="uniFE9F" unicode="&#x62c;" horiz-adv-x="1033" arabic-form="initial" 
d="M-72 54v75q0 51 64 51h719q-44 44 -59 169q-11 92 -34.5 158.5t-76.5 110t-144 43.5q-46 0 -108.5 -11.5t-101.5 -28.5v163q97 27 143 35.5t112 8.5q144 0 232 -83.5t114 -238.5q26 -194 56 -256q33 -70 89 -70v-180h-939q-66 0 -66 54zM496 -406q-45 0 -75.5 30.5
t-30.5 75.5q0 43 31 75t75 32q43 0 75 -31.5t32 -75.5q0 -43 -31.5 -74.5t-75.5 -31.5z" />
    <glyph glyph-name="uniFEA0" unicode="&#x62c;" horiz-adv-x="1026" arabic-form="medial" 
d="M-72 54v75q0 51 66 51h717q-44 44 -59 169q-21 171 -85.5 241.5t-169.5 70.5q-47 0 -110 -12t-100 -28v163q76 22 132 33t123 11q145 0 232 -82.5t114 -239.5q21 -153 32.5 -205.5t39 -86.5t70.5 -34h98q70 0 70 -51v-75q0 -54 -66 -54h-1038q-66 0 -66 54zM459 -406
q-45 0 -75.5 30.5t-30.5 75.5q0 43 31 75t75 32q43 0 75 -31.5t32 -75.5q0 -43 -31.5 -74.5t-75.5 -31.5z" />
    <glyph glyph-name="uniFEA2" unicode="&#x62d;" horiz-adv-x="1068" arabic-form="final" 
d="M498 -755q-140 0 -252.5 54.5t-179 160.5t-66.5 234q0 146 63 256t172.5 170t238.5 60h279q-44 44 -59 169q-11 97 -34 160t-77.5 107.5t-143.5 44.5q-101 1 -210 -40v163q97 27 143 35.5t112 8.5q94 0 169.5 -40.5t119.5 -112.5t57 -169q22 -187 54 -254q34 -72 90 -72
h96q70 0 70 -51v-75q0 -54 -66 -54h-639q-79 0 -138.5 -39.5t-90 -105t-30.5 -143.5q0 -87 42 -156.5t116 -105t170 -35.5q80 0 195 23v-164q-51 -14 -98.5 -21.5t-102.5 -7.5z" />
    <glyph glyph-name="uniFEA3" unicode="&#x62d;" horiz-adv-x="1033" arabic-form="initial" 
d="M-72 54v75q0 51 64 51h719q-44 44 -59 169q-11 92 -34.5 158.5t-76.5 110t-144 43.5q-46 0 -108.5 -11.5t-101.5 -28.5v163q97 27 143 35.5t112 8.5q144 0 232 -83.5t114 -238.5q26 -194 56 -256q33 -70 89 -70v-180h-939q-66 0 -66 54z" />
    <glyph glyph-name="uniFEA4" unicode="&#x62d;" horiz-adv-x="1026" arabic-form="medial" 
d="M-72 54v75q0 51 66 51h717q-44 44 -59 169q-21 171 -85.5 241.5t-169.5 70.5q-47 0 -110 -12t-100 -28v163q76 22 132 33t123 11q145 0 232 -82.5t114 -239.5q21 -153 32.5 -205.5t39 -86.5t70.5 -34h98q70 0 70 -51v-75q0 -54 -66 -54h-1038q-66 0 -66 54z" />
    <glyph glyph-name="uniFEA6" unicode="&#x62e;" horiz-adv-x="1068" arabic-form="final" 
d="M498 -755q-140 0 -252.5 54.5t-179 160.5t-66.5 234q0 146 63 256t172.5 170t238.5 60h279q-44 44 -59 169q-11 97 -34 160t-77.5 107.5t-143.5 44.5q-101 1 -210 -40v163q97 27 143 35.5t112 8.5q94 0 169.5 -40.5t119.5 -112.5t57 -169q22 -187 54 -254q34 -72 90 -72
h96q70 0 70 -51v-75q0 -54 -66 -54h-639q-79 0 -138.5 -39.5t-90 -105t-30.5 -143.5q0 -87 42 -156.5t116 -105t170 -35.5q80 0 195 23v-164q-51 -14 -98.5 -21.5t-102.5 -7.5zM523 1026q-45 0 -75.5 30.5t-30.5 75.5q0 43 31 75t75 32t75.5 -31.5t31.5 -75.5t-31.5 -75
t-75.5 -31z" />
    <glyph glyph-name="uniFEA7" unicode="&#x62e;" horiz-adv-x="1033" arabic-form="initial" 
d="M-72 54v75q0 51 64 51h719q-44 44 -59 169q-11 92 -34.5 158.5t-76.5 110t-144 43.5q-46 0 -108.5 -11.5t-101.5 -28.5v163q97 27 143 35.5t112 8.5q144 0 232 -83.5t114 -238.5q26 -194 56 -256q33 -70 89 -70v-180h-939q-66 0 -66 54zM420 1026q-45 0 -75.5 30.5
t-30.5 75.5q0 43 31 75t75 32t75.5 -31.5t31.5 -75.5t-31.5 -75t-75.5 -31z" />
    <glyph glyph-name="uniFEA8" unicode="&#x62e;" horiz-adv-x="1026" arabic-form="medial" 
d="M-72 54v75q0 51 66 51h717q-44 44 -59 169q-21 171 -85.5 241.5t-169.5 70.5q-47 0 -110 -12t-100 -28v163q76 22 132 33t123 11q145 0 232 -82.5t114 -239.5q21 -153 32.5 -205.5t39 -86.5t70.5 -34h98q70 0 70 -51v-75q0 -54 -66 -54h-1038q-66 0 -66 54zM414 1026
q-45 0 -75.5 30.5t-30.5 75.5q0 43 31 75t75 32t75.5 -31.5t31.5 -75.5t-31.5 -75t-75.5 -31z" />
    <glyph glyph-name="uniFEAA" unicode="&#x62f;" horiz-adv-x="1077" arabic-form="final" 
d="M750 119q-94 -119 -311 -119h-368v180h349q116 0 171 28.5t55 98.5q0 88 -84 202.5t-241 242.5l133 131q170 -149 263 -294.5t93 -268.5q0 -40 -6 -69q48 -37 112 -54t154 -17h9q70 0 70 -51v-75q0 -54 -66 -54h-13q-105 0 -181 28t-139 91z" />
    <glyph glyph-name="uniFEAC" unicode="&#x630;" horiz-adv-x="1099" arabic-form="final" 
d="M772 119q-94 -119 -311 -119h-368v180h349q116 0 171 28.5t55 98.5q0 88 -84 202.5t-241 242.5l133 131q170 -149 263 -294.5t93 -268.5q0 -40 -6 -69q48 -37 112 -54t154 -17h9q70 0 70 -51v-75q0 -54 -66 -54h-13q-105 0 -181 28t-139 91zM471 1026q-45 0 -75.5 30.5
t-30.5 75.5q0 43 31 75t75 32t75.5 -31.5t31.5 -75.5t-31.5 -75t-75.5 -31z" />
    <glyph glyph-name="uniFEAE" unicode="&#x631;" horiz-adv-x="716" arabic-form="final" 
d="M340 -287q-106 -100 -341 -131l-18 172q80 10 143.5 32.5t99.5 54.5q77 68 77 262v670h180v-593h237q70 0 70 -51v-75q0 -54 -66 -54h-251q-26 -189 -131 -287z" />
    <glyph glyph-name="uniFEB0" unicode="&#x632;" horiz-adv-x="716" arabic-form="final" 
d="M340 -287q-106 -100 -341 -131l-18 172q80 10 143.5 32.5t99.5 54.5q77 68 77 262v670h180v-593h237q70 0 70 -51v-75q0 -54 -66 -54h-251q-26 -189 -131 -287zM395 1026q-45 0 -75.5 30.5t-30.5 75.5q0 43 31 75t75 32t75.5 -31.5t31.5 -75.5t-31.5 -75t-75.5 -31z" />
    <glyph glyph-name="uniFEB2" unicode="&#x633;" horiz-adv-x="2582" arabic-form="final" 
d="M2269 105q-25 -46 -70 -75.5t-105 -29.5h-122q-78 0 -156 24.5t-132 74.5q-26 -45 -70 -72t-102 -27h-114q-138 0 -242 59q-26 -155 -105 -264t-204.5 -166.5t-289.5 -57.5q-171 0 -297 68.5t-193 188.5t-67 272q0 98 27.5 197t79.5 185l152 -85q-34 -59 -52 -129.5
t-18 -144.5q0 -109 46 -194t132.5 -133t203.5 -48q130 0 223.5 52t142.5 149t49 229q0 75 -20 164.5t-54 172.5l177 50q28 -71 48 -162.5t26 -170.5q52 -31 114.5 -41.5t147.5 -10.5h48q33 0 50 32t17 75v377h181v-415q47 -35 113 -52t162 -17h56q35 0 52 31.5t17 75.5v486
h181v-516q50 -41 116 -59t152 -18h14q70 0 70 -51v-75q0 -54 -66 -54h-13q-196 0 -306 105z" />
    <glyph glyph-name="uniFEB3" unicode="&#x633;" horiz-adv-x="1857" arabic-form="initial" 
d="M1076 93q-61 -93 -169 -93h-120q-79 0 -154.5 24t-129.5 70q-28 -45 -71 -69.5t-99 -24.5h-339q-66 0 -66 54v75q0 51 70 51h295q33 0 51 28.5t18 82.5v288h181v-336q55 -38 119.5 -50.5t155.5 -12.5h49q35 0 52 31.5t17 75.5v377h181v-422q88 -62 246 -62h153v593h181
v-773h-334q-83 0 -159.5 24t-127.5 69z" />
    <glyph glyph-name="uniFEB4" unicode="&#x633;" horiz-adv-x="1969" arabic-form="medial" 
d="M1657 105q-25 -46 -70.5 -75.5t-104.5 -29.5h-124q-78 0 -155 24.5t-131 74.5q-26 -45 -70 -72t-102 -27h-120q-77 0 -151.5 22.5t-128.5 67.5q-61 -90 -165 -90h-341q-66 0 -66 54v75q0 51 70 51h293q71 0 71 116v283h181v-342q53 -35 117 -46t154 -11h48q32 0 49 32
t17 75v377h181v-415q55 -40 123.5 -54.5t162.5 -14.5h48q32 0 49 31t17 76v486h181v-517q49 -39 113.5 -57.5t154.5 -18.5h13q70 0 70 -51v-75q0 -54 -66 -54h-20q-91 0 -163 24.5t-135 80.5z" />
    <glyph glyph-name="uniFEB6" unicode="&#x634;" horiz-adv-x="2582" arabic-form="final" 
d="M2269 105q-25 -46 -70 -75.5t-105 -29.5h-122q-78 0 -156 24.5t-132 74.5q-26 -45 -70 -72t-102 -27h-114q-138 0 -242 59q-26 -155 -105 -264t-204.5 -166.5t-289.5 -57.5q-171 0 -297 68.5t-193 188.5t-67 272q0 98 27.5 197t79.5 185l152 -85q-34 -59 -52 -129.5
t-18 -144.5q0 -109 46 -194t132.5 -133t203.5 -48q130 0 223.5 52t142.5 149t49 229q0 75 -20 164.5t-54 172.5l177 50q28 -71 48 -162.5t26 -170.5q52 -31 114.5 -41.5t147.5 -10.5h48q33 0 50 32t17 75v377h181v-415q47 -35 113 -52t162 -17h56q35 0 52 31.5t17 75.5v486
h181v-516q50 -41 116 -59t152 -18h14q70 0 70 -51v-75q0 -54 -66 -54h-13q-196 0 -306 105zM1624 1294q-45 0 -75.5 30.5t-30.5 75.5q0 44 31 75.5t75 31.5q43 0 75 -31t32 -76q0 -44 -31.5 -75t-75.5 -31zM1483 1026q-45 0 -75.5 30.5t-30.5 75.5q0 44 31 75.5t75 31.5
q43 0 75 -31t32 -76q0 -44 -31.5 -75t-75.5 -31zM1768 1026q-45 0 -75.5 30.5t-30.5 75.5q0 44 31 75.5t75 31.5q43 0 75 -31t32 -76q0 -44 -31.5 -75t-75.5 -31z" />
    <glyph glyph-name="uniFEB7" unicode="&#x634;" horiz-adv-x="1857" arabic-form="initial" 
d="M1076 93q-61 -93 -169 -93h-120q-79 0 -154.5 24t-129.5 70q-28 -45 -71 -69.5t-99 -24.5h-339q-66 0 -66 54v75q0 51 70 51h295q33 0 51 28.5t18 82.5v288h181v-336q55 -38 119.5 -50.5t155.5 -12.5h49q35 0 52 31.5t17 75.5v377h181v-422q88 -62 246 -62h153v593h181
v-773h-334q-83 0 -159.5 24t-127.5 69zM1025 1294q-45 0 -75.5 30.5t-30.5 75.5q0 44 31 75.5t75 31.5q43 0 75 -31t32 -76q0 -44 -31.5 -75t-75.5 -31zM884 1026q-45 0 -75.5 30.5t-30.5 75.5q0 44 31 75.5t75 31.5q43 0 75 -31t32 -76q0 -44 -31.5 -75t-75.5 -31z
M1169 1026q-45 0 -75.5 30.5t-30.5 75.5q0 44 31 75.5t75 31.5q43 0 75 -31t32 -76q0 -44 -31.5 -75t-75.5 -31z" />
    <glyph glyph-name="uniFEB8" unicode="&#x634;" horiz-adv-x="1969" arabic-form="medial" 
d="M1657 105q-25 -46 -70.5 -75.5t-104.5 -29.5h-124q-78 0 -155 24.5t-131 74.5q-26 -45 -70 -72t-102 -27h-120q-77 0 -151.5 22.5t-128.5 67.5q-61 -90 -165 -90h-341q-66 0 -66 54v75q0 51 70 51h293q71 0 71 116v283h181v-342q53 -35 117 -46t154 -11h48q32 0 49 32
t17 75v377h181v-415q55 -40 123.5 -54.5t162.5 -14.5h48q32 0 49 31t17 76v486h181v-517q49 -39 113.5 -57.5t154.5 -18.5h13q70 0 70 -51v-75q0 -54 -66 -54h-20q-91 0 -163 24.5t-135 80.5zM1028 1294q-45 0 -75.5 30.5t-30.5 75.5q0 44 31 75.5t75 31.5q43 0 75 -31
t32 -76q0 -44 -31.5 -75t-75.5 -31zM887 1026q-45 0 -75.5 30.5t-30.5 75.5q0 44 31 75.5t75 31.5q43 0 75 -31t32 -76q0 -44 -31.5 -75t-75.5 -31zM1172 1026q-45 0 -75.5 30.5t-30.5 75.5q0 44 31 75.5t75 31.5q43 0 75 -31t32 -76q0 -44 -31.5 -75t-75.5 -31z" />
    <glyph glyph-name="uniFEBA" unicode="&#x635;" horiz-adv-x="2753" arabic-form="final" 
d="M1158 71q-24 -158 -103 -270.5t-206 -171t-292 -58.5q-159 0 -285.5 63t-199 182.5t-72.5 283.5q0 98 27.5 197t79.5 185l152 -85q-34 -59 -52 -129.5t-18 -144.5q0 -109 46.5 -194t133 -133t202.5 -48q128 0 221.5 51t143.5 147.5t50 231.5q0 72 -20.5 167.5
t-53.5 169.5l177 50q26 -74 45 -157.5t27 -159.5q96 -68 262 -68q55 173 163 331q109 162 245.5 248.5t283.5 86.5t244 -64t143 -173.5t45 -248.5v-180h208q70 0 70 -51v-75q0 -54 -66 -54h-1346q-64 0 -131.5 17t-123.5 54zM2091 670q-155 0 -295 -141q-136 -141 -196 -349
h767v160q0 158 -68 244t-208 86z" />
    <glyph glyph-name="uniFEBB" unicode="&#x635;" horiz-adv-x="1989" arabic-form="initial" 
d="M413 100q-63 -100 -172 -100h-247q-66 0 -66 54v75q0 51 70 51h199q71 0 71 116v283h181v-328q51 -38 116.5 -54.5t149.5 -16.5q104 302 290 485q188 181 402 181q145 0 242 -63t143.5 -174t46.5 -249v-360h-1130q-86 0 -165 26t-131 74zM1383 670q-155 0 -293 -140
q-138 -142 -198 -350h767v160q0 158 -68 244t-208 86z" />
    <glyph glyph-name="uniFEBC" unicode="&#x635;" horiz-adv-x="2045" arabic-form="medial" 
d="M413 100q-63 -100 -172 -100h-247q-66 0 -66 54v75q0 51 70 51h199q71 0 71 116v283h181v-328q51 -38 116.5 -54.5t149.5 -16.5q104 302 290 485q185 181 402 181q147 0 244 -64t142.5 -173.5t45.5 -248.5v-180h208q70 0 70 -51v-75q0 -54 -66 -54h-1342q-86 0 -165 26
t-131 74zM1383 670q-155 0 -293 -141t-198 -349h767v160q0 158 -68 244t-208 86z" />
    <glyph glyph-name="uniFEBE" unicode="&#x636;" horiz-adv-x="2753" arabic-form="final" 
d="M1158 71q-24 -158 -103 -270.5t-206 -171t-292 -58.5q-159 0 -285.5 63t-199 182.5t-72.5 283.5q0 98 27.5 197t79.5 185l152 -85q-34 -59 -52 -129.5t-18 -144.5q0 -109 46.5 -194t133 -133t202.5 -48q128 0 221.5 51t143.5 147.5t50 231.5q0 72 -20.5 167.5
t-53.5 169.5l177 50q26 -74 45 -157.5t27 -159.5q96 -68 262 -68q55 173 163 331q109 162 245.5 248.5t283.5 86.5t244 -64t143 -173.5t45 -248.5v-180h208q70 0 70 -51v-75q0 -54 -66 -54h-1346q-64 0 -131.5 17t-123.5 54zM2091 670q-155 0 -295 -141q-136 -141 -196 -349
h767v160q0 158 -68 244t-208 86zM1853 1026q-45 0 -75.5 30.5t-30.5 75.5q0 43 31 75t75 32t75.5 -31.5t31.5 -75.5t-31.5 -75t-75.5 -31z" />
    <glyph glyph-name="uniFEBF" unicode="&#x636;" horiz-adv-x="1989" arabic-form="initial" 
d="M413 100q-63 -100 -172 -100h-247q-66 0 -66 54v75q0 51 70 51h199q71 0 71 116v283h181v-328q51 -38 116.5 -54.5t149.5 -16.5q104 302 290 485q188 181 402 181q145 0 242 -63t143.5 -174t46.5 -249v-360h-1130q-86 0 -165 26t-131 74zM1383 670q-155 0 -293 -140
q-138 -142 -198 -350h767v160q0 158 -68 244t-208 86zM1154 1026q-45 0 -75.5 30.5t-30.5 75.5q0 43 31 75t75 32t75.5 -31.5t31.5 -75.5t-31.5 -75t-75.5 -31z" />
    <glyph glyph-name="uniFEC0" unicode="&#x636;" horiz-adv-x="2045" arabic-form="medial" 
d="M413 100q-63 -100 -172 -100h-247q-66 0 -66 54v75q0 51 70 51h199q71 0 71 116v283h181v-328q51 -38 116.5 -54.5t149.5 -16.5q104 302 290 485q185 181 402 181q147 0 244 -64t142.5 -173.5t45.5 -248.5v-180h208q70 0 70 -51v-75q0 -54 -66 -54h-1342q-86 0 -165 26
t-131 74zM1383 670q-155 0 -293 -141t-198 -349h767v160q0 158 -68 244t-208 86zM1140 1026q-45 0 -75.5 30.5t-30.5 75.5q0 43 31 75t75 32t75.5 -31.5t31.5 -75.5t-31.5 -75t-75.5 -31z" />
    <glyph glyph-name="uniFEC2" unicode="&#x637;" horiz-adv-x="1580" arabic-form="final" 
d="M251 180q37 114 92 214v1043h180v-792q101 103 204.5 152t215.5 49q152 0 248.5 -66t140 -176.5t43.5 -249.5v-174h207q70 0 70 -51v-75q0 -54 -66 -54h-1586v180h251zM920 670q-157 0 -297 -144q-138 -142 -195 -346h767v160q0 158 -67.5 244t-207.5 86z" />
    <glyph glyph-name="uniFEC3" unicode="&#x637;" horiz-adv-x="1515" arabic-form="initial" 
d="M-72 54v75q0 51 70 51h243q37 114 92 214v1043h180v-792q101 103 204.5 152t215.5 49q143 0 239.5 -62.5t144.5 -173t48 -256.5v-354h-1371q-66 0 -66 54zM910 670q-157 0 -297 -144q-138 -142 -195 -346h767v160q0 155 -66.5 242.5t-208.5 87.5z" />
    <glyph glyph-name="uniFEC4" unicode="&#x637;" horiz-adv-x="1570" arabic-form="medial" 
d="M-72 54v75q0 51 70 51h243q37 114 92 214v1043h180v-792q101 103 204.5 152t215.5 49q143 0 239.5 -62.5t144.5 -173t48 -256.5v-174h207q70 0 70 -51v-75q0 -54 -66 -54h-1582q-66 0 -66 54zM910 670q-157 0 -297 -144q-138 -142 -195 -346h767v160q0 157 -68.5 243.5
t-206.5 86.5z" />
    <glyph glyph-name="uniFEC6" unicode="&#x638;" horiz-adv-x="1580" arabic-form="final" 
d="M251 180q37 114 92 214v1043h180v-792q101 103 204.5 152t215.5 49q152 0 248.5 -66t140 -176.5t43.5 -249.5v-174h207q70 0 70 -51v-75q0 -54 -66 -54h-1586v180h251zM920 670q-157 0 -297 -144q-138 -142 -195 -346h767v160q0 158 -67.5 244t-207.5 86zM942 1026
q-45 0 -75.5 30.5t-30.5 75.5q0 43 31 75t75 32t75.5 -31.5t31.5 -75.5t-31.5 -75t-75.5 -31z" />
    <glyph glyph-name="uniFEC7" unicode="&#x638;" horiz-adv-x="1515" arabic-form="initial" 
d="M-72 54v75q0 51 70 51h243q37 114 92 214v1043h180v-792q101 103 204.5 152t215.5 49q143 0 239.5 -62.5t144.5 -173t48 -256.5v-354h-1371q-66 0 -66 54zM910 670q-157 0 -297 -144q-138 -142 -195 -346h767v160q0 155 -66.5 242.5t-208.5 87.5zM932 1026
q-45 0 -75.5 30.5t-30.5 75.5q0 43 31 75t75 32t75.5 -31.5t31.5 -75.5t-31.5 -75t-75.5 -31z" />
    <glyph glyph-name="uniFEC8" unicode="&#x638;" horiz-adv-x="1570" arabic-form="medial" 
d="M-72 54v75q0 51 70 51h243q37 114 92 214v1043h180v-792q101 103 204.5 152t215.5 49q143 0 239.5 -62.5t144.5 -173t48 -256.5v-174h207q70 0 70 -51v-75q0 -54 -66 -54h-1582q-66 0 -66 54zM910 670q-157 0 -297 -144q-138 -142 -195 -346h767v160q0 157 -68.5 243.5
t-206.5 86.5zM930 1026q-45 0 -75.5 30.5t-30.5 75.5q0 43 31 75t75 32t75.5 -31.5t31.5 -75.5t-31.5 -75t-75.5 -31z" />
    <glyph glyph-name="uniFECA" unicode="&#x639;" horiz-adv-x="1086" arabic-form="final" 
d="M498 -755q-131 0 -245.5 53t-183.5 158t-69 238q0 179 100.5 317.5t276.5 216.5q-58 43 -103.5 98t-112.5 148q-45 63 -59 78q19 75 34.5 113.5t32.5 53.5q85 50 204 79.5t227 29.5q63 0 134 -15t124.5 -53.5t53.5 -104.5q0 -116 -62.5 -227.5t-163.5 -200.5
q51 -23 143.5 -35t171.5 -12h87q70 0 70 -51v-75q0 -54 -66 -54h-136q-121 0 -236 30.5t-206 85.5q-165 -61 -251.5 -167.5t-86.5 -237.5q0 -92 42.5 -159t117 -102t168.5 -35q80 0 195 23v-164q-51 -14 -98.5 -21.5t-102.5 -7.5zM737 558q0 41 -35.5 66.5t-84 36
t-90.5 10.5q-123 0 -266 -64q44 -78 124 -169t149 -135q34 21 82.5 66.5t84.5 97t36 91.5z" />
    <glyph glyph-name="uniFECB" unicode="&#x639;" horiz-adv-x="987" arabic-form="initial" 
d="M-72 54v75q0 51 70 51h269q-53 113 -53 222q0 116 50.5 211t141.5 150.5t208 55.5q108 0 192 -25l-18 -188q-44 13 -101.5 21t-99.5 8q-94 0 -150 -55.5t-56 -151.5q0 -71 33 -127.5t92.5 -88.5t136.5 -32h244v-180h-893q-66 0 -66 54z" />
    <glyph glyph-name="uniFECC" unicode="&#x639;" horiz-adv-x="1137" arabic-form="medial" 
d="M565 116q-107 -60 -216.5 -88t-211.5 -28h-143q-66 0 -66 54v75q0 51 65 51h128q112 0 194.5 13.5t112.5 34.5q-47 32 -109 106t-107 140q-40 58 -59 78q34 139 67 167q90 52 209 80.5t222 28.5q61 0 135 -16t125.5 -56.5t51.5 -100.5q0 -102 -62 -215
q-61 -111 -164 -213q66 -27 156 -37t179 -10h67q70 0 70 -51v-75q0 -54 -66 -54h-136q-121 0 -236 30.5t-206 85.5zM727 431q28 36 44.5 73t16.5 54q0 47 -58 80t-152 33q-123 0 -266 -64q42 -75 122 -167t151 -137q82 50 142 128z" />
    <glyph glyph-name="uniFECE" unicode="&#x63a;" horiz-adv-x="1086" arabic-form="final" 
d="M498 -755q-131 0 -245.5 53t-183.5 158t-69 238q0 179 100.5 317.5t276.5 216.5q-58 43 -103.5 98t-112.5 148q-45 63 -59 78q19 75 34.5 113.5t32.5 53.5q85 50 204 79.5t227 29.5q63 0 134 -15t124.5 -53.5t53.5 -104.5q0 -116 -62.5 -227.5t-163.5 -200.5
q51 -23 143.5 -35t171.5 -12h87q70 0 70 -51v-75q0 -54 -66 -54h-136q-121 0 -236 30.5t-206 85.5q-165 -61 -251.5 -167.5t-86.5 -237.5q0 -92 42.5 -159t117 -102t168.5 -35q80 0 195 23v-164q-51 -14 -98.5 -21.5t-102.5 -7.5zM737 558q0 41 -35.5 66.5t-84 36
t-90.5 10.5q-123 0 -266 -64q44 -78 124 -169t149 -135q34 21 82.5 66.5t84.5 97t36 91.5zM525 1026q-45 0 -75.5 30.5t-30.5 75.5q0 43 31 75t75 32t75.5 -31.5t31.5 -75.5t-31.5 -75t-75.5 -31z" />
    <glyph glyph-name="uniFECF" unicode="&#x63a;" horiz-adv-x="987" arabic-form="initial" 
d="M-72 54v75q0 51 70 51h269q-53 113 -53 222q0 116 50.5 211t141.5 150.5t208 55.5q108 0 192 -25l-18 -188q-44 13 -101.5 21t-99.5 8q-94 0 -150 -55.5t-56 -151.5q0 -71 33 -127.5t92.5 -88.5t136.5 -32h244v-180h-893q-66 0 -66 54zM566 1026q-45 0 -75.5 30.5
t-30.5 75.5q0 43 31 75t75 32t75.5 -31.5t31.5 -75.5t-31.5 -75t-75.5 -31z" />
    <glyph glyph-name="uniFED0" unicode="&#x63a;" horiz-adv-x="1137" arabic-form="medial" 
d="M565 116q-107 -60 -216.5 -88t-211.5 -28h-143q-66 0 -66 54v75q0 51 65 51h128q112 0 194.5 13.5t112.5 34.5q-47 32 -109 106t-107 140q-40 58 -59 78q34 139 67 167q90 52 209 80.5t222 28.5q61 0 135 -16t125.5 -56.5t51.5 -100.5q0 -102 -62 -215
q-61 -111 -164 -213q66 -27 156 -37t179 -10h67q70 0 70 -51v-75q0 -54 -66 -54h-136q-121 0 -236 30.5t-206 85.5zM727 431q28 36 44.5 73t16.5 54q0 47 -58 80t-152 33q-123 0 -266 -64q42 -75 122 -167t151 -137q82 50 142 128zM565 1026q-45 0 -75.5 30.5t-30.5 75.5
q0 43 31 75t75 32t75.5 -31.5t31.5 -75.5t-31.5 -75t-75.5 -31z" />
    <glyph glyph-name="uniFED2" unicode="&#x641;" horiz-adv-x="2088" arabic-form="final" 
d="M1586 33q-123 -16 -336 -24.5t-423 -8.5h-249q-250 0 -369 42t-164 120t-45 200q0 49 8 111.5t12 86.5l170 -16q-2 -18 -8.5 -57t-6.5 -83q0 -106 43 -146q42 -41 142.5 -59.5t273.5 -18.5h585l-1 4q-47 41 -75 105t-28 130q0 109 53.5 198.5t151.5 141.5t225 52
q104 0 185 -43t126.5 -123t45.5 -188q0 -63 -16.5 -128.5t-54.5 -148.5h259q70 0 70 -51v-75q0 -54 -66 -54h-131q-200 0 -377 33zM1720 424q0 74 -30.5 124.5t-79 75.5t-102.5 25q-58 0 -110.5 -24.5t-83 -72t-30.5 -113.5q0 -78 40.5 -136.5t106.5 -90.5t152 -32h58
q36 51 57.5 117.5t21.5 126.5zM1502 1026q-45 0 -75.5 30.5t-30.5 75.5q0 43 31 75t75 32t75.5 -31.5t31.5 -75.5t-31.5 -75t-75.5 -31z" />
    <glyph glyph-name="uniFED3" unicode="&#x641;" horiz-adv-x="1185" arabic-form="initial" 
d="M-72 54v75q0 51 70 51h323v6q-28 31 -46 90.5t-18 125.5q0 117 55 210.5t148.5 146t209.5 52.5q113 0 195.5 -49t126 -138t43.5 -207v-417h-1041q-66 0 -66 54zM643 637q-62 0 -111 -29.5t-78 -81.5t-29 -119q0 -71 34 -122.5t93.5 -78t134.5 -26.5h169v191
q0 129 -54.5 197.5t-158.5 68.5zM665 1026q-45 0 -75.5 30.5t-30.5 75.5q0 43 31 75t75 32t75.5 -31.5t31.5 -75.5t-31.5 -75t-75.5 -31z" />
    <glyph glyph-name="uniFED4" unicode="&#x641;" horiz-adv-x="1148" arabic-form="medial" 
d="M648 33q-77 -14 -224.5 -23.5t-294.5 -9.5h-135q-66 0 -66 54v75q0 51 70 51h281l-1 4q-44 38 -73.5 105.5t-29.5 129.5q0 109 56.5 201t154.5 141.5t219 49.5q100 0 181 -42t128.5 -123t47.5 -189q0 -63 -16.5 -128.5t-54.5 -148.5h259q70 0 70 -51v-75q0 -54 -66 -54
h-131q-102 0 -193 7t-182 26zM780 424q0 64 -26 115t-74 80.5t-112 29.5q-56 0 -109.5 -24.5t-84 -72t-30.5 -113.5q0 -78 40 -137t109.5 -90.5t149.5 -31.5h58q36 51 57.5 117.5t21.5 126.5zM559 1026q-45 0 -75.5 30.5t-30.5 75.5q0 43 31 75t75 32t75.5 -31.5t31.5 -75.5
t-31.5 -75t-75.5 -31z" />
    <glyph glyph-name="uniFED6" unicode="&#x642;" horiz-adv-x="1512" arabic-form="final" 
d="M622 -608q-188 0 -328.5 62t-217 181t-76.5 286q0 98 27.5 197t79.5 185l152 -85q-34 -59 -52 -129.5t-18 -144.5q0 -120 55.5 -204t156 -127.5t235.5 -43.5q144 0 253 47t172 143t66 241h-213q-126 0 -214.5 48t-140 137t-51.5 195q0 127 54 222.5t150.5 149.5t221.5 54
q178 0 275 -119t97 -338v-169h208q70 0 70 -51v-75q0 -54 -66 -54h-212q-16 -198 -102.5 -334t-234.5 -205t-347 -69zM902 637q-62 0 -111.5 -30.5t-78 -84.5t-28.5 -120q0 -105 71.5 -163.5t192.5 -58.5h179v124q0 333 -225 333zM771 1026q-45 0 -75.5 30.5t-30.5 75.5
q0 44 31 75.5t75 31.5t75.5 -32t31.5 -75q0 -45 -32 -75.5t-75 -30.5zM1056 1026q-45 0 -75.5 30.5t-30.5 75.5q0 44 31 75.5t75 31.5q41 0 73 -29t34 -78q0 -43 -31.5 -74.5t-75.5 -31.5z" />
    <glyph glyph-name="uniFED7" unicode="&#x642;" horiz-adv-x="1185" arabic-form="initial" 
d="M-72 54v75q0 51 70 51h323v6q-28 31 -46 90.5t-18 125.5q0 117 55 210.5t148.5 146t209.5 52.5q113 0 195.5 -49t126 -138t43.5 -207v-417h-1041q-66 0 -66 54zM643 637q-62 0 -111 -29.5t-78 -81.5t-29 -119q0 -71 34 -122.5t93.5 -78t134.5 -26.5h169v191
q0 129 -54.5 197.5t-158.5 68.5zM494 1026q-45 0 -75.5 30.5t-30.5 75.5q0 44 31 75.5t75 31.5t75.5 -32t31.5 -75q0 -45 -32 -75.5t-75 -30.5zM779 1026q-45 0 -75.5 30.5t-30.5 75.5q0 44 31 75.5t75 31.5q41 0 73 -29t34 -78q0 -43 -31.5 -74.5t-75.5 -31.5z" />
    <glyph glyph-name="uniFED8" unicode="&#x642;" horiz-adv-x="1148" arabic-form="medial" 
d="M648 33q-77 -14 -224.5 -23.5t-294.5 -9.5h-135q-66 0 -66 54v75q0 51 70 51h281l-1 4q-44 38 -73.5 105.5t-29.5 129.5q0 109 56.5 201t154.5 141.5t219 49.5q100 0 181 -42t128.5 -123t47.5 -189q0 -63 -16.5 -128.5t-54.5 -148.5h259q70 0 70 -51v-75q0 -54 -66 -54
h-131q-102 0 -193 7t-182 26zM780 424q0 64 -26 115t-74 80.5t-112 29.5q-56 0 -109.5 -24.5t-84 -72t-30.5 -113.5q0 -78 40 -137t109.5 -90.5t149.5 -31.5h58q36 51 57.5 117.5t21.5 126.5zM421 1026q-45 0 -75.5 30.5t-30.5 75.5q0 44 31 75.5t75 31.5t75.5 -32t31.5 -75
q0 -45 -32 -75.5t-75 -30.5zM706 1026q-45 0 -75.5 30.5t-30.5 75.5q0 44 31 75.5t75 31.5q41 0 73 -29t34 -78q0 -43 -31.5 -74.5t-75.5 -31.5z" />
    <glyph glyph-name="uniFEDA" unicode="&#x643;" horiz-adv-x="1870" arabic-form="final" 
d="M1549 113q-31 -58 -77 -85.5t-102 -27.5h-843q-166 0 -286 32q-69 18 -121 51.5t-86 101t-34 177.5q0 73 20 198l170 -16q-6 -31 -10.5 -64t-4.5 -76q0 -106 43 -146q42 -41 142.5 -59.5t273.5 -18.5h697q29 0 47.5 28.5t18.5 78.5v1150h181v-1170q44 -42 112.5 -64.5
t171.5 -22.5h10q70 0 70 -51v-75q0 -54 -66 -54h-18q-100 0 -175 28t-134 85zM796 646q-37 27 -57 67t-20 85q0 78 60.5 120t149.5 42q57 0 93 -7l-16 -101q-40 7 -69 7q-117 0 -117 -87q0 -41 26.5 -69.5t67 -42.5t82.5 -14h32v-99h-367v99h135z" />
    <glyph glyph-name="uniFEDB" unicode="&#x643;" horiz-adv-x="829" arabic-form="initial" 
d="M-72 54v75q0 51 70 51h316q111 0 166 28t55 99q0 86 -91.5 180t-283.5 205l399 686l131 -92l-305 -534q156 -93 235 -202.5t79 -229.5q0 -155 -94.5 -237.5t-271.5 -82.5h-339q-66 0 -66 54z" />
    <glyph glyph-name="uniFEDC" unicode="&#x643;" horiz-adv-x="956" arabic-form="medial" 
d="M635 113q-47 -56 -123.5 -84.5t-178.5 -28.5h-339q-66 0 -66 54v75q0 51 70 51h316q111 0 166 28t55 99q0 86 -91.5 180t-283.5 205l399 686l131 -92l-305 -534q156 -93 235 -202.5t79 -229.5q0 -42 -7 -76q47 -32 108.5 -48t149.5 -16h8q70 0 70 -51v-75q0 -54 -66 -54
h-15q-103 0 -178 28t-134 85z" />
    <glyph glyph-name="uniFEDE" unicode="&#x644;" horiz-adv-x="1451" arabic-form="final" 
d="M1160 87q-24 -171 -106 -286.5t-209 -172.5t-288 -57q-167 0 -293.5 67.5t-195 187.5t-68.5 274q0 95 28.5 196.5t78.5 185.5l152 -85q-32 -61 -51 -130.5t-19 -143.5q0 -111 48 -196t135 -132t199 -47q126 0 221 51.5t144.5 148t49.5 228.5v1261h179v-1175
q47 -41 113.5 -61.5t163.5 -20.5h11q70 0 70 -51v-75q0 -54 -66 -54h-13q-98 0 -164.5 22.5t-119.5 64.5z" />
    <glyph glyph-name="uniFEDF" unicode="&#x644;" horiz-adv-x="612" arabic-form="initial" 
d="M-72 54v75q0 51 70 51h274v1257h180v-1437h-458q-66 0 -66 54z" />
    <glyph glyph-name="uniFEE0" unicode="&#x644;" horiz-adv-x="716" arabic-form="medial" 
d="M413 96q-29 -47 -72 -71.5t-96 -24.5h-251q-66 0 -66 54v75q0 51 70 51h207q29 0 47.5 28.5t18.5 78.5v1150h181v-1193q41 -30 105 -47t151 -17h10q70 0 70 -51v-75q0 -54 -66 -54h-13q-102 0 -172.5 25t-123.5 71z" />
    <glyph glyph-name="uniFEE2" unicode="&#x645;" horiz-adv-x="1404" arabic-form="final" 
d="M1080 116q-113 -126 -293 -126q-101 0 -189.5 33.5t-155.5 96.5q-136 -13 -201 -87t-65 -206q0 -236 114 -527l-168 -56q-49 151 -85.5 309.5t-36.5 265.5q0 153 65 260t206 182q63 34 68 38q58 219 173.5 354t273.5 135q103 0 193 -57t142 -154.5t52 -205.5
q0 -70 -23 -133q47 -30 107.5 -44t135.5 -14h13q70 0 70 -51v-75q0 -54 -66 -54h-16q-101 0 -178 28.5t-136 87.5zM762 170q132 0 191 41t59 135q0 52 -24 116t-78.5 110t-127.5 46q-106 0 -184 -95q-39 -49 -63.5 -112.5t-40.5 -144.5q32 -25 74 -44.5t94 -35.5t100 -16z
" />
    <glyph glyph-name="uniFEE3" unicode="&#x645;" horiz-adv-x="1188" arabic-form="initial" 
d="M-72 54v75q0 51 70 51h57q52 0 101 28t63 77l26 88q29 90 75.5 173t91.5 128q51 51 113 82.5t145 31.5q122 0 210 -64.5t133 -162t45 -194.5q0 -91 -46 -179t-133 -143t-208 -55q-106 0 -203 39.5t-160 108.5q-41 -76 -92 -106t-128 -32h-94q-66 0 -66 54zM646 170
q132 0 191 41t59 135q0 52 -25 116t-79 110t-130 46q-100 0 -180 -98q-40 -49 -65.5 -111t-37.5 -140q29 -28 72.5 -48t97.5 -35.5t97 -15.5z" />
    <glyph glyph-name="uniFEE4" unicode="&#x645;" horiz-adv-x="1310" arabic-form="medial" 
d="M974 129q-115 -139 -303 -139q-106 0 -202.5 39t-160.5 109q-42 -76 -92.5 -107t-145.5 -31h-76q-66 0 -66 54v75q0 51 70 51h57q53 0 101 27.5t63 77.5q53 182 102 263.5t91 125.5q51 54 116 84t142 30q123 0 213 -66.5t132.5 -166.5t42.5 -188q0 -55 -20 -117
q48 -36 111.5 -53t151.5 -17h11q70 0 70 -51v-75q0 -54 -66 -54h-18q-108 0 -184.5 31t-139.5 98zM646 170q132 0 191 41t59 135q0 52 -25 116t-78.5 110t-130.5 46q-100 0 -180 -98q-40 -49 -66 -111t-41 -142q31 -28 73.5 -46.5t98 -34.5t99.5 -16z" />
    <glyph glyph-name="uniFEE6" unicode="&#x646;" horiz-adv-x="1437" arabic-form="final" 
d="M1158 77q-22 -158 -100 -271.5t-205 -174t-296 -60.5q-171 0 -297 67t-193 187t-67 275q0 91 27.5 193.5t79.5 188.5l152 -85q-34 -59 -52 -129.5t-18 -144.5q0 -109 46 -194t132.5 -133t203.5 -48q131 0 224.5 52t142 149t48.5 229q0 76 -20.5 168t-53.5 169l177 50
q24 -66 44 -151t28 -160q49 -40 113.5 -57t152.5 -17h12q70 0 70 -51v-75q0 -54 -66 -54h-13q-92 0 -156.5 19t-115.5 58zM692 824q-45 0 -75.5 30.5t-30.5 75.5q0 43 31 75t75 32t75.5 -31.5t31.5 -75.5t-31.5 -75t-75.5 -31z" />
    <glyph glyph-name="uniFEE7" unicode="&#x646;" horiz-adv-x="694" arabic-form="initial" 
d="M427 1026q-45 0 -75.5 30.5t-30.5 75.5q0 43 31 75t75 32t75.5 -31.5t31.5 -75.5t-31.5 -75t-75.5 -31zM-72 54v75q0 51 70 51h331v593h181v-773h-516q-66 0 -66 54z" />
    <glyph glyph-name="uniFEE8" unicode="&#x646;" horiz-adv-x="713" arabic-form="medial" 
d="M412 95q-62 -95 -171 -95h-247q-66 0 -66 54v75q0 51 70 51h204q33 0 51 28.5t18 82.5v481h181v-530q92 -62 246 -62h17q70 0 70 -51v-75q0 -54 -66 -54h-13q-101 0 -170.5 25t-123.5 70zM353 1026q-45 0 -75.5 30.5t-30.5 75.5q0 43 31 75t75 32t75.5 -31.5t31.5 -75.5
t-31.5 -75t-75.5 -31z" />
    <glyph glyph-name="uniFEE9" unicode="&#x647;" horiz-adv-x="895" arabic-form="isolated" 
d="M421 0h-65q-52 1 -95.5 10.5t-106 44.5t-108.5 112.5t-46 183.5q0 141 56.5 254t146.5 172.5t185 59.5q96 0 183.5 -57.5t140.5 -167.5t53 -260q0 -110 -54.5 -193.5t-135 -121t-154.5 -37.5zM596 384q0 80 -28 147.5t-76.5 106.5t-107.5 39q-61 0 -112.5 -36t-81.5 -103
t-30 -154q0 -102 58.5 -153t172.5 -51q106 0 155.5 58.5t49.5 145.5z" />
    <glyph glyph-name="uniFEEA" unicode="&#x647;" horiz-adv-x="998" arabic-form="final" 
d="M621 151q-73 -44 -140 -63.5t-137 -19.5q-90 0 -169 35t-127 103.5t-48 162.5q0 125 89 216.5t222.5 148t304.5 99.5v106h179v-625q0 -51 10.5 -79t38 -41.5t79.5 -13.5h77q70 0 70 -51v-75q0 -54 -66 -54h-123q-113 0 -179.5 40t-80.5 111zM239 529q-70 -58 -70 -137
q0 -74 57 -115t153 -41q137 0 237 68v368q-95 -15 -204.5 -52.5t-172.5 -90.5z" />
    <glyph glyph-name="uniFEEB" unicode="&#x647;" horiz-adv-x="1470" arabic-form="initial" 
d="M130 -193h-87q-43 79 -43 158q2 106 58.5 160.5t172.5 54.5h128q-61 113 -61 240q0 106 45 196.5t129 147.5l-52 13q8 27 30.5 69.5t52.5 86.5q321 -64 489 -144q170 -79 249 -200.5t79 -309.5q0 -34 -11 -279h-1011q-87 0 -125 -47.5t-43 -145.5zM826 436
q0 79 -22 137.5t-62.5 90t-92.5 31.5q-59 0 -103.5 -38.5t-67.5 -98.5t-23 -122q0 -79 32.5 -150.5t97.5 -105.5h172q27 50 48 125t21 131zM1154 298q0 133 -61 215t-176 113q48 -78 48 -198q0 -64 -14 -131.5t-36 -116.5h230q9 60 9 118z" />
    <glyph glyph-name="uniFEEC" unicode="&#x647;" horiz-adv-x="1179" arabic-form="medial" 
d="M954 -256q0 -101 -42 -173.5t-111.5 -118t-148.5 -45.5q-120 0 -223 73t-156 205.5t-53 314.5h-226q-66 0 -66 54v75q0 51 70 51h243q20 90 45.5 160.5t65.5 146.5q41 77 102 148t129 116t116 45q74 0 137.5 -55.5t98 -138.5t34.5 -172q0 -74 -25.5 -136.5t-71.5 -108.5
v-5h309q70 0 70 -51v-75q0 -54 -66 -54h-335v-5q104 -97 104 -251zM810 392q0 50 -18 97t-54 85t-74 38q-21 0 -61 -36t-77 -91.5t-60 -107.5q-48 -106 -55 -197h170q62 0 114.5 26t83.5 74.5t31 111.5zM664 -419q40 0 69 28t44 69.5t15 82.5q0 63 -27.5 118t-78.5 88
t-112 33h-190q0 -132 40.5 -228t106 -143.5t133.5 -47.5z" />
    <glyph glyph-name="uniFEEE" unicode="&#x648;" horiz-adv-x="1161" arabic-form="final" 
d="M289 -427l-19 173q203 14 326.5 79t156.5 175h-173q-136 0 -234 51t-148.5 139.5t-50.5 199.5q0 121 54.5 215.5t152 147.5t219.5 53q120 0 205.5 -56.5t126 -157.5t40.5 -235v-177h218q70 0 70 -51v-75q0 -54 -66 -54h-235q-34 -144 -124 -233t-220 -132.5t-299 -61.5z
M541 637q-62 0 -111.5 -29.5t-78 -83t-28.5 -122.5q0 -105 70 -163.5t188 -58.5h185v127q0 158 -55 244t-170 86z" />
    <glyph glyph-name="uniFEF0" unicode="&#x649;" horiz-adv-x="1981" arabic-form="final" 
d="M1598 282v321h-46q-156 0 -215 -60q-58 -58 -58 -180v-296q0 -140 -79 -255t-219.5 -181t-309.5 -66q-240 0 -391 84t-215.5 207t-64.5 241q0 103 30 202t86 173l148 -81q-41 -57 -63 -131t-22 -149q0 -117 59.5 -198t169.5 -122t259 -41q114 0 213 35.5t159 103
t60 158.5v333q0 195 102 294.5t305 99.5h272v-422q0 -67 10 -104t33 -52.5t65 -15.5h97q70 0 70 -51v-75q0 -54 -66 -54h-129q-87 0 -145.5 38.5t-86.5 102.5t-28 141z" />
    <glyph glyph-name="uniFEF2" unicode="&#x64a;" horiz-adv-x="1981" arabic-form="final" 
d="M1598 282v321h-46q-156 0 -215 -60q-58 -58 -58 -180v-296q0 -140 -79 -255t-219.5 -181t-309.5 -66q-240 0 -391 84t-215.5 207t-64.5 241q0 103 30 202t86 173l148 -81q-41 -57 -63 -131t-22 -149q0 -117 59.5 -198t169.5 -122t259 -41q114 0 213 35.5t159 103
t60 158.5v333q0 195 102 294.5t305 99.5h272v-422q0 -67 10 -104t33 -52.5t65 -15.5h97q70 0 70 -51v-75q0 -54 -66 -54h-129q-87 0 -145.5 38.5t-86.5 102.5t-28 141zM531 -788q-45 0 -75.5 30.5t-30.5 75.5q0 43 31 75t75 32q43 0 75 -31.5t32 -75.5q0 -43 -31.5 -74.5
t-75.5 -31.5zM816 -788q-45 0 -75.5 30.5t-30.5 75.5q0 43 31 75t75 32q43 0 75 -31.5t32 -75.5q0 -43 -31.5 -74.5t-75.5 -31.5z" />
    <glyph glyph-name="uniFEF3" unicode="&#x64a;" horiz-adv-x="784" arabic-form="initial" 
d="M-72 54v75q0 51 70 51h331v593h181v-773h-516q-66 0 -66 54zM232 -406q-45 0 -75.5 30.5t-30.5 75.5q0 43 31 75t75 32q43 0 75 -31.5t32 -75.5q0 -43 -31.5 -74.5t-75.5 -31.5zM517 -406q-45 0 -75.5 30.5t-30.5 75.5q0 43 31 75t75 32q43 0 75 -31.5t32 -75.5
q0 -43 -31.5 -74.5t-75.5 -31.5z" />
    <glyph glyph-name="uniFEF4" unicode="&#x64a;" horiz-adv-x="713" arabic-form="medial" 
d="M412 95q-62 -95 -171 -95h-247q-66 0 -66 54v75q0 51 70 51h204q33 0 51 28.5t18 82.5v481h181v-530q92 -62 246 -62h17q70 0 70 -51v-75q0 -54 -66 -54h-13q-101 0 -170.5 25t-123.5 70zM207 -406q-45 0 -75.5 30.5t-30.5 75.5q0 43 31 75t75 32q43 0 75 -31.5t32 -75.5
q0 -43 -31.5 -74.5t-75.5 -31.5zM492 -406q-45 0 -75.5 30.5t-30.5 75.5q0 43 31 75t75 32q43 0 75 -31.5t32 -75.5q0 -43 -31.5 -74.5t-75.5 -31.5z" />
    <glyph glyph-name=".notdef" horiz-adv-x="1049" 
d="M1049 1470v-1470h-1049v1470h1049zM102 102h844v1264h-844v-1264zM457 541q0 51 8 86.5t31 73.5t69 87l33 34q43 42 62.5 72.5t19.5 76.5q0 49 -21.5 88.5t-57.5 62.5t-77 23q-69 0 -112 -48.5t-56 -146.5l-102 17q12 135 84.5 207.5t191.5 72.5q73 0 130.5 -33.5
t90.5 -94t33 -140.5q0 -75 -29 -127.5t-102 -120.5q-45 -42 -64 -66.5t-26.5 -60t-7.5 -104.5v-21h-94q-1 5 -2.5 23t-1.5 39zM569 377v-137h-114v137h114z" />
    <glyph glyph-name=".null" horiz-adv-x="0" 
 />
    <glyph glyph-name="nonmarkingreturn" unicode="&#xd;" horiz-adv-x="569" 
 />
    <glyph glyph-name="NULL" horiz-adv-x="0" 
 />
    <glyph glyph-name="NULL" horiz-adv-x="0" 
 />
    <glyph glyph-name="space" unicode=" " horiz-adv-x="569" 
 />
    <glyph glyph-name="space" unicode="&#xa0;" horiz-adv-x="569" 
 />
    <glyph glyph-name="exclam" unicode="!" horiz-adv-x="797" 
d="M514 1430l-27 -1029h-176l-26 1029h229zM514 229v-229h-229v229h229z" />
    <glyph glyph-name="quotedbl" unicode="&#x22;" 
d="M506 1430v-502h-180v502h180zM813 1430v-502h-180v502h180z" />
    <glyph glyph-name="numbersign" unicode="#" 
d="M408 426l-60 -426h-155l59 426h-195v156h217l37 266h-196v156h219l59 426h156l-60 -426h242l60 426h155l-59 -426h194v-156h-217l-37 -266h195v-156h-217l-60 -426h-155l59 426h-241zM430 582h242l37 266h-242z" />
    <glyph glyph-name="dollar" unicode="$" 
d="M170 35l25 196q57 -39 124.5 -57t186.5 -18v497l-86 43q-148 75 -207 166t-59 203q0 91 40.5 170.5t120 135.5t191.5 75v205h119v-197q158 -3 293 -51l-29 -189q-50 29 -110.5 44.5t-153.5 15.5v-445l38 -21q10 -5 47 -25t78 -46q59 -36 101 -77.5t69 -105.5t27 -155
q0 -108 -44 -195t-125.5 -143t-190.5 -73v-205h-119v192q-111 0 -185.5 14.5t-150.5 45.5zM371 1071q0 -50 33 -94.5t102 -85.5v366q-67 -24 -101 -66.5t-34 -119.5zM768 387q0 72 -34 120.5t-109 86.5v-416q62 19 102.5 78t40.5 131z" />
    <glyph glyph-name="percent" unicode="%" horiz-adv-x="2048" 
d="M1540 1475l-887 -1520h-147l887 1520h147zM225 1044q0 210 76 310t231 100q154 0 231 -101.5t77 -308.5q0 -196 -79.5 -302.5t-228.5 -106.5q-148 0 -227.5 106.5t-79.5 302.5zM659 1065q0 98 -15.5 152t-43 74t-68.5 20q-63 0 -94.5 -61t-31.5 -203q0 -143 32 -206
t94 -63q41 0 68.5 22.5t43 85t15.5 179.5zM1208 385q0 212 76.5 311t231.5 99q153 0 230 -100t77 -310q0 -195 -79 -302.5t-228 -107.5t-228.5 107t-79.5 303zM1642 406q0 98 -15.5 151.5t-43 73.5t-67.5 20q-64 0 -95.5 -60.5t-31.5 -203.5t32 -205.5t95 -62.5
q41 0 68 22.5t42.5 85t15.5 179.5z" />
    <glyph glyph-name="ampersand" unicode="&#x26;" horiz-adv-x="1479" 
d="M633 -25q-142 0 -247 50t-160.5 140.5t-55.5 209.5q0 145 77 248t242 170q-80 95 -113.5 170.5t-33.5 154.5q0 106 47 182t131.5 115t194.5 39q102 0 182 -37t126 -110.5t46 -176.5q0 -112 -80 -207.5t-233 -164.5l291 -332q39 61 59.5 140.5t28.5 205.5h192
q-11 -140 -48.5 -257t-115.5 -232l250 -283h-256l-117 139q-75 -85 -172.5 -124.5t-234.5 -39.5zM877 1122q0 86 -42 131t-128 45q-78 0 -125 -49.5t-47 -134.5q0 -55 29.5 -112t97.5 -130q100 49 157.5 114t57.5 136zM387 389q0 -75 38 -133.5t102.5 -91.5t140.5 -33
q73 0 138 33.5t126 103.5l-344 404q-108 -72 -154.5 -134.5t-46.5 -148.5z" />
    <glyph glyph-name="quotesingle" unicode="'" horiz-adv-x="569" 
d="M375 1430v-502h-180v502h180z" />
    <glyph glyph-name="parenleft" unicode="(" horiz-adv-x="682" 
d="M133 631q0 208 76 423t260 494h184q-171 -298 -243 -512.5t-72 -404.5q0 -203 75 -422t240 -496h-184q-175 258 -255.5 480t-80.5 438z" />
    <glyph glyph-name="parenright" unicode=")" horiz-adv-x="682" 
d="M344 631q0 199 -74 416.5t-241 500.5h184q176 -261 256 -480.5t80 -436.5q0 -140 -32 -277.5t-106 -294.5t-198 -346h-184q171 302 243 514t72 404z" />
    <glyph glyph-name="asterisk" unicode="*" 
d="M401 635l-151 102l225 252l-328 68l58 174l309 -127l-33 326h187l-31 -326l299 127l55 -174l-321 -68l219 -252l-154 -102l-166 283z" />
    <glyph glyph-name="plus" unicode="+" horiz-adv-x="1229" 
d="M96 428v180h428v428h181v-428h428v-180h-428v-428h-181v428h-428z" />
    <glyph glyph-name="comma" unicode="," horiz-adv-x="668" 
d="M448 229l-174 -501h-184l129 501h229z" />
    <glyph glyph-name="hyphen" unicode="-" horiz-adv-x="682" 
d="M604 629v-156h-526v156h526z" />
    <glyph glyph-name="hyphen" unicode="&#x2010;" horiz-adv-x="682" 
d="M604 629v-156h-526v156h526z" />
    <glyph glyph-name="hyphen" unicode="&#xad;" horiz-adv-x="682" 
d="M604 629v-156h-526v156h526z" />
    <glyph glyph-name="period" unicode="." horiz-adv-x="669" 
d="M449 229v-229h-229v229h229z" />
    <glyph glyph-name="slash" unicode="/" horiz-adv-x="569" 
d="M621 1454l-492 -1479h-180l491 1479h181z" />
    <glyph glyph-name="zero" unicode="0" 
d="M84 715q0 214 51.5 380t160.5 262.5t273 96.5q162 0 271 -94t162 -260.5t53 -384.5q0 -202 -48 -368.5t-157 -269t-281 -102.5q-167 0 -275.5 98t-159 264.5t-50.5 377.5zM838 715q0 141 -24.5 269.5t-85 215t-161.5 86.5q-92 0 -151.5 -78t-87 -207t-27.5 -286
q0 -277 69 -424.5t199 -147.5t199.5 146t69.5 426z" />
    <glyph glyph-name="one" unicode="1" 
d="M332 1006l-109 137l350 287h183v-1430h-205v1194z" />
    <glyph glyph-name="two" unicode="2" 
d="M131 245q192 169 285 257q169 158 261.5 295t92.5 262q0 65 -36 116t-98 81t-140 30q-157 0 -328 -92l-21 176q83 35 175 59.5t200 24.5q137 0 242 -48.5t164 -140t59 -216.5q0 -94 -54 -208t-200.5 -280t-410.5 -393h686v-168h-906v219z" />
    <glyph glyph-name="three" unicode="3" 
d="M430 143q91 0 170 26t128.5 81t49.5 137q0 134 -91 203t-261 69h-129v168h109q99 0 180.5 25t130.5 77.5t49 131.5q0 107 -73.5 166t-209.5 59q-100 0 -174.5 -23t-140.5 -55l-12 183q78 29 177 46t181 17q139 0 245 -45.5t165 -132.5t59 -209q0 -124 -81.5 -210
t-225.5 -118v-4q156 -32 237.5 -120.5t81.5 -233.5q0 -200 -140 -303t-423 -103q-135 0 -328 56l13 190q73 -37 155 -57.5t158 -20.5z" />
    <glyph glyph-name="four" unicode="4" 
d="M39 326v168l577 936h293v-936h181v-168h-181v-326h-204v326h-666zM254 494h451v768h-5z" />
    <glyph glyph-name="five" unicode="5" 
d="M467 143q94 0 170.5 35.5t121 100t44.5 147.5q0 100 -46 168.5t-124.5 102.5t-177.5 34q-84 0 -148.5 -13t-126.5 -40l13 752h786v-168h-594l-12 -383q81 20 182 20q127 0 234 -58.5t169 -159.5t62 -224q0 -149 -72.5 -258t-197.5 -166.5t-279 -57.5q-90 0 -163.5 12.5
t-141.5 35.5l6 192q71 -39 139.5 -55.5t155.5 -16.5z" />
    <glyph glyph-name="six" unicode="6" 
d="M698 1286q-126 0 -215 -69.5t-135.5 -187.5t-48.5 -263l4 2q72 71 148.5 101t164.5 30q133 0 230.5 -57.5t149 -159.5t51.5 -233q0 -141 -58.5 -248.5t-163 -166.5t-237.5 -59q-239 0 -360.5 172t-121.5 515q0 234 61 411.5t190.5 279t328.5 101.5q74 0 165.5 -14
t129.5 -31l-29 -182q-110 59 -254 59zM829 444q0 69 -26.5 135t-81 109t-133.5 43q-77 0 -137 -36t-93.5 -101t-33.5 -150q0 -71 29 -140.5t86 -115t136 -45.5t136.5 40.5t87.5 109t30 151.5z" />
    <glyph glyph-name="seven" unicode="7" 
d="M100 1262v168h906v-168l-529 -1262h-225l545 1262h-697z" />
    <glyph glyph-name="eight" unicode="8" 
d="M113 1110q0 95 56.5 173.5t161.5 124.5t244 46q135 0 235.5 -46t154 -120t53.5 -155q0 -123 -59 -209t-199 -160q141 -49 221 -147t80 -234q0 -130 -62.5 -222t-174.5 -139t-259 -47q-125 0 -237 46.5t-181 137.5t-69 216q0 130 79 228t224 149v4q-129 44 -198.5 135.5
t-69.5 218.5zM801 1106q0 60 -34.5 100.5t-90 60t-119.5 19.5q-48 0 -104 -23t-96 -69t-40 -111q0 -45 28 -83.5t91.5 -80t175.5 -96.5q86 64 126.5 112t51.5 84.5t11 86.5zM295 387q0 -75 40.5 -129.5t106.5 -84.5t142 -30q67 0 126.5 26t96.5 76.5t37 133.5q0 65 -23 109
t-57.5 71t-85.5 51q-137 62 -146 66q-20 -15 -43 -30t-49 -30q-78 -50 -111.5 -101t-33.5 -128z" />
    <glyph glyph-name="nine" unicode="9" 
d="M522 530q-132 0 -229.5 57.5t-149 160t-51.5 233.5q0 140 58 247.5t162.5 166.5t240.5 59q233 0 356 -169.5t123 -516.5q0 -240 -59.5 -413t-188.5 -276.5t-331 -103.5q-74 0 -164 14t-131 31l28 183q114 -60 254 -60q126 0 215.5 69.5t136 188t48.5 263.5l-4 -2
q-71 -69 -146.5 -100.5t-167.5 -31.5zM815 985q0 71 -29 140.5t-86.5 115t-138.5 45.5q-75 0 -132.5 -38.5t-88.5 -107t-31 -155.5q0 -69 27 -135.5t82 -109t133 -42.5t138 36t93 101.5t33 149.5z" />
    <glyph glyph-name="colon" unicode=":" horiz-adv-x="669" 
d="M449 1044v-229h-229v229h229zM449 229v-229h-229v229h229z" />
    <glyph glyph-name="semicolon" unicode=";" horiz-adv-x="668" 
d="M448 1044v-229h-229v229h229zM448 229l-174 -501h-184l129 501h229z" />
    <glyph glyph-name="less" unicode="&#x3c;" horiz-adv-x="1229" 
d="M1135 1053v-181l-807 -354l807 -354v-180l-1041 456v156z" />
    <glyph glyph-name="equal" unicode="=" horiz-adv-x="1229" 
d="M1133 823v-180h-1037v180h1037zM1133 393v-180h-1037v180h1037z" />
    <glyph glyph-name="greater" unicode="&#x3e;" horiz-adv-x="1229" 
d="M901 518l-807 354v181l1041 -457v-156l-1041 -456v180z" />
    <glyph glyph-name="question" unicode="?" horiz-adv-x="1024" 
d="M592 805q125 144 125 262q0 66 -32.5 112.5t-89 70.5t-128.5 24q-185 0 -301 -82l-14 194q160 68 340 68q116 0 217 -44t163 -128.5t62 -200.5q0 -73 -24.5 -135.5t-63.5 -115.5t-111 -136q-51 -60 -76 -95.5t-37 -71t-12 -83.5v-43h-192v29q0 81 12 130.5t47.5 102
t114.5 142.5zM629 229v-229h-230v229h230z" />
    <glyph glyph-name="at" unicode="@" horiz-adv-x="1638" 
d="M860 -25q-216 0 -388 90t-271 258t-99 392q0 216 100 384.5t271.5 261.5t378.5 93q181 0 338.5 -77.5t251.5 -216.5t94 -314q0 -180 -83.5 -310.5t-198.5 -195t-203 -64.5q-50 0 -83 30.5t-36 84.5h-4q-54 -56 -110.5 -85.5t-112.5 -29.5q-83 0 -153 44.5t-110.5 120
t-40.5 163.5q0 130 55.5 248.5t156.5 192t229 73.5q151 0 233 -135l31 107h154l-136 -512q-18 -67 -18 -93q0 -53 37 -53q59 0 117.5 52.5t95.5 141t37 189.5q0 154 -72 266.5t-195.5 171t-275.5 58.5q-168 0 -300 -78.5t-206 -215t-74 -306.5q0 -185 74.5 -318.5
t209.5 -203.5t314 -70q128 0 245 47t202 135h155q-100 -154 -260.5 -240t-349.5 -86zM1012 776q0 51 -21.5 90.5t-58 61.5t-80.5 22q-75 0 -137 -48.5t-97.5 -123t-35.5 -147.5q0 -82 44.5 -134.5t123.5 -52.5q72 0 132.5 52.5t95 131t34.5 148.5z" />
    <glyph glyph-name="A" unicode="A" horiz-adv-x="1479" 
d="M385 360l-145 -360h-215l610 1430h215l604 -1430h-223l-146 360h-700zM1020 528l-285 709l-284 -709h569z" />
    <glyph glyph-name="B" unicode="B" horiz-adv-x="1251" 
d="M557 1430q246 0 374 -89t128 -272q0 -129 -68 -213.5t-227 -126.5v-4q107 -10 181.5 -57t112.5 -121.5t38 -165.5q0 -193 -133.5 -287t-405.5 -94h-387v1430h387zM854 1049q0 105 -72 159t-196 54h-211v-443h135q115 0 189.5 19.5t114.5 69.5t40 141zM879 399
q0 125 -86 188.5t-277 63.5h-141v-483h162q172 0 257 56t85 175z" />
    <glyph glyph-name="C" unicode="C" horiz-adv-x="1251" 
d="M862 -25q-226 0 -396.5 92.5t-263.5 261.5t-93 392q0 214 96.5 380.5t268.5 259.5t390 93q182 0 322 -61l-17 -199q-136 80 -295 80q-160 0 -284.5 -72t-194 -199.5t-69.5 -287.5q0 -161 70.5 -288.5t193.5 -199t274 -71.5q84 0 172 19.5t140 49.5l12 -198
q-126 -52 -326 -52z" />
    <glyph glyph-name="D" unicode="D" horiz-adv-x="1479" 
d="M592 1430q216 0 389.5 -86t273 -246t99.5 -373q0 -232 -90 -394.5t-260.5 -246.5t-409.5 -84h-424v1430h422zM1137 719q0 160 -67 280t-186 185t-272 65h-237v-1069h219q252 0 397.5 127t145.5 412z" />
    <glyph glyph-name="E" unicode="E" 
d="M993 1430v-181h-596v-418h543v-180h-543v-471h596v-180h-800v1430h800z" />
    <glyph glyph-name="F" unicode="F" horiz-adv-x="1024" 
d="M930 1430v-181h-555v-418h530v-180h-530v-651h-205v1430h760z" />
    <glyph glyph-name="G" unicode="G" horiz-adv-x="1479" 
d="M793 782h505v-743q-183 -64 -434 -64q-229 0 -400 93t-263 262t-92 391q0 214 96 381t268 259.5t393 92.5q117 0 210 -15t208 -57l-16 -206q-81 53 -174.5 75.5t-216.5 22.5q-162 0 -287.5 -72.5t-194.5 -199.5t-69 -287q0 -162 71 -289.5t194.5 -198.5t274.5 -71
q78 0 124 5.5t104 18.5v434h-301v168z" />
    <glyph glyph-name="H" unicode="H" horiz-adv-x="1479" 
d="M397 651v-651h-204v1430h204v-599h684v599h205v-1430h-205v651h-684z" />
    <glyph glyph-name="I" unicode="I" horiz-adv-x="569" 
d="M387 1430v-1430h-205v1430h205z" />
    <glyph glyph-name="J" unicode="J" horiz-adv-x="797" 
d="M172 156q124 0 179 65t55 209v1000h204v-1061q0 -188 -102 -291t-299 -103q-99 0 -166 25v176q56 -20 129 -20z" />
    <glyph glyph-name="K" unicode="K" horiz-adv-x="1366" 
d="M397 0h-204v1430h204v-629l611 629h272l-672 -676l725 -754h-299l-637 700v-700z" />
    <glyph glyph-name="L" unicode="L" horiz-adv-x="1024" 
d="M385 1430v-1250h598v-180h-803v1430h205z" />
    <glyph glyph-name="M" unicode="M" horiz-adv-x="1933" 
d="M1540 1237l-473 -1237h-201l-473 1237h-4v-1237h-205v1430h338l449 -1188l440 1188h338v-1430h-205v1237h-4z" />
    <glyph glyph-name="N" unicode="N" horiz-adv-x="1479" 
d="M385 1176v-1176h-205v1430h279l631 -1151h4v1151h204v-1430h-262l-647 1176h-4z" />
    <glyph glyph-name="O" unicode="O" horiz-adv-x="1593" 
d="M109 715q0 211 81 379t236.5 264t370.5 96q209 0 364.5 -93.5t239.5 -261.5t84 -384q0 -223 -83.5 -390.5t-239 -258.5t-365.5 -91t-365.5 91.5t-239 259t-83.5 389.5zM1268 715q0 149 -52.5 276.5t-159.5 205t-261 77.5q-146 0 -252 -74.5t-161.5 -201.5t-55.5 -283
q0 -162 55.5 -289t162 -198.5t253.5 -71.5q148 0 254.5 72.5t161.5 199.5t55 287z" />
    <glyph glyph-name="P" unicode="P" 
d="M549 1430q258 0 395 -108t137 -321q0 -140 -63.5 -236.5t-177.5 -145t-267 -48.5h-198v-571h-205v1430h379zM864 1004q0 76 -44.5 131.5t-118.5 84.5t-160 29h-166v-497h203q77 0 142 28t104.5 84.5t39.5 139.5z" />
    <glyph glyph-name="Q" unicode="Q" horiz-adv-x="1593" 
d="M801 -25q-221 0 -377 96t-235.5 264t-79.5 380q0 208 80 376t235.5 265.5t372.5 97.5q207 0 362.5 -92.5t240.5 -262.5t85 -384q0 -157 -44 -291t-130.5 -234t-210.5 -153l332 -301h-254l-267 248q-50 -9 -110 -9zM1268 715q0 141 -50 268.5t-156 209t-267 81.5
q-149 0 -254.5 -75.5t-160 -202.5t-54.5 -281q0 -157 53.5 -283t159.5 -201t258 -75q156 0 262 78t157.5 203.5t51.5 277.5z" />
    <glyph glyph-name="R" unicode="R" horiz-adv-x="1251" 
d="M520 635h-145v-635h-205v1430h375q194 0 311 -45t168 -130t51 -213q0 -81 -36 -149t-103 -114t-156 -62v-4q51 -19 83 -55t69 -113l258 -545h-234l-200 451q-36 83 -65.5 120.5t-67 50.5t-103.5 13zM858 1038q0 100 -73.5 155.5t-215.5 55.5h-194v-434h178q92 0 162 26.5
t106.5 77t36.5 119.5z" />
    <glyph glyph-name="S" unicode="S" horiz-adv-x="1024" 
d="M430 156q70 0 135 26.5t105.5 79.5t40.5 127q0 55 -23 97.5t-81.5 85.5t-172.5 94q-109 50 -180 98.5t-114.5 122t-43.5 178.5q0 118 56.5 206t160.5 135.5t242 47.5q80 0 157 -13t148 -38l-29 -189q-83 35 -139.5 47.5t-126.5 12.5q-119 0 -185.5 -50t-66.5 -141
q0 -55 31 -95t75 -68t118 -64l45 -22q109 -51 177.5 -99t118.5 -130t50 -204q0 -136 -62.5 -232t-179.5 -145t-278 -49q-71 0 -135.5 14.5t-159.5 45.5l20 190q75 -31 155 -50t142 -19z" />
    <glyph glyph-name="T" unicode="T" 
d="M23 1249v181h1093v-181h-444v-1249h-205v1249h-444z" />
    <glyph glyph-name="U" unicode="U" horiz-adv-x="1479" 
d="M1294 588q0 -192 -63.5 -329.5t-188 -210.5t-303.5 -73q-178 0 -302.5 72.5t-188.5 209.5t-64 331v842h205v-816q0 -230 86 -344t264 -114t264.5 114t86.5 344v816h204v-842z" />
    <glyph glyph-name="V" unicode="V" horiz-adv-x="1366" 
d="M242 1430l440 -1250h4l453 1250h215l-547 -1430h-256l-539 1430h230z" />
    <glyph glyph-name="W" unicode="W" horiz-adv-x="2048" 
d="M1024 1249l-313 -1249h-275l-432 1430h225l342 -1225h4l306 1225h290l310 -1225h4l342 1225h217l-440 -1430h-265l-311 1249h-4z" />
    <glyph glyph-name="X" unicode="X" horiz-adv-x="1366" 
d="M262 0h-246l527 743l-480 687h246l381 -549l379 549h234l-482 -682l529 -748h-258l-422 606z" />
    <glyph glyph-name="Y" unicode="Y" horiz-adv-x="1366" 
d="M23 1430h239l426 -642l416 642h239l-557 -832v-598h-204v598z" />
    <glyph glyph-name="Z" unicode="Z" 
d="M807 1249h-717v181h952v-185l-739 -1065h752v-180h-989v184z" />
    <glyph glyph-name="bracketleft" unicode="[" horiz-adv-x="682" 
d="M582 1548v-143h-207v-1548h207v-144h-387v1835h387z" />
    <glyph glyph-name="backslash" unicode="\" horiz-adv-x="569" 
d="M129 1454l492 -1479h-181l-491 1479h180z" />
    <glyph glyph-name="bracketright" unicode="]" horiz-adv-x="682" 
d="M307 -143v1548h-207v143h387v-1835h-387v144h207z" />
    <glyph glyph-name="asciicircum" unicode="^" horiz-adv-x="1229" 
d="M307 602h-184l407 828h168l408 -828h-184l-308 639z" />
    <glyph glyph-name="underscore" unicode="_" horiz-adv-x="1024" 
d="M1024 -154v-102h-1024v102h1024z" />
    <glyph glyph-name="grave" unicode="`" horiz-adv-x="569" 
d="M238 1485l182 -295h-137l-269 295h224z" />
    <glyph glyph-name="a" unicode="a" 
d="M801 135q-56 -77 -140 -118.5t-186 -41.5q-182 0 -281.5 84t-99.5 242q0 112 65 187t177 116t275 41q127 0 173 -4q0 145 -60.5 208.5t-197.5 63.5q-80 0 -160 -27.5t-143 -78.5l-10 164q165 98 344 98q216 0 318 -105t102 -325v-459q0 -115 8 -180h-180v135h-4zM659 502
q-167 0 -263.5 -51t-96.5 -150q0 -49 27 -87.5t72.5 -60.5t97.5 -22q93 0 156 34.5t97.5 97t34.5 143.5v92q-14 1 -51.5 2.5t-73.5 1.5z" />
    <glyph glyph-name="b" unicode="b" horiz-adv-x="1251" 
d="M356 1536v-635h4q105 168 347 168q142 0 243.5 -69.5t154 -189.5t52.5 -269q0 -154 -49 -282.5t-150 -206t-249 -77.5q-113 0 -207.5 45.5t-149.5 126.5h-4v-147h-184v1536h192zM952 528q0 117 -34 204t-98.5 134t-155.5 47q-97 0 -167 -55t-105.5 -145t-35.5 -193
q0 -97 34.5 -186.5t104 -146t169.5 -56.5q89 0 154.5 55.5t99.5 146.5t34 195z" />
    <glyph glyph-name="c" unicode="c" horiz-adv-x="909" 
d="M610 -25q-154 0 -275.5 74t-189 199.5t-67.5 273.5q0 158 68 283.5t188.5 194.5t275.5 69q55 0 123.5 -12t110.5 -29l-17 -160q-106 45 -209 45q-101 0 -177.5 -54.5t-117 -144t-40.5 -192.5q0 -100 37.5 -189t115.5 -145.5t195 -56.5q50 0 106.5 15.5t100.5 43.5
l14 -172q-52 -22 -108.5 -32.5t-133.5 -10.5z" />
    <glyph glyph-name="d" unicode="d" horiz-adv-x="1251" 
d="M899 147q-55 -80 -148.5 -126t-207.5 -46q-148 0 -249.5 77.5t-150.5 206t-49 282.5q0 144 51 264.5t154 192t246 71.5q119 0 206 -43.5t140 -124.5h4v635h192v-1536h-184v147h-4zM895 520q0 99 -33.5 188.5t-103.5 147t-174 57.5q-93 0 -157 -50t-96 -135.5t-32 -190.5
q0 -115 35.5 -207.5t101 -145.5t152.5 -53q101 0 170 57.5t103 146.5t34 185z" />
    <glyph glyph-name="e" unicode="e" 
d="M637 -25q-264 0 -403.5 147t-139.5 419q0 156 61.5 275.5t173 186t255.5 66.5q460 0 460 -590h-745q1 -102 48.5 -181t126 -123t169.5 -44q80 0 175 32t147 73v-193q-104 -42 -177.5 -55t-150.5 -13zM578 913q-115 0 -189 -78t-90 -212h541q-1 84 -32.5 150t-90.5 103
t-139 37z" />
    <glyph glyph-name="f" unicode="f" horiz-adv-x="797" 
d="M43 889v155h246v103q0 145 33.5 234t110.5 134.5t206 45.5q49 0 129 -13l-8 -155q-16 6 -42 9t-50 3q-103 0 -145 -54.5t-42 -176.5v-130h277v-155h-277v-889h-192v889h-246z" />
    <glyph glyph-name="g" unicode="g" horiz-adv-x="1251" 
d="M541 0q-144 0 -245 70.5t-151.5 187.5t-50.5 256q0 146 55 273t160.5 204.5t251.5 77.5q126 0 212 -43.5t132 -136.5h4v155h178v-1001q0 -244 -133 -371t-405 -127q-95 0 -175.5 16.5t-199.5 55.5l21 178q115 -54 196 -74t178 -20q102 0 175 43.5t112 124t39 190.5v103
h-4q-60 -79 -152.5 -120.5t-197.5 -41.5zM895 512q0 111 -34.5 202t-103.5 145t-167 54q-90 0 -156 -56t-100.5 -145t-34.5 -188q0 -102 36.5 -186t103 -133t151.5 -49q89 0 156.5 45.5t108 127t40.5 183.5z" />
    <glyph glyph-name="h" unicode="h" horiz-adv-x="1251" 
d="M668 913q-114 0 -187.5 -68.5t-99 -163.5t-25.5 -192v-489h-192v1536h192v-641h4q54 85 140.5 129.5t195.5 44.5q196 0 293.5 -115t97.5 -333v-621h-192v549q0 190 -55.5 277t-171.5 87z" />
    <glyph glyph-name="i" unicode="i" horiz-adv-x="569" 
d="M393 1495v-217h-217v217h217zM381 1044v-1044h-193v1044h193z" />
    <glyph glyph-name="j" unicode="j" horiz-adv-x="569" 
d="M393 1495v-217h-217v217h217zM49 -287q70 0 104.5 60.5t34.5 163.5v1107h193v-1112q0 -210 -77.5 -298.5t-217.5 -88.5q-84 0 -119 9l6 165q31 -6 76 -6z" />
    <glyph glyph-name="k" unicode="k" 
d="M356 0h-192v1536h192v-915l420 423h262l-485 -462l547 -582h-277l-467 537v-537z" />
    <glyph glyph-name="l" unicode="l" horiz-adv-x="569" 
d="M381 1536v-1536h-193v1536h193z" />
    <glyph glyph-name="m" unicode="m" horiz-adv-x="1821" 
d="M1282 913q-89 0 -150.5 -51t-92.5 -139t-31 -199v-524h-193v627q0 134 -45.5 210t-140.5 76q-89 0 -151 -50.5t-93 -138t-31 -198.5v-526h-192v1044h180v-151h4q57 92 136.5 134t195.5 42q98 0 179 -52t118 -151q29 61 81 107t116.5 71t127.5 25q177 0 269 -102.5
t92 -296.5v-670h-193v627q0 136 -46.5 211t-139.5 75z" />
    <glyph glyph-name="n" unicode="n" horiz-adv-x="1251" 
d="M666 913q-99 0 -168.5 -52t-105.5 -148t-36 -228v-485h-192v1044h186v-165h4q47 90 139 140t203 50q194 0 292.5 -114t98.5 -330v-625h-192v565q0 173 -53.5 260.5t-175.5 87.5z" />
    <glyph glyph-name="o" unicode="o" horiz-adv-x="1251" 
d="M94 522q0 159 66.5 283.5t187.5 194t279 69.5q152 0 272.5 -68t189 -192.5t68.5 -286.5q0 -147 -67 -272.5t-188 -200t-277 -74.5q-151 0 -272.5 73t-190 198.5t-68.5 275.5zM952 522q0 105 -40 194.5t-114.5 143t-172.5 53.5q-97 0 -171 -54.5t-114.5 -144.5t-40.5 -192
q0 -103 38 -192.5t112 -144t178 -54.5q103 0 176.5 54t111 143.5t37.5 193.5z" />
    <glyph glyph-name="p" unicode="p" horiz-adv-x="1251" 
d="M348 1044v-147h4q56 81 149.5 126.5t205.5 45.5q142 0 243.5 -69.5t154 -189.5t52.5 -269q0 -154 -49 -282.5t-150 -206t-249 -77.5q-243 0 -349 168h-4v-573h-192v1474h184zM952 528q0 128 -38 214.5t-102.5 128.5t-143.5 42q-98 0 -169 -55t-107 -145t-36 -193
q0 -97 34.5 -186.5t104 -146t169.5 -56.5q89 0 154 54.5t99.5 145.5t34.5 197z" />
    <glyph glyph-name="q" unicode="q" horiz-adv-x="1251" 
d="M891 137q-47 -76 -141.5 -119t-206.5 -43q-145 0 -246.5 76t-152 204.5t-50.5 285.5q0 144 50.5 264t152.5 192t248 72q113 0 206.5 -46t147.5 -128h4v149h184v-1474h-192v567h-4zM895 520q0 101 -34.5 191t-105 146t-171.5 56q-93 0 -157 -50t-96 -135.5t-32 -190.5
q0 -119 36.5 -211.5t102.5 -143.5t150 -51q104 0 173.5 60t101.5 149.5t32 179.5z" />
    <glyph glyph-name="r" unicode="r" horiz-adv-x="797" 
d="M344 1044v-161h4q40 84 115.5 135t159.5 51q58 0 125 -14v-172q-45 18 -107 18q-87 0 -151.5 -53t-99 -149.5t-34.5 -223.5v-475h-192v1044h180z" />
    <glyph glyph-name="s" unicode="s" horiz-adv-x="797" 
d="M326 131q83 0 139.5 38t56.5 112q0 46 -40.5 87t-149.5 89q-102 48 -160 94t-80 93.5t-22 105.5q0 105 48.5 177.5t131.5 107t188 34.5q62 0 118 -10.5t122 -30.5l-16 -168q-28 18 -98.5 35.5t-104.5 17.5q-81 0 -133 -32t-52 -95q0 -42 22.5 -72.5t65 -56t113.5 -57.5
q97 -42 149 -83t77.5 -93.5t25.5 -122.5q0 -98 -45.5 -172t-129 -114t-192.5 -40q-87 0 -156.5 13.5t-127.5 44.5l10 172q48 -32 118.5 -53t121.5 -21z" />
    <glyph glyph-name="t" unicode="t" horiz-adv-x="797" 
d="M569 -25q-158 0 -238.5 78.5t-80.5 222.5v613h-236v155h236v242l192 62v-304h277v-155h-277v-576q0 -59 19 -95.5t56 -61.5t87 -25q71 0 131 37v-164q-53 -15 -89 -22t-77 -7z" />
    <glyph glyph-name="u" unicode="u" horiz-adv-x="1251" 
d="M897 166q-26 -55 -75 -98.5t-119.5 -68t-147.5 -24.5q-197 0 -294 114.5t-97 332.5v622h192v-560q0 -180 55.5 -266.5t174.5 -86.5q96 0 165.5 50.5t106.5 146.5t37 231v485h192v-1044h-186v166h-4z" />
    <glyph glyph-name="v" unicode="v" horiz-adv-x="1024" 
d="M233 1044l283 -851h4l289 851h192l-374 -1044h-230l-374 1044h210z" />
    <glyph glyph-name="w" unicode="w" horiz-adv-x="1706" 
d="M848 877l-264 -877h-224l-335 1044h211l239 -864h4l266 864h228l262 -864h4l254 864h188l-335 -1044h-224l-270 877h-4z" />
    <glyph glyph-name="x" unicode="x" horiz-adv-x="1024" 
d="M250 0h-230l377 547l-340 497h240l227 -372l232 372h215l-336 -497l369 -547h-238l-258 410z" />
    <glyph glyph-name="y" unicode="y" horiz-adv-x="1024" 
d="M176 -299q87 0 147 75t83 181q0 16 -13 49t-16 41l-363 997h211l281 -864h4l287 864h194l-413 -1146q-39 -106 -82.5 -180.5t-115 -123.5t-175.5 -49q-50 0 -86 6.5t-45 8.5l12 157q50 -16 90 -16z" />
    <glyph glyph-name="z" unicode="z" horiz-adv-x="1024" 
d="M690 889h-573v155h796v-167l-602 -721h625v-156h-848v168z" />
    <glyph glyph-name="braceleft" unicode="{" horiz-adv-x="682" 
d="M252 -33v379q0 59 -23.5 107.5t-63.5 76.5t-89 29v143q47 2 87.5 28.5t64.5 73t24 105.5v381q0 72 31.5 131t87.5 93t127 34h145v-143h-108q-53 0 -78 -40.5t-25 -113.5v-377q0 -90 -50.5 -156t-137.5 -85v-4q89 -14 138.5 -81t49.5 -167v-365q0 -80 25 -119.5t80 -39.5
h106v-144h-156q-60 0 -114.5 33t-87.5 91.5t-33 129.5z" />
    <glyph glyph-name="bar" unicode="|" horiz-adv-x="455" 
d="M317 1536v-2048h-180v2048h180z" />
    <glyph glyph-name="braceright" unicode="}" horiz-adv-x="682" 
d="M147 -143q103 0 103 153v377q0 91 50 156.5t138 85.5v4q-89 13 -138.5 80.5t-49.5 167.5v364q0 80 -25 120t-80 40h-106v143h156q60 0 114.5 -33t87.5 -91t33 -130v-379q0 -59 23.5 -107t63.5 -76.5t89 -29.5v-143q-47 -1 -87.5 -27.5t-64.5 -73.5t-24 -106v-381
q0 -72 -31.5 -131t-87.5 -93t-127 -34h-145v144h108z" />
    <glyph glyph-name="asciitilde" unicode="~" horiz-adv-x="1229" 
d="M831 365q-93 0 -232 65q-93 42 -133.5 58t-68.5 16q-48 0 -88.5 -33.5t-93.5 -116.5l-74 144q91 174 256 174q94 0 242 -70q78 -36 120 -53t75 -17q48 0 89.5 37.5t90.5 112.5l73 -143q-85 -174 -256 -174z" />
    <glyph glyph-name="exclamdown" unicode="&#xa1;" horiz-adv-x="797" 
d="M514 1044v-229h-229v229h229zM487 643l27 -1028h-229l26 1028h176z" />
    <glyph glyph-name="cent" unicode="&#xa2;" 
d="M715 -25q-82 0 -162 25l-80 -272h-117l93 319q-125 69 -196 195.5t-71 279.5q0 157 66.5 281.5t187.5 195t279 70.5q16 0 28 -2l68 231h117l-72 -243q62 -13 92 -27l-16 -160q-59 26 -119 35l-215 -747q66 -25 137 -25q51 0 107.5 15.5t99.5 43.5l14 -172
q-95 -43 -241 -43zM387 522q0 -85 28 -164t85 -135l198 688q-93 -6 -163.5 -60t-109 -140.5t-38.5 -188.5z" />
    <glyph glyph-name="sterling" unicode="&#xa3;" 
d="M307 180v533h-162v118h162v117q0 143 55.5 257.5t167.5 181.5t275 67q68 0 125 -10t114 -29l-16 -190q-53 23 -101 36t-104 13q-151 0 -231 -88.5t-80 -251.5v-103h330v-118h-330v-533h506v-180h-897v180h186z" />
    <glyph glyph-name="currency" unicode="&#xa4;" 
d="M569 207q-86 0 -165.5 26t-137.5 78l-112 -116l-105 104l115 117q-51 59 -76.5 135.5t-25.5 163.5q0 88 25 167.5t77 135.5l-115 110l105 107l112 -113q58 48 140 74.5t163 26.5q86 0 166 -26.5t142 -74.5l110 113l103 -107l-111 -110q48 -54 73 -134t25 -169
q0 -86 -25 -164t-73 -135l111 -117l-103 -104l-110 116q-58 -50 -139 -77t-169 -27zM897 715q0 87 -42.5 165.5t-118 126.5t-169.5 48q-88 0 -162.5 -45.5t-118.5 -124t-44 -170.5q0 -91 43 -169t118 -124.5t166 -46.5q92 0 167 47t118 125t43 168z" />
    <glyph glyph-name="yen" unicode="&#xa5;" 
d="M180 332v119h289v147l-16 33h-273v119h207l-375 680h228l335 -642l324 642h227l-370 -680h207v-119h-273l-16 -33v-147h289v-119h-289v-332h-205v332h-289z" />
    <glyph glyph-name="brokenbar" unicode="&#xa6;" horiz-adv-x="455" 
d="M317 1382v-716h-180v716h180zM317 358v-716h-180v716h180z" />
    <glyph glyph-name="section" unicode="&#xa7;" 
d="M537 -86q69 0 125 23t88 64.5t32 96.5t-52 94.5t-177 79.5q-124 40 -206 84t-128.5 109.5t-46.5 159.5q0 85 37 146.5t113 107.5q-69 38 -105.5 100.5t-36.5 142.5q0 104 61 179t160 114t211 39q140 0 293 -39l-18 -186q-65 28 -131 42.5t-119 14.5q-109 0 -186.5 -37
t-77.5 -119q0 -63 55 -106t180 -84q134 -43 215 -87t123.5 -105t42.5 -150q0 -79 -32.5 -137t-112.5 -121q61 -39 96 -101t35 -135q0 -118 -68 -199t-174.5 -120t-222.5 -39q-185 0 -328 51l19 189q70 -37 157 -54.5t179 -17.5zM809 559q0 66 -55 116t-185 93
q-125 43 -141 55q-76 -57 -76 -157q0 -72 63.5 -122.5t192.5 -92.5q108 -36 127 -45q41 45 57.5 79.5t16.5 73.5z" />
    <glyph glyph-name="dieresis" unicode="&#xa8;" horiz-adv-x="569" 
d="M213 1409v-205h-193v205h193zM549 1409v-205h-193v205h193z" />
    <glyph glyph-name="copyright" unicode="&#xa9;" horiz-adv-x="1638" 
d="M80 715q0 198 98.5 368t268.5 270.5t372 100.5t372 -100.5t269 -270t99 -368.5t-99 -369t-269 -270.5t-372 -100.5q-199 0 -368.5 99.5t-270 269.5t-100.5 371zM1378 715q0 165 -72.5 301t-200.5 215.5t-288 79.5q-154 0 -281.5 -78.5t-201.5 -215t-74 -302.5
q0 -171 75 -307t203 -212.5t281 -76.5t281 77t203 213t75 306zM838 264q-124 0 -219.5 58t-148 161t-52.5 232q0 127 48.5 228t142 159.5t222.5 58.5q95 0 172.5 -37.5t127 -107t61.5 -162.5h-150q-15 75 -71.5 119.5t-136.5 44.5q-82 0 -141 -38t-89.5 -105.5t-30.5 -155.5
q0 -90 32.5 -160.5t92.5 -110.5t140 -40t136 43.5t68 132.5h150q-15 -97 -64.5 -169.5t-124.5 -111.5t-165 -39z" />
    <glyph glyph-name="ordfeminine" unicode="&#xaa;" horiz-adv-x="739" 
d="M514 889q-59 -94 -201 -94q-66 0 -126.5 19t-100 64t-39.5 113q0 99 95 155t268 56q65 0 106 -4q0 75 -41 106t-121 31q-131 0 -219 -67l-6 129q111 57 242 57q118 0 183.5 -27t97.5 -83t32 -152v-272q0 -38 6 -109h-172v78h-4zM516 1092q-59 4 -84 4q-101 0 -159 -27.5
t-58 -83.5q0 -34 36 -53t87 -19q178 0 178 123v56z" />
    <glyph glyph-name="guillemotleft" unicode="&#xab;" 
d="M397 965h181l-267 -414l267 -414h-181l-293 414zM811 965h180l-266 -414l266 -414h-180l-293 414z" />
    <glyph glyph-name="logicalnot" unicode="&#xac;" horiz-adv-x="1229" 
d="M96 643v180h1037v-610h-181v430h-856z" />
    <glyph glyph-name="registered" unicode="&#xae;" horiz-adv-x="1638" 
d="M80 715q0 198 98.5 368t270 270.5t370.5 100.5q202 0 372 -100.5t269 -270t99 -368.5t-99 -369t-269 -270.5t-372 -100.5q-199 0 -368.5 99.5t-270 269.5t-100.5 371zM1378 715q0 165 -72.5 301t-200.5 215.5t-288 79.5q-154 0 -281.5 -78.5t-201.5 -215t-74 -302.5
q0 -171 75 -307t203 -212.5t281 -76.5t281 77t203 213t75 306zM690 659v-360h-155v838h311q152 0 230.5 -58t78.5 -188q0 -95 -51.5 -155t-167.5 -70l225 -367h-160l-217 360h-94zM999 903q0 58 -41 86.5t-127 28.5h-141v-240h146q86 0 124.5 28.5t38.5 96.5z" />
    <glyph glyph-name="macron" unicode="&#xaf;" horiz-adv-x="569" 
d="M588 1378v-119h-606v119h606z" />
    <glyph glyph-name="degree" unicode="&#xb0;" horiz-adv-x="819" 
d="M117 1161q0 79 39 147.5t106.5 107t147.5 38.5q78 0 146.5 -38.5t107 -106.5t38.5 -148t-39.5 -149t-106.5 -106.5t-146 -37.5q-80 0 -147.5 38.5t-106.5 107t-39 147.5zM410 1323q-45 0 -82 -21.5t-58.5 -59t-21.5 -81.5t21.5 -81.5t58.5 -59t82 -21.5q44 0 81 21.5
t58.5 59t21.5 81.5t-21.5 81.5t-58.5 59t-81 21.5z" />
    <glyph glyph-name="plusminus" unicode="&#xb1;" horiz-adv-x="1229" 
d="M524 254v301h-428v180h428v301h181v-301h428v-180h-428v-301h-181zM1133 180v-180h-1037v180h1037z" />
    <glyph glyph-name="twosuperior" unicode="&#xb2;" horiz-adv-x="739" 
d="M481 1499q0 50 -48 80.5t-118 30.5q-52 0 -107 -16t-104 -44l-12 152q119 51 254 51q142 0 229 -64t87 -184q0 -61 -49.5 -141.5t-127 -160.5t-159.5 -142q-18 -13 -35.5 -24t-22.5 -13v-4h408v-143h-613v155q231 180 324.5 288.5t93.5 178.5z" />
    <glyph glyph-name="threesuperior" unicode="&#xb3;" horiz-adv-x="739" 
d="M279 1008q85 0 151 26.5t66 81.5q0 44 -31.5 75t-79 46.5t-94.5 15.5h-101v144h76q65 0 115.5 15.5t78 42t27.5 58.5q0 49 -56 73t-128 24q-50 0 -96.5 -11.5t-100.5 -33.5l-8 147q49 18 116 29.5t134 11.5q94 0 166.5 -27t113 -79t40.5 -125q0 -75 -56.5 -126
t-148.5 -69v-4q104 -15 158.5 -72.5t54.5 -142.5q0 -113 -86.5 -178.5t-292.5 -65.5q-109 0 -231 33l20 156q24 -20 80.5 -32.5t112.5 -12.5z" />
    <glyph glyph-name="acute" unicode="&#xb4;" horiz-adv-x="569" 
d="M555 1485l-268 -295h-137l182 295h223z" />
    <glyph glyph-name="uni00B5" unicode="&#xb5;" horiz-adv-x="1251" 
d="M897 166q-26 -57 -78 -100t-121 -67t-143 -24q-62 0 -110 9.5t-89 31.5v-446h-192v1474h192v-552q0 -196 56.5 -278.5t173.5 -82.5q94 0 163.5 49.5t107.5 145t38 231.5v487h192v-1044h-186v166h-4z" />
    <glyph glyph-name="paragraph" unicode="&#xb6;" horiz-adv-x="1229" 
d="M664 1286v-1515h-181v911q-136 1 -236 48.5t-153 130.5t-53 190q0 187 122 283t351 96h565v-1659h-180v1515h-235z" />
    <glyph glyph-name="periodcentered" unicode="&#xb7;" horiz-adv-x="569" 
d="M164 623q0 29 16.5 56t44.5 44.5t62 17.5q31 0 58.5 -15.5t44 -40.5t16.5 -62q0 -40 -17 -66t-43 -41.5t-59 -15.5q-35 0 -62.5 18t-44 46.5t-16.5 58.5z" />
    <glyph glyph-name="cedilla" unicode="&#xb8;" horiz-adv-x="569" 
d="M377 -373q45 0 80 21t35 73q0 38 -28 59t-67 21q-38 0 -84 -16l-34 39l131 176h96l-94 -123l4 -4q14 6 30.5 8t30.5 2q73 0 121.5 -40t48.5 -109q0 -60 -36.5 -103t-98 -64.5t-133.5 -21.5q-91 0 -172 43l37 70q43 -18 72 -24.5t61 -6.5z" />
    <glyph glyph-name="onesuperior" unicode="&#xb9;" horiz-adv-x="739" 
d="M172 1473l-70 94l228 174h166v-864h-181v708z" />
    <glyph glyph-name="ordmasculine" unicode="&#xba;" horiz-adv-x="813" 
d="M406 795q-105 0 -185.5 45t-124 120.5t-43.5 163.5q0 97 44.5 172t125 116.5t183.5 41.5q105 0 184.5 -41.5t123.5 -116.5t44 -172q0 -93 -45.5 -168t-126 -118t-180.5 -43zM590 1124q0 87 -45 149t-139 62q-97 0 -141 -64.5t-44 -146.5q0 -103 48 -157t137 -54
q90 0 137 54t47 157z" />
    <glyph glyph-name="guillemotright" unicode="&#xbb;" 
d="M147 965h181l293 -414l-293 -414h-181l267 414zM561 965h180l293 -414l-293 -414h-180l266 414z" />
    <glyph glyph-name="onequarter" unicode="&#xbc;" horiz-adv-x="1708" 
d="M1327 1475l-887 -1520h-147l887 1520h147zM137 1174l-69 94l227 174h166v-864h-180v708zM920 170v125l376 569h238v-551h106v-143h-106v-170h-180v170h-434zM1087 313h267v408h-4z" />
    <glyph glyph-name="onehalf" unicode="&#xbd;" horiz-adv-x="1708" 
d="M1264 1475l-887 -1520h-148l887 1520h148zM137 1174l-69 94l227 174h166v-864h-180v708zM1446 623q0 49 -48.5 79.5t-117.5 30.5q-53 0 -107.5 -15.5t-103.5 -43.5l-12 151q122 52 254 52q142 0 228.5 -63.5t86.5 -184.5q0 -63 -49.5 -142t-127 -160.5t-159.5 -142.5
q-18 -14 -57 -37v-4h407v-143h-612v156q231 180 324.5 288.5t93.5 178.5z" />
    <glyph glyph-name="threequarters" unicode="&#xbe;" horiz-adv-x="1708" 
d="M1415 1475l-887 -1520h-147l887 1520h147zM279 709q85 0 151 26.5t66 81.5q0 44 -31.5 75t-79 46.5t-94.5 15.5h-101v144h76q65 0 115.5 15.5t78 42t27.5 58.5q0 49 -56 73t-128 24q-50 0 -96.5 -11.5t-100.5 -33.5l-8 147q49 18 116 29.5t134 11.5q94 0 166.5 -27
t113 -79t40.5 -125q0 -75 -56.5 -126t-148.5 -69v-4q104 -15 158.5 -72.5t54.5 -142.5q0 -113 -86.5 -178.5t-292.5 -65.5q-109 0 -231 33l20 156q24 -20 80.5 -32.5t112.5 -12.5zM920 170v125l376 569h238v-551h106v-143h-106v-170h-180v170h-434zM1087 313h267v408h-4z
" />
    <glyph glyph-name="questiondown" unicode="&#xbf;" horiz-adv-x="1024" 
d="M625 1044v-229h-230v229h230zM532 -410q-116 0 -217 44t-163 128.5t-62 200.5q0 74 24.5 136t63.5 114.5t111 136.5q51 61 76 96t37 71t12 83v43h192v-29q0 -80 -11.5 -130t-47.5 -102t-115 -142q-125 -137 -125 -263q0 -66 32.5 -112.5t89 -70t128.5 -23.5q187 0 301 82
l14 -195q-160 -68 -340 -68z" />
    <glyph glyph-name="Agrave" unicode="&#xc0;" horiz-adv-x="1479" 
d="M385 360l-145 -360h-215l610 1430h215l604 -1430h-223l-146 360h-700zM1020 528l-285 709l-284 -709h569zM693 1829l182 -295h-137l-269 295h224z" />
    <glyph glyph-name="Aacute" unicode="&#xc1;" horiz-adv-x="1479" 
d="M385 360l-145 -360h-215l610 1430h215l604 -1430h-223l-146 360h-700zM1020 528l-285 709l-284 -709h569zM1010 1829l-268 -295h-137l182 295h223z" />
    <glyph glyph-name="Acircumflex" unicode="&#xc2;" horiz-adv-x="1479" 
d="M385 360l-145 -360h-215l610 1430h215l604 -1430h-223l-146 360h-700zM1020 528l-285 709l-284 -709h569zM605 1534h-162l202 295h187l205 -295h-164l-135 201z" />
    <glyph glyph-name="Atilde" unicode="&#xc3;" horiz-adv-x="1479" 
d="M385 360l-145 -360h-215l610 1430h215l604 -1430h-223l-146 360h-700zM1020 528l-285 709l-284 -709h569zM895 1544q-36 0 -72.5 11.5t-91.5 35.5q-58 26 -90 36.5t-65 10.5q-42 0 -63.5 -27t-26.5 -67h-94q15 110 64 169.5t128 59.5q35 0 73 -12t95 -37q56 -25 87.5 -35
t66.5 -10q39 0 60.5 26.5t27.5 67.5h94q-17 -115 -66.5 -172t-126.5 -57z" />
    <glyph glyph-name="Adieresis" unicode="&#xc4;" horiz-adv-x="1479" 
d="M385 360l-145 -360h-215l610 1430h215l604 -1430h-223l-146 360h-700zM1020 528l-285 709l-284 -709h569zM668 1753v-205h-193v205h193zM1004 1753v-205h-193v205h193z" />
    <glyph glyph-name="Aring" unicode="&#xc5;" horiz-adv-x="1479" 
d="M385 360l-145 -360h-215l610 1430h215l604 -1430h-223l-146 360h-700zM1020 528l-285 709l-284 -709h569zM531 1706q0 57 28.5 105t76 76t104.5 28q56 0 104 -28.5t76.5 -77t28.5 -103.5q0 -54 -28 -102t-76 -77.5t-105 -29.5q-56 0 -104 28.5t-76.5 76.5t-28.5 104z
M740 1833q-34 0 -63.5 -18t-46.5 -46t-17 -63q0 -34 18 -64.5t47 -46.5t62 -16q32 0 61.5 17.5t47.5 46t18 63.5q0 36 -17.5 64t-47 45.5t-62.5 17.5z" />
    <glyph glyph-name="AE" unicode="&#xc6;" horiz-adv-x="1933" 
d="M446 360l-215 -360h-227l864 1430h899v-181h-567l27 -418h504v-180h-494l29 -471h522v-180h-711l-22 360h-609zM545 528h499l-45 758h-4z" />
    <glyph glyph-name="Ccedilla" unicode="&#xc7;" horiz-adv-x="1251" 
d="M872 -25q-38 0 -57 5l-78 -103l4 -4q32 10 62 10q74 0 122 -41t48 -108q0 -64 -39.5 -106.5t-100.5 -62.5t-128 -20q-90 0 -173 43l37 70q40 -17 70 -24t61 -7q55 0 86 24.5t31 69.5q0 38 -27 59t-67 21q-38 0 -84 -16l-35 39l119 162q-192 29 -330.5 128t-211 255
t-72.5 352q0 213 95.5 379.5t267.5 260t392 93.5q89 0 167.5 -14t154.5 -47l-17 -199q-136 80 -295 80q-165 0 -289.5 -74t-191.5 -201.5t-67 -283.5q0 -159 69.5 -286.5t192.5 -200t276 -72.5q85 0 172.5 19t139.5 50l12 -198q-60 -25 -144 -38.5t-172 -13.5z" />
    <glyph glyph-name="Egrave" unicode="&#xc8;" 
d="M993 1430v-181h-596v-418h543v-180h-543v-471h596v-180h-800v1430h800zM523 1829l182 -295h-137l-269 295h224z" />
    <glyph glyph-name="Eacute" unicode="&#xc9;" 
d="M993 1430v-181h-596v-418h543v-180h-543v-471h596v-180h-800v1430h800zM840 1829l-268 -295h-137l182 295h223z" />
    <glyph glyph-name="Ecircumflex" unicode="&#xca;" 
d="M993 1430v-181h-596v-418h543v-180h-543v-471h596v-180h-800v1430h800zM435 1534h-162l202 295h187l205 -295h-164l-135 201z" />
    <glyph glyph-name="Edieresis" unicode="&#xcb;" 
d="M993 1430v-181h-596v-418h543v-180h-543v-471h596v-180h-800v1430h800zM498 1753v-205h-193v205h193zM834 1753v-205h-193v205h193z" />
    <glyph glyph-name="Igrave" unicode="&#xcc;" horiz-adv-x="569" 
d="M387 1430v-1430h-205v1430h205zM238 1829l182 -295h-137l-269 295h224z" />
    <glyph glyph-name="Iacute" unicode="&#xcd;" horiz-adv-x="569" 
d="M387 1430v-1430h-205v1430h205zM555 1829l-268 -295h-137l182 295h223z" />
    <glyph glyph-name="Icircumflex" unicode="&#xce;" horiz-adv-x="569" 
d="M387 1430v-1430h-205v1430h205zM150 1534h-162l202 295h187l205 -295h-164l-135 201z" />
    <glyph glyph-name="Idieresis" unicode="&#xcf;" horiz-adv-x="569" 
d="M387 1430v-1430h-205v1430h205zM213 1753v-205h-193v205h193zM549 1753v-205h-193v205h193z" />
    <glyph glyph-name="Eth" unicode="&#xd0;" horiz-adv-x="1479" 
d="M31 700v131h139v599h422q216 0 389.5 -86t273 -246t99.5 -373q0 -232 -90 -394.5t-260.5 -246.5t-409.5 -84h-424v700h-139zM1137 719q0 157 -68.5 278.5t-187.5 186.5t-269 65h-237v-418h375v-131h-375v-520h219q252 0 397.5 127t145.5 412z" />
    <glyph glyph-name="Ntilde" unicode="&#xd1;" horiz-adv-x="1479" 
d="M385 1176v-1176h-205v1430h279l631 -1151h4v1151h204v-1430h-262l-647 1176h-4zM895 1544q-36 0 -72.5 11.5t-91.5 35.5q-58 26 -90 36.5t-65 10.5q-42 0 -63.5 -27t-26.5 -67h-94q15 110 64 169.5t128 59.5q35 0 73 -12t95 -37q56 -25 87.5 -35t66.5 -10q39 0 60.5 26.5
t27.5 67.5h94q-17 -115 -66.5 -172t-126.5 -57z" />
    <glyph glyph-name="Ograve" unicode="&#xd2;" horiz-adv-x="1593" 
d="M109 715q0 211 81 379t236.5 264t370.5 96q209 0 364.5 -93.5t239.5 -261.5t84 -384q0 -223 -83.5 -390.5t-239 -258.5t-365.5 -91t-365.5 91.5t-239 259t-83.5 389.5zM1268 715q0 149 -52.5 276.5t-159.5 205t-261 77.5q-146 0 -252 -74.5t-161.5 -201.5t-55.5 -283
q0 -162 55.5 -289t162 -198.5t253.5 -71.5q148 0 254.5 72.5t161.5 199.5t55 287zM750 1829l182 -295h-137l-269 295h224z" />
    <glyph glyph-name="Oacute" unicode="&#xd3;" horiz-adv-x="1593" 
d="M109 715q0 211 81 379t236.5 264t370.5 96q209 0 364.5 -93.5t239.5 -261.5t84 -384q0 -223 -83.5 -390.5t-239 -258.5t-365.5 -91t-365.5 91.5t-239 259t-83.5 389.5zM1268 715q0 149 -52.5 276.5t-159.5 205t-261 77.5q-146 0 -252 -74.5t-161.5 -201.5t-55.5 -283
q0 -162 55.5 -289t162 -198.5t253.5 -71.5q148 0 254.5 72.5t161.5 199.5t55 287zM1067 1829l-268 -295h-137l182 295h223z" />
    <glyph glyph-name="Ocircumflex" unicode="&#xd4;" horiz-adv-x="1593" 
d="M109 715q0 211 81 379t236.5 264t370.5 96q209 0 364.5 -93.5t239.5 -261.5t84 -384q0 -223 -83.5 -390.5t-239 -258.5t-365.5 -91t-365.5 91.5t-239 259t-83.5 389.5zM1268 715q0 149 -52.5 276.5t-159.5 205t-261 77.5q-146 0 -252 -74.5t-161.5 -201.5t-55.5 -283
q0 -162 55.5 -289t162 -198.5t253.5 -71.5q148 0 254.5 72.5t161.5 199.5t55 287zM662 1534h-162l202 295h187l205 -295h-164l-135 201z" />
    <glyph glyph-name="Otilde" unicode="&#xd5;" horiz-adv-x="1593" 
d="M109 715q0 211 81 379t236.5 264t370.5 96q209 0 364.5 -93.5t239.5 -261.5t84 -384q0 -223 -83.5 -390.5t-239 -258.5t-365.5 -91t-365.5 91.5t-239 259t-83.5 389.5zM1268 715q0 149 -52.5 276.5t-159.5 205t-261 77.5q-146 0 -252 -74.5t-161.5 -201.5t-55.5 -283
q0 -162 55.5 -289t162 -198.5t253.5 -71.5q148 0 254.5 72.5t161.5 199.5t55 287zM952 1544q-36 0 -72.5 11.5t-91.5 35.5q-58 26 -90 36.5t-65 10.5q-42 0 -63.5 -27t-26.5 -67h-94q15 110 64 169.5t128 59.5q35 0 73 -12t95 -37q56 -25 87.5 -35t66.5 -10q39 0 60.5 26.5
t27.5 67.5h94q-17 -115 -66.5 -172t-126.5 -57z" />
    <glyph glyph-name="Odieresis" unicode="&#xd6;" horiz-adv-x="1593" 
d="M109 715q0 211 81 379t236.5 264t370.5 96q209 0 364.5 -93.5t239.5 -261.5t84 -384q0 -223 -83.5 -390.5t-239 -258.5t-365.5 -91t-365.5 91.5t-239 259t-83.5 389.5zM1268 715q0 149 -52.5 276.5t-159.5 205t-261 77.5q-146 0 -252 -74.5t-161.5 -201.5t-55.5 -283
q0 -162 55.5 -289t162 -198.5t253.5 -71.5q148 0 254.5 72.5t161.5 199.5t55 287zM725 1753v-205h-193v205h193zM1061 1753v-205h-193v205h193z" />
    <glyph glyph-name="multiply" unicode="&#xd7;" horiz-adv-x="1229" 
d="M139 170l348 348l-348 348l127 127l348 -350l349 350l127 -127l-351 -348l351 -348l-127 -127l-349 350l-348 -350z" />
    <glyph glyph-name="Oslash" unicode="&#xd8;" horiz-adv-x="1593" 
d="M109 715q0 212 82 380t237.5 263.5t368.5 95.5q235 0 413 -127l109 141l74 -57l-111 -145q100 -102 151.5 -242.5t51.5 -308.5q0 -221 -82.5 -388.5t-238 -259.5t-367.5 -92q-245 0 -416 125l-111 -143l-77 53l116 152q-98 98 -149 239t-51 314zM801 1274
q-164 0 -270.5 -82.5t-155.5 -210t-49 -266.5q0 -113 28 -212.5t84 -174.5l652 843q-119 103 -289 103zM797 156q155 0 261 76.5t158 203.5t52 279q0 109 -29.5 209t-85.5 176l-649 -842q56 -49 130.5 -75.5t162.5 -26.5z" />
    <glyph glyph-name="Ugrave" unicode="&#xd9;" horiz-adv-x="1479" 
d="M1294 588q0 -192 -63.5 -329.5t-188 -210.5t-303.5 -73q-178 0 -302.5 72.5t-188.5 209.5t-64 331v842h205v-816q0 -230 86 -344t264 -114t264.5 114t86.5 344v816h204v-842zM693 1829l182 -295h-137l-269 295h224z" />
    <glyph glyph-name="Uacute" unicode="&#xda;" horiz-adv-x="1479" 
d="M1294 588q0 -192 -63.5 -329.5t-188 -210.5t-303.5 -73q-178 0 -302.5 72.5t-188.5 209.5t-64 331v842h205v-816q0 -230 86 -344t264 -114t264.5 114t86.5 344v816h204v-842zM1010 1829l-268 -295h-137l182 295h223z" />
    <glyph glyph-name="Ucircumflex" unicode="&#xdb;" horiz-adv-x="1479" 
d="M1294 588q0 -192 -63.5 -329.5t-188 -210.5t-303.5 -73q-178 0 -302.5 72.5t-188.5 209.5t-64 331v842h205v-816q0 -230 86 -344t264 -114t264.5 114t86.5 344v816h204v-842zM605 1534h-162l202 295h187l205 -295h-164l-135 201z" />
    <glyph glyph-name="Udieresis" unicode="&#xdc;" horiz-adv-x="1479" 
d="M1294 588q0 -192 -63.5 -329.5t-188 -210.5t-303.5 -73q-178 0 -302.5 72.5t-188.5 209.5t-64 331v842h205v-816q0 -230 86 -344t264 -114t264.5 114t86.5 344v816h204v-842zM668 1753v-205h-193v205h193zM1004 1753v-205h-193v205h193z" />
    <glyph glyph-name="Yacute" unicode="&#xdd;" horiz-adv-x="1366" 
d="M23 1430h239l426 -642l416 642h239l-557 -832v-598h-204v598zM954 1829l-268 -295h-137l182 295h223z" />
    <glyph glyph-name="Thorn" unicode="&#xde;" 
d="M375 1430v-209h174q256 0 394 -108t138 -320q0 -141 -63.5 -238t-179 -145t-265.5 -48h-198v-362h-205v1430h205zM864 795q0 78 -45 133.5t-119 83.5t-159 28h-166v-497h200q78 0 144 27.5t105.5 84.5t39.5 140z" />
    <glyph glyph-name="germandbls" unicode="&#xdf;" horiz-adv-x="1251" 
d="M657 143q77 0 141.5 33t104 99t39.5 161q0 142 -83.5 218.5t-289.5 76.5h-12v156h6q162 0 238 64t76 200q0 67 -26.5 125t-78.5 93.5t-125 35.5q-148 0 -219.5 -112t-71.5 -292v-1001h-192v979q0 293 122.5 437.5t377.5 144.5q109 0 204.5 -48t154 -139.5t58.5 -214.5
q0 -129 -60.5 -213t-178.5 -121v-4q91 -10 160.5 -64t107 -137t37.5 -176q0 -127 -54 -231t-156.5 -164.5t-242.5 -60.5q-107 0 -198 28v162q81 -35 161 -35z" />
    <glyph glyph-name="agrave" unicode="&#xe0;" 
d="M801 135q-56 -77 -140 -118.5t-186 -41.5q-182 0 -281.5 84t-99.5 242q0 112 65 187t177 116t275 41q127 0 173 -4q0 145 -60.5 208.5t-197.5 63.5q-80 0 -160 -27.5t-143 -78.5l-10 164q165 98 344 98q216 0 318 -105t102 -325v-459q0 -115 8 -180h-180v135h-4zM659 502
q-167 0 -263.5 -51t-96.5 -150q0 -49 27 -87.5t72.5 -60.5t97.5 -22q93 0 156 34.5t97.5 97t34.5 143.5v92q-14 1 -51.5 2.5t-73.5 1.5zM523 1485l182 -295h-137l-269 295h224z" />
    <glyph glyph-name="aacute" unicode="&#xe1;" 
d="M801 135q-56 -77 -140 -118.5t-186 -41.5q-182 0 -281.5 84t-99.5 242q0 112 65 187t177 116t275 41q127 0 173 -4q0 145 -60.5 208.5t-197.5 63.5q-80 0 -160 -27.5t-143 -78.5l-10 164q165 98 344 98q216 0 318 -105t102 -325v-459q0 -115 8 -180h-180v135h-4zM659 502
q-167 0 -263.5 -51t-96.5 -150q0 -49 27 -87.5t72.5 -60.5t97.5 -22q93 0 156 34.5t97.5 97t34.5 143.5v92q-14 1 -51.5 2.5t-73.5 1.5zM840 1485l-268 -295h-137l182 295h223z" />
    <glyph glyph-name="acircumflex" unicode="&#xe2;" 
d="M801 135q-56 -77 -140 -118.5t-186 -41.5q-182 0 -281.5 84t-99.5 242q0 112 65 187t177 116t275 41q127 0 173 -4q0 145 -60.5 208.5t-197.5 63.5q-80 0 -160 -27.5t-143 -78.5l-10 164q165 98 344 98q216 0 318 -105t102 -325v-459q0 -115 8 -180h-180v135h-4zM659 502
q-167 0 -263.5 -51t-96.5 -150q0 -49 27 -87.5t72.5 -60.5t97.5 -22q93 0 156 34.5t97.5 97t34.5 143.5v92q-14 1 -51.5 2.5t-73.5 1.5zM435 1190h-162l202 295h187l205 -295h-164l-135 201z" />
    <glyph glyph-name="atilde" unicode="&#xe3;" 
d="M801 135q-56 -77 -140 -118.5t-186 -41.5q-182 0 -281.5 84t-99.5 242q0 112 65 187t177 116t275 41q127 0 173 -4q0 145 -60.5 208.5t-197.5 63.5q-80 0 -160 -27.5t-143 -78.5l-10 164q165 98 344 98q216 0 318 -105t102 -325v-459q0 -115 8 -180h-180v135h-4zM659 502
q-167 0 -263.5 -51t-96.5 -150q0 -49 27 -87.5t72.5 -60.5t97.5 -22q93 0 156 34.5t97.5 97t34.5 143.5v92q-14 1 -51.5 2.5t-73.5 1.5zM725 1200q-36 0 -72.5 11.5t-91.5 35.5q-58 26 -90 36.5t-65 10.5q-42 0 -63.5 -27t-26.5 -67h-94q15 110 64 169.5t128 59.5
q35 0 73 -12t95 -37q56 -25 87.5 -35t66.5 -10q39 0 60.5 26.5t27.5 67.5h94q-17 -115 -66.5 -172t-126.5 -57z" />
    <glyph glyph-name="adieresis" unicode="&#xe4;" 
d="M801 135q-56 -77 -140 -118.5t-186 -41.5q-182 0 -281.5 84t-99.5 242q0 112 65 187t177 116t275 41q127 0 173 -4q0 145 -60.5 208.5t-197.5 63.5q-80 0 -160 -27.5t-143 -78.5l-10 164q165 98 344 98q216 0 318 -105t102 -325v-459q0 -115 8 -180h-180v135h-4zM659 502
q-167 0 -263.5 -51t-96.5 -150q0 -49 27 -87.5t72.5 -60.5t97.5 -22q93 0 156 34.5t97.5 97t34.5 143.5v92q-14 1 -51.5 2.5t-73.5 1.5zM498 1409v-205h-193v205h193zM834 1409v-205h-193v205h193z" />
    <glyph glyph-name="aring" unicode="&#xe5;" 
d="M801 135q-56 -77 -140 -118.5t-186 -41.5q-182 0 -281.5 84t-99.5 242q0 112 65 187t177 116t275 41q127 0 173 -4q0 145 -60.5 208.5t-197.5 63.5q-80 0 -160 -27.5t-143 -78.5l-10 164q165 98 344 98q216 0 318 -105t102 -325v-459q0 -115 8 -180h-180v135h-4zM659 502
q-167 0 -263.5 -51t-96.5 -150q0 -49 27 -87.5t72.5 -60.5t97.5 -22q93 0 156 34.5t97.5 97t34.5 143.5v92q-14 1 -51.5 2.5t-73.5 1.5zM361 1362q0 57 28.5 105t76 76t104.5 28q56 0 104 -28.5t76.5 -77t28.5 -103.5q0 -54 -28 -102t-76 -77.5t-105 -29.5q-56 0 -104 28.5
t-76.5 76.5t-28.5 104zM570 1489q-34 0 -63.5 -18t-46.5 -46t-17 -63q0 -34 18 -64.5t47 -46.5t62 -16q32 0 61.5 17.5t47.5 46t18 63.5q0 36 -17.5 64t-47 45.5t-62.5 17.5z" />
    <glyph glyph-name="ae" unicode="&#xe6;" horiz-adv-x="1821" 
d="M1329 -25q-171 0 -290 64.5t-160 179.5h-5q-19 -77 -76.5 -132.5t-138.5 -83.5t-172 -28q-102 0 -195 41t-150.5 117t-57.5 176q0 162 135.5 249t378.5 87q75 0 207 -10q0 134 -76.5 206t-216.5 72q-60 0 -134.5 -23.5t-158.5 -82.5l-10 162q161 100 346 100
q123 0 218.5 -48.5t141.5 -133.5q50 87 142.5 134.5t220.5 47.5q224 0 341.5 -151.5t117.5 -438.5h-740q1 -99 46 -178.5t122.5 -124.5t173.5 -45q71 0 149.5 30t139.5 79v-195q-157 -70 -299 -70zM1274 913q-77 0 -140.5 -37t-100 -103.5t-36.5 -149.5h535
q-1 76 -34.5 142.5t-92 107t-131.5 40.5zM625 502q-157 0 -246.5 -50.5t-89.5 -148.5q0 -52 27 -91t73.5 -60t104.5 -21q87 0 158 48.5t112 132t41 184.5q-129 6 -180 6z" />
    <glyph glyph-name="ccedilla" unicode="&#xe7;" horiz-adv-x="909" 
d="M492 -373q53 0 83.5 24.5t30.5 69.5q0 38 -27.5 59t-66.5 21q-38 0 -84 -16l-35 39l121 162q-129 21 -228.5 98t-153.5 191.5t-54 246.5q0 159 67.5 283.5t189.5 194t275 69.5q57 0 124.5 -12t109.5 -29l-17 -160q-106 45 -209 45q-101 0 -177 -53.5t-117 -143
t-41 -194.5q0 -101 37.5 -190t115.5 -145t195 -56q50 0 106.5 15.5t100.5 43.5l14 -172q-55 -25 -116.5 -34t-133.5 -9l-76 -98l4 -4q38 10 62 10q74 0 122 -41.5t48 -107.5q0 -64 -39.5 -106.5t-100.5 -62.5t-128 -20q-91 0 -172 43l36 70q43 -18 71 -24.5t63 -6.5z" />
    <glyph glyph-name="egrave" unicode="&#xe8;" 
d="M637 -25q-264 0 -403.5 147t-139.5 419q0 156 61.5 275.5t173 186t255.5 66.5q460 0 460 -590h-745q1 -102 48.5 -181t126 -123t169.5 -44q80 0 175 32t147 73v-193q-104 -42 -177.5 -55t-150.5 -13zM578 913q-115 0 -189 -78t-90 -212h541q-1 84 -32.5 150t-90.5 103
t-139 37zM523 1485l182 -295h-137l-269 295h224z" />
    <glyph glyph-name="eacute" unicode="&#xe9;" 
d="M637 -25q-264 0 -403.5 147t-139.5 419q0 156 61.5 275.5t173 186t255.5 66.5q460 0 460 -590h-745q1 -102 48.5 -181t126 -123t169.5 -44q80 0 175 32t147 73v-193q-104 -42 -177.5 -55t-150.5 -13zM578 913q-115 0 -189 -78t-90 -212h541q-1 84 -32.5 150t-90.5 103
t-139 37zM840 1485l-268 -295h-137l182 295h223z" />
    <glyph glyph-name="ecircumflex" unicode="&#xea;" 
d="M637 -25q-264 0 -403.5 147t-139.5 419q0 156 61.5 275.5t173 186t255.5 66.5q460 0 460 -590h-745q1 -102 48.5 -181t126 -123t169.5 -44q80 0 175 32t147 73v-193q-104 -42 -177.5 -55t-150.5 -13zM578 913q-115 0 -189 -78t-90 -212h541q-1 84 -32.5 150t-90.5 103
t-139 37zM435 1190h-162l202 295h187l205 -295h-164l-135 201z" />
    <glyph glyph-name="edieresis" unicode="&#xeb;" 
d="M637 -25q-264 0 -403.5 147t-139.5 419q0 156 61.5 275.5t173 186t255.5 66.5q460 0 460 -590h-745q1 -102 48.5 -181t126 -123t169.5 -44q80 0 175 32t147 73v-193q-104 -42 -177.5 -55t-150.5 -13zM578 913q-115 0 -189 -78t-90 -212h541q-1 84 -32.5 150t-90.5 103
t-139 37zM498 1409v-205h-193v205h193zM834 1409v-205h-193v205h193z" />
    <glyph glyph-name="igrave" unicode="&#xec;" horiz-adv-x="569" 
d="M381 1044v-1044h-193v1044h193zM238 1485l182 -295h-137l-269 295h224z" />
    <glyph glyph-name="iacute" unicode="&#xed;" horiz-adv-x="569" 
d="M381 1044v-1044h-193v1044h193zM555 1485l-268 -295h-137l182 295h223z" />
    <glyph glyph-name="icircumflex" unicode="&#xee;" horiz-adv-x="569" 
d="M381 1044v-1044h-193v1044h193zM150 1190h-162l202 295h187l205 -295h-164l-135 201z" />
    <glyph glyph-name="idieresis" unicode="&#xef;" horiz-adv-x="569" 
d="M381 1044v-1044h-193v1044h193zM213 1409v-205h-193v205h193zM549 1409v-205h-193v205h193z" />
    <glyph glyph-name="eth" unicode="&#xf0;" horiz-adv-x="1251" 
d="M580 1245l-265 -141l-94 108l225 121q-118 70 -256 119l148 109q152 -54 280 -136l250 136l95 -109l-213 -115q197 -151 302 -362.5t105 -452.5q0 -152 -69 -277t-190 -197.5t-271 -72.5q-155 0 -276.5 74t-189 199.5t-67.5 273.5q0 153 64.5 277.5t186 197t284.5 72.5
q49 0 93 -12.5t77 -32.5h4q-99 132 -223 221zM952 522q0 98 -38 188t-112.5 146.5t-176.5 56.5q-99 0 -173 -55.5t-113.5 -145.5t-39.5 -190q0 -98 35.5 -187.5t109.5 -146.5t183 -57q107 0 180.5 57t109 146.5t35.5 187.5z" />
    <glyph glyph-name="ntilde" unicode="&#xf1;" horiz-adv-x="1251" 
d="M666 913q-99 0 -168.5 -52t-105.5 -148t-36 -228v-485h-192v1044h186v-165h4q47 90 139 140t203 50q194 0 292.5 -114t98.5 -330v-625h-192v565q0 173 -53.5 260.5t-175.5 87.5zM782 1200q-36 0 -72.5 11.5t-91.5 35.5q-58 26 -90 36.5t-65 10.5q-42 0 -63.5 -27
t-26.5 -67h-94q15 110 64 169.5t128 59.5q35 0 73 -12t95 -37q56 -25 87.5 -35t66.5 -10q39 0 60.5 26.5t27.5 67.5h94q-17 -115 -66.5 -172t-126.5 -57z" />
    <glyph glyph-name="ograve" unicode="&#xf2;" horiz-adv-x="1251" 
d="M94 522q0 159 66.5 283.5t187.5 194t279 69.5q152 0 272.5 -68t189 -192.5t68.5 -286.5q0 -147 -67 -272.5t-188 -200t-277 -74.5q-151 0 -272.5 73t-190 198.5t-68.5 275.5zM952 522q0 105 -40 194.5t-114.5 143t-172.5 53.5q-97 0 -171 -54.5t-114.5 -144.5t-40.5 -192
q0 -103 38 -192.5t112 -144t178 -54.5q103 0 176.5 54t111 143.5t37.5 193.5zM580 1485l182 -295h-137l-269 295h224z" />
    <glyph glyph-name="oacute" unicode="&#xf3;" horiz-adv-x="1251" 
d="M94 522q0 159 66.5 283.5t187.5 194t279 69.5q152 0 272.5 -68t189 -192.5t68.5 -286.5q0 -147 -67 -272.5t-188 -200t-277 -74.5q-151 0 -272.5 73t-190 198.5t-68.5 275.5zM952 522q0 105 -40 194.5t-114.5 143t-172.5 53.5q-97 0 -171 -54.5t-114.5 -144.5t-40.5 -192
q0 -103 38 -192.5t112 -144t178 -54.5q103 0 176.5 54t111 143.5t37.5 193.5zM897 1485l-268 -295h-137l182 295h223z" />
    <glyph glyph-name="ocircumflex" unicode="&#xf4;" horiz-adv-x="1251" 
d="M94 522q0 159 66.5 283.5t187.5 194t279 69.5q152 0 272.5 -68t189 -192.5t68.5 -286.5q0 -147 -67 -272.5t-188 -200t-277 -74.5q-151 0 -272.5 73t-190 198.5t-68.5 275.5zM952 522q0 105 -40 194.5t-114.5 143t-172.5 53.5q-97 0 -171 -54.5t-114.5 -144.5t-40.5 -192
q0 -103 38 -192.5t112 -144t178 -54.5q103 0 176.5 54t111 143.5t37.5 193.5zM492 1190h-162l202 295h187l205 -295h-164l-135 201z" />
    <glyph glyph-name="otilde" unicode="&#xf5;" horiz-adv-x="1251" 
d="M94 522q0 159 66.5 283.5t187.5 194t279 69.5q152 0 272.5 -68t189 -192.5t68.5 -286.5q0 -147 -67 -272.5t-188 -200t-277 -74.5q-151 0 -272.5 73t-190 198.5t-68.5 275.5zM952 522q0 105 -40 194.5t-114.5 143t-172.5 53.5q-97 0 -171 -54.5t-114.5 -144.5t-40.5 -192
q0 -103 38 -192.5t112 -144t178 -54.5q103 0 176.5 54t111 143.5t37.5 193.5zM782 1200q-36 0 -72.5 11.5t-91.5 35.5q-58 26 -90 36.5t-65 10.5q-42 0 -63.5 -27t-26.5 -67h-94q15 110 64 169.5t128 59.5q35 0 73 -12t95 -37q56 -25 87.5 -35t66.5 -10q39 0 60.5 26.5
t27.5 67.5h94q-17 -115 -66.5 -172t-126.5 -57z" />
    <glyph glyph-name="odieresis" unicode="&#xf6;" horiz-adv-x="1251" 
d="M94 522q0 159 66.5 283.5t187.5 194t279 69.5q152 0 272.5 -68t189 -192.5t68.5 -286.5q0 -147 -67 -272.5t-188 -200t-277 -74.5q-151 0 -272.5 73t-190 198.5t-68.5 275.5zM952 522q0 105 -40 194.5t-114.5 143t-172.5 53.5q-97 0 -171 -54.5t-114.5 -144.5t-40.5 -192
q0 -103 38 -192.5t112 -144t178 -54.5q103 0 176.5 54t111 143.5t37.5 193.5zM555 1409v-205h-193v205h193zM891 1409v-205h-193v205h193z" />
    <glyph glyph-name="divide" unicode="&#xf7;" horiz-adv-x="1229" 
d="M459 942q0 42 21 78t57 58t79 22q41 0 77 -22.5t57.5 -59t21.5 -76.5q0 -44 -22 -79t-58 -56t-74 -21q-43 0 -79.5 21.5t-58 57.5t-21.5 77zM1133 608v-180h-1037v180h1037zM459 94q0 42 21.5 78t57.5 57t78 21q41 0 77 -22t57.5 -58t21.5 -76q0 -38 -21.5 -74.5
t-57 -59.5t-75.5 -23q-43 0 -79.5 21.5t-58 58t-21.5 77.5z" />
    <glyph glyph-name="oslash" unicode="&#xf8;" horiz-adv-x="1251" 
d="M94 522q0 161 68.5 285.5t190 193t274.5 68.5q185 0 313 -94l109 133l61 -51l-109 -133q76 -75 116 -177.5t40 -224.5q0 -150 -68 -275t-189 -198.5t-273 -73.5q-92 0 -172.5 27t-145.5 76l-116 -141l-62 51l117 145q-74 76 -114 175.5t-40 213.5zM625 913
q-99 0 -173 -55.5t-113.5 -145.5t-39.5 -190q0 -66 16.5 -129.5t51.5 -116.5l458 560q-81 77 -200 77zM627 131q107 0 180.5 57t109 146.5t35.5 187.5q0 69 -19 134.5t-54 117.5l-461 -563q83 -80 209 -80z" />
    <glyph glyph-name="ugrave" unicode="&#xf9;" horiz-adv-x="1251" 
d="M897 166q-26 -55 -75 -98.5t-119.5 -68t-147.5 -24.5q-197 0 -294 114.5t-97 332.5v622h192v-560q0 -180 55.5 -266.5t174.5 -86.5q96 0 165.5 50.5t106.5 146.5t37 231v485h192v-1044h-186v166h-4zM580 1485l182 -295h-137l-269 295h224z" />
    <glyph glyph-name="uacute" unicode="&#xfa;" horiz-adv-x="1251" 
d="M897 166q-26 -55 -75 -98.5t-119.5 -68t-147.5 -24.5q-197 0 -294 114.5t-97 332.5v622h192v-560q0 -180 55.5 -266.5t174.5 -86.5q96 0 165.5 50.5t106.5 146.5t37 231v485h192v-1044h-186v166h-4zM897 1485l-268 -295h-137l182 295h223z" />
    <glyph glyph-name="ucircumflex" unicode="&#xfb;" horiz-adv-x="1251" 
d="M897 166q-26 -55 -75 -98.5t-119.5 -68t-147.5 -24.5q-197 0 -294 114.5t-97 332.5v622h192v-560q0 -180 55.5 -266.5t174.5 -86.5q96 0 165.5 50.5t106.5 146.5t37 231v485h192v-1044h-186v166h-4zM492 1190h-162l202 295h187l205 -295h-164l-135 201z" />
    <glyph glyph-name="udieresis" unicode="&#xfc;" horiz-adv-x="1251" 
d="M897 166q-26 -55 -75 -98.5t-119.5 -68t-147.5 -24.5q-197 0 -294 114.5t-97 332.5v622h192v-560q0 -180 55.5 -266.5t174.5 -86.5q96 0 165.5 50.5t106.5 146.5t37 231v485h192v-1044h-186v166h-4zM555 1409v-205h-193v205h193zM891 1409v-205h-193v205h193z" />
    <glyph glyph-name="yacute" unicode="&#xfd;" horiz-adv-x="1024" 
d="M176 -299q87 0 147 75t83 181q0 16 -13 49t-16 41l-363 997h211l281 -864h4l287 864h194l-413 -1146q-39 -106 -82.5 -180.5t-115 -123.5t-175.5 -49q-50 0 -86 6.5t-45 8.5l12 157q50 -16 90 -16zM782 1485l-268 -295h-137l182 295h223z" />
    <glyph glyph-name="thorn" unicode="&#xfe;" horiz-adv-x="1251" 
d="M356 1536v-635h4q105 168 347 168q142 0 243.5 -69.5t154 -189.5t52.5 -269q0 -157 -50 -285.5t-151 -204.5t-247 -76q-243 0 -349 168h-4v-573h-192v1966h192zM952 528q0 117 -33.5 203.5t-98.5 134t-156 47.5q-94 0 -164 -53.5t-107 -143t-37 -196.5q0 -97 34.5 -186.5
t104 -146t169.5 -56.5q87 0 152 53t100.5 143.5t35.5 200.5z" />
    <glyph glyph-name="ydieresis" unicode="&#xff;" horiz-adv-x="1024" 
d="M176 -299q87 0 147 75t83 181q0 16 -13 49t-16 41l-363 997h211l281 -864h4l287 864h194l-413 -1146q-39 -106 -82.5 -180.5t-115 -123.5t-175.5 -49q-50 0 -86 6.5t-45 8.5l12 157q50 -16 90 -16zM440 1409v-205h-193v205h193zM776 1409v-205h-193v205h193z" />
    <glyph glyph-name="dotlessi" unicode="&#x131;" horiz-adv-x="569" 
d="M381 1044v-1044h-193v1044h193z" />
    <glyph glyph-name="Lslash" unicode="&#x141;" horiz-adv-x="1024" 
d="M49 406v147l131 78v799h205v-680l401 235v-147l-401 -236v-422h598v-180h-803v483z" />
    <glyph glyph-name="lslash" unicode="&#x142;" horiz-adv-x="569" 
d="M57 592v145l131 105v694h193v-543l131 105v-146l-131 -104v-848h-193v696z" />
    <glyph glyph-name="OE" unicode="&#x152;" horiz-adv-x="1933" 
d="M1198 0q-43 0 -158 -6t-145 -6q-233 0 -411 90t-276.5 258.5t-98.5 396.5q0 217 100 377t279 246t409 86q50 0 150 -6t139 -6h606v-181h-578v-418h537v-180h-537v-471h592v-180h-608zM883 1262q-167 0 -292 -59.5t-195 -178t-70 -291.5t69 -300.5t196 -196t296 -68.5
q76 0 123 12v1069q-37 6 -68.5 9.5t-58.5 3.5z" />
    <glyph glyph-name="oe" unicode="&#x153;" horiz-adv-x="1933" 
d="M1442 -25q-159 0 -269.5 57.5t-160.5 168.5q-47 -105 -159 -165.5t-253 -60.5q-156 0 -273 71t-180 195t-63 281q0 142 63.5 268t181.5 202.5t273 76.5q145 0 253 -52.5t163 -152.5q48 101 146 153t227 52q232 0 345 -156t113 -434h-739q0 -97 45.5 -177t123.5 -125.5
t173 -45.5q71 0 149.5 30t139.5 79v-195q-154 -70 -299 -70zM918 522q0 92 -34.5 182t-106 149.5t-175.5 59.5q-94 0 -165 -54t-109.5 -144t-38.5 -195q0 -115 35.5 -203t106.5 -137t173 -49q97 0 168.5 58t108.5 148t37 185zM1386 913q-77 0 -140 -37t-99.5 -103
t-36.5 -150h535q-2 74 -35 141t-91.5 108t-132.5 41z" />
    <glyph glyph-name="Scaron" unicode="&#x160;" horiz-adv-x="1024" 
d="M430 156q70 0 135 26.5t105.5 79.5t40.5 127q0 55 -23 97.5t-81.5 85.5t-172.5 94q-109 50 -180 98.5t-114.5 122t-43.5 178.5q0 118 56.5 206t160.5 135.5t242 47.5q80 0 157 -13t148 -38l-29 -189q-83 35 -139.5 47.5t-126.5 12.5q-119 0 -185.5 -50t-66.5 -141
q0 -55 31 -95t75 -68t118 -64l45 -22q109 -51 177.5 -99t118.5 -130t50 -204q0 -136 -62.5 -232t-179.5 -145t-278 -49q-71 0 -135.5 14.5t-159.5 45.5l20 190q75 -31 155 -50t142 -19zM379 1829l135 -201l133 201h162l-203 -295h-186l-205 295h164z" />
    <glyph glyph-name="scaron" unicode="&#x161;" horiz-adv-x="797" 
d="M326 131q83 0 139.5 38t56.5 112q0 46 -40.5 87t-149.5 89q-102 48 -160 94t-80 93.5t-22 105.5q0 105 48.5 177.5t131.5 107t188 34.5q62 0 118 -10.5t122 -30.5l-16 -168q-28 18 -98.5 35.5t-104.5 17.5q-81 0 -133 -32t-52 -95q0 -42 22.5 -72.5t65 -56t113.5 -57.5
q97 -42 149 -83t77.5 -93.5t25.5 -122.5q0 -98 -45.5 -172t-129 -114t-192.5 -40q-87 0 -156.5 13.5t-127.5 44.5l10 172q48 -32 118.5 -53t121.5 -21zM267 1485l135 -201l133 201h162l-203 -295h-186l-205 295h164z" />
    <glyph glyph-name="Ydieresis" unicode="&#x178;" horiz-adv-x="1366" 
d="M23 1430h239l426 -642l416 642h239l-557 -832v-598h-204v598zM612 1755v-205h-193v205h193zM948 1755v-205h-193v205h193z" />
    <glyph glyph-name="Zcaron" unicode="&#x17d;" 
d="M807 1249h-717v181h952v-185l-739 -1065h752v-180h-989v184zM437 1829l135 -201l133 201h162l-203 -295h-186l-205 295h164z" />
    <glyph glyph-name="zcaron" unicode="&#x17e;" horiz-adv-x="1024" 
d="M690 889h-573v155h796v-167l-602 -721h625v-156h-848v168zM379 1485l135 -201l133 201h162l-203 -295h-186l-205 295h164z" />
    <glyph glyph-name="florin" unicode="&#x192;" 
d="M162 -287q74 0 115 47.5t61 157.5l147 787h-229l29 143h227l41 213q25 136 62.5 215t111 128.5t195.5 49.5q26 0 64 -4.5t85 -11.5l-29 -164q-54 12 -84 12q-65 0 -102.5 -22.5t-57.5 -65.5t-36 -119l-47 -231h258l-29 -143h-258l-139 -742q-28 -146 -58 -227.5
t-104.5 -136t-212.5 -54.5q-60 0 -104 11l32 165q25 -8 62 -8z" />
    <glyph glyph-name="circumflex" unicode="&#x2c6;" horiz-adv-x="569" 
d="M150 1190h-162l202 295h187l205 -295h-164l-135 201z" />
    <glyph glyph-name="caron" unicode="&#x2c7;" horiz-adv-x="569" 
d="M152 1485l135 -201l133 201h162l-203 -295h-186l-205 295h164z" />
    <glyph glyph-name="breve" unicode="&#x2d8;" horiz-adv-x="569" 
d="M285 1200q-136 0 -218.5 72.5t-97.5 206.5h101q15 -83 71.5 -121.5t143.5 -38.5q82 0 139.5 36t75.5 124h100q-14 -133 -96.5 -206t-218.5 -73z" />
    <glyph glyph-name="dotaccent" unicode="&#x2d9;" horiz-adv-x="569" 
d="M381 1409v-205h-193v205h193z" />
    <glyph glyph-name="ring" unicode="&#x2da;" horiz-adv-x="569" 
d="M76 1362q0 57 28.5 105t76 76t104.5 28q56 0 104 -28.5t76.5 -77t28.5 -103.5q0 -54 -28 -102t-76 -77.5t-105 -29.5q-56 0 -104 28.5t-76.5 76.5t-28.5 104zM285 1489q-34 0 -63.5 -18t-46.5 -46t-17 -63q0 -34 18 -64.5t47 -46.5t62 -16q32 0 61.5 17.5t47.5 46
t18 63.5q0 36 -17.5 64t-47 45.5t-62.5 17.5z" />
    <glyph glyph-name="ogonek" unicode="&#x2db;" horiz-adv-x="569" 
d="M299 -430q-83 0 -121.5 44t-38.5 110q0 75 65 146t169 130h98q-88 -70 -132 -129t-44 -123q0 -47 18.5 -71.5t48.5 -24.5q34 0 61.5 14t53.5 45l64 -16q-46 -68 -99.5 -96.5t-142.5 -28.5z" />
    <glyph glyph-name="tilde" unicode="&#x2dc;" horiz-adv-x="569" 
d="M440 1200q-36 0 -72.5 11.5t-91.5 35.5q-58 26 -90 36.5t-65 10.5q-42 0 -63.5 -27t-26.5 -67h-94q15 110 64 169.5t128 59.5q35 0 73 -12t95 -37q56 -25 87.5 -35t66.5 -10q39 0 60.5 26.5t27.5 67.5h94q-17 -115 -66.5 -172t-126.5 -57z" />
    <glyph glyph-name="hungarumlaut" unicode="&#x2dd;" horiz-adv-x="569" 
d="M371 1485l-269 -295h-137l182 295h224zM741 1485l-268 -295h-137l182 295h223z" />
    <glyph glyph-name="pi" unicode="&#x3c0;" horiz-adv-x="1264" 
d="M1055 -25q-127 0 -186.5 63.5t-59.5 199.5v651h-408v-889h-192v889h-184v155h1161v-155h-185v-631q0 -67 22.5 -98t68.5 -31q27 0 45.5 5.5t50.5 21.5l6 -154q-83 -27 -139 -27z" />
    <glyph glyph-name="uni060C" unicode="&#x60c;" horiz-adv-x="710" 
d="M510 501l-129 -501h-229l174 501h184z" />
    <glyph glyph-name="uni0615" unicode="&#x615;" horiz-adv-x="0" 
d="M27 1176v475h88v-318q32 45 78 69.5t96 24.5q86 0 133 -54.5t47 -150.5v-137h-532v91h90zM280 1339q-41 0 -76.5 -24t-58.5 -61t-28 -78h264v53q0 110 -101 110z" />
    <glyph glyph-name="uni061B" unicode="&#x61b;" horiz-adv-x="708" 
d="M540 934l-129 -501h-229l174 501h184zM411 229v-229h-229v229h229z" />
    <glyph glyph-name="uni061F" unicode="&#x61f;" horiz-adv-x="864" 
d="M364 488q-17 37 -41 70t-64 81q-48 61 -59 75q-41 57 -63.5 114.5t-22.5 125.5q0 99 49 173.5t133.5 115t186.5 40.5q151 0 283 -60l-12 -171q-97 72 -252 72q-94 0 -150.5 -49t-56.5 -133q0 -60 30 -122q27 -58 101 -142q71 -84 94 -145q25 -63 24 -155v-24h-160v18
q1 68 -20 116zM560 202v-202h-192v202h192z" />
    <glyph glyph-name="uni0640" unicode="&#x640;" horiz-adv-x="317" 
d="M-72 54v75q0 51 70 51h321q70 0 70 -51v-75q0 -54 -66 -54h-329q-66 0 -66 54z" />
    <glyph glyph-name="uni0647" unicode="&#x647;" horiz-adv-x="895" 
d="M421 0h-65q-52 1 -95.5 10.5t-106 44.5t-108.5 112.5t-46 183.5q0 141 56.5 254t146.5 172.5t185 59.5q96 0 183.5 -57.5t140.5 -167.5t53 -260q0 -110 -54.5 -193.5t-135 -121t-154.5 -37.5zM596 384q0 80 -28 147.5t-76.5 106.5t-107.5 39q-61 0 -112.5 -36t-81.5 -103
t-30 -154q0 -102 58.5 -153t172.5 -51q106 0 155.5 58.5t49.5 145.5z" />
    <glyph glyph-name="uni064B" unicode="&#x64b;" horiz-adv-x="0" 
d="M214 1699v-81h-433v81h433zM214 1512v-81h-433v81h433z" />
    <glyph glyph-name="uni064C" unicode="&#x64c;" horiz-adv-x="0" 
d="M-205 1638q94 -128 186 -128q36 0 77 16q-37 27 -56 63t-19 73t17.5 69t48.5 51.5t68 19.5q54 0 90.5 -32.5t36.5 -101.5q0 -68 -43.5 -120t-105.5 -79.5t-116 -27.5q-116 0 -185 104l-86 -82l-42 46q40 41 74.5 74.5t54.5 54.5zM180 1664q0 33 -19 52t-45 19
q-28 0 -48 -19t-20 -52q0 -60 64 -109q68 47 68 109z" />
    <glyph glyph-name="uni064D" unicode="&#x64d;" horiz-adv-x="0" 
d="M214 -314v-81h-433v81h433zM214 -501v-81h-433v81h433z" />
    <glyph glyph-name="uni064E" unicode="&#x64e;" horiz-adv-x="0" 
d="M214 1512v-81h-433v81h433z" />
    <glyph glyph-name="uni064F" unicode="&#x64f;" horiz-adv-x="0" 
d="M-11 1510q18 0 41 4t42 12q-74 58 -74 136q0 37 17.5 69t48.5 51.5t68 19.5q54 0 90.5 -32.5t36.5 -101.5t-46 -121q-45 -52 -106 -79t-122 -27q-105 0 -201 32l16 68q51 -17 94 -24t95 -7zM195 1664q0 33 -19 52t-45 19q-28 0 -48 -20t-20 -51q0 -60 64 -109
q68 47 68 109z" />
    <glyph glyph-name="uni0650" unicode="&#x650;" horiz-adv-x="0" 
d="M214 -314v-81h-433v81h433z" />
    <glyph glyph-name="uni0651" unicode="&#x651;" horiz-adv-x="0" 
d="M272 1590q0 -43 -19 -79.5t-55.5 -58t-81.5 -21.5q-34 0 -64 17t-52 44q-22 -28 -53 -44.5t-66 -16.5q-73 0 -114 45.5t-41 110.5v152h77v-155q0 -35 22.5 -55.5t57.5 -20.5q33 0 56.5 23.5t23.5 53.5v132h72v-132q0 -30 23.5 -53.5t56.5 -23.5q32 0 56 19t24 57v156h77
v-150z" />
    <glyph glyph-name="uni0652" unicode="&#x652;" horiz-adv-x="0" 
d="M0 1438q-76 0 -127 53t-51 128q0 50 23.5 91t64 65t90.5 24t91.5 -25t64.5 -65t24 -90q0 -48 -23.5 -89.5t-64.5 -66.5t-92 -25zM113 1618q0 46 -32.5 79.5t-81.5 33.5q-28 0 -54.5 -14.5t-42.5 -40t-16 -58.5q0 -44 31 -77.5t83 -35.5q48 0 80.5 33t32.5 80z" />
    <glyph glyph-name="uni0653" unicode="&#x653;" horiz-adv-x="0" 
d="M262 1275q-42 -32 -117 -32q-42 0 -81.5 13.5t-109.5 43.5q-69 29 -105 40t-71 11q-30 0 -51.5 -8.5t-44.5 -33.5l-54 63q42 45 80 64.5t97 19.5q32 0 75.5 -13.5t111.5 -42.5q121 -54 169 -54q39 0 64.5 22t41.5 70l75 -35q-20 -50 -39 -81t-41 -47z" />
    <glyph glyph-name="uni0654" unicode="&#x654;" horiz-adv-x="0" 
d="M-46 1520q-29 20 -47 55t-18 74q0 59 48 97.5t130 38.5q40 0 78 -6l-13 -85q-24 6 -58 6q-47 0 -73.5 -17.5t-26.5 -56.5q0 -28 19 -54t54 -39t70 -13h33v-84h-310v84h114z" />
    <glyph glyph-name="uni0655" unicode="&#x655;" horiz-adv-x="0" 
d="M-46 -410q-29 20 -47 55t-18 74q0 61 48.5 98.5t129.5 37.5q40 0 78 -6l-13 -85q-24 6 -58 6q-47 0 -73.5 -18t-26.5 -56q0 -30 19 -55t54.5 -38.5t81.5 -12.5h21v-84h-310v84h114z" />
    <glyph glyph-name="uni0656" unicode="&#x656;" horiz-adv-x="0" 
d="M40 -344v-356h-87v356h87z" />
    <glyph glyph-name="uni0658" unicode="&#x658;" horiz-adv-x="0" 
d="M168 1532q0 -50 -21 -89t-59.5 -62t-87.5 -23q-54 0 -93 22t-59 58.5t-20 80.5q0 54 26 99t60 71l33 -24q-30 -31 -41.5 -54.5t-11.5 -55.5q0 -44 30 -74.5t79 -30.5q48 0 76 28.5t28 74.5q0 53 -35 100l33 25q31 -29 47 -69t16 -77z" />
    <glyph glyph-name="uni0660" unicode="&#x660;" horiz-adv-x="1024" 
d="M653 457l-135 -136l-133 132l136 136z" />
    <glyph glyph-name="uni0661" unicode="&#x661;" horiz-adv-x="1024" 
d="M601 1393v-1393h-187v1393h187z" />
    <glyph glyph-name="uni0662" unicode="&#x662;" horiz-adv-x="1024" 
d="M912 1393v-178h-475l148 -1215h-178l-183 1393h688z" />
    <glyph glyph-name="uni0663" unicode="&#x663;" horiz-adv-x="1024" 
d="M233 1393l27 -249q46 -11 77 -11q75 0 111 62.5t37 199.5h160q0 -129 -49 -249q58 -13 92 -13q77 0 112 61t37 201h159q2 -28 2 -42q0 -100 -32 -183t-97 -132t-160 -49q-88 0 -180 57q-42 -27 -76.5 -38t-71.5 -11q-32 0 -102 13l126 -1010h-181l-176 1393h185z" />
    <glyph glyph-name="uni0664" unicode="&#x664;" horiz-adv-x="1024" 
d="M534 -32q-98 0 -176 26t-123 78t-45 126q0 107 72 245q73 139 195 272q-126 54 -188 117.5t-62 155.5q0 56 41 140t140 166.5t269 126.5v-182q-72 -20 -140 -55.5t-108 -85.5t-40 -89q0 -34 37.5 -60.5t109.5 -58.5q71 -32 114 -60.5t43 -59.5q0 -41 -92 -144
q-220 -247 -220 -355q0 -59 55.5 -86.5t184.5 -27.5q103 0 238 41l-13 -179q-61 -26 -142 -38.5t-150 -12.5z" />
    <glyph glyph-name="uni0665" unicode="&#x665;" horiz-adv-x="1024" 
d="M517 -36q-144 0 -235 63.5t-131 168t-40 232.5q0 153 62 293t158.5 225.5t192.5 85.5q105 0 197 -87t147 -231t55 -306q0 -106 -45.5 -208.5t-137.5 -169t-223 -66.5zM753 445q0 98 -29 186.5t-84.5 143t-129.5 54.5q-79 0 -131.5 -61t-76.5 -149t-24 -168
q0 -145 63.5 -224t182.5 -79q75 0 127 42t77 110t25 145z" />
    <glyph glyph-name="uni0666" unicode="&#x666;" horiz-adv-x="1024" 
d="M80 1215v178h635l169 -1393h-178l-153 1215h-473z" />
    <glyph glyph-name="uni0667" unicode="&#x667;" horiz-adv-x="1024" 
d="M203 1393l334 -1036l299 1036h185l-430 -1393h-117l-471 1393h200z" />
    <glyph glyph-name="uni0668" unicode="&#x668;" horiz-adv-x="1024" 
d="M191 0h-186l430 1393h118l470 -1393h-200l-334 1036z" />
    <glyph glyph-name="uni0669" unicode="&#x669;" horiz-adv-x="1024" 
d="M484 693q-118 0 -205.5 47t-134.5 128t-47 182q0 114 50.5 205.5t137.5 143.5t187 52q94 0 167 -39.5t117.5 -110t56.5 -163.5l134 -1138h-178l-88 693h-197zM445 1286q-50 0 -95 -30t-66.5 -79.5t-21.5 -104.5q0 -103 67 -158.5t185 -55.5h145l-30 221
q-12 101 -59.5 154t-124.5 53z" />
    <glyph glyph-name="uni066A" unicode="&#x66a;" horiz-adv-x="998" 
d="M857 1093l-629 -1114l-108 64l635 1116zM330 1151l121 -121l-121 -120l-121 120zM654 225l121 -121l-121 -120l-121 120z" />
    <glyph glyph-name="uni066B" unicode="&#x66b;" horiz-adv-x="536" 
d="M399 229l-174 -501h-184l129 501h229z" />
    <glyph glyph-name="uni066C" unicode="&#x66c;" horiz-adv-x="536" 
d="M399 765l-174 -501h-184l129 501h229z" />
    <glyph glyph-name="uni066D" unicode="&#x66d;" horiz-adv-x="954" 
d="M260 721l-29 22l107 250l-236 140l11 43l280 -37l60 270h32l56 -270l282 37l11 -43l-244 -140l112 -250l-28 -22l-205 184z" />
    <glyph glyph-name="uni0670" unicode="&#x670;" horiz-adv-x="0" 
d="M40 1792v-356h-87v356h87z" />
    <glyph glyph-name="uni06C0" unicode="&#x6c0;" horiz-adv-x="895" 
d="M421 0h-65q-52 1 -95.5 10.5t-106 44.5t-108.5 112.5t-46 183.5q0 141 56.5 254t146.5 172.5t185 59.5q96 0 183.5 -57.5t140.5 -167.5t53 -260q0 -110 -54.5 -193.5t-135 -121t-154.5 -37.5zM596 384q0 80 -28 147.5t-76.5 106.5t-107.5 39q-61 0 -112.5 -36t-81.5 -103
t-30 -154q0 -102 58.5 -153t172.5 -51q106 0 155.5 58.5t49.5 145.5zM301 1196q-38 27 -62.5 73.5t-24.5 98.5q0 81 63.5 131.5t174.5 50.5q56 0 105 -8l-18 -114q-45 8 -78 8q-62 0 -97.5 -23.5t-35.5 -74.5q0 -37 24.5 -70.5t68.5 -52.5t103 -19h39v-112h-414v112h152z
" />
    <glyph glyph-name="uni06C2" unicode="&#x6c2;" horiz-adv-x="895" 
d="M421 0h-65q-52 1 -95.5 10.5t-106 44.5t-108.5 112.5t-46 183.5q0 141 56.5 254t146.5 172.5t185 59.5q96 0 183.5 -57.5t140.5 -167.5t53 -260q0 -110 -54.5 -193.5t-135 -121t-154.5 -37.5zM596 384q0 80 -28 147.5t-76.5 106.5t-107.5 39q-61 0 -112.5 -36t-81.5 -103
t-30 -154q0 -102 58.5 -153t172.5 -51q106 0 155.5 58.5t49.5 145.5zM311 1196q-38 27 -62.5 73.5t-24.5 98.5q0 81 63.5 131.5t174.5 50.5q56 0 105 -8l-18 -114q-45 8 -78 8q-62 0 -97.5 -23.5t-35.5 -74.5q0 -37 24.5 -70.5t68.5 -52.5t103 -19h39v-112h-414v112h152z
" />
    <glyph glyph-name="uni06C3" unicode="&#x6c3;" horiz-adv-x="895" 
d="M421 0h-65q-52 1 -95.5 10.5t-106 44.5t-108.5 112.5t-46 183.5q0 141 56.5 254t146.5 172.5t185 59.5q96 0 183.5 -57.5t140.5 -167.5t53 -260q0 -110 -54.5 -193.5t-135 -121t-154.5 -37.5zM596 384q0 80 -28 147.5t-76.5 106.5t-107.5 39q-61 0 -112.5 -36t-81.5 -103
t-30 -154q0 -102 58.5 -153t172.5 -51q106 0 155.5 58.5t49.5 145.5zM234 1026q-45 0 -75.5 30.5t-30.5 75.5q0 44 31 75.5t75 31.5t75.5 -32t31.5 -75q0 -45 -32 -75.5t-75 -30.5zM519 1026q-45 0 -75.5 30.5t-30.5 75.5q0 44 31 75.5t75 31.5q41 0 73 -29t34 -78
q0 -43 -31.5 -74.5t-75.5 -31.5z" />
    <glyph glyph-name="uni06D4" unicode="&#x6d4;" horiz-adv-x="634" 
d="M100 86l40 142q42 -27 93 -37.5t101 -10.5h200v-180h-205q-67 0 -125 19.5t-104 66.5z" />
    <glyph glyph-name="uni06D5" unicode="&#x6d5;" horiz-adv-x="895" 
d="M421 0h-65q-52 1 -95.5 10.5t-106 44.5t-108.5 112.5t-46 183.5q0 141 56.5 254t146.5 172.5t185 59.5q96 0 183.5 -57.5t140.5 -167.5t53 -260q0 -110 -54.5 -193.5t-135 -121t-154.5 -37.5zM596 384q0 80 -28 147.5t-76.5 106.5t-107.5 39q-61 0 -112.5 -36t-81.5 -103
t-30 -154q0 -102 58.5 -153t172.5 -51q106 0 155.5 58.5t49.5 145.5z" />
    <glyph glyph-name="uni06F0" unicode="&#x6f0;" horiz-adv-x="1024" 
d="M653 457l-135 -136l-133 132l136 136z" />
    <glyph glyph-name="uni06F1" unicode="&#x6f1;" horiz-adv-x="1024" 
d="M601 1393v-1393h-187v1393h187z" />
    <glyph glyph-name="uni06F2" unicode="&#x6f2;" horiz-adv-x="1024" 
d="M912 1393v-178h-475l148 -1215h-178l-183 1393h688z" />
    <glyph glyph-name="uni06F3" unicode="&#x6f3;" horiz-adv-x="1024" 
d="M233 1393l27 -249q46 -11 77 -11q75 0 111 62.5t37 199.5h160q0 -129 -49 -249q58 -13 92 -13q77 0 112 61t37 201h159q2 -28 2 -42q0 -100 -32 -183t-97 -132t-160 -49q-88 0 -180 57q-42 -27 -76.5 -38t-71.5 -11q-32 0 -102 13l126 -1010h-181l-176 1393h185z" />
    <glyph glyph-name="uni06F4" unicode="&#x6f4;" horiz-adv-x="1024" 
d="M186 1393l31 -292q52 -16 107.5 -26.5t148.5 -24.5q-53 49 -86.5 115.5t-33.5 136.5q0 74 33 130.5t91 87t130 30.5q36 0 77 -7v-133q-20 2 -43 2q-77 0 -116.5 -38t-39.5 -106q0 -63 40 -122t106 -92q105 8 162.5 75.5t67.5 190.5h161q-12 -213 -119 -327.5t-295 -114.5
q-87 0 -172.5 12.5t-192.5 39.5l123 -930h-194l-178 1393h192z" />
    <glyph glyph-name="uni06F5" unicode="&#x6f5;" horiz-adv-x="1024" 
d="M317 -32q-136 0 -206.5 115.5t-70.5 345.5q0 246 66 472q33 114 94 225t149.5 187.5t182.5 76.5q97 0 183 -73.5t142.5 -177.5t89.5 -220q64 -213 64 -467q0 -232 -67 -359t-191 -127q-55 0 -116.5 20t-111.5 55q-101 -73 -208 -73zM648 173q92 0 135 83t43 257
q0 119 -27.5 245t-76.5 227q-52 108 -104 163t-102 55q-107 0 -204 -222q-42 -97 -68.5 -228.5t-26.5 -241.5q0 -93 12 -163.5t54.5 -121.5t129.5 -51q31 0 57 9t64 29q41 -22 63.5 -31t50.5 -9z" />
    <glyph glyph-name="uni06F6" unicode="&#x6f6;" horiz-adv-x="1024" 
d="M500 561q-137 74 -228.5 191t-91.5 260q0 130 60 229.5t164 153t233 53.5q58 0 125.5 -9.5t122.5 -26.5v-186q-51 20 -105 28.5t-120 8.5q-77 0 -142 -27.5t-104.5 -84t-39.5 -140.5q0 -101 68 -191t187 -150q57 46 150.5 114t148.5 104l105 -134
q-270 -171 -476.5 -357.5t-421.5 -457.5l-124 120q204 253 489 502z" />
    <glyph glyph-name="uni06F7" unicode="&#x6f7;" horiz-adv-x="1024" 
d="M203 1393l334 -1036l299 1036h185l-430 -1393h-117l-471 1393h200z" />
    <glyph glyph-name="uni06F8" unicode="&#x6f8;" horiz-adv-x="1024" 
d="M191 0h-186l430 1393h118l470 -1393h-200l-334 1036z" />
    <glyph glyph-name="uni06F9" unicode="&#x6f9;" horiz-adv-x="1024" 
d="M484 693q-118 0 -205.5 47t-134.5 128t-47 182q0 114 50.5 205.5t137.5 143.5t187 52q94 0 167 -39.5t117.5 -110t56.5 -163.5l134 -1138h-178l-88 693h-197zM445 1286q-50 0 -95 -30t-66.5 -79.5t-21.5 -104.5q0 -103 67 -158.5t185 -55.5h145l-30 221
q-12 101 -59.5 154t-124.5 53z" />
    <glyph glyph-name="uni2002" unicode="&#x2002;" horiz-adv-x="1024" 
 />
    <glyph glyph-name="uni2003" unicode="&#x2003;" horiz-adv-x="2048" 
 />
    <glyph glyph-name="uni2009" unicode="&#x2009;" horiz-adv-x="205" 
 />
    <glyph glyph-name="uni200A" unicode="&#x200a;" horiz-adv-x="41" 
 />
    <glyph glyph-name="uni200C" unicode="&#x200c;" horiz-adv-x="0" 
d="M139 1858l-106 -107l106 -106l-33 -33l-106 104l-109 -106l-32 35l106 106l-106 107l32 34l109 -108l106 106z" />
    <glyph glyph-name="uni200D" unicode="&#x200d;" horiz-adv-x="0" 
d="M158 1634v95h-314v-95h-47v142h408v-142h-47z" />
    <glyph glyph-name="uni200E" unicode="&#x200e;" horiz-adv-x="0" 
d="M20 1645l84 84h-258v47h258l-84 82l33 34l142 -141l-142 -141z" />
    <glyph glyph-name="uni200F" unicode="&#x200f;" horiz-adv-x="0" 
d="M-104 1776h260v-47h-258l82 -84l-33 -33l-142 139l142 141l33 -32z" />
    <glyph glyph-name="endash" unicode="&#x2013;" horiz-adv-x="1024" 
d="M1024 623v-144h-1024v144h1024z" />
    <glyph glyph-name="emdash" unicode="&#x2014;" horiz-adv-x="2048" 
d="M2048 623v-144h-2048v144h2048z" />
    <glyph glyph-name="quoteleft" unicode="&#x2018;" horiz-adv-x="569" 
d="M463 1430l-129 -502h-228l175 502h182z" />
    <glyph glyph-name="quoteright" unicode="&#x2019;" horiz-adv-x="569" 
d="M463 1430l-180 -502h-177l127 502h230z" />
    <glyph glyph-name="quotesinglbase" unicode="&#x201a;" horiz-adv-x="569" 
d="M463 229l-174 -501h-183l130 501h227z" />
    <glyph glyph-name="quotedblleft" unicode="&#x201c;" 
d="M553 1430l-127 -502h-229l176 502h180zM942 1430l-131 -502h-225l172 502h184z" />
    <glyph glyph-name="quotedblright" unicode="&#x201d;" 
d="M553 1430l-174 -502h-182l129 502h227zM942 1430l-174 -502h-182l129 502h227z" />
    <glyph glyph-name="quotedblbase" unicode="&#x201e;" 
d="M553 229l-174 -501h-182l129 501h227zM942 229l-174 -501h-182l129 501h227z" />
    <glyph glyph-name="dagger" unicode="&#x2020;" 
d="M137 928v143h342v359h180v-359h342v-143h-342v-928h-180v928h-342z" />
    <glyph glyph-name="daggerdbl" unicode="&#x2021;" 
d="M479 0v332h-342v143h342v479h-342v144h342v332h180v-332h342v-144h-342v-479h342v-143h-342v-332h-180z" />
    <glyph glyph-name="bullet" unicode="&#x2022;" horiz-adv-x="1024" 
d="M156 715q0 98 47.5 179.5t129.5 129t179 47.5t179 -47t130.5 -128.5t48.5 -180.5q0 -97 -47 -179.5t-129 -131t-182 -48.5q-98 0 -179.5 47.5t-129 130t-47.5 181.5z" />
    <glyph glyph-name="ellipsis" unicode="&#x2026;" horiz-adv-x="2048" 
d="M457 229v-229h-230v229h230zM1139 229v-229h-230v229h230zM1821 229v-229h-230v229h230z" />
    <glyph glyph-name="uni202A" unicode="&#x202a;" horiz-adv-x="0" 
d="M20 1645l84 84h-102v47h102l-84 82l33 34l142 -141l-142 -141zM-57 1729h-117v47h117v-47z" />
    <glyph glyph-name="uni202B" unicode="&#x202b;" horiz-adv-x="0" 
d="M-104 1776h102v-47h-100l82 -84l-33 -33l-142 139l142 141l33 -32zM174 1729h-117v47h117v-47z" />
    <glyph glyph-name="uni202C" unicode="&#x202c;" horiz-adv-x="0" 
d="M23 1817v-209h-48v207l-81 -82l-35 32l141 142l141 -142l-35 -32z" />
    <glyph glyph-name="uni202D" unicode="&#x202d;" horiz-adv-x="0" 
d="M-43 1610l-33 35l84 84h-219v47h217l-82 82l33 34l141 -141zM90 1610l-33 35l109 106l-109 107l33 34l141 -141z" />
    <glyph glyph-name="uni202E" unicode="&#x202e;" horiz-adv-x="0" 
d="M-164 1800l107 -106l-33 -35l-141 141l141 142l33 -35zM-6 1823h219v-47h-219l84 -82l-35 -35l-139 141l139 142l35 -35z" />
    <glyph glyph-name="perthousand" unicode="&#x2030;" horiz-adv-x="2048" 
d="M1194 1475l-887 -1520h-147l887 1520h147zM6 1044q0 212 74.5 311t232.5 99q159 0 233.5 -103.5t74.5 -306.5q0 -196 -79.5 -302.5t-228.5 -106.5q-148 0 -227.5 106.5t-79.5 302.5zM440 1063q0 72 -7.5 123.5t-35.5 88t-86 36.5q-62 0 -93.5 -60.5t-31.5 -201.5
q0 -154 34.5 -212.5t92.5 -58.5q57 0 85 45.5t35 104.5t7 135zM735 385q0 212 75 311t232 99q160 0 234 -103.5t74 -306.5q0 -196 -79.5 -303t-228.5 -107q-148 0 -227.5 107t-79.5 303zM1427 385q0 212 76.5 311t231.5 99q159 0 233 -103.5t74 -306.5q0 -196 -79.5 -303
t-227.5 -107q-149 0 -228.5 107t-79.5 303zM1169 403q0 73 -7.5 124t-35.5 87.5t-86 36.5q-65 0 -95 -66t-30 -196q0 -154 34.5 -212t92.5 -58q57 0 85 45.5t35 104t7 134.5zM1862 403q0 73 -7.5 124t-35.5 87.5t-86 36.5q-67 0 -96 -65.5t-29 -196.5q0 -154 34 -212t93 -58
q57 0 84 47t35 104t8 133z" />
    <glyph glyph-name="guilsinglleft" unicode="&#x2039;" horiz-adv-x="569" 
d="M334 965h180l-266 -414l266 -414h-180l-293 414z" />
    <glyph glyph-name="guilsinglright" unicode="&#x203a;" horiz-adv-x="569" 
d="M55 965h181l292 -414l-292 -414h-181l267 414z" />
    <glyph glyph-name="fraction" unicode="&#x2044;" horiz-adv-x="342" 
d="M688 1475l-887 -1520h-147l887 1520h147z" />
    <glyph glyph-name="Euro" unicode="&#x20ac;" 
d="M866 -25q-172 0 -311 64t-231.5 186t-128.5 293h-195l27 111h153q-1 7 -2.5 34t-1.5 56q0 33 1.5 55t2.5 27h-180l27 110h170q36 165 131 288t234 189t304 66q182 0 314 -53l-41 -170q-47 25 -120.5 40t-135.5 15q-112 0 -205 -44t-159 -128.5t-97 -202.5h651l-26 -110
h-650q-1 -6 -2.5 -29.5t-1.5 -52.5q0 -31 1.5 -57t2.5 -33h613l-25 -111h-563q45 -172 165.5 -271.5t295.5 -99.5q65 0 134 13.5t122 38.5l12 -179q-54 -21 -130 -33t-155 -12z" />
    <glyph glyph-name="afii61289" unicode="&#x2113;" horiz-adv-x="1010" 
d="M562 -29q-123 0 -192 70t-69 190v236l-120 -129l-56 78l176 172v534q0 104 33.5 185t93.5 125.5t138 44.5q66 0 117 -32t79.5 -91.5t28.5 -139.5q0 -148 -87.5 -309.5t-262.5 -341.5v-309q0 -86 41 -131t112 -45q92 0 183 80l51 -74q-61 -57 -126 -85t-140 -28zM674 1204
q0 78 -29.5 126t-78.5 48q-36 0 -64.5 -28.5t-44.5 -81.5t-16 -123v-459q113 130 173 265.5t60 252.5z" />
    <glyph glyph-name="trademark" unicode="&#x2122;" horiz-adv-x="2028" 
d="M111 1286v144h680v-144h-263v-708h-155v708h-262zM1757 1229l-239 -651h-127l-240 651h-4v-651h-156v852h242l223 -576l219 576h242v-852h-156v651h-4z" />
    <glyph glyph-name="uni2126" unicode="&#x2126;" horiz-adv-x="1556" 
d="M1210 752q0 151 -52 269.5t-149 185.5t-229 67q-137 0 -237 -64t-153.5 -183.5t-53.5 -281.5q0 -167 77.5 -315t219.5 -250l8 -180h-522v180h282q-146 118 -214 259t-68 319q0 191 79 350t229 252.5t353 93.5q191 0 338 -87t228 -241t81 -348q0 -179 -76 -337t-210 -261
h297v-180h-537l6 180q151 102 227 246.5t76 325.5z" />
    <glyph glyph-name="estimated" unicode="&#x212e;" horiz-adv-x="1229" 
d="M618 -35q-155 0 -275.5 74t-186.5 203t-66 288q0 160 66.5 289t186.5 203t275 74t274.5 -70t187 -198.5t69.5 -297.5h-827v-370q119 -121 296 -121q132 0 225.5 59.5t170.5 186.5l71 -43q-92 -149 -201 -213t-266 -64zM614 1024q-169 0 -292 -123v-297h596v297
q-129 123 -304 123z" />
    <glyph glyph-name="partialdiff" unicode="&#x2202;" horiz-adv-x="1135" 
d="M502 1602q145 0 265.5 -88.5t192.5 -263t72 -421.5q0 -250 -64.5 -441.5t-187.5 -297.5t-293 -106q-129 0 -220 68t-137 177.5t-46 231.5q0 152 59 271.5t159 186t218 66.5q99 0 186.5 -50.5t141.5 -137.5q2 20 2 88q0 149 -46 277.5t-131 206t-196 77.5q-148 0 -268 -96
l-59 137q146 115 352 115zM553 834q-78 0 -143.5 -52t-103.5 -138.5t-38 -186.5q0 -93 30 -165t84 -112.5t124 -40.5q78 0 146 61.5t114 172.5t61 254q-33 90 -108 148.5t-166 58.5z" />
    <glyph glyph-name="uni2206" unicode="&#x2206;" horiz-adv-x="1450" 
d="M836 1430l583 -1430h-1388l590 1430h215zM1120 180l-399 1057l-402 -1057h801z" />
    <glyph glyph-name="product" unicode="&#x220f;" horiz-adv-x="1444" 
d="M286 1462v-1900h-160v2048h1192v-2048h-160v1900h-872z" />
    <glyph glyph-name="summation" unicode="&#x2211;" horiz-adv-x="1260" 
d="M711 594l-631 885v131h1102v-148h-895l616 -868l-653 -885h956v-147h-1155v131z" />
    <glyph glyph-name="minus" unicode="&#x2212;" horiz-adv-x="1229" 
d="M1133 608v-180h-1037v180h1037z" />
    <glyph glyph-name="radical" unicode="&#x221a;" horiz-adv-x="1032" 
d="M39 201l-57 123l229 106l309 -649l377 1829h156l-432 -2048h-154l-332 684z" />
    <glyph glyph-name="infinity" unicode="&#x221e;" horiz-adv-x="1587" 
d="M403 203q-92 0 -160.5 41.5t-104.5 113t-36 158.5q0 90 37 163t104.5 115t155.5 42q93 0 184 -53.5t212 -180.5l45 44q56 58 102 97t108 68t132 29q90 0 159 -42t106.5 -114.5t37.5 -161.5q0 -93 -37.5 -166t-106 -114t-157.5 -41q-93 0 -186 53.5t-203 169.5l-101 -90
q-68 -62 -139 -96.5t-152 -34.5zM1190 340q75 0 118.5 49.5t43.5 126.5q0 80 -44.5 132t-125.5 52q-67 0 -136 -47.5t-163 -138.5q98 -96 168 -135t139 -39zM399 698q-48 0 -85 -24t-57.5 -65.5t-20.5 -92.5q0 -77 44 -126.5t126 -49.5q127 0 301 174q-104 97 -176 140.5
t-132 43.5z" />
    <glyph glyph-name="integral" unicode="&#x222b;" horiz-adv-x="1135" 
d="M696 1610q68 0 116 -29.5t48 -85.5q0 -36 -24.5 -57t-61.5 -21q-24 0 -41 14t-43 50q-6 9 -14 16.5t-17 7.5q-63 0 -63 -194l4 -174v-1133q0 -247 -69.5 -343.5t-188.5 -96.5q-60 0 -100.5 30t-40.5 76q0 29 23 51.5t52 22.5q25 0 41.5 -15t34.5 -41q11 -16 17.5 -23
t13.5 -7q29 0 44 57.5t15 161.5q0 21 -2 86v1282q0 182 68 273.5t188 91.5z" />
    <glyph glyph-name="approxequal" unicode="&#x2248;" horiz-adv-x="1143" 
d="M847 551q-61 0 -136.5 21t-209.5 71q-140 53 -209 53q-58 0 -99.5 -42.5t-55.5 -114.5h-105q17 143 86.5 223t177.5 80q54 0 123.5 -18.5t175.5 -59.5q103 -39 162.5 -53.5t99.5 -14.5q60 0 99.5 39.5t54.5 114.5h102q-15 -141 -84 -220t-182 -79zM845 182
q-61 0 -136.5 21t-209.5 71q-143 54 -209 54q-58 0 -99.5 -43t-55.5 -115h-105q17 143 86.5 223t177.5 80q54 0 123.5 -18.5t175.5 -59.5q102 -38 161.5 -52.5t100.5 -14.5q60 0 99.5 39t54.5 114h102q-15 -141 -84 -220t-182 -79z" />
    <glyph glyph-name="notequal" unicode="&#x2260;" horiz-adv-x="1143" 
d="M220 0l121 233h-289v148h365l137 260h-502v145h580l158 304l127 -66l-125 -238h299v-145h-375l-137 -260h512v-148h-588l-156 -299z" />
    <glyph glyph-name="lessequal" unicode="&#x2264;" horiz-adv-x="1143" 
d="M1091 1081v-159l-836 -299l836 -297v-158l-1039 377v153zM1091 86v-147h-1039v147h1039z" />
    <glyph glyph-name="greaterequal" unicode="&#x2265;" horiz-adv-x="1143" 
d="M888 623l-836 299v159l1039 -383v-153l-1039 -377v158zM1091 86v-147h-1039v147h1039z" />
    <glyph glyph-name="lozenge" unicode="&#x25ca;" horiz-adv-x="1214" 
d="M532 1530h148l352 -801l-352 -801h-148l-350 801zM338 729l268 -645l271 645l-271 645z" />
    <glyph glyph-name="uni25CC" unicode="&#x25cc;" horiz-adv-x="823" 
d="M412 598q-50 0 -50 51q0 49 50 49q49 0 49 -49q0 -25 -12.5 -38t-36.5 -13zM256 561q-45 0 -45 49t45 49q25 0 38 -12.5t13 -36.5q0 -49 -51 -49zM565 561q-23 0 -37 13t-14 36q0 24 14 36.5t37 12.5q47 0 47 -49t-47 -49zM143 446q-47 0 -47 52q0 47 47 47q52 0 52 -47
q0 -52 -52 -52zM680 446q-49 0 -49 52q0 47 49 47q47 0 47 -47q0 -52 -47 -52zM104 295q-47 0 -47 47q0 49 47 49q26 0 39 -11.5t13 -37.5q0 -47 -52 -47zM717 295q-47 0 -47 47q0 49 47 49q49 0 49 -49q0 -47 -49 -47zM143 141q-47 0 -47 47q0 50 47 50q52 0 52 -50
q0 -47 -52 -47zM680 141q-49 0 -49 47q0 50 49 50q47 0 47 -50q0 -47 -47 -47zM256 27q-45 0 -45 47q0 51 45 51q51 0 51 -51q0 -47 -51 -47zM565 27q-23 0 -37 11.5t-14 35.5q0 23 14.5 37t36.5 14q47 0 47 -51q0 -47 -47 -47zM412 -12q-50 0 -50 49t50 49q49 0 49 -49
t-49 -49z" />
    <glyph glyph-name="uni274A" unicode="&#x274a;" horiz-adv-x="778" 
d="M186 995l-30 21l112 160l-186 61l14 41l187 -64v203h39v-205l190 64l12 -37l-184 -65l115 -156l-31 -25l-117 164z" />
    <glyph glyph-name="fi" unicode="&#xfb01;" horiz-adv-x="1366" 
d="M43 889v155h246v103q0 145 33.5 234t110.5 134.5t206 45.5q49 0 129 -13l-8 -155q-16 6 -42 9t-50 3q-103 0 -145 -54.5t-42 -176.5v-130h277v-155h-277v-889h-192v889h-246zM1190 1495v-217h-217v217h217zM1178 1044v-1044h-193v1044h193z" />
    <glyph glyph-name="fl" unicode="&#xfb02;" horiz-adv-x="1366" 
d="M43 889v155h246v103q0 145 33.5 234t110.5 134.5t206 45.5q49 0 129 -13l-8 -155q-16 6 -42 9t-50 3q-103 0 -145 -54.5t-42 -176.5v-130h277v-155h-277v-889h-192v889h-246zM1178 1536v-1536h-193v1536h193z" />
    <glyph glyph-name="uniFD3E" unicode="&#xfd3e;" horiz-adv-x="1251" 
d="M692 205q12 -112 76 -231q66 -122 146 -220q83 -101 107 -125q23 -23 23 -38q0 -7 -4.5 -13t-13.5 -6q-43 0 -165 113q-121 112 -228 258q-105 145 -135 260l-162 -29q-25 0 -25 23q0 12 10 25l121 169q14 19 20.5 29.5t6.5 18.5q0 12 -6 19t-17 7q-15 0 -40 -23
q-117 -102 -141 -122q-35 -29 -50 -29q-29 0 -29 52v114q-131 48 -131 108q0 48 131 113v131q0 17 7.5 27t21.5 10q10 0 30 -17q26 -21 137 -117q43 -42 63 -42q12 0 19 6.5t7 16.5q0 15 -46 76l-78 107q-34 44 -34 60q0 23 25 23l162 -29q31 117 137 262q104 144 226 257
q121 112 165 112q9 0 13.5 -5.5t4.5 -12.5q0 -15 -12 -27q-15 -15 -90 -103q-80 -96 -133 -183q-55 -90 -81.5 -160.5t-35.5 -141.5l68 10q46 7 58 7q10 0 16 -5.5t6 -15.5t-13 -27l-137 -154q-26 -32 -26 -46q0 -19 22 -19q17 0 33 12q19 14 20 14l146 109q25 18 37 18
q18 0 18 -40v-113q64 -23 98.5 -53t34.5 -58q0 -57 -133 -112v-115q0 -45 -18 -45q-5 0 -12 3q-5 2 -88 66l-52 40l-49 37q-20 14 -37 14q-22 0 -22 -21q0 -6 7.5 -18.5t16.5 -22.5l122 -137q30 -33 30 -47q0 -21 -22 -21l-21 2zM627 867q9 63 25 113q18 56 48 124v97
q-48 -51 -95 -145q-44 -86 -71 -187l-141 33l107 -152v66h49l39 67h4v-67h47v-60l125 129l-6 6zM303 543q-27 4 -63 24q21 19 63 25v41h96v4l-157 123v-119q-70 -23 -101.5 -40t-31.5 -32q0 -20 32.5 -38.5t100.5 -36.5v-115l157 115v4h-96v45zM1022 567q0 19 -42 41
q-40 22 -89 33v117l-156 -117l2 -4h88v-43q42 -5 70 -27q-29 -19 -70 -24v-41h-90l-6 -4l162 -119v117q131 39 131 71zM676 571q0 44 -31 76q-30 33 -77 33q-42 0 -74 -32q-31 -31 -31 -75q0 -45 32 -77q31 -31 74 -31q44 0 76 32q31 31 31 74zM625 266l131 -24l6 6
l-125 129v-60h-47v-67h-4l-39 67h-49v66l-107 -152l137 32h4q26 -97 72 -191q47 -93 94 -140v97q-30 63 -47 118.5t-26 118.5z" />
    <glyph glyph-name="uniFD3F" unicode="&#xfd3f;" horiz-adv-x="1251" 
d="M613 -58q-102 -141 -227 -257q-122 -113 -165 -113q-9 0 -13.5 6t-4.5 13q0 16 13 26q12 12 88 103q80 95 134 184q55 89 81.5 160t35.5 141l-54 -8q-25 -5 -52 -8l-20 -1q-10 0 -16 5.5t-6 15.5q0 11 29 45l121 137q12 13 19 24.5t7 18.5q0 21 -22 21q-16 0 -38 -15
l-166 -127q-24 -18 -34 -18q-18 0 -18 45v115q-133 55 -133 112q0 29 35.5 58t97.5 53v113q0 40 18 40q12 0 37 -18l146 -109q1 0 20 -14q16 -12 33 -12q22 0 22 19q0 17 -36 57q-10 12 -61 69l-55 62q-12 13 -18 24t-6 15q0 21 22 21l29 -3l97 -14q-9 72 -36 144t-84 162
q-60 97 -136 186q-75 88 -86 99q-10 10 -10 24q0 6 4 12t14 6q43 0 165 -113q123 -113 227 -257q104 -143 136 -261l162 29q25 0 25 -23q0 -11 -13 -30l-118 -164q-18 -26 -22.5 -34.5t-4.5 -14.5q0 -10 7 -16.5t19 -6.5q14 0 53 33l145 125q21 18 32 18q14 0 21.5 -10.5
t7.5 -26.5v-131q67 -36 99 -63t32 -50q0 -60 -131 -108v-114q0 -52 -29 -52q-16 0 -44 25l-142 122q-12 11 -25 19t-20 8q-23 0 -23 -26q0 -8 8 -22l121 -168q16 -20 22.5 -31t6.5 -21q0 -12 -6.5 -17.5t-20.5 -5.5l-160 29q-32 -117 -136 -261zM642 1057q-48 95 -95 144
v-97q32 -73 48 -124q16 -50 25 -113l-131 24l-6 -6l125 -129v60h47v67h4l39 -67h49v-66l107 152l-141 -33q-27 101 -71 188zM1138 569q0 14 -32 31.5t-101 40.5v119l-157 -123v-4h96v-41q41 -6 63 -25q-32 -19 -63 -24v-45h-96v-4l157 -115v115q133 34 133 75zM422 543
q-44 6 -70 24q28 22 70 27v43h88l2 4l-156 117v-117q-48 -11 -90 -33q-41 -23 -41 -41q0 -32 131 -71v-117l162 119l-6 4h-90v41zM678 465q43 0 74 31q32 32 32 77q0 43 -31 75t-76 32q-44 0 -76 -33q-30 -33 -30 -76q0 -41 30 -74q32 -32 77 -32zM700 317l-39 -67h-4v67
h-47v60l-125 -129l6 -6l131 24q-9 -62 -26.5 -117t-46.5 -120v-97q47 47 93 140q47 92 73 192l141 -33l-107 152v-66h-49z" />
    <glyph glyph-name="uni0640.narrow" horiz-adv-x="174" 
d="M-72 54v75q0 51 70 51h178q70 0 70 -51v-75q0 -54 -66 -54h-186q-66 0 -66 54z" />
    <glyph glyph-name="uni0640.long" horiz-adv-x="431" 
d="M-72 54v75q0 51 70 51h435q70 0 70 -51v-75q0 -54 -66 -54h-443q-66 0 -66 54z" />
    <glyph glyph-name="uni064B0651" horiz-adv-x="0" 
d="M272 1590q0 -43 -19 -79.5t-55.5 -58t-81.5 -21.5q-34 0 -64 17t-52 44q-22 -28 -53 -44.5t-66 -16.5q-73 0 -114 45.5t-41 110.5v152h77v-155q0 -35 22.5 -55.5t57.5 -20.5q33 0 56.5 23.5t23.5 53.5v132h72v-132q0 -30 23.5 -53.5t56.5 -23.5q32 0 56 19t24 57v156h77
v-150zM214 2124v-81h-433v81h433zM214 1937v-81h-433v81h433z" />
    <glyph glyph-name="uni06540651" horiz-adv-x="0" 
d="M-46 1520q-29 20 -47 55t-18 74q0 59 48 97.5t130 38.5q40 0 78 -6l-13 -85q-24 6 -58 6q-47 0 -73.5 -17.5t-26.5 -56.5q0 -28 19 -54t54 -39t70 -13h33v-84h-310v84h114zM214 2199v-81h-433v81h433zM214 2012v-81h-433v81h433z" />
    <glyph glyph-name="uni0654064E" horiz-adv-x="0" 
d="M-46 1520q-29 20 -47 55t-18 74q0 59 48 97.5t130 38.5q40 0 78 -6l-13 -85q-24 6 -58 6q-47 0 -73.5 -17.5t-26.5 -56.5q0 -28 19 -54t54 -39t70 -13h33v-84h-310v84h114zM214 2012v-81h-433v81h433z" />
    <glyph glyph-name="uni0654064C" horiz-adv-x="0" 
d="M-46 1520q-29 20 -47 55t-18 74q0 59 48 97.5t130 38.5q40 0 78 -6l-13 -85q-24 6 -58 6q-47 0 -73.5 -17.5t-26.5 -56.5q0 -28 19 -54t54 -39t70 -13h33v-84h-310v84h114zM-205 2138q94 -128 186 -128q36 0 77 16q-37 27 -56 63t-19 73t17.5 69t48.5 51.5t68 19.5
q54 0 90.5 -32.5t36.5 -101.5q0 -68 -43.5 -120t-105.5 -79.5t-116 -27.5q-116 0 -185 104l-86 -82l-42 46q40 41 74.5 74.5t54.5 54.5zM180 2164q0 33 -19 52t-45 19q-28 0 -48 -19t-20 -52q0 -60 64 -109q68 47 68 109z" />
    <glyph glyph-name="uni0654064F" horiz-adv-x="0" 
d="M-46 1520q-29 20 -47 55t-18 74q0 59 48 97.5t130 38.5q40 0 78 -6l-13 -85q-24 6 -58 6q-47 0 -73.5 -17.5t-26.5 -56.5q0 -28 19 -54t54 -39t70 -13h33v-84h-310v84h114zM-11 2010q18 0 41 4t42 12q-74 58 -74 136q0 37 17.5 69t48.5 51.5t68 19.5q54 0 90.5 -32.5
t36.5 -101.5t-46 -121q-45 -52 -106 -79t-122 -27q-105 0 -201 32l16 68q51 -17 94 -24t95 -7zM195 2164q0 33 -19 52t-45 19q-28 0 -48 -20t-20 -51q0 -60 64 -109q68 47 68 109z" />
    <glyph glyph-name="uni06540652" horiz-adv-x="0" 
d="M-46 1520q-29 20 -47 55t-18 74q0 59 48 97.5t130 38.5q40 0 78 -6l-13 -85q-24 6 -58 6q-47 0 -73.5 -17.5t-26.5 -56.5q0 -28 19 -54t54 -39t70 -13h33v-84h-310v84h114zM0 1938q-76 0 -127 53t-51 128q0 50 23.5 91t64 65t90.5 24t91.5 -25t64.5 -65t24 -90
q0 -48 -23.5 -89.5t-64.5 -66.5t-92 -25zM113 2118q0 46 -32.5 79.5t-81.5 33.5q-28 0 -54.5 -14.5t-42.5 -40t-16 -58.5q0 -44 31 -77.5t83 -35.5q48 0 80.5 33t32.5 80z" />
    <glyph glyph-name="uni06550650" horiz-adv-x="0" 
d="M-46 -410q-29 20 -47 55t-18 74q0 61 48.5 98.5t129.5 37.5q40 0 78 -6l-13 -85q-24 6 -58 6q-47 0 -73.5 -18t-26.5 -56q0 -30 19 -55t54.5 -38.5t81.5 -12.5h21v-84h-310v84h114zM214 -609v-81h-433v81h433z" />
    <glyph glyph-name="uni0655064D" horiz-adv-x="0" 
d="M-46 -409q-29 20 -47 55t-18 74q0 61 48.5 98.5t129.5 37.5q40 0 78 -6l-13 -85q-24 6 -58 6q-47 0 -73.5 -18t-26.5 -56q0 -30 19 -55t54.5 -38.5t81.5 -12.5h21v-84h-310v84h114zM214 -608v-81h-433v81h433zM214 -795v-81h-433v81h433z" />
    <glyph glyph-name="uni064406440647" horiz-adv-x="2363" 
d="M1431 96q-29 -47 -72 -71.5t-96 -24.5h-389q-214 0 -253 151q-73 -46 -140 -64.5t-137 -18.5q-93 0 -171.5 35t-125.5 103t-47 163q0 134 97 225t224.5 143.5t294.5 95.5v106h179v-629q0 -48 10.5 -76t38.5 -41t77 -13h294q74 0 74 110v1147h181v-1193q91 -64 246 -64
h307v1257h180v-1437h-488q-88 0 -157.5 24t-126.5 72zM616 304v368q-134 -29 -220.5 -59t-156.5 -83.5t-70 -137.5q0 -74 57 -115t153 -41q137 0 237 68z" />
    <glyph glyph-name="uniFDFA.Farsi" horiz-adv-x="2165" 
d="M1395 1391q116 51 192 92q-19 -54 -87 -85l-370 -169l46 74q103 36 219 88zM403 1428q0 17 17 30q12 -16 19 -34.5t7 -33.5q0 -20 -9.5 -30t-22.5 -10q-7 0 -15 3t-14 7q-10 -19 -35 -19q-22 0 -36.5 15t-14.5 43q0 17 3.5 24.5t12.5 8.5h2q0 -50 29 -50q14 0 14 15
q0 6 -5 17.5t-5 16.5q0 17 11 17q10 0 14 -19q4 -16 11.5 -27t24.5 -11h7q-15 33 -15 37zM1797 1298q-92 -45 -298 -135q16 -12 16 -27q0 -31 -30 -70q-26 -34 -42 -34h-5l-2 6q0 4 12 26q12 23 12 38q0 21 -24 22q-24 2 -24 5q0 18 37 49q36 31 60 40l446 197l-34 -51
q-38 -24 -124 -66zM734 1083q-83 174 -89 197q-2 12 -2 20q0 24 7 52q11 47 23 51q9 0 13 -13q4 -11 37 -50q29 -34 61 -58q14 -11 15 -15v-2q0 -5 -17 -5l-51 4q61 -128 83 -195q24 -71 24 -152q0 -17 -2 -30t-9 -29l-6 -4q-4 56 -87 229zM1647 842q-5 -8 -22.5 -33
t-26.5 -35t-15 -10q-4 0 -4 4v4q0 11 8.5 32.5t20.5 45.5q-25 19 -46 47.5t-30 63.5h-4q-12 -69 -66 -90t-180 -21q-116 0 -157 27q-42 29 -58 94h-4q-6 -23 -22 -46t-31 -34v-4q31 0 58 -13q30 -12 32 -26l-21 -73q0 -3 -49 -37q-53 -37 -116 -61t-121 -24q-200 0 -200 228
l2 34q-51 13 -93 91q-13 -50 -37.5 -76.5t-55.5 -26.5q-42 0 -69.5 20.5t-50.5 69.5q-71 -48 -125 -48q-26 0 -44 12t-18 27q0 71 54 101q55 30 55 50q0 16 -27 43l17 78q1 4 8 4q16 0 45 -53t60 -126q33 -73 104 -73q22 0 36.5 8.5t14.5 23.5q0 18 -23.5 65.5t-68.5 117.5
q15 49 25 69q2 4 5 4q9 0 27 -29q29 -49 44 -79l14 -28q35 -71 64.5 -109.5t70.5 -38.5l41 6q-107 132 -137 174q-33 47 -33 82q0 24 11 54q12 28 23 28q10 0 23 -30q14 -31 51 -62q38 -32 41 -40q0 -16 -41 -16q66 -86 88 -137q21 -48 21 -102q0 -27 -19 -43t-49 -16h-11
q-13 0 -18 3q6 -67 68 -114q62 -45 125 -45q41 0 98 11.5t111 35.5v8q-65 5 -102 13.5t-44 15.5l29 57q78 27 99 42q22 15 22 55q0 48 -37 132q-37 88 -82 162l13 51q9 37 18 37q5 0 14 -14q7 -11 82 -171q75 -161 91 -186q21 -30 56 -43q39 -14 141 -14q101 0 152 19t51 49
q0 5 -2 11.5t-2 8.5q0 4 3 7t6 3q13 0 45 -51q33 -51 92 -51q55 70 111.5 106.5t109.5 36.5q83 0 114 -73q32 -72 46 -72q-22 -77 -25 -79q-2 -2 -20 -10q-15 -5 -278 -13h-41q-31 0 -35 4zM162 1032q7 -7 38 -7q32 0 72 5l-36 74q-11 -19 -32.5 -39t-41.5 -33zM1932 988
q-41 24 -69 24q-37 0 -80 -25q-44 -24 -65 -53q89 0 169 2q57 1 100 8q-16 22 -55 44zM523 819q-18 0 -71 -35t-83 -35q0 -32 -3 -47t-10 -18q-5 30 -28 57.5t-47 34.5q-7 21 -7 34q0 17 11 17q4 0 27 -12q22 -12 40 -12q33 0 100 34q68 35 75 35q16 0 29 -10t13 -22
q0 -8 -2.5 -14.5t-11.5 -20.5q-11 14 -32 14zM2025 383q0 -16 -22 -64q-151 -19 -225 -19q-34 0 -51 5q-45 17 -74 92h-4q-30 -102 -83 -102q-32 0 -56 18.5t-27 41.5h-4q-17 -68 -111 -68q-50 0 -94 25q-44 26 -57 61q-45 -28 -86.5 -41t-75.5 -13q-20 0 -48 11
q-26 11 -26 35q0 10 11 41q10 31 22 39l116 87l-30 52q10 54 15 67q4 13 13 13q8 0 16 -12t28 -51q7 -14 14 -27.5t14 -27.5l50 -95q16 -28 59 -47q44 -18 89 -18q57 0 75 24q4 20 8 45q5 32 12 32q10 0 10 -20t26 -49q26 -27 55 -27q19 0 32 19q0 62 -29 138t-88 187l12 56
q8 30 16 30q10 -3 22 -29q12 -22 81 -190q67 -163 100 -185q32 -20 50 -20q3 65 34 112q32 48 72 48q37 0 71 -43q36 -43 36 -60q0 -10 -6 -10q-9 0 -36 21q-25 22 -66 22q-24 0 -40 -9.5t-16 -26.5q0 -20 24 -40q25 -19 41 -18l107 6q10 0 17 -4t7 -12zM1994 720
q-7 -4 -296 -136l22 51l308 140q-28 -51 -34 -55zM549 325l-75 150q-56 115 -56 143q0 21 13 51q14 32 23 32q9 -7 12 -18q3 -9 35 -54q33 -41 53 -54q21 -10 21 -23q0 -4 -3 -5.5t-16 -1.5q-9 0 -20 3t-17 9l-5 -4q90 -169 90 -249q0 -21 -9 -66q-7 -45 -21 -45l-5 2
q0 93 -20 130zM358 463q-67 112 -67 141q0 16 11 47q12 31 20 31q12 0 22 -25t47 -63q37 -37 37 -43q0 -7 -7.5 -10.5t-29.5 -3.5q50 -91 63 -124q15 -33 15 -73q0 -113 -77 -113q-44 0 -69.5 20t-39.5 68q-55 -34 -102 -34q-32 0 -46 6.5t-14 20.5q0 38 9 56q8 18 41 46
q31 26 48 34l-22 39q10 10 15 40q6 30 10 30q9 0 13 -7q8 -13 47 -97q44 -91 63 -107t55 -16h10q12 0 14 3l2 5q0 16 -68 129zM738 537l-146 -78l20 51q34 13 108 55q71 41 117 71l-32 -52l-21 -17q-22 -17 -46 -30zM692 247q48 9 110 49q64 40 64 62q0 11 -19 24
q-15 -5 -34 -5q-26 0 -42.5 10.5t-16.5 30.5q0 25 17 68q18 42 44 42q29 0 58 -44q30 -43 30 -113q0 -71 -31 -112.5t-80 -41.5q-21 0 -79 3q-57 3 -64 8v3q0 9 43 16zM1040 412v-4l77 -2q46 0 82 6l-48 94q-12 -24 -42 -49.5t-69 -44.5zM219 350q12 0 27 3.5t22 4.5l-30 60
l-71 -62q31 -6 52 -6zM1360 125l39 88l84 -43l28 57l82 -49l-45 -78l-71 39l-35 -53zM1240 182q-16 -24 -107 -70l-86 -42l-238 -99q9 -12 9 -27q0 -24 -21 -48.5t-47 -28.5q17 25 17 48q0 31 -19 34q-15 2 -16 5v5q0 3 3 8l36 42l246 98q141 57 184 83q44 27 51 27l5 -5
q0 -4 -17 -30zM1980 139q-48 -20 -262 -123l19 56l252 116l49 27q-6 -52 -58 -76zM1698 -23q17 0 39 -39q22 -38 22 -72q0 -47 -21 -74.5t-53 -27.5q-20 0 -35 7.5t-30 23.5q-14 -18 -29 -25.5t-34 -7.5q-28 0 -57 18t-50 48q-78 -41 -259 -71q-179 -31 -374 -31
q-175 0 -247 31q-74 32 -101 108h-4q-9 -32 -27.5 -53.5t-44.5 -21.5q-17 -54 -36.5 -76.5t-47.5 -22.5q-25 0 -44.5 20.5t-22.5 65.5v2h-4q-23 -42 -86 -74q-61 -33 -89 -33h-9l-1 4q0 11 21 17q25 8 90 79q67 72 69 134q11 6 20 26t9 38q0 17 12 22q24 -4 57 -57
q33 -52 68 -52q17 0 28 9.5t11 23.5q0 29 -31 98q-30 73 -61 121q0 3 8 40q8 36 17 38q16 -3 62 -115q45 -106 83 -175q36 -62 122 -79q83 -16 185 -16q219 0 364 22q147 22 206 48q58 26 55 26q10 0 47 -29q36 -30 63 -30l27 4q0 92 20 92h2h1q3 0 4 -22q2 -26 27 -51
q26 -27 69 -27l-37 53q4 27 11.5 45t15.5 18zM1868 -122q0 36 17 73q17 35 42 35q31 0 59 -43q29 -44 29 -113q0 -73 -34 -113q-35 -41 -69 -41q-19 0 -78 7q-63 6 -82 15v7l3 1q81 9 152 45t71 67q0 6 -6.5 13.5t-13.5 10.5l-33 -3q-26 0 -41.5 9.5t-15.5 29.5zM326 -217
q12 0 28 8l-80 88q0 -41 14.5 -68.5t37.5 -27.5zM1393 -276q6 -8 6 -21q0 -20 -11 -32.5t-26 -12.5q-14 0 -25 12q-14 -22 -47 -22q-9 0 -21 12q-12 10 -19 10q-11 0 -59 -33q-47 -34 -121 -34l-31 1q-24 1 -28 7v4q0 4 33 4q53 0 132 44q80 44 84 44q8 0 21.5 -11t18.5 -11
q23 0 32 17q11 17 14 17l5 -2q1 0 4.5 -12t14.5 -12l8 2q0 11 3.5 17.5t11.5 11.5z" />
    <glyph glyph-name="uni0660.pnum" horiz-adv-x="587" 
d="M451 457l-135 -136l-133 132l136 136z" />
    <glyph glyph-name="uni0661.pnum" horiz-adv-x="587" 
d="M387 1393v-1393h-187v1393h187z" />
    <glyph glyph-name="uni0662.pnum" horiz-adv-x="838" 
d="M788 1393v-178h-475l148 -1215h-178l-183 1393h688z" />
    <glyph glyph-name="uni0663.pnum" horiz-adv-x="1100" 
d="M285 1393l27 -249q46 -11 77 -11q75 0 111 62.5t37 199.5h160q0 -129 -49 -249q58 -13 92 -13q77 0 112 61t37 201h159q2 -28 2 -42q0 -100 -32 -183t-97 -132t-160 -49q-88 0 -180 57q-42 -27 -76.5 -38t-71.5 -11q-32 0 -102 13l126 -1010h-181l-176 1393h185z" />
    <glyph glyph-name="uni0664.pnum" horiz-adv-x="849" 
d="M494 -32q-98 0 -176 26t-123 78t-45 126q0 107 72 245q73 139 195 272q-126 54 -188 117.5t-62 155.5q0 56 41 140t140 166.5t269 126.5v-182q-72 -20 -140 -55.5t-108 -85.5t-40 -89q0 -34 37.5 -60.5t109.5 -58.5q71 -32 114 -60.5t43 -59.5q0 -41 -92 -144
q-220 -247 -220 -355q0 -59 55.5 -86.5t184.5 -27.5q103 0 238 41l-13 -179q-61 -26 -142 -38.5t-150 -12.5z" />
    <glyph glyph-name="uni0665.pnum" horiz-adv-x="1012" 
d="M506 -36q-144 0 -235 63.5t-131 168t-40 232.5q0 153 62 293t158.5 225.5t192.5 85.5q105 0 197 -87t147 -231t55 -306q0 -106 -45.5 -208.5t-137.5 -169t-223 -66.5zM742 445q0 98 -29 186.5t-84.5 143t-129.5 54.5q-79 0 -131.5 -61t-76.5 -149t-24 -168
q0 -145 63.5 -224t182.5 -79q75 0 127 42t77 110t25 145z" />
    <glyph glyph-name="uni0666.pnum" horiz-adv-x="954" 
d="M50 1215v178h635l169 -1393h-178l-153 1215h-473z" />
    <glyph glyph-name="uni0667.pnum" horiz-adv-x="1118" 
d="M250 1393l334 -1036l299 1036h185l-430 -1393h-117l-471 1393h200z" />
    <glyph glyph-name="uni0668.pnum" horiz-adv-x="1118" 
d="M236 0h-186l430 1393h118l470 -1393h-200l-334 1036z" />
    <glyph glyph-name="uni0669.pnum" horiz-adv-x="1000" 
d="M437 693q-118 0 -205.5 47t-134.5 128t-47 182q0 114 50.5 205.5t137.5 143.5t187 52q94 0 167 -39.5t117.5 -110t56.5 -163.5l134 -1138h-178l-88 693h-197zM398 1286q-50 0 -95 -30t-66.5 -79.5t-21.5 -104.5q0 -103 67 -158.5t185 -55.5h145l-30 221
q-12 101 -59.5 154t-124.5 53z" />
    <glyph glyph-name="uni06F0.pnum" horiz-adv-x="687" 
d="M501 457l-135 -136l-133 132l136 136z" />
    <glyph glyph-name="uni06F1.pnum" horiz-adv-x="687" 
d="M437 1393v-1393h-187v1393h187z" />
    <glyph glyph-name="uni06F2.pnum" horiz-adv-x="838" 
d="M788 1393v-178h-475l148 -1215h-178l-183 1393h688z" />
    <glyph glyph-name="uni06F3.pnum" horiz-adv-x="1100" 
d="M285 1393l27 -249q46 -11 77 -11q75 0 111 62.5t37 199.5h160q0 -129 -49 -249q58 -13 92 -13q77 0 112 61t37 201h159q2 -28 2 -42q0 -100 -32 -183t-97 -132t-160 -49q-88 0 -180 57q-42 -27 -76.5 -38t-71.5 -11q-32 0 -102 13l126 -1010h-181l-176 1393h185z" />
    <glyph glyph-name="uni06F4.pnum" horiz-adv-x="1178" 
d="M292 1393l31 -292q52 -16 107.5 -26.5t148.5 -24.5q-53 49 -86.5 115.5t-33.5 136.5q0 74 33 130.5t91 87t130 30.5q36 0 77 -7v-133q-20 2 -43 2q-77 0 -116.5 -38t-39.5 -106q0 -63 40 -122t106 -92q105 8 162.5 75.5t67.5 190.5h161q-12 -213 -119 -327.5t-295 -114.5
q-87 0 -172.5 12.5t-192.5 39.5l123 -930h-194l-178 1393h192z" />
    <glyph glyph-name="uni06F5.pnum" horiz-adv-x="1239" 
d="M413 -32q-136 0 -206.5 115.5t-70.5 345.5q0 246 66 472q33 114 94 225t149.5 187.5t182.5 76.5q97 0 183 -73.5t142.5 -177.5t89.5 -220q64 -213 64 -467q0 -232 -67 -359t-191 -127q-55 0 -116.5 20t-111.5 55q-101 -73 -208 -73zM744 173q92 0 135 83t43 257
q0 119 -27.5 245t-76.5 227q-52 108 -104 163t-102 55q-107 0 -204 -222q-42 -97 -68.5 -228.5t-26.5 -241.5q0 -93 12 -163.5t54.5 -121.5t129.5 -51q31 0 57 9t64 29q41 -22 63.5 -31t50.5 -9z" />
    <glyph glyph-name="uni06F6.pnum" horiz-adv-x="1126" 
d="M564 561q-137 74 -228.5 191t-91.5 260q0 130 60 229.5t164 153t233 53.5q58 0 125.5 -9.5t122.5 -26.5v-186q-51 20 -105 28.5t-120 8.5q-77 0 -142 -27.5t-104.5 -84t-39.5 -140.5q0 -101 68 -191t187 -150q57 46 150.5 114t148.5 104l105 -134
q-270 -171 -476.5 -357.5t-421.5 -457.5l-124 120q204 253 489 502z" />
    <glyph glyph-name="uni06F7.pnum" horiz-adv-x="1126" 
d="M254 1393l334 -1036l299 1036h185l-430 -1393h-117l-471 1393h200z" />
    <glyph glyph-name="uni06F8.pnum" horiz-adv-x="1126" 
d="M239 0h-186l430 1393h118l470 -1393h-200l-334 1036z" />
    <glyph glyph-name="uni06F9.pnum" horiz-adv-x="1126" 
d="M484 693q-118 0 -205.5 47t-134.5 128t-47 182q0 114 50.5 205.5t137.5 143.5t187 52q94 0 167 -39.5t117.5 -110t56.5 -163.5l134 -1138h-178l-88 693h-197zM445 1286q-50 0 -95 -30t-66.5 -79.5t-21.5 -104.5q0 -103 67 -158.5t185 -55.5h145l-30 221
q-12 101 -59.5 154t-124.5 53z" />
    <glyph glyph-name="uni06F4.Urdu" horiz-adv-x="1024" 
d="M128 1134q0 73 26 133.5t78.5 97t128.5 36.5q84 0 174.5 -53t165.5 -139q46 64 102.5 112t126.5 85v-196q-89 -62 -142 -127.5t-84 -145.5q-60 109 -118 171.5t-99 85.5t-73 23q-88 0 -88 -156q0 -34 10 -117l113 -944h-179l-137 1058q-5 45 -5 76z" />
    <glyph glyph-name="uni06F7.Urdu" horiz-adv-x="1024" 
d="M124 221q0 61 21 121.5t63 153.5l404 908h196l-469 -1053q-17 -38 -17 -73q0 -42 28 -61t86 -19h490l-43 -198h-489q-128 0 -199 58.5t-71 162.5z" />
    <glyph glyph-name="uni06F4.Urdupnum" horiz-adv-x="1002" 
d="M148 1134q0 73 26 133.5t78.5 97t128.5 36.5q84 0 174.5 -53t165.5 -139q46 64 102.5 112t126.5 85v-196q-89 -62 -142 -127.5t-84 -145.5q-60 109 -118 171.5t-99 85.5t-73 23q-88 0 -88 -156q0 -34 10 -117l113 -944h-179l-137 1058q-5 45 -5 76z" />
    <glyph glyph-name="uni06F7.Urdupnum" horiz-adv-x="952" 
d="M100 221q0 61 21 121.5t63 153.5l404 908h196l-469 -1053q-17 -38 -17 -73q0 -42 28 -61t86 -19h490l-43 -198h-489q-128 0 -199 58.5t-71 162.5z" />
    <glyph glyph-name="xx.beh" horiz-adv-x="1802" 
d="M241 32q-105 28 -158 83.5t-68 113.5t-15 120q0 64 8 125.5t12 85.5l170 -16q-15 -96 -15 -140q0 -106 43 -146q42 -41 142.5 -59.5t273.5 -18.5h828v593h180v-773h-1115q-166 0 -286 32z" />
    </font>
</defs>
</svg>
