<?xml version="1.0" standalone="no"?>
<!DOCTYPE svg PUBLIC "-//W3C//DTD SVG 1.1//EN" "http://www.w3.org/Graphics/SVG/1.1/DTD/svg11.dtd" >
<svg xmlns="http://www.w3.org/2000/svg" xmlns:xlink="http://www.w3.org/1999/xlink" version="1.1">
<metadata>
Created by FontForge 20161003 at Thu Oct  4 04:13:14 2018
 By www-data
Copyright (c) 2014-2017 Monotype Imaging Inc. All rights reserved.
</metadata>
<defs>
<font id="FrutigerLight" horiz-adv-x="1139" >
  <font-face 
    font-family="FrutigerLight"
    font-weight="300"
    font-stretch="normal"
    units-per-em="2048"
    panose-1="2 11 4 3 3 5 4 2 2 4"
    ascent="1577"
    descent="-471"
    x-height="1044"
    cap-height="1430"
    bbox="-372 -820 2832 2302"
    underline-thickness="50"
    underline-position="-175"
    unicode-range="U+000D-FEFC"
  />
<missing-glyph horiz-adv-x="1049" 
d="M1049 1470v-1470h-1049v1470h1049zM102 102h844v1264h-844v-1264zM457 541q0 51 8 86.5t31 73.5t69 87l33 34q43 42 62.5 72.5t19.5 76.5q0 49 -21.5 88.5t-57.5 62.5t-77 23q-69 0 -112 -48.5t-56 -146.5l-102 17q12 135 84.5 207.5t191.5 72.5q73 0 130.5 -33.5
t90.5 -94t33 -140.5q0 -75 -29 -127.5t-102 -120.5q-45 -42 -64 -66.5t-26.5 -60t-7.5 -104.5v-21h-94q-1 5 -2.5 23t-1.5 39zM569 377v-137h-114v137h114z" />
    <glyph glyph-name="uniFEF5" unicode="&#xfedf;&#xfe82;" horiz-adv-x="1449" arabic-form="isolated" 
d="M601 127v887h126v-887h435v1310h127v-1437h-1139v127h451zM851 1194q-41 0 -80.5 13t-109.5 45t-112 46t-84 14q-27 0 -53 -14t-47 -35l-44 47q73 79 155 79q39 0 81.5 -14t113.5 -46q70 -32 114.5 -46t83.5 -14q40 0 65 18t48 65l53 -25q-23 -51 -43.5 -77t-53.5 -41
t-87 -15z" />
    <glyph glyph-name="uniFEF6" unicode="&#xfee0;&#xfe82;" horiz-adv-x="1533" arabic-form="final" 
d="M1381 18q-70 18 -137 64q-27 -39 -71.5 -60.5t-101.5 -21.5h-921v127h451v887h126v-887h310q69 0 96 34t27 116v1160h129v-1196q0 -20 -5 -55q106 -59 260 -59h21q16 0 28 -5.5t12 -17.5v-72q0 -21 -11.5 -26.5t-30.5 -5.5h-10q-101 0 -172 18zM856 1192q-41 0 -80.5 13
t-109.5 45t-112 46t-84 14q-27 0 -53 -14t-47 -35l-44 47q73 79 155 79q39 0 81.5 -14t113.5 -46q70 -32 114.5 -46t83.5 -14q40 0 65 18t48 65l53 -25q-23 -51 -43.5 -77t-53.5 -41t-87 -15z" />
    <glyph glyph-name="uniFEF7" unicode="&#xfedf;&#xfe84;" horiz-adv-x="1449" arabic-form="isolated" 
d="M601 127v887h126v-887h435v1310h127v-1437h-1139v127h451zM638 1243q-28 21 -46.5 55.5t-18.5 70.5q0 72 46.5 112.5t131.5 40.5q40 0 78 -6l-13 -71q-24 6 -58 6q-56 0 -85.5 -23.5t-29.5 -65.5q0 -56 44 -87.5t117 -31.5h30v-70h-310v70h114z" />
    <glyph glyph-name="uniFEF8" unicode="&#xfee0;&#xfe84;" horiz-adv-x="1533" arabic-form="final" 
d="M1381 18q-70 18 -137 64q-27 -39 -71.5 -60.5t-101.5 -21.5h-921v127h451v887h126v-887h310q69 0 96 34t27 116v1160h129v-1196q0 -20 -5 -55q106 -59 260 -59h21q16 0 28 -5.5t12 -17.5v-72q0 -21 -11.5 -26.5t-30.5 -5.5h-10q-101 0 -172 18zM638 1243
q-28 21 -46.5 55.5t-18.5 70.5q0 72 46.5 112.5t131.5 40.5q40 0 78 -6l-13 -71q-24 6 -58 6q-56 0 -85.5 -23.5t-29.5 -65.5q0 -56 44 -87.5t117 -31.5h30v-70h-310v70h114z" />
    <glyph glyph-name="uniFEF9" unicode="&#xfedf;&#xfe88;" horiz-adv-x="1449" arabic-form="isolated" 
d="M601 127v887h126v-887h435v1310h127v-1437h-1139v127h451zM634 -424q-28 21 -46.5 55.5t-18.5 70.5q0 72 46.5 112.5t131.5 40.5q40 0 78 -6l-13 -71q-24 6 -58 6q-54 0 -84.5 -23.5t-30.5 -65.5q0 -56 44 -87.5t117 -31.5h30v-70h-310v70h114z" />
    <glyph glyph-name="uniFEFA" unicode="&#xfee0;&#xfe88;" horiz-adv-x="1533" arabic-form="final" 
d="M1381 18q-70 18 -137 64q-27 -39 -71.5 -60.5t-101.5 -21.5h-921v127h451v887h126v-887h310q69 0 96 34t27 116v1160h129v-1196q0 -20 -5 -55q106 -59 260 -59h21q16 0 28 -5.5t12 -17.5v-72q0 -21 -11.5 -26.5t-30.5 -5.5h-10q-101 0 -172 18zM634 -424
q-28 21 -46.5 55.5t-18.5 70.5q0 72 46.5 112.5t131.5 40.5q40 0 78 -6l-13 -71q-24 6 -58 6q-54 0 -84.5 -23.5t-30.5 -65.5q0 -56 44 -87.5t117 -31.5h30v-70h-310v70h114z" />
    <glyph glyph-name="uniFEFB" unicode="&#xfedf;&#xfe8e;" horiz-adv-x="1449" arabic-form="isolated" 
d="M601 127v887h126v-887h435v1310h127v-1437h-1139v127h451z" />
    <glyph glyph-name="uniFEFC" unicode="&#xfee0;&#xfe8e;" horiz-adv-x="1533" arabic-form="final" 
d="M1381 18q-70 18 -137 64q-27 -39 -71.5 -60.5t-101.5 -21.5h-921v127h451v887h126v-887h310q69 0 96 34t27 116v1160h129v-1196q0 -20 -5 -55q106 -59 260 -59h21q16 0 28 -5.5t12 -17.5v-72q0 -21 -11.5 -26.5t-30.5 -5.5h-10q-101 0 -172 18z" />
    <glyph glyph-name="uni06440671" unicode="&#xfedf;&#xfb51;" horiz-adv-x="1449" 
d="M601 127v887h126v-887h435v1310h127v-1437h-1139v127h451zM552 1255v178h58v-58q23 36 62 57t81 21q66 0 100.5 -42t34.5 -105v-111h-418v60h82zM744 1397q-32 0 -62.5 -14t-50 -40.5t-19.5 -65.5v-22h218v43q0 51 -21.5 75t-64.5 24z" />
    <glyph glyph-name="uni06440671.fina" unicode="&#xfee0;&#xfb51;" horiz-adv-x="1533" 
d="M1381 18q-70 18 -137 64q-27 -39 -71.5 -60.5t-101.5 -21.5h-921v127h451v887h126v-887h310q69 0 96 34t27 116v1160h129v-1196q0 -20 -5 -55q106 -59 260 -59h21q16 0 28 -5.5t12 -17.5v-72q0 -21 -11.5 -26.5t-30.5 -5.5h-10q-101 0 -172 18zM552 1255v178h58v-58
q23 36 62 57t81 21q66 0 100.5 -42t34.5 -105v-111h-418v60h82zM744 1397q-32 0 -62.5 -14t-50 -40.5t-19.5 -65.5v-22h218v43q0 51 -21.5 75t-64.5 24z" />
    <glyph glyph-name="uni0621" unicode="&#x621;" horiz-adv-x="831" arabic-form="isolated" 
d="M332 117q-68 42 -105.5 111t-37.5 150q0 92 48 160.5t128 102.5t175 34q59 0 133 -11l-7 -119q-68 9 -105 9q-67 0 -126 -20.5t-96 -65t-37 -113.5q0 -73 42.5 -127t106.5 -82.5t126 -28.5h127v-117h-557v117h185z" />
    <glyph glyph-name="uni0622" unicode="&#x622;" horiz-adv-x="528" arabic-form="isolated" 
d="M328 1436v-1437h-128v1437h128zM423 1531q-41 0 -80.5 13t-109.5 45t-112 46t-84 14q-27 0 -53 -14t-47 -35l-44 47q73 79 155 79q39 0 81.5 -14t113.5 -46q70 -32 114.5 -46t83.5 -14q40 0 65 18t48 65l53 -25q-23 -51 -43.5 -77t-53.5 -41t-87 -15z" />
    <glyph glyph-name="uni0623" unicode="&#x623;" horiz-adv-x="528" arabic-form="isolated" 
d="M328 1436v-1437h-128v1437h128zM205 1628q-28 21 -46.5 55.5t-18.5 70.5q0 72 46.5 112.5t131.5 40.5q40 0 78 -6l-13 -71q-24 6 -58 6q-56 0 -85.5 -23.5t-29.5 -65.5q0 -56 44 -87.5t117 -31.5h30v-70h-310v70h114z" />
    <glyph glyph-name="uni0624" unicode="&#x624;" horiz-adv-x="1095" arabic-form="isolated" 
d="M677 -189q140 95 140 235q-53 -24 -124.5 -36.5t-130.5 -12.5q-117 0 -211.5 45.5t-150 134t-55.5 213.5q0 120 52.5 215.5t148.5 149.5t213 54q186 0 286 -118.5t100 -335.5v-200q0 -257 -153 -401q-152 -143 -503 -181l-14 118q262 25 402 120zM539 694q-77 0 -139 -38
t-97.5 -104.5t-35.5 -148.5q0 -93 42.5 -156t116.5 -93.5t167 -30.5q52 0 111.5 11t113.5 33v120q0 407 -279 407zM472 1120q-36 25 -60 70.5t-24 92.5q0 93 60 146t170 53q56 0 102 -8l-17 -92q-41 8 -76 8q-70 0 -109.5 -30t-39.5 -86q0 -71 55.5 -112.5t159.5 -41.5h33
v-91h-402v91h148z" />
    <glyph glyph-name="uni0625" unicode="&#x625;" horiz-adv-x="528" arabic-form="isolated" 
d="M328 1436v-1437h-128v1437h128zM190 -424q-28 21 -46.5 55.5t-18.5 70.5q0 72 46.5 112.5t131.5 40.5q40 0 78 -6l-13 -71q-24 6 -58 6q-54 0 -84.5 -23.5t-30.5 -65.5q0 -56 44 -87.5t117 -31.5h30v-70h-310v70h114z" />
    <glyph glyph-name="uni0626" unicode="&#x626;" horiz-adv-x="1499" arabic-form="isolated" 
d="M1188 657q-62 0 -115.5 -20t-86.5 -60t-33 -99q0 -48 43.5 -99.5t136.5 -122.5q94 -71 141.5 -131.5t47.5 -119.5q0 -63 -33.5 -130t-92.5 -125q-88 -88 -221.5 -136.5t-287.5 -48.5q-196 0 -341 62q-86 36 -154.5 101.5t-108 153.5t-39.5 188q0 104 27 197.5t76 167.5
l104 -60q-39 -62 -59.5 -138t-20.5 -151q0 -138 74 -224.5t194.5 -125t267.5 -38.5q91 0 182.5 24.5t157.5 64.5q144 88 144 190q0 72 -125 170q-117 93 -175 166.5t-58 154.5q0 97 49 167.5t132 107t183 36.5q120 0 227 -31l-33 -124q-109 33 -203 33zM148 671
q-36 25 -60 70.5t-24 92.5q0 93 60 146t170 53q56 0 102 -8l-17 -92q-41 8 -76 8q-70 0 -109.5 -30t-39.5 -86q0 -71 55.5 -112.5t159.5 -41.5h33v-91h-402v91h148z" />
    <glyph glyph-name="uni0627" unicode="&#x627;" horiz-adv-x="528" arabic-form="isolated" 
d="M328 1436v-1437h-128v1437h128z" />
    <glyph glyph-name="uni0628" unicode="&#x628;" horiz-adv-x="1805" arabic-form="isolated" 
d="M0 356q0 63 17 182l116 -11q-11 -57 -11 -128q0 -125 48 -178q47 -51 149.5 -72.5t271.5 -21.5h926v646h128v-773h-1139q-152 0 -262.5 29.5t-177 108t-66.5 218.5zM838 -355q-34 0 -57.5 23.5t-23.5 57.5q0 35 23 58.5t58 23.5q33 0 57.5 -23.5t24.5 -58.5
q0 -33 -24.5 -57t-57.5 -24z" />
    <glyph glyph-name="uni0629" unicode="&#x629;" horiz-adv-x="895" arabic-form="isolated" 
d="M382 0q-109 0 -195.5 38.5t-136.5 117.5t-50 195q0 140 53 251t141.5 173t191.5 62q99 0 185.5 -57t139.5 -165t53 -253q0 -106 -49 -188.5t-136 -128t-197 -45.5zM384 721q-75 0 -134.5 -46t-93 -123.5t-33.5 -168.5q0 -120 69.5 -188t190.5 -68q127 0 194 65.5
t67 190.5q0 101 -39.5 178t-100 118.5t-120.5 41.5zM171 1110q0 33 24.5 57t57.5 24q34 0 57.5 -24t23.5 -57q0 -35 -23.5 -58.5t-57.5 -23.5t-58 23.5t-24 58.5zM430 1110q0 33 24.5 57t57.5 24q35 0 58 -23.5t23 -57.5q0 -35 -23 -58.5t-58 -23.5q-34 0 -58 23.5t-24 58.5
z" />
    <glyph glyph-name="uni062A" unicode="&#x62a;" horiz-adv-x="1805" arabic-form="isolated" 
d="M0 356q0 63 17 182l116 -11q-11 -57 -11 -128q0 -125 48 -178q47 -51 149.5 -72.5t271.5 -21.5h926v646h128v-773h-1139q-152 0 -262.5 29.5t-177 108t-66.5 218.5zM674 1110q0 33 24.5 57t57.5 24q34 0 57.5 -24t23.5 -57q0 -35 -23.5 -58.5t-57.5 -23.5t-58 23.5
t-24 58.5zM933 1110q0 33 24.5 57t57.5 24q35 0 58 -23.5t23 -57.5q0 -35 -23 -58.5t-58 -23.5q-34 0 -58 23.5t-24 58.5z" />
    <glyph glyph-name="uni062B" unicode="&#x62b;" horiz-adv-x="1805" arabic-form="isolated" 
d="M0 356q0 63 17 182l116 -11q-11 -57 -11 -128q0 -125 48 -178q47 -51 149.5 -72.5t271.5 -21.5h926v646h128v-773h-1139q-152 0 -262.5 29.5t-177 108t-66.5 218.5zM751 1298q0 33 24.5 57t57.5 24q35 0 58 -23.5t23 -57.5q0 -35 -23 -58.5t-58 -23.5q-34 0 -58 23.5
t-24 58.5zM633 1110q0 33 24.5 57t57.5 24q34 0 57.5 -24t23.5 -57q0 -35 -23.5 -58.5t-57.5 -23.5t-58 23.5t-24 58.5zM892 1110q0 33 24.5 57t57.5 24q35 0 58 -23.5t23 -57.5q0 -35 -23 -58.5t-58 -23.5q-34 0 -58 23.5t-24 58.5z" />
    <glyph glyph-name="uni062C" unicode="&#x62c;" horiz-adv-x="1068" arabic-form="isolated" 
d="M579 -320q-31 0 -52 21t-21 52t20.5 52.5t52.5 21.5q29 0 51.5 -21.5t22.5 -52.5q0 -30 -22.5 -51.5t-51.5 -21.5zM507 -755q-132 0 -247.5 46.5t-187.5 143.5t-72 241q0 143 59.5 244.5t170 154t254.5 52.5h369q-34 27 -60 77q-25 49 -43 161q-35 212 -109 281
q-76 70 -201 70q-82 0 -191 -31v108q64 19 122 29.5t121 10.5q143 0 231 -79t110 -225l15 -106q19 -132 53.5 -202t91.5 -89v-132h-562q-94 0 -163.5 -37t-107.5 -108t-38 -169q0 -109 52.5 -183t141 -107.5t199.5 -33.5q67 0 177 17v-109q-54 -14 -95 -19.5t-90 -5.5z" />
    <glyph glyph-name="uni062D" unicode="&#x62d;" horiz-adv-x="1068" arabic-form="isolated" 
d="M507 -755q-132 0 -247.5 46.5t-187.5 143.5t-72 241q0 143 59.5 244.5t170 154t254.5 52.5h369q-34 27 -60 77q-25 49 -43 161q-35 212 -109 281q-76 70 -201 70q-82 0 -191 -31v108q64 19 122 29.5t121 10.5q143 0 231 -79t110 -225l15 -106q19 -132 53.5 -202t91.5 -89
v-132h-562q-94 0 -163.5 -37t-107.5 -108t-38 -169q0 -109 52.5 -183t141 -107.5t199.5 -33.5q67 0 177 17v-109q-54 -14 -95 -19.5t-90 -5.5z" />
    <glyph glyph-name="uni062E" unicode="&#x62e;" horiz-adv-x="1068" arabic-form="isolated" 
d="M507 -755q-132 0 -247.5 46.5t-187.5 143.5t-72 241q0 143 59.5 244.5t170 154t254.5 52.5h369q-34 27 -60 77q-25 49 -43 161q-35 212 -109 281q-76 70 -201 70q-82 0 -191 -31v108q64 19 122 29.5t121 10.5q143 0 231 -79t110 -225l15 -106q19 -132 53.5 -202t91.5 -89
v-132h-562q-94 0 -163.5 -37t-107.5 -108t-38 -169q0 -109 52.5 -183t141 -107.5t199.5 -33.5q67 0 177 17v-109q-54 -14 -95 -19.5t-90 -5.5zM370 1110q0 33 24.5 57t57.5 24t57 -24t24 -57q0 -35 -23.5 -58.5t-57.5 -23.5q-33 0 -57.5 23.5t-24.5 58.5z" />
    <glyph glyph-name="uni062F" unicode="&#x62f;" horiz-adv-x="959" arabic-form="isolated" 
d="M441 127q143 0 210 39t67 134q0 201 -336 486l95 95q174 -156 262.5 -300.5t88.5 -266.5q0 -153 -95 -233.5t-278 -80.5h-363v127h349z" />
    <glyph glyph-name="uni0630" unicode="&#x630;" horiz-adv-x="959" arabic-form="isolated" 
d="M441 127q143 0 210 39t67 134q0 201 -336 486l95 95q174 -156 262.5 -300.5t88.5 -266.5q0 -153 -95 -233.5t-278 -80.5h-363v127h349zM352 1110q0 33 24.5 57t57.5 24t57 -24t24 -57q0 -35 -23.5 -58.5t-57.5 -23.5q-33 0 -57.5 23.5t-24.5 58.5z" />
    <glyph glyph-name="uni0631" unicode="&#x631;" horiz-adv-x="641" arabic-form="isolated" 
d="M353 117v656h128v-688q0 -163 -48.5 -272.5t-151.5 -174t-268 -89.5h-2l-16 121q140 26 216 76.5t109 138t33 232.5z" />
    <glyph glyph-name="uni0632" unicode="&#x632;" horiz-adv-x="641" arabic-form="isolated" 
d="M353 117v656h128v-688q0 -163 -48.5 -272.5t-151.5 -174t-268 -89.5h-2l-16 121q140 26 216 76.5t109 138t33 232.5zM335 1110q0 33 24.5 57t57.5 24t57 -24t24 -57q0 -35 -23.5 -58.5t-57.5 -23.5q-33 0 -57.5 23.5t-24.5 58.5z" />
    <glyph glyph-name="uni0633" unicode="&#x633;" horiz-adv-x="2480" arabic-form="isolated" 
d="M1705 75q-43 -45 -98 -60t-131 -15q-89 0 -156.5 8.5t-127.5 36.5q-25 -166 -108 -281t-214 -173t-298 -58q-166 0 -295.5 64.5t-203 187t-73.5 289.5q0 89 25.5 190.5t67.5 178.5l109 -58q-31 -63 -48 -139t-17 -147q0 -133 57 -233t159 -154.5t235 -54.5
q154 0 263.5 60.5t166 173t56.5 267.5q0 80 -19 171t-49 175l124 36q64 -195 70 -369q55 -27 118 -35.5t146 -8.5q86 0 127 35t41 119v373h127v-435q0 -8 -5 -46q69 -30 149 -38t192 -8h96v646h129v-773h-265q-107 0 -194 15t-156 60z" />
    <glyph glyph-name="uni0634" unicode="&#x634;" horiz-adv-x="2480" arabic-form="isolated" 
d="M1705 75q-43 -45 -98 -60t-131 -15q-89 0 -156.5 8.5t-127.5 36.5q-25 -166 -108 -281t-214 -173t-298 -58q-166 0 -295.5 64.5t-203 187t-73.5 289.5q0 89 25.5 190.5t67.5 178.5l109 -58q-31 -63 -48 -139t-17 -147q0 -133 57 -233t159 -154.5t235 -54.5
q154 0 263.5 60.5t166 173t56.5 267.5q0 80 -19 171t-49 175l124 36q64 -195 70 -369q55 -27 118 -35.5t146 -8.5q86 0 127 35t41 119v373h127v-435q0 -8 -5 -46q69 -30 149 -38t192 -8h96v646h129v-773h-265q-107 0 -194 15t-156 60zM1600 1298q0 33 24.5 57t57.5 24
q35 0 58 -23.5t23 -57.5q0 -35 -23 -58.5t-58 -23.5q-34 0 -58 23.5t-24 58.5zM1482 1110q0 33 24.5 57t57.5 24q34 0 57.5 -24t23.5 -57q0 -35 -23.5 -58.5t-57.5 -23.5t-58 23.5t-24 58.5zM1741 1110q0 33 24.5 57t57.5 24q35 0 58 -23.5t23 -57.5q0 -35 -23 -58.5
t-58 -23.5q-34 0 -58 23.5t-24 58.5z" />
    <glyph glyph-name="uni0635" unicode="&#x635;" horiz-adv-x="2719" arabic-form="isolated" 
d="M1194 57q-22 -168 -105 -285.5t-215.5 -178t-301.5 -60.5q-166 0 -296 64.5t-203 187t-73 289.5q0 89 25.5 190.5t67.5 178.5l109 -58q-31 -64 -48 -139.5t-17 -146.5q0 -133 57 -233t159.5 -154.5t234.5 -54.5q154 0 263.5 61t166 174t56.5 266q0 58 -20.5 164.5
t-47.5 181.5l124 36q65 -203 70 -363q91 -50 205 -50q55 172 159 338.5t252.5 277t318.5 110.5q150 0 247 -67t142 -181.5t45 -261.5v-343h-1111q-76 0 -141 12.5t-123 44.5zM2108 729q-138 0 -258 -94t-203 -233t-120 -275h916v206q0 186 -80 291t-255 105z" />
    <glyph glyph-name="uni0636" unicode="&#x636;" horiz-adv-x="2719" arabic-form="isolated" 
d="M1194 57q-22 -168 -105 -285.5t-215.5 -178t-301.5 -60.5q-166 0 -296 64.5t-203 187t-73 289.5q0 89 25.5 190.5t67.5 178.5l109 -58q-31 -64 -48 -139.5t-17 -146.5q0 -133 57 -233t159.5 -154.5t234.5 -54.5q154 0 263.5 61t166 174t56.5 266q0 58 -20.5 164.5
t-47.5 181.5l124 36q65 -203 70 -363q91 -50 205 -50q55 172 159 338.5t252.5 277t318.5 110.5q150 0 247 -67t142 -181.5t45 -261.5v-343h-1111q-76 0 -141 12.5t-123 44.5zM2108 729q-138 0 -258 -94t-203 -233t-120 -275h916v206q0 186 -80 291t-255 105zM1793 1110
q0 33 24.5 57t57.5 24t57 -24t24 -57q0 -35 -23.5 -58.5t-57.5 -23.5q-33 0 -57.5 23.5t-24.5 58.5z" />
    <glyph glyph-name="uni0637" unicode="&#x637;" horiz-adv-x="1522" arabic-form="isolated" 
d="M0 127h208q49 150 109 252v1058h127v-865q226 281 493 281q149 0 246.5 -66t143 -180.5t45.5 -261.5v-345h-1372v127zM911 729q-139 0 -257.5 -93t-202 -231.5t-122.5 -277.5h916v206q0 183 -79 289.5t-255 106.5z" />
    <glyph glyph-name="uni0638" unicode="&#x638;" horiz-adv-x="1522" arabic-form="isolated" 
d="M0 127h208q49 150 109 252v1058h127v-865q226 281 493 281q149 0 246.5 -66t143 -180.5t45.5 -261.5v-345h-1372v127zM911 729q-139 0 -257.5 -93t-202 -231.5t-122.5 -277.5h916v206q0 183 -79 289.5t-255 106.5zM863 1110q0 33 24.5 57t57.5 24t57 -24t24 -57
q0 -35 -23.5 -58.5t-57.5 -23.5q-33 0 -57.5 23.5t-24.5 58.5z" />
    <glyph glyph-name="uni0639" unicode="&#x639;" horiz-adv-x="969" arabic-form="isolated" 
d="M508 -754q-140 0 -255 44.5t-184 139t-69 237.5q0 183 94 299t273 150q-71 53 -110 138.5t-39 177.5q0 117 53.5 206t146.5 137.5t209 48.5q87 0 177 -19l-9 -135q-92 22 -194 22q-119 0 -186.5 -70t-67.5 -190q0 -128 90 -217q89 -88 227 -88h230v-127h-454
q-95 0 -166.5 -38.5t-110.5 -109t-39 -166.5q0 -110 53 -182.5t141.5 -106.5t196.5 -34q67 0 178 17v-109q-95 -25 -185 -25z" />
    <glyph glyph-name="uni063A" unicode="&#x63a;" horiz-adv-x="969" arabic-form="isolated" 
d="M508 -754q-140 0 -255 44.5t-184 139t-69 237.5q0 183 94 299t273 150q-71 53 -110 138.5t-39 177.5q0 117 53.5 206t146.5 137.5t209 48.5q87 0 177 -19l-9 -135q-92 22 -194 22q-119 0 -186.5 -70t-67.5 -190q0 -128 90 -217q89 -88 227 -88h230v-127h-454
q-95 0 -166.5 -38.5t-110.5 -109t-39 -166.5q0 -110 53 -182.5t141.5 -106.5t196.5 -34q67 0 178 17v-109q-95 -25 -185 -25zM479 1110q0 33 24.5 57t57.5 24t57 -24t24 -57q0 -35 -23.5 -58.5t-57.5 -23.5q-33 0 -57.5 23.5t-24.5 58.5z" />
    <glyph glyph-name="uni0641" unicode="&#x641;" horiz-adv-x="2082" arabic-form="isolated" 
d="M0 357q0 62 17 181l116 -11q-11 -57 -11 -128q0 -125 48 -178q47 -51 150.5 -72.5t270.5 -21.5h693q-63 41 -96.5 117t-33.5 160q0 114 53.5 208t147.5 148.5t210 54.5q114 0 197 -48t126.5 -137t43.5 -211v-419h-1419q-158 0 -269.5 29.5t-177.5 108t-66 219.5z
M1540 694q-76 0 -137.5 -36.5t-96.5 -101.5t-35 -147q0 -87 43 -151t116 -97.5t161 -33.5h215v249q0 151 -69 234.5t-197 83.5zM1495 1110q0 33 24.5 57t57.5 24t57 -24t24 -57q0 -35 -23.5 -58.5t-57.5 -23.5q-33 0 -57.5 23.5t-24.5 58.5z" />
    <glyph glyph-name="uni0642" unicode="&#x642;" horiz-adv-x="1450" arabic-form="isolated" 
d="M932 -3q-141 0 -238.5 54t-145.5 143.5t-48 195.5q0 121 55 216.5t153 149t221 53.5q108 0 191.5 -47.5t131.5 -149.5t48 -261v-326q0 -175 -80 -321q-83 -154 -240.5 -233t-347.5 -79q-177 0 -320.5 55t-227.5 165t-84 267q0 187 94 370l106 -59q-32 -68 -47.5 -143
t-15.5 -142q0 -178 135 -278q136 -100 374 -100q149 0 269.5 58t190 162t69.5 237v57q-42 -20 -112.5 -32t-130.5 -12zM895 689q-73 0 -135.5 -36.5t-100 -102t-37.5 -147.5q0 -90 43 -153t117.5 -95t166.5 -32q48 0 115.5 13t110.5 31v130q0 187 -67.5 289.5t-212.5 102.5z
M682 1110q0 33 24.5 57t57.5 24q34 0 57.5 -24t23.5 -57q0 -35 -23.5 -58.5t-57.5 -23.5t-58 23.5t-24 58.5zM941 1110q0 33 24.5 57t57.5 24q35 0 58 -23.5t23 -57.5q0 -35 -23 -58.5t-58 -23.5q-34 0 -58 23.5t-24 58.5z" />
    <glyph glyph-name="uni0643" unicode="&#x643;" horiz-adv-x="1805" arabic-form="isolated" 
d="M0 353q0 66 17 185l116 -11q-11 -57 -11 -130q0 -123 50 -178q48 -50 153 -71t266 -21h926v1311h128v-1438h-1140q-253 0 -379 83t-126 270zM829 615q-29 22 -47 55.5t-18 70.5q0 72 46.5 112.5t131.5 40.5q40 0 78 -6l-13 -71q-24 6 -58 6q-54 0 -84.5 -23.5
t-30.5 -65.5q0 -57 45.5 -88t125.5 -31h20v-70h-310v70h114z" />
    <glyph glyph-name="uni0644" unicode="&#x644;" horiz-adv-x="1317" arabic-form="isolated" 
d="M1157 189q0 -172 -66 -312t-201.5 -223t-335.5 -83q-168 0 -293 62.5t-193 176.5t-68 264q0 93 24 188.5t69 180.5l109 -58q-30 -62 -47.5 -139t-17.5 -147q0 -129 53 -218t149 -133.5t225 -44.5q230 0 348 129t118 362v1243h127v-1248z" />
    <glyph glyph-name="uni0645" unicode="&#x645;" horiz-adv-x="1297" arabic-form="isolated" 
d="M0 -231q0 134 30.5 224.5t100 155.5t190.5 122q67 252 184 385t273 133q116 0 204.5 -64t136 -162t47.5 -197q0 -111 -48.5 -196.5t-136 -133t-202.5 -47.5q-110 0 -215.5 35t-191.5 103q-126 -17 -187.5 -104t-61.5 -246q0 -111 26 -232t80 -261l-115 -40
q-59 181 -86.5 309t-27.5 216zM751 117q149 0 228 57t79 164q0 63 -33 139.5t-98.5 131t-156.5 54.5q-110 0 -201 -111.5t-144 -321.5q30 -26 89.5 -52.5t124.5 -43.5t112 -17z" />
    <glyph glyph-name="uni0646" unicode="&#x646;" horiz-adv-x="1301" arabic-form="isolated" 
d="M1157 165q0 -166 -69.5 -301t-206.5 -214t-332 -79q-175 0 -299 67t-187 181.5t-63 254.5q0 89 25 188.5t68 180.5l109 -58q-30 -62 -47.5 -139t-17.5 -147q0 -124 55 -213.5t152.5 -136.5t222.5 -47q138 0 243 55t162.5 158.5t57.5 243.5q0 74 -18.5 164t-48.5 181
l127 35q31 -90 49 -187.5t18 -186.5zM571 890q0 33 24.5 57t57.5 24t57 -24t24 -57q0 -35 -23.5 -58.5t-57.5 -23.5q-33 0 -57.5 23.5t-24.5 58.5z" />
    <glyph glyph-name="uni0648" unicode="&#x648;" horiz-adv-x="1095" arabic-form="isolated" 
d="M677 -189q140 95 140 235q-53 -24 -124.5 -36.5t-130.5 -12.5q-117 0 -211.5 45.5t-150 134t-55.5 213.5q0 120 52.5 215.5t148.5 149.5t213 54q186 0 286 -118.5t100 -335.5v-200q0 -257 -153 -401q-152 -143 -503 -181l-14 118q262 25 402 120zM539 694q-77 0 -139 -38
t-97.5 -104.5t-35.5 -148.5q0 -93 42.5 -156t116.5 -93.5t167 -30.5q52 0 111.5 11t113.5 33v120q0 407 -279 407z" />
    <glyph glyph-name="uni0649" unicode="&#x649;" horiz-adv-x="1455" arabic-form="isolated" 
d="M1144 657q-62 0 -115.5 -20t-86.5 -60t-33 -99q0 -48 43.5 -99.5t136.5 -122.5q94 -71 141.5 -131.5t47.5 -119.5q0 -63 -33.5 -130t-92.5 -125q-88 -88 -221.5 -136.5t-287.5 -48.5q-196 0 -341 62q-86 36 -154.5 101.5t-108 153.5t-39.5 188q0 104 27 197.5t76 167.5
l104 -60q-39 -62 -59.5 -138t-20.5 -151q0 -138 74 -224.5t194.5 -125t267.5 -38.5q91 0 182.5 24.5t157.5 64.5q144 88 144 190q0 72 -125 170q-117 93 -175 166.5t-58 154.5q0 97 49 167.5t132 107t183 36.5q120 0 227 -31l-33 -124q-109 33 -203 33z" />
    <glyph glyph-name="uni064A" unicode="&#x64a;" horiz-adv-x="1455" arabic-form="isolated" 
d="M1144 657q-62 0 -115.5 -20t-86.5 -60t-33 -99q0 -48 43.5 -99.5t136.5 -122.5q94 -71 141.5 -131.5t47.5 -119.5q0 -63 -33.5 -130t-92.5 -125q-88 -88 -221.5 -136.5t-287.5 -48.5q-196 0 -341 62q-86 36 -154.5 101.5t-108 153.5t-39.5 188q0 104 27 197.5t76 167.5
l104 -60q-39 -62 -59.5 -138t-20.5 -151q0 -138 74 -224.5t194.5 -125t267.5 -38.5q91 0 182.5 24.5t157.5 64.5q144 88 144 190q0 72 -125 170q-117 93 -175 166.5t-58 154.5q0 97 49 167.5t132 107t183 36.5q120 0 227 -31l-33 -124q-109 33 -203 33zM526 -733
q-35 0 -58 23.5t-23 57.5q0 35 23 58.5t58 23.5q34 0 58 -23.5t24 -58.5q0 -33 -24.5 -57t-57.5 -24zM785 -733q-34 0 -57.5 24t-23.5 57q0 35 23.5 58.5t57.5 23.5t58 -23.5t24 -58.5q0 -33 -24.5 -57t-57.5 -24z" />
    <glyph glyph-name="uni0671" unicode="&#x671;" horiz-adv-x="528" arabic-form="isolated" 
d="M328 1436v-1437h-128v1437h128zM119 1614v178h58v-58q23 36 62 57t81 21q66 0 100.5 -42t34.5 -105v-111h-418v60h82zM311 1756q-32 0 -62.5 -14t-50 -40.5t-19.5 -65.5v-22h218v43q0 51 -21.5 75t-64.5 24z" />
    <glyph glyph-name="uni0679" unicode="&#x679;" horiz-adv-x="1805" arabic-form="isolated" 
d="M0 356q0 63 17 182l116 -11q-11 -57 -11 -128q0 -125 48 -178q47 -51 149.5 -72.5t271.5 -21.5h926v646h128v-773h-1139q-152 0 -262.5 29.5t-177 108t-66.5 218.5zM673 947v486h78v-336q32 53 82.5 82.5t102.5 29.5q86 0 132.5 -53.5t46.5 -145.5v-143h-532v80h90z
M926 1131q-60 0 -111 -54q-50 -55 -62 -130h285v56q0 65 -27.5 96.5t-84.5 31.5z" />
    <glyph glyph-name="uni067E" unicode="&#x67e;" horiz-adv-x="1805" arabic-form="isolated" 
d="M0 356q0 63 17 182l116 -11q-11 -57 -11 -128q0 -125 48 -178q47 -51 149.5 -72.5t271.5 -21.5h926v646h128v-773h-1139q-152 0 -262.5 29.5t-177 108t-66.5 218.5zM735 -355q-35 0 -58 23.5t-23 57.5q0 35 23 58.5t58 23.5q34 0 58 -23.5t24 -58.5q0 -33 -24.5 -57
t-57.5 -24zM994 -355q-34 0 -57.5 24t-23.5 57q0 35 23.5 58.5t57.5 23.5t58 -23.5t24 -58.5q0 -33 -24.5 -57t-57.5 -24zM876 -543q-35 0 -58 23.5t-23 57.5q0 35 23 58.5t58 23.5q34 0 58 -23.5t24 -58.5q0 -33 -24.5 -57t-57.5 -24z" />
    <glyph glyph-name="uni0686" unicode="&#x686;" horiz-adv-x="1068" arabic-form="isolated" 
d="M464 -345q-31 0 -52 21t-21 52t21 52.5t52 21.5t52.5 -21.5t21.5 -52.5q0 -30 -22 -51.5t-52 -21.5zM698 -345q-31 0 -52 21.5t-21 51.5q0 31 21 52.5t52 21.5t52.5 -21.5t21.5 -52.5q0 -30 -22 -51.5t-52 -21.5zM592 -515q-32 0 -52.5 21.5t-20.5 51.5q0 32 20.5 53
t52.5 21q30 0 52 -21t22 -53q0 -29 -22.5 -51t-51.5 -22zM507 -755q-132 0 -247.5 46.5t-187.5 143.5t-72 241q0 143 59.5 244.5t170 154t254.5 52.5h369q-34 27 -60 77q-25 49 -43 161q-35 212 -109 281q-76 70 -201 70q-82 0 -191 -31v108q64 19 122 29.5t121 10.5
q143 0 231 -79t110 -225l15 -106q19 -132 53.5 -202t91.5 -89v-132h-562q-94 0 -163.5 -37t-107.5 -108t-38 -169q0 -109 52.5 -183t141 -107.5t199.5 -33.5q67 0 177 17v-109q-54 -14 -95 -19.5t-90 -5.5z" />
    <glyph glyph-name="uni0688" unicode="&#x688;" horiz-adv-x="959" arabic-form="isolated" 
d="M441 127q143 0 210 39t67 134q0 201 -336 486l95 95q174 -156 262.5 -300.5t88.5 -266.5q0 -153 -95 -233.5t-278 -80.5h-363v127h349zM241 1107v486h78v-336q32 53 82.5 82.5t102.5 29.5q86 0 132.5 -53.5t46.5 -145.5v-143h-532v80h90zM494 1291q-60 0 -111 -54
q-50 -55 -62 -130h285v56q0 65 -27.5 96.5t-84.5 31.5z" />
    <glyph glyph-name="uni0691" unicode="&#x691;" horiz-adv-x="762" arabic-form="isolated" 
d="M353 117v656h128v-688q0 -163 -48.5 -272.5t-151.5 -174t-268 -89.5h-2l-16 121q140 26 216 76.5t109 138t33 232.5zM160 1122v486h78v-336q32 53 82.5 82.5t102.5 29.5q86 0 132.5 -53.5t46.5 -145.5v-143h-532v80h90zM413 1306q-60 0 -111 -54q-50 -55 -62 -130h285v56
q0 65 -27.5 96.5t-84.5 31.5z" />
    <glyph glyph-name="uni0698" unicode="&#x698;" horiz-adv-x="772" arabic-form="isolated" 
d="M353 117v656h128v-688q0 -163 -48.5 -272.5t-151.5 -174t-268 -89.5h-2l-16 121q140 26 216 76.5t109 138t33 232.5zM308 1298q0 33 24.5 57t57.5 24q35 0 58 -23.5t23 -57.5q0 -35 -23 -58.5t-58 -23.5q-34 0 -58 23.5t-24 58.5zM190 1110q0 33 24.5 57t57.5 24
q34 0 57.5 -24t23.5 -57q0 -35 -23.5 -58.5t-57.5 -23.5t-58 23.5t-24 58.5zM449 1110q0 33 24.5 57t57.5 24q35 0 58 -23.5t23 -57.5q0 -35 -23 -58.5t-58 -23.5q-34 0 -58 23.5t-24 58.5z" />
    <glyph glyph-name="uni06A4" unicode="&#x6a4;" horiz-adv-x="2082" arabic-form="isolated" 
d="M0 357q0 62 17 181l116 -11q-11 -57 -11 -128q0 -125 48 -178q47 -51 150.5 -72.5t270.5 -21.5h693q-63 41 -96.5 117t-33.5 160q0 114 53.5 208t147.5 148.5t210 54.5q114 0 197 -48t126.5 -137t43.5 -211v-419h-1419q-158 0 -269.5 29.5t-177.5 108t-66 219.5z
M1540 694q-76 0 -137.5 -36.5t-96.5 -101.5t-35 -147q0 -87 43 -151t116 -97.5t161 -33.5h215v249q0 151 -69 234.5t-197 83.5zM1452 1298q0 33 24.5 57t57.5 24q35 0 58 -23.5t23 -57.5q0 -35 -23 -58.5t-58 -23.5q-34 0 -58 23.5t-24 58.5zM1334 1110q0 33 24.5 57
t57.5 24q34 0 57.5 -24t23.5 -57q0 -35 -23.5 -58.5t-57.5 -23.5t-58 23.5t-24 58.5zM1593 1110q0 33 24.5 57t57.5 24q35 0 58 -23.5t23 -57.5q0 -35 -23 -58.5t-58 -23.5q-34 0 -58 23.5t-24 58.5z" />
    <glyph glyph-name="uni06A9" unicode="&#x6a9;" horiz-adv-x="1711" arabic-form="isolated" 
d="M0 360q0 59 17 178l116 -11q-11 -57 -11 -122q0 -132 48 -185q47 -50 151.5 -71.5t269.5 -21.5h614q132 0 199 41.5t67 131.5q0 209 -376 448l391 670l89 -61l-326 -577q331 -200 331 -466q0 -163 -102 -238.5t-304 -75.5h-675q-152 0 -261 31t-173.5 110.5t-64.5 218.5z
" />
    <glyph glyph-name="uni06AF" unicode="&#x6af;" horiz-adv-x="1711" arabic-form="isolated" 
d="M1422 1464l-414 -663l-94 59l407 665zM0 355q0 64 17 183l116 -11q-11 -57 -11 -122q0 -132 48 -185q47 -50 151.5 -71.5t269.5 -21.5h614q132 0 199 41.5t67 131.5q0 209 -376 448l391 670l89 -61l-326 -577q331 -200 331 -466q0 -163 -102 -238.5t-304 -75.5h-675
q-243 0 -371 81.5t-128 273.5z" />
    <glyph glyph-name="uni06BA" unicode="&#x6ba;" horiz-adv-x="1288" arabic-form="isolated" 
d="M1157 165q0 -166 -69.5 -301t-206.5 -214t-332 -79q-175 0 -299 67t-187 181.5t-63 254.5q0 89 25 188.5t68 180.5l109 -58q-30 -62 -47.5 -139t-17.5 -147q0 -124 55 -213.5t152.5 -136.5t222.5 -47q138 0 243 55t162.5 158.5t57.5 243.5q0 74 -18.5 164t-48.5 181
l127 35q31 -90 49 -187.5t18 -186.5z" />
    <glyph glyph-name="uni06BE" unicode="&#x6be;" horiz-adv-x="1464" arabic-form="isolated" 
d="M112 -211h-87q-25 64 -25 137q0 97 63 149t182 52h109q-44 73 -64 149.5t-20 146.5q0 123 54 224.5t154 171.5l-64 18q15 34 61 106q341 -82 514 -166q117 -57 188 -125t104 -160.5t33 -222.5q0 -21 -10 -269h-1016q-73 0 -110.5 -18t-51.5 -62.5t-14 -130.5zM822 419
q0 94 -23.5 172t-71 124.5t-114.5 46.5t-121.5 -50.5t-84.5 -125t-30 -142.5q0 -50 14 -112t43 -118t70 -87h228q42 69 66 146t24 146zM1197 290q0 153 -80 250t-244 154q28 -53 41.5 -121.5t13.5 -141.5q0 -77 -16.5 -155.5t-49.5 -148.5h321q14 95 14 163z" />
    <glyph glyph-name="uni06C1" unicode="&#x6c1;" horiz-adv-x="895" arabic-form="isolated" 
d="M382 0q-109 0 -195.5 38.5t-136.5 117.5t-50 195q0 140 53 251t141.5 173t191.5 62q99 0 185.5 -57t139.5 -165t53 -253q0 -106 -49 -188.5t-136 -128t-197 -45.5zM384 721q-75 0 -134.5 -46t-93 -123.5t-33.5 -168.5q0 -120 69.5 -188t190.5 -68q127 0 194 65.5
t67 190.5q0 101 -39.5 178t-100 118.5t-120.5 41.5z" />
    <glyph glyph-name="uni06C2.fina" unicode="&#x6c2;" horiz-adv-x="776" 
d="M512 157q-62 93 -106.5 132.5t-94.5 39.5q-43 0 -82.5 -26t-68.5 -74q-30 -49 -45.5 -126t-14.5 -165h-99q-1 9 -1 36q0 218 96 350q46 62 104.5 94t120.5 32q65 0 117.5 -38.5t110.5 -127.5q56 -86 99 -121.5t88 -35.5h72q16 0 28 -5.5t12 -17.5v-72q0 -21 -11.5 -26.5
t-30.5 -5.5h-87q-51 0 -100.5 37.5t-106.5 119.5zM258 796q-36 25 -60 70.5t-24 92.5q0 93 60 146t170 53q56 0 102 -8l-17 -92q-41 8 -76 8q-70 0 -109.5 -30t-39.5 -86q0 -71 55.5 -112.5t159.5 -41.5h33v-91h-402v91h148z" />
    <glyph glyph-name="uni06C3.fina" unicode="&#x6c3;" horiz-adv-x="995" 
d="M678 166q-98 -47 -174 -69.5t-179 -22.5q-84 0 -158.5 30.5t-120.5 92.5t-46 152q0 182 169.5 308.5t497.5 189.5v92h127v-640q0 -64 11 -100t42.5 -54t92.5 -18h87q16 0 28 -5.5t12 -17.5v-72q0 -21 -11.5 -26.5t-30.5 -5.5h-102q-97 0 -157 41t-88 125zM262 596
q-147 -97 -147 -222q0 -92 67.5 -139t166.5 -47q85 0 170 24t148 66v451q-257 -36 -405 -133zM337 1160q0 33 24.5 57t57.5 24q34 0 57.5 -24t23.5 -57q0 -35 -23.5 -58.5t-57.5 -23.5t-58 23.5t-24 58.5zM596 1160q0 33 24.5 57t57.5 24q35 0 58 -23.5t23 -57.5
q0 -35 -23 -58.5t-58 -23.5q-34 0 -58 23.5t-24 58.5z" />
    <glyph glyph-name="uni06CC" unicode="&#x6cc;" horiz-adv-x="1455" arabic-form="isolated" 
d="M1144 657q-62 0 -115.5 -20t-86.5 -60t-33 -99q0 -48 43.5 -99.5t136.5 -122.5q94 -71 141.5 -131.5t47.5 -119.5q0 -63 -33.5 -130t-92.5 -125q-88 -88 -221.5 -136.5t-287.5 -48.5q-196 0 -341 62q-86 36 -154.5 101.5t-108 153.5t-39.5 188q0 104 27 197.5t76 167.5
l104 -60q-39 -62 -59.5 -138t-20.5 -151q0 -138 74 -224.5t194.5 -125t267.5 -38.5q91 0 182.5 24.5t157.5 64.5q144 88 144 190q0 72 -125 170q-117 93 -175 166.5t-58 154.5q0 97 49 167.5t132 107t183 36.5q120 0 227 -31l-33 -124q-109 33 -203 33z" />
    <glyph glyph-name="uni06D2" unicode="&#x6d2;" horiz-adv-x="1827" arabic-form="isolated" 
d="M1240 -49q-272 -25 -465 -25q-395 0 -585 69.5t-190 218.5q0 136 126 230q128 96 508 242l44 -122q-198 -72 -307 -123q-119 -55 -175.5 -106.5t-56.5 -117.5q0 -83 158 -121t497 -38q184 0 434 21q239 22 471 61l-7 -130q-180 -34 -452 -59z" />
    <glyph glyph-name="uni06D3" unicode="&#x6d3;" horiz-adv-x="1827" arabic-form="isolated" 
d="M1240 -49q-272 -25 -465 -25q-395 0 -585 69.5t-190 218.5q0 136 126 230q128 96 508 242l44 -122q-198 -72 -307 -123q-119 -55 -175.5 -106.5t-56.5 -117.5q0 -83 158 -121t497 -38q184 0 434 21q239 22 471 61l-7 -130q-180 -34 -452 -59zM239 918q-36 25 -60 70.5
t-24 92.5q0 93 60 146t170 53q56 0 102 -8l-17 -92q-41 8 -76 8q-70 0 -109.5 -30t-39.5 -86q0 -71 55.5 -112.5t159.5 -41.5h33v-91h-402v91h148z" />
    <glyph glyph-name="uni06D5.fina" unicode="&#x6d5;" horiz-adv-x="995" 
d="M678 166q-98 -47 -174 -69.5t-179 -22.5q-84 0 -158.5 30.5t-120.5 92.5t-46 152q0 182 169.5 308.5t497.5 189.5v92h127v-640q0 -64 11 -100t42.5 -54t92.5 -18h87q16 0 28 -5.5t12 -17.5v-72q0 -21 -11.5 -26.5t-30.5 -5.5h-102q-97 0 -157 41t-88 125zM262 596
q-147 -97 -147 -222q0 -92 67.5 -139t166.5 -47q85 0 170 24t148 66v451q-257 -36 -405 -133z" />
    <glyph glyph-name="uniFB51" unicode="&#x671;" horiz-adv-x="518" arabic-form="final" 
d="M200 275v1161h128v-1122q0 -72 15 -111.5t52.5 -57.5t96.5 -18h58q16 0 28 -5.5t12 -17.5v-72q0 -21 -11.5 -26.5t-30.5 -5.5h-101q-118 0 -182.5 73.5t-64.5 201.5zM122 1614v178h58v-58q23 36 62 57t81 21q66 0 100.5 -42t34.5 -105v-111h-418v60h82zM314 1756
q-32 0 -62.5 -14t-50 -40.5t-19.5 -65.5v-22h218v43q0 51 -21.5 75t-64.5 24z" />
    <glyph glyph-name="uniFB57" unicode="&#x67e;" horiz-adv-x="1822" arabic-form="final" 
d="M1670 18q-70 18 -137 64q-27 -39 -71.5 -60.5t-101.5 -21.5h-852q-155 0 -265.5 29.5t-176.5 108.5t-66 219q0 62 17 181l116 -11q-11 -57 -11 -127q0 -126 48 -179q47 -51 150.5 -72.5t270.5 -21.5h735q69 0 96 34t27 106v505h129v-533q0 -16 -5 -53q108 -59 261 -59h20
q16 0 28 -5.5t12 -17.5v-72q0 -21 -11.5 -26.5t-30.5 -5.5h-10q-101 0 -172 18zM727 -355q-35 0 -58 23.5t-23 57.5q0 35 23 58.5t58 23.5q34 0 58 -23.5t24 -58.5q0 -33 -24.5 -57t-57.5 -24zM986 -355q-34 0 -57.5 24t-23.5 57q0 35 23.5 58.5t57.5 23.5t58 -23.5
t24 -58.5q0 -33 -24.5 -57t-57.5 -24zM868 -543q-35 0 -58 23.5t-23 57.5q0 35 23 58.5t58 23.5q34 0 58 -23.5t24 -58.5q0 -33 -24.5 -57t-57.5 -24z" />
    <glyph glyph-name="uniFB58" unicode="&#x67e;" horiz-adv-x="653" arabic-form="initial" 
d="M-72 29v69q0 29 38 29h398v646h129v-773h-527q-38 0 -38 29zM244 -355q-35 0 -58 23.5t-23 57.5q0 35 23 58.5t58 23.5q34 0 58 -23.5t24 -58.5q0 -33 -24.5 -57t-57.5 -24zM503 -355q-34 0 -57.5 24t-23.5 57q0 35 23.5 58.5t57.5 23.5t58 -23.5t24 -58.5
q0 -33 -24.5 -57t-57.5 -24zM385 -543q-35 0 -58 23.5t-23 57.5q0 35 23 58.5t58 23.5q34 0 58 -23.5t24 -58.5q0 -33 -24.5 -57t-57.5 -24z" />
    <glyph glyph-name="uniFB59" unicode="&#x67e;" horiz-adv-x="684" arabic-form="medial" 
d="M395 82q-58 -82 -178 -82h-251q-38 0 -38 29v69q0 29 38 29h221q51 0 76.5 15t36.5 48t11 90v492h129v-529q0 -25 -5 -57q106 -59 260 -59h21q16 0 28 -5.5t12 -17.5v-72q0 -21 -11.5 -26.5t-30.5 -5.5h-10q-100 0 -169 17.5t-140 64.5zM236 -355q-35 0 -58 23.5
t-23 57.5q0 35 23 58.5t58 23.5q34 0 58 -23.5t24 -58.5q0 -33 -24.5 -57t-57.5 -24zM495 -355q-34 0 -57.5 24t-23.5 57q0 35 23.5 58.5t57.5 23.5t58 -23.5t24 -58.5q0 -33 -24.5 -57t-57.5 -24zM377 -543q-35 0 -58 23.5t-23 57.5q0 35 23 58.5t58 23.5q34 0 58 -23.5
t24 -58.5q0 -33 -24.5 -57t-57.5 -24z" />
    <glyph glyph-name="uniFB67" unicode="&#x679;" horiz-adv-x="1822" arabic-form="final" 
d="M1670 18q-70 18 -137 64q-27 -39 -71.5 -60.5t-101.5 -21.5h-852q-155 0 -265.5 29.5t-176.5 108.5t-66 219q0 62 17 181l116 -11q-11 -57 -11 -127q0 -126 48 -179q47 -51 150.5 -72.5t270.5 -21.5h735q69 0 96 34t27 106v505h129v-533q0 -16 -5 -53q108 -59 261 -59h20
q16 0 28 -5.5t12 -17.5v-72q0 -21 -11.5 -26.5t-30.5 -5.5h-10q-101 0 -172 18zM670 947v486h78v-336q32 53 82.5 82.5t102.5 29.5q86 0 132.5 -53.5t46.5 -145.5v-143h-532v80h90zM923 1131q-60 0 -111 -54q-50 -55 -62 -130h285v56q0 65 -27.5 96.5t-84.5 31.5z" />
    <glyph glyph-name="uniFB68" unicode="&#x679;" horiz-adv-x="774" arabic-form="initial" 
d="M-72 29v69q0 29 38 29h398v646h129v-773h-527q-38 0 -38 29zM172 1046v486h78v-336q32 53 82.5 82.5t102.5 29.5q86 0 132.5 -53.5t46.5 -145.5v-143h-532v80h90zM425 1230q-60 0 -111 -54q-50 -55 -62 -130h285v56q0 65 -27.5 96.5t-84.5 31.5z" />
    <glyph glyph-name="uniFB69" unicode="&#x679;" horiz-adv-x="684" arabic-form="medial" 
d="M395 82q-58 -82 -178 -82h-251q-38 0 -38 29v69q0 29 38 29h221q51 0 76.5 15t36.5 48t11 90v492h129v-529q0 -25 -5 -57q106 -59 260 -59h21q16 0 28 -5.5t12 -17.5v-72q0 -21 -11.5 -26.5t-30.5 -5.5h-10q-100 0 -169 17.5t-140 64.5zM177 1046v486h78v-336
q32 53 82.5 82.5t102.5 29.5q86 0 132.5 -53.5t46.5 -145.5v-143h-532v80h90zM430 1230q-60 0 -111 -54q-50 -55 -62 -130h285v56q0 65 -27.5 96.5t-84.5 31.5z" />
    <glyph glyph-name="uniFB6B" unicode="&#x6a4;" horiz-adv-x="2088" arabic-form="final" 
d="M1588 35q-98 -16 -319 -25.5t-381 -9.5h-378q-155 0 -266.5 29.5t-177.5 108.5t-66 220q0 61 17 180l116 -11q-11 -57 -11 -125q0 -129 48 -182q47 -50 151.5 -71.5t269.5 -21.5h701q-84 50 -131 128t-47 166q0 116 52 205.5t144.5 139t208.5 49.5q112 0 198.5 -40
t135.5 -119.5t49 -192.5q0 -76 -27.5 -170.5t-69.5 -165.5h315q16 0 28 -5.5t12 -17.5v-72q0 -21 -11.5 -26.5t-30.5 -5.5h-108q-238 0 -422 35zM1779 428q0 77 -34 139.5t-96 98t-142 35.5q-74 0 -135.5 -30.5t-97.5 -90.5t-36 -144q0 -75 43 -146.5t122.5 -117
t184.5 -45.5h82q52 76 80.5 154.5t28.5 146.5zM1409 1298q0 33 24.5 57t57.5 24q35 0 58 -23.5t23 -57.5q0 -35 -23 -58.5t-58 -23.5q-34 0 -58 23.5t-24 58.5zM1291 1110q0 33 24.5 57t57.5 24q34 0 57.5 -24t23.5 -57q0 -35 -23.5 -58.5t-57.5 -23.5t-58 23.5t-24 58.5z
M1550 1110q0 33 24.5 57t57.5 24q35 0 58 -23.5t23 -57.5q0 -35 -23 -58.5t-58 -23.5q-34 0 -58 23.5t-24 58.5z" />
    <glyph glyph-name="uniFB6C" unicode="&#x6a4;" horiz-adv-x="1178" arabic-form="initial" 
d="M-72 29v69q0 29 38 29h414q-63 41 -96.5 117t-33.5 160q0 115 53.5 209t147 148t210.5 54q113 0 196 -48.5t127 -138t44 -209.5v-419h-1062q-38 0 -38 29zM636 694q-76 0 -137.5 -36.5t-96.5 -101.5t-35 -147q0 -87 43 -151t115.5 -97.5t160.5 -33.5h216v249
q0 151 -69 234.5t-197 83.5zM541 1298q0 33 24.5 57t57.5 24q35 0 58 -23.5t23 -57.5q0 -35 -23 -58.5t-58 -23.5q-34 0 -58 23.5t-24 58.5zM423 1110q0 33 24.5 57t57.5 24q34 0 57.5 -24t23.5 -57q0 -35 -23.5 -58.5t-57.5 -23.5t-58 23.5t-24 58.5zM682 1110
q0 33 24.5 57t57.5 24q35 0 58 -23.5t23 -57.5q0 -35 -23 -58.5t-58 -23.5q-34 0 -58 23.5t-24 58.5z" />
    <glyph glyph-name="uniFB6D" unicode="&#x6a4;" horiz-adv-x="1195" arabic-form="medial" 
d="M650 35q-148 -19 -281 -26.5t-343 -8.5h-60q-38 0 -38 29v69q0 29 38 29h384q-84 50 -131 128t-47 166q0 117 52 206.5t144.5 138.5t208.5 49q120 0 206.5 -45.5t131.5 -125t45 -181.5q0 -76 -27.5 -170.5t-69.5 -165.5h364q16 0 28 -5.5t12 -17.5v-72q0 -21 -11.5 -26.5
t-30.5 -5.5h-96q-142 0 -255 7t-224 28zM837 428q0 77 -33.5 139.5t-95.5 98t-143 35.5q-75 0 -137.5 -30t-100.5 -90t-38 -145q0 -88 49.5 -158.5t131 -110.5t174.5 -40h84q52 76 80.5 154.5t28.5 146.5zM465 1298q0 33 24.5 57t57.5 24q35 0 58 -23.5t23 -57.5
q0 -35 -23 -58.5t-58 -23.5q-34 0 -58 23.5t-24 58.5zM347 1110q0 33 24.5 57t57.5 24q34 0 57.5 -24t23.5 -57q0 -35 -23.5 -58.5t-57.5 -23.5t-58 23.5t-24 58.5zM606 1110q0 33 24.5 57t57.5 24q35 0 58 -23.5t23 -57.5q0 -35 -23 -58.5t-58 -23.5q-34 0 -58 23.5
t-24 58.5z" />
    <glyph glyph-name="uniFB7B" unicode="&#x686;" horiz-adv-x="1100" arabic-form="final" 
d="M507 -755q-145 0 -260 50.5t-181 147.5t-66 233q0 144 59.5 245.5t168.5 153.5t256 52h370q-39 31 -64 87t-38 142q-17 109 -45.5 184.5t-92.5 125.5t-174 50q-42 0 -85 -8t-106 -23v108q64 19 122 29.5t122 10.5q86 0 153.5 -30.5t117.5 -98.5q54 -71 70 -186l14 -103
q19 -143 64.5 -215.5t113.5 -72.5h106q16 0 28 -5.5t12 -17.5v-72q0 -21 -11.5 -26.5t-30.5 -5.5h-699q-144 0 -226.5 -81.5t-82.5 -232.5q0 -98 45.5 -171t134 -113t213.5 -40q67 0 177 17v-109q-54 -14 -95 -19.5t-90 -5.5zM468 -345q-31 0 -52 21t-21 52t21 52.5t52 21.5
t52.5 -21.5t21.5 -52.5q0 -30 -22 -51.5t-52 -21.5zM702 -345q-31 0 -52 21.5t-21 51.5q0 31 21 52.5t52 21.5t52.5 -21.5t21.5 -52.5q0 -30 -22 -51.5t-52 -21.5zM596 -515q-32 0 -52.5 21.5t-20.5 51.5q0 32 20.5 53t52.5 21q30 0 52 -21t22 -53q0 -29 -22.5 -51
t-51.5 -22z" />
    <glyph glyph-name="uniFB7C" unicode="&#x686;" horiz-adv-x="1030" arabic-form="initial" 
d="M-72 29v69q0 29 38 29h849q-37 27 -62.5 84t-40.5 155q-26 172 -93.5 259.5t-209.5 90.5q-41 0 -95.5 -8.5t-102.5 -23.5v109q64 19 122 29.5t121 10.5q145 0 233 -83.5t110 -240.5l12 -82q18 -126 48 -198q33 -80 98 -97v-132h-989q-38 0 -38 29zM353 -355
q-35 0 -58 23.5t-23 57.5q0 35 23 58.5t58 23.5q34 0 58 -23.5t24 -58.5q0 -33 -24.5 -57t-57.5 -24zM612 -355q-34 0 -57.5 24t-23.5 57q0 35 23.5 58.5t57.5 23.5t58 -23.5t24 -58.5q0 -33 -24.5 -57t-57.5 -24zM494 -543q-35 0 -58 23.5t-23 57.5q0 35 23 58.5t58 23.5
q34 0 58 -23.5t24 -58.5q0 -33 -24.5 -57t-57.5 -24z" />
    <glyph glyph-name="uniFB7D" unicode="&#x686;" horiz-adv-x="1061" arabic-form="medial" 
d="M-72 29v69q0 29 38 29h849q-39 31 -63.5 87t-38.5 142q-17 108 -42 181.5t-90.5 126t-179.5 52.5q-42 0 -85 -8t-106 -23v108q64 19 122 29.5t122 10.5q84 0 153.5 -31.5t117.5 -97.5q54 -71 70 -186l15 -103q42 -288 177 -288h106q16 0 28 -5.5t12 -17.5v-72
q0 -21 -11.5 -26.5t-30.5 -5.5h-1125q-38 0 -38 29zM356 -355q-35 0 -58 23.5t-23 57.5q0 35 23 58.5t58 23.5q34 0 58 -23.5t24 -58.5q0 -33 -24.5 -57t-57.5 -24zM615 -355q-34 0 -57.5 24t-23.5 57q0 35 23.5 58.5t57.5 23.5t58 -23.5t24 -58.5q0 -33 -24.5 -57
t-57.5 -24zM497 -543q-35 0 -58 23.5t-23 57.5q0 35 23 58.5t58 23.5q34 0 58 -23.5t24 -58.5q0 -33 -24.5 -57t-57.5 -24z" />
    <glyph glyph-name="uniFB89" unicode="&#x688;" horiz-adv-x="1038" arabic-form="final" 
d="M737 90q-48 -45 -120.5 -67.5t-161.5 -22.5h-371v127h349q142 0 210 39t68 134q0 202 -337 486l95 95q172 -156 262 -300.5t90 -266.5q0 -74 -23 -133q106 -54 256 -54h16q16 0 28 -5.5t12 -17.5v-72q0 -32 -35 -32h-13q-98 0 -175 19.5t-150 70.5zM219 1107v486h78v-336
q32 53 82.5 82.5t102.5 29.5q86 0 132.5 -53.5t46.5 -145.5v-143h-532v80h90zM472 1291q-60 0 -111 -54q-50 -55 -62 -130h285v56q0 65 -27.5 96.5t-84.5 31.5z" />
    <glyph glyph-name="uniFB8B" unicode="&#x698;" horiz-adv-x="691" arabic-form="final" 
d="M11 -450l-16 120q130 26 206 71t114 134t38 243v655h128v-646h242q16 0 28 -5.5t12 -17.5v-72q0 -21 -11.5 -26.5t-30.5 -5.5h-244q-13 -147 -71.5 -238.5t-155.5 -140t-239 -71.5zM318 1298q0 33 24.5 57t57.5 24q35 0 58 -23.5t23 -57.5q0 -35 -23 -58.5t-58 -23.5
q-34 0 -58 23.5t-24 58.5zM200 1110q0 33 24.5 57t57.5 24q34 0 57.5 -24t23.5 -57q0 -35 -23.5 -58.5t-57.5 -23.5t-58 23.5t-24 58.5zM459 1110q0 33 24.5 57t57.5 24q35 0 58 -23.5t23 -57.5q0 -35 -23 -58.5t-58 -23.5q-34 0 -58 23.5t-24 58.5z" />
    <glyph glyph-name="uniFB8D" unicode="&#x691;" horiz-adv-x="691" arabic-form="final" 
d="M11 -450l-16 120q130 26 206 71t114 134t38 243v655h128v-646h242q16 0 28 -5.5t12 -17.5v-72q0 -21 -11.5 -26.5t-30.5 -5.5h-244q-13 -147 -71.5 -238.5t-155.5 -140t-239 -71.5zM160 1122v486h78v-336q32 53 82.5 82.5t102.5 29.5q86 0 132.5 -53.5t46.5 -145.5v-143
h-532v80h90zM413 1306q-60 0 -111 -54q-50 -55 -62 -130h285v56q0 65 -27.5 96.5t-84.5 31.5z" />
    <glyph glyph-name="uniFB8F" unicode="&#x6a9;" horiz-adv-x="1792" arabic-form="final" 
d="M1493 88q-48 -43 -130 -65.5t-189 -22.5h-668q-154 0 -264 30t-176 109t-66 221q0 59 17 178l116 -11q-11 -57 -11 -122q0 -132 48 -185q47 -50 151.5 -71.5t269.5 -21.5h614q132 0 199 41.5t67 131.5q0 209 -376 448l391 670l89 -61l-326 -577q331 -200 331 -466
q0 -76 -23 -135q100 -52 251 -52h16q16 0 28 -5.5t12 -17.5v-72q0 -21 -11.5 -26.5t-30.5 -5.5h-11q-100 0 -173 19t-145 69z" />
    <glyph glyph-name="uniFB90" unicode="&#x6a9;" horiz-adv-x="816" arabic-form="initial" 
d="M-72 29v69q0 29 38 29h344q266 0 266 168q0 110 -92 220t-284 233l391 670l89 -61l-326 -577q331 -200 331 -466q0 -163 -102 -238.5t-304 -75.5h-313q-38 0 -38 29z" />
    <glyph glyph-name="uniFB91" unicode="&#x6a9;" horiz-adv-x="895" arabic-form="medial" 
d="M968 107v-85q0 -22 -42 -22h-11q-105 0 -175 19q-74 20 -142 68q-48 -43 -130 -65t-188 -22h-311q-40 0 -40 22v85q0 20 39 20h350q258 0 258 173q0 209 -376 448l391 670l89 -61l-326 -577q331 -200 331 -466q0 -77 -23 -136q49 -26 114 -38.5t130 -12.5h22q40 0 40 -20
z" />
    <glyph glyph-name="uniFB93" unicode="&#x6af;" horiz-adv-x="1792" arabic-form="final" 
d="M1422 1464l-414 -663l-94 59l407 665zM1493 88q-48 -43 -130 -65.5t-189 -22.5h-675q-243 0 -371 81t-128 279q0 59 17 178l116 -11q-11 -57 -11 -122q0 -132 48 -185q47 -50 151.5 -71.5t269.5 -21.5h614q132 0 199 41.5t67 131.5q0 209 -376 448l391 670l89 -61
l-326 -577q331 -200 331 -466q0 -76 -23 -135q100 -52 250 -52h17q16 0 28 -5.5t12 -17.5v-72q0 -21 -11.5 -26.5t-30.5 -5.5h-14q-105 0 -179 21.5t-136 66.5z" />
    <glyph glyph-name="uniFB94" unicode="&#x6af;" horiz-adv-x="816" arabic-form="initial" 
d="M519 1459l-414 -663l-94 59l407 665zM-72 29v69q0 29 38 29h344q266 0 266 169q0 108 -93 219.5t-283 232.5l391 670l89 -61l-326 -577q331 -200 331 -466q0 -163 -102 -238.5t-307 -75.5h-310q-38 0 -38 29z" />
    <glyph glyph-name="uniFB95" unicode="&#x6af;" horiz-adv-x="895" arabic-form="medial" 
d="M527 1459l-414 -663l-94 59l407 665zM739 19q-74 20 -141 68q-48 -43 -130 -65t-191 -22h-311q-38 0 -38 29v69q0 29 38 29h344q266 0 266 169q0 108 -93 219.5t-283 232.5l391 670l89 -61l-326 -577q331 -200 331 -466q0 -77 -23 -136q101 -51 247 -51h18q16 0 28 -5.5
t12 -17.5v-72q0 -21 -11.5 -26.5t-30.5 -5.5h-10q-104 0 -176 19z" />
    <glyph glyph-name="uniFB9F" unicode="&#x6ba;" horiz-adv-x="1430" arabic-form="final" 
d="M1152 75q-22 -157 -101 -270.5t-206.5 -173.5t-295.5 -60q-153 0 -277.5 57t-198 170.5t-73.5 275.5q0 97 28 199q28 103 65 170l109 -58q-30 -62 -47.5 -139t-17.5 -147q0 -124 55 -213.5t152.5 -136.5t222.5 -47q138 0 243 55t162.5 158.5t57.5 243.5q0 79 -17.5 163.5
t-49.5 181.5l127 35q55 -148 66 -337q111 -75 289 -75h17q16 0 28 -5.5t12 -17.5v-72q0 -21 -11.5 -26.5t-30.5 -5.5h-11q-102 0 -171 18.5t-126 56.5z" />
    <glyph glyph-name="uniFBA5" unicode="&#x6c0;" horiz-adv-x="995" arabic-form="final" 
d="M678 166q-98 -47 -174 -69.5t-179 -22.5q-84 0 -158.5 30.5t-120.5 92.5t-46 152q0 182 169.5 308.5t497.5 189.5v92h127v-640q0 -64 11 -100t42.5 -54t92.5 -18h87q16 0 28 -5.5t12 -17.5v-72q0 -21 -11.5 -26.5t-30.5 -5.5h-102q-97 0 -157 41t-88 125zM262 596
q-147 -97 -147 -222q0 -92 67.5 -139t166.5 -47q85 0 170 24t148 66v451q-257 -36 -405 -133zM387 1185q-36 25 -60 70.5t-24 92.5q0 93 60 146t170 53q56 0 102 -8l-17 -92q-41 8 -76 8q-70 0 -109.5 -30t-39.5 -86q0 -71 55.5 -112.5t159.5 -41.5h33v-91h-402v91h148z" />
    <glyph glyph-name="uniFBA7" unicode="&#x6c1;" horiz-adv-x="776" arabic-form="final" 
d="M512 157q-62 93 -106.5 132.5t-94.5 39.5q-43 0 -82.5 -26t-68.5 -74q-30 -49 -45.5 -126t-14.5 -165h-99q-1 9 -1 36q0 218 96 350q46 62 104.5 94t120.5 32q65 0 117.5 -38.5t110.5 -127.5q56 -86 99 -121.5t88 -35.5h72q16 0 28 -5.5t12 -17.5v-72q0 -21 -11.5 -26.5
t-30.5 -5.5h-87q-51 0 -100.5 37.5t-106.5 119.5z" />
    <glyph glyph-name="uniFBA8" unicode="&#x6c1;" horiz-adv-x="653" arabic-form="initial" 
d="M299 -242q0 -46 27.5 -72t67.5 -26q20 0 41 7q-20 -44 -51.5 -69.5t-75.5 -25.5q-60 0 -91 40.5t-31 106.5q0 69 32 143t90 138h-342q-38 0 -38 29v69q0 29 38 29h398v646h129v-773h-74q-59 -63 -89.5 -125.5t-30.5 -116.5z" />
    <glyph glyph-name="uniFBA9" unicode="&#x6c1;" horiz-adv-x="1023" arabic-form="medial" 
d="M814 -67q-68 -63 -104.5 -171.5t-49 -222t-16.5 -248.5q-202 62 -313 184q-113 122 -113 270q0 62 9.5 121t30.5 134h-292q-38 0 -38 29v69q0 29 38 29h436q-36 -84 -54.5 -167t-18.5 -148q0 -119 52.5 -201t172.5 -141q4 146 43 282q57 190 164.5 282.5t244.5 92.5h49
q16 0 28 -5.5t12 -17.5v-72q0 -21 -11.5 -26.5t-30.5 -5.5h-61q-105 0 -178 -67z" />
    <glyph glyph-name="uniFBAB" unicode="&#x6be;" horiz-adv-x="1272" arabic-form="final" 
d="M1077 -313q0 -100 -45 -176t-113.5 -116.5t-136.5 -40.5q-119 0 -226 80q-207 154 -211 566h-48q-51 0 -86 -8t-58 -28q-23 -21 -32 -60.5t-9 -114.5h-87q-25 64 -25 137q0 98 63.5 149.5t174.5 51.5h123q35 202 111 353q33 66 90 140t129.5 126t141.5 52
q71 0 130.5 -49.5t94.5 -133t35 -181.5q0 -86 -32.5 -167.5t-94.5 -139.5h338q16 0 28 -5.5t12 -17.5v-72q0 -21 -11.5 -26.5t-30.5 -5.5h-364q72 -70 105.5 -148t33.5 -165zM989 393q0 61 -19 124t-56.5 105t-88.5 42q-86 0 -192 -146q-107 -145 -151 -391h227q68 0 133 35
t106 96t41 135zM513 -291q39 -98 112.5 -166.5t169.5 -68.5q52 0 89.5 33t56 84.5t18.5 104.5q0 72 -33 142.5t-92.5 116t-135.5 45.5h-234q0 -171 49 -291z" />
    <glyph glyph-name="uniFBAC" unicode="&#x6be;" horiz-adv-x="1389" arabic-form="initial" 
d="M112 -211h-87q-25 64 -25 137q0 97 63 149t182 52h109q-44 73 -64 149.5t-20 146.5q0 123 54 224.5t154 171.5l-64 18q15 34 61 106q341 -82 514 -166q117 -57 188 -125t104 -160.5t33 -222.5q0 -21 -10 -269h-1016q-73 0 -110.5 -18t-51.5 -62.5t-14 -130.5zM822 419
q0 94 -23.5 172t-71 124.5t-114.5 46.5t-121.5 -50.5t-84.5 -125t-30 -142.5q0 -50 14 -112t43 -118t70 -87h228q42 69 66 146t24 146zM1197 290q0 153 -80 250t-244 154q28 -53 41.5 -121.5t13.5 -141.5q0 -77 -16.5 -155.5t-49.5 -148.5h321q14 95 14 163z" />
    <glyph glyph-name="uniFBAD" unicode="&#x6be;" horiz-adv-x="1173" arabic-form="medial" 
d="M978 -313q0 -93 -42 -169.5t-110.5 -120t-142.5 -43.5q-87 0 -164 41t-133.5 111t-87.5 156q-53 150 -53 338h-279q-38 0 -38 29v69q0 29 38 29h296q35 202 111 353q42 86 102 158.5t127.5 116t131.5 43.5q84 0 142.5 -56.5t88 -141t29.5 -166.5q0 -86 -32.5 -167.5
t-94.5 -139.5h338q16 0 28 -5.5t12 -17.5v-72q0 -21 -11.5 -26.5t-30.5 -5.5h-364q72 -70 105.5 -148t33.5 -165zM890 393q0 62 -18.5 124.5t-56.5 104.5t-93 42q-58 0 -131 -76.5t-131 -201t-77 -259.5h223q70 0 136 35t107 96t41 135zM414 -291q39 -98 112.5 -166.5
t169.5 -68.5q52 0 89.5 33t56 84.5t18.5 104.5q0 69 -32.5 140t-91.5 117.5t-135 46.5h-236q0 -171 49 -291z" />
    <glyph glyph-name="uniFBAF" unicode="&#x6d2;" horiz-adv-x="923" arabic-form="final" 
d="M1174 -464q-230 -17 -466 -17q-359 0 -533.5 71t-174.5 215q0 159 165 240q164 82 465 82h343q16 0 28 -5.5t12 -17.5v-72q0 -21 -11.5 -26.5t-30.5 -5.5h-411q-210 0 -326.5 -46.5t-116.5 -130.5q0 -94 151 -137q153 -44 481 -44q253 0 449 14q174 12 454 52l-13 -116
q-236 -39 -465 -56z" />
    <glyph glyph-name="uniFBB1" unicode="&#x6d3;" horiz-adv-x="923" arabic-form="final" 
d="M1174 -464q-230 -17 -466 -17q-359 0 -533.5 71t-174.5 215q0 159 165 240q164 82 465 82h343q16 0 28 -5.5t12 -17.5v-72q0 -21 -11.5 -26.5t-30.5 -5.5h-411q-210 0 -326.5 -46.5t-116.5 -130.5q0 -94 151 -137q153 -44 481 -44q253 0 449 14q174 12 454 52l-13 -116
q-236 -39 -465 -56zM261 543q-36 25 -60 70.5t-24 92.5q0 93 60 146t170 53q56 0 102 -8l-17 -92q-41 8 -76 8q-70 0 -109.5 -30t-39.5 -86q0 -71 55.5 -112.5t159.5 -41.5h33v-91h-402v91h148z" />
    <glyph glyph-name="uniFBE8" unicode="&#x649;" horiz-adv-x="653" arabic-form="initial" 
d="M-72 29v69q0 29 38 29h398v646h129v-773h-527q-38 0 -38 29z" />
    <glyph glyph-name="uniFBE9" unicode="&#x649;" horiz-adv-x="684" arabic-form="medial" 
d="M395 82q-58 -82 -178 -82h-251q-38 0 -38 29v69q0 29 38 29h221q51 0 76.5 15t36.5 48t11 90v492h129v-529q0 -25 -5 -57q106 -59 260 -59h21q16 0 28 -5.5t12 -17.5v-72q0 -21 -11.5 -26.5t-30.5 -5.5h-10q-100 0 -169 17.5t-140 64.5z" />
    <glyph glyph-name="uniFBFD" unicode="&#x6cc;" horiz-adv-x="1970" arabic-form="final" 
d="M1651 274v377h-59q-145 0 -214 -24q-73 -26 -108.5 -92t-35.5 -173v-286q0 -162 -85 -277t-226 -173.5t-305 -58.5q-196 0 -335.5 66t-211 180t-71.5 258q0 107 26.5 202.5t75.5 162.5q53 -31 102 -56q-36 -62 -56.5 -141t-20.5 -153q0 -131 70.5 -217.5t188.5 -127.5
t265 -41q130 0 233.5 43.5t162.5 125t59 192.5v312q0 202 103 301.5t310 99.5h258v-393q0 -88 7.5 -139t37 -83t93.5 -32h92q16 0 28 -5.5t12 -17.5v-72q0 -21 -11.5 -26.5t-30.5 -5.5h-111q-83 0 -137.5 38.5t-80 101t-25.5 134.5z" />
    <glyph glyph-name="uniFBFE" unicode="&#x6cc;" horiz-adv-x="727" arabic-form="initial" 
d="M-72 29v69q0 29 38 29h398v646h129v-773h-527q-38 0 -38 29zM226 -355q-35 0 -58 23.5t-23 57.5q0 35 23 58.5t58 23.5q34 0 58 -23.5t24 -58.5q0 -33 -24.5 -57t-57.5 -24zM485 -355q-34 0 -57.5 24t-23.5 57q0 35 23.5 58.5t57.5 23.5t58 -23.5t24 -58.5
q0 -33 -24.5 -57t-57.5 -24z" />
    <glyph glyph-name="uniFBFF" unicode="&#x6cc;" horiz-adv-x="684" arabic-form="medial" 
d="M395 82q-58 -82 -178 -82h-251q-38 0 -38 29v69q0 29 38 29h221q51 0 76.5 15t36.5 48t11 90v492h129v-529q0 -25 -5 -57q106 -59 260 -59h21q16 0 28 -5.5t12 -17.5v-72q0 -21 -11.5 -26.5t-30.5 -5.5h-10q-100 0 -169 17.5t-140 64.5zM223 -355q-35 0 -58 23.5
t-23 57.5q0 35 23 58.5t58 23.5q34 0 58 -23.5t24 -58.5q0 -33 -24.5 -57t-57.5 -24zM482 -355q-34 0 -57.5 24t-23.5 57q0 35 23.5 58.5t57.5 23.5t58 -23.5t24 -58.5q0 -33 -24.5 -57t-57.5 -24z" />
    <glyph glyph-name="uni064C0651" unicode="&#xfc5e;" horiz-adv-x="0" arabic-form="isolated" 
d="M272 1589q0 -70 -39.5 -114t-107.5 -44q-41 0 -74 16.5t-51 44.5q-22 -28 -54.5 -44.5t-72.5 -16.5q-68 0 -107.5 40.5t-39.5 107.5v160h68v-156q0 -38 24 -60.5t65 -22.5q36 0 60 23t24 63v131h65v-139q0 -37 25 -57.5t61 -20.5q40 0 63 20t23 58v162h68v-151z
M-163 2053q44 -63 92 -95t96 -32q35 0 83 20q-41 29 -61 65.5t-20 75.5q0 37 17.5 69t48.5 51.5t68 19.5q57 0 92 -34.5t35 -99.5q0 -93 -87 -161q-44 -33 -90 -49.5t-88 -16.5q-116 0 -185 104l-86 -82l-38 42zM232 2089q0 35 -20 57t-53 22t-54 -23t-21 -57
q0 -35 20.5 -65t52.5 -50q34 22 54.5 52t20.5 64z" />
    <glyph glyph-name="uni064D0651" unicode="&#xfc5f;" horiz-adv-x="0" arabic-form="isolated" 
d="M272 1992q0 -70 -39.5 -114t-107.5 -44q-41 0 -74 16.5t-51 44.5q-22 -28 -54.5 -44.5t-72.5 -16.5q-68 0 -107.5 40.5t-39.5 107.5v160h68v-156q0 -38 24 -60.5t65 -22.5q36 0 60 23t24 63v131h65v-139q0 -37 25 -57.5t61 -20.5q40 0 63 20t23 58v162h68v-151zM214 1642
v-57h-432v57h432zM214 1488v-57h-432v57h432z" />
    <glyph glyph-name="uni064E0651" unicode="&#xfc60;" horiz-adv-x="0" arabic-form="isolated" 
d="M272 1589q0 -70 -39.5 -114t-107.5 -44q-41 0 -74 16.5t-51 44.5q-22 -28 -54.5 -44.5t-72.5 -16.5q-68 0 -107.5 40.5t-39.5 107.5v160h68v-156q0 -38 24 -60.5t65 -22.5q36 0 60 23t24 63v131h65v-139q0 -37 25 -57.5t61 -20.5q40 0 63 20t23 58v162h68v-151zM214 1913
v-57h-432v57h432z" />
    <glyph glyph-name="uni064F0651" unicode="&#xfc61;" horiz-adv-x="0" arabic-form="isolated" 
d="M272 1589q0 -70 -39.5 -114t-107.5 -44q-41 0 -74 16.5t-51 44.5q-22 -28 -54.5 -44.5t-72.5 -16.5q-68 0 -107.5 40.5t-39.5 107.5v160h68v-156q0 -38 24 -60.5t65 -22.5q36 0 60 23t24 63v131h65v-139q0 -37 25 -57.5t61 -20.5q40 0 63 20t23 58v162h68v-151zM-34 1926
q44 0 97 21q-40 28 -60 64.5t-20 75.5q0 37 17.5 69t48.5 51.5t68 19.5q56 0 91.5 -34t35.5 -100q0 -47 -22.5 -88.5t-66.5 -73.5q-46 -33 -93.5 -49t-97.5 -16q-47 0 -94 9t-86 23l14 60q32 -13 83 -22.5t85 -9.5zM188 2089q0 35 -20 57t-53 22q-31 0 -53 -23t-22 -57
q0 -27 16.5 -59.5t55.5 -55.5q35 23 55.5 53t20.5 63z" />
    <glyph glyph-name="uni06500651" unicode="&#xfc62;" horiz-adv-x="0" arabic-form="isolated" 
d="M272 1794q0 -70 -39.5 -114t-107.5 -44q-41 0 -74 16.5t-51 44.5q-22 -28 -54.5 -44.5t-72.5 -16.5q-68 0 -107.5 40.5t-39.5 107.5v160h68v-156q0 -38 24 -60.5t65 -22.5q36 0 60 23t24 63v131h65v-139q0 -37 25 -57.5t61 -20.5q40 0 63 20t23 58v162h68v-151zM214 1488
v-57h-432v57h432z" />
    <glyph glyph-name="uni06510670" unicode="&#xfc63;" horiz-adv-x="302" arabic-form="isolated" 
d="M272 1589q0 -70 -39.5 -114t-107.5 -44q-41 0 -74 16.5t-51 44.5q-22 -28 -54.5 -44.5t-72.5 -16.5q-68 0 -107.5 40.5t-39.5 107.5v160h68v-156q0 -38 24 -60.5t65 -22.5q36 0 60 23t24 63v131h65v-139q0 -37 25 -57.5t61 -20.5q40 0 63 20t23 58v162h68v-151zM33 2217
v-356h-65v356h65z" />
    <glyph glyph-name="uniFDF2" unicode="&#xfdf2;" horiz-adv-x="2822" arabic-form="isolated" 
d="M1414 82q-27 -39 -72 -60.5t-101 -21.5h-321q-187 0 -242 166q-96 -46 -174.5 -69t-178.5 -23q-85 0 -159 31.5t-120 93.5t-46 150q0 182 169.5 308.5t497.5 189.5v92h127v-644q0 -100 31 -134t114 -34h270q66 0 93.5 33.5t27.5 116.5v1161h129v-1199q0 -14 -5 -53
q108 -59 252 -59h321v1310h128v-1437h-450q-84 0 -153.5 18t-137.5 64zM2622 1436v-1437h-128v1437h128zM262 596q-147 -97 -147 -222q0 -61 32.5 -103t85.5 -62.5t116 -20.5q85 0 170 24t148 66v451q-257 -36 -405 -133z" />
    <glyph glyph-name="uniFDFA" unicode="&#xfdfa;" horiz-adv-x="2165" arabic-form="isolated" 
d="M1702 16l35 74q24 -74 24 -108q0 -67 -22.5 -101.5t-67.5 -34.5q-46 0 -98 39q-31 -53 -121 -53q-98 0 -98 53q-44 -32 -143 -51.5t-235 -19.5q-229 0 -321 77t-96 238l-42 -63q-38 -55 -56 -56q3 -3 14 -30q10 -26 10 -54q0 -41 -20.5 -71.5t-54.5 -30.5q-40 0 -125 47
q-17 -41 -52 -72q-36 -33 -75 -33q-38 0 -74 -14q-12 0 -12 10q0 12 52 33q54 22 75 37l48 36l23 17q-20 36 -20 81q0 46 37 86q38 42 69 42q6 0 30 -12t42 -12q24 0 46 18q24 21 32 35l43 80q-98 27 -138 82t-55 147h-4q-60 -102 -162 -102q-36 0 -75 14q-37 13 -37 28
q0 50 85 114q84 65 177 94l-4 34l41 68v-2q17 -219 43 -285q28 -66 115 -94l-27 270l39 87l35 -367q120 -12 194 -12q212 0 363 81l16 45q14 33 23 33q8 0 8 -18q0 -19 -8 -51q72 -72 120 -72q56 0 86 88l-26 330h-9q-72 0 -114.5 37.5t-56.5 113.5h-4q-16 -65 -36.5 -101
t-47.5 -46l4 -4h29q114 0 114 -80q0 -41 -26 -73q-26 -31 -135 -86q-109 -56 -218 -56q-95 0 -152 48t-57 134q0 64 33 137q-29 8 -48 29.5t-30 58.5h-4q-31 -104 -113 -104q-48 0 -72 36t-24 110v12l-59 -52q-13 -12 -76 -12q-100 0 -100 37q0 21 27 64q29 45 46 53l160 78
v20l35 74l8 -240q3 -92 66 -92q34 0 65 25q33 26 29 53l-33 223l37 80q32 -178 53 -309q10 -64 72 -64q47 0 47 28q0 38 -32 143l-42 140l27 68q82 -252 82 -322q0 -40 -23 -94q-23 -53 -49 -53q-12 0 -18 6q-15 -42 -15 -80q0 -153 187 -153q102 0 195 45q92 44 100 59
q-4 13 -98 28l-105 17q-8 6 -8 17q0 16 17 41q17 24 19 24t36 17q59 31 85 67q11 17 11 57q0 188 -41 469l34 114q37 -324 68 -484q32 -153 158 -174l-10 196l43 92l16 -286q54 18 123 73q40 -30 71 -48t70 -25q50 52 147 122q95 68 131 68q38 0 87 -31q49 -30 49 -65
q0 -26 -27 -70q-24 -39 -49 -61q-27 -21 -97 -38t-161 -17q-49 0 -98 4q-49 -97 -78 -97q-8 0 -8 13q0 29 45 96q-85 33 -99 53q-43 -28 -66.5 -40.5t-35.5 -12.5q14 -273 48 -354q35 -80 175 -88l4 4q-43 31 -43 88q0 63 55 142t136 79q56 0 108 -35q51 -34 51 -63
q-59 18 -108 18q-74 0 -130 -28q-56 -29 -56 -56q0 -32 58 -87q54 -51 85 -51q29 0 137 35q100 31 137 52l-34 -76q-205 -108 -392 -108q-195 0 -243 149q-60 -133 -117 -133q-53 0 -137 90q-130 -115 -404 -115q-74 0 -143 11q15 -138 51 -190q36 -54 130.5 -81.5
t244.5 -27.5q232 0 338 65q16 39 30 57.5t28 18.5q7 0 7 -16q0 -30 -24 -91q12 -26 56 -26q51 0 99 24q24 73 40 104.5t29 31.5q7 -4 7 -23q0 -34 -20 -88q65 -27 90 -27q12 0 16 6v3q0 13 -16 77zM1669 1444l-12 -45l-400 -197l9 51zM664 1362q0 -66 -43 -66q-26 0 -43 17
q-16 -14 -32.5 -22.5t-29.5 -8.5q-43 0 -43 57q0 23 2 41q2 7 3.5 10.5t5 7t8.5 7.5v-14q0 -62 34 -62q22 0 39 33l-4 47l19 29l8 -63q5 -32 30 -32q24 0 24 24l-7 52l14 21q15 -37 15 -78zM975 915q-3 -69 -9.5 -104.5t-17.5 -43.5l-51 495l45 116zM1716 1187
q-164 -81 -164 -108q0 -23 54 -51l-19 -49q-67 22 -67 82q0 57 44 84q38 24 182 100q131 69 259 115l-18 -51q-113 -43 -271 -122zM281 952q-48 -21 -48 -40q0 -21 52 -21q59 0 104 27l-2 79q-50 -21 -106 -45zM1757 791q92 0 180 18q88 19 88 51q0 13 -36 32q-34 19 -55 19
q-39 0 -110 -42q-66 -39 -108 -76q2 0 13 -1t28 -1zM250 496q-84 -39 -84 -64q0 -20 62 -20q71 0 122 49q0 9 -2 45l-2 33q-14 -4 -96 -43zM1939 -82q-27 0 -50 29t-23 61q0 47 33 107q33 61 55 61q28 0 68 -54q42 -52 42 -118q0 -104 -84 -228t-178 -124q-42 0 -120 32
q-76 31 -76 48q0 8 10 8q9 0 55 -15q45 -16 76 -16q136 0 283 217l-15 45q-36 -53 -76 -53zM922 84l59 72l96 -72l56 68l100 -76l-53 -64l-99 72l-57 -74zM1986 70q-13 16 -34 16q-16 0 -26 -13q-11 -14 -15 -38q3 -18 19 -27q16 -10 43 -10q16 0 23 6q7 4 9 16
q-6 34 -19 50zM397 -15q-41 35 -79 35q-12 0 -19.5 -6t-7.5 -18q0 -25 52 -55q52 -31 81 -31q14 0 14 10q0 29 -41 65zM844 -367q59 0 92 5q30 4 85 38q54 33 73 33q16 0 38 -16q23 -17 28 -17q30 0 34 31q6 31 25 31q8 0 8 -13v-7q0 -8 -3 -10q3 -5 11.5 -9t12.5 -4
q25 0 25 28q0 27 20 29q1 -8 1 -23q0 -40 -12 -50q-13 -15 -43 -15q-16 0 -29 8q-29 -32 -61 -32q-15 0 -34 17q-17 17 -25 17q-16 0 -77 -35q-58 -36 -145 -36q-83 0 -88 15v2q4 13 64 13z" />
    <glyph glyph-name="uniFE82" unicode="&#x622;" horiz-adv-x="545" arabic-form="final" 
d="M200 275v1161h128v-1122q0 -72 15 -111.5t52.5 -57.5t96.5 -18h58q16 0 28 -5.5t12 -17.5v-72q0 -21 -11.5 -26.5t-30.5 -5.5h-101q-118 0 -182.5 73.5t-64.5 201.5zM433 1531q-41 0 -80.5 13t-109.5 45t-112 46t-84 14q-27 0 -53 -14t-47 -35l-44 47q73 79 155 79
q39 0 81.5 -14t113.5 -46q70 -32 114.5 -46t83.5 -14q40 0 65 18t48 65l53 -25q-23 -51 -43.5 -77t-53.5 -41t-87 -15z" />
    <glyph glyph-name="uniFE84" unicode="&#x623;" horiz-adv-x="518" arabic-form="final" 
d="M200 275v1161h128v-1122q0 -72 15 -111.5t52.5 -57.5t96.5 -18h58q16 0 28 -5.5t12 -17.5v-72q0 -21 -11.5 -26.5t-30.5 -5.5h-101q-118 0 -182.5 73.5t-64.5 201.5zM208 1628q-28 21 -46.5 55.5t-18.5 70.5q0 72 46.5 112.5t131.5 40.5q40 0 78 -6l-13 -71q-24 6 -58 6
q-56 0 -85.5 -23.5t-29.5 -65.5q0 -56 44 -87.5t117 -31.5h30v-70h-310v70h114z" />
    <glyph glyph-name="uniFE86" unicode="&#x624;" horiz-adv-x="1161" arabic-form="final" 
d="M289 -427q-10 84 -14 119q241 23 379 103.5t157 204.5h-229q-119 0 -218.5 43t-159.5 130.5t-60 216.5q0 122 54.5 217.5t151.5 148.5t220 53q129 0 213 -59.5t123 -161t39 -230.5v-231h248q16 0 28 -5.5t12 -17.5v-72q0 -21 -11.5 -26.5t-30.5 -5.5h-259
q-34 -152 -126 -238.5t-214.5 -125.5t-302.5 -63zM540 694q-72 0 -135 -38.5t-100.5 -105.5t-37.5 -147q0 -140 86 -208t229 -68h237v166q0 199 -70 300t-209 101zM475 1120q-36 25 -60 70.5t-24 92.5q0 93 60 146t170 53q56 0 102 -8l-17 -92q-41 8 -76 8q-70 0 -109.5 -30
t-39.5 -86q0 -71 55.5 -112.5t159.5 -41.5h33v-91h-402v91h148z" />
    <glyph glyph-name="uniFE88" unicode="&#x625;" horiz-adv-x="518" arabic-form="final" 
d="M200 275v1161h128v-1122q0 -72 15 -111.5t52.5 -57.5t96.5 -18h58q16 0 28 -5.5t12 -17.5v-72q0 -21 -11.5 -26.5t-30.5 -5.5h-101q-118 0 -182.5 73.5t-64.5 201.5zM206 -424q-28 21 -46.5 55.5t-18.5 70.5q0 72 46.5 112.5t131.5 40.5q40 0 78 -6l-13 -71q-24 6 -58 6
q-54 0 -84.5 -23.5t-30.5 -65.5q0 -56 44 -87.5t117 -31.5h30v-70h-310v70h114z" />
    <glyph glyph-name="uniFE8A" unicode="&#x626;" horiz-adv-x="2014" arabic-form="final" 
d="M1690 274v377h-59q-145 0 -214 -24q-73 -26 -108.5 -92t-35.5 -173v-286q0 -162 -85 -277t-226 -173.5t-305 -58.5q-196 0 -335.5 66t-211 180t-71.5 258q0 107 26.5 202.5t75.5 162.5q53 -31 102 -56q-36 -62 -56.5 -141t-20.5 -153q0 -131 70.5 -217.5t188.5 -127.5
t265 -41q130 0 233.5 43.5t162.5 125t59 192.5v312q0 202 103 301.5t310 99.5h258v-393q0 -88 7.5 -139t37 -83t93.5 -32h92q16 0 28 -5.5t12 -17.5v-72q0 -21 -11.5 -26.5t-30.5 -5.5h-111q-83 0 -137.5 38.5t-80 101t-25.5 134.5zM148 703q-36 25 -60 70.5t-24 92.5
q0 93 60 146t170 53q56 0 102 -8l-17 -92q-41 8 -76 8q-70 0 -109.5 -30t-39.5 -86q0 -71 55.5 -112.5t159.5 -41.5h33v-91h-402v91h148z" />
    <glyph glyph-name="uniFE8B" unicode="&#x626;" horiz-adv-x="653" arabic-form="initial" 
d="M-72 29v69q0 29 38 29h398v646h129v-773h-527q-38 0 -38 29zM325 1030q-36 25 -60 70.5t-24 92.5q0 93 60 146t170 53q56 0 102 -8l-17 -92q-41 8 -76 8q-70 0 -109.5 -30t-39.5 -86q0 -71 55.5 -112.5t159.5 -41.5h33v-91h-402v91h148z" />
    <glyph glyph-name="uniFE8C" unicode="&#x626;" horiz-adv-x="684" arabic-form="medial" 
d="M395 82q-58 -82 -178 -82h-251q-38 0 -38 29v69q0 29 38 29h221q51 0 76.5 15t36.5 48t11 90v492h129v-529q0 -25 -5 -57q106 -59 260 -59h21q16 0 28 -5.5t12 -17.5v-72q0 -21 -11.5 -26.5t-30.5 -5.5h-10q-100 0 -169 17.5t-140 64.5zM289 1030q-36 25 -60 70.5
t-24 92.5q0 93 60 146t170 53q56 0 102 -8l-17 -92q-41 8 -76 8q-70 0 -109.5 -30t-39.5 -86q0 -71 55.5 -112.5t159.5 -41.5h33v-91h-402v91h148z" />
    <glyph glyph-name="uniFE8E" unicode="&#x627;" horiz-adv-x="518" arabic-form="final" 
d="M200 275v1161h128v-1122q0 -72 15 -111.5t52.5 -57.5t96.5 -18h58q16 0 28 -5.5t12 -17.5v-72q0 -21 -11.5 -26.5t-30.5 -5.5h-101q-118 0 -182.5 73.5t-64.5 201.5z" />
    <glyph glyph-name="uniFE90" unicode="&#x628;" horiz-adv-x="1822" arabic-form="final" 
d="M1670 18q-70 18 -137 64q-27 -39 -71.5 -60.5t-101.5 -21.5h-852q-155 0 -265.5 29.5t-176.5 108.5t-66 219q0 62 17 181l116 -11q-11 -57 -11 -127q0 -126 48 -179q47 -51 150.5 -72.5t270.5 -21.5h735q69 0 96 34t27 106v505h129v-533q0 -16 -5 -53q108 -59 261 -59h20
q16 0 28 -5.5t12 -17.5v-72q0 -21 -11.5 -26.5t-30.5 -5.5h-10q-101 0 -172 18zM822 -355q-34 0 -57.5 23.5t-23.5 57.5q0 35 23 58.5t58 23.5q33 0 57.5 -23.5t24.5 -58.5q0 -33 -24.5 -57t-57.5 -24z" />
    <glyph glyph-name="uniFE91" unicode="&#x628;" horiz-adv-x="653" arabic-form="initial" 
d="M-72 29v69q0 29 38 29h398v646h129v-773h-527q-38 0 -38 29zM402 -355q-34 0 -57.5 23.5t-23.5 57.5q0 35 23 58.5t58 23.5q33 0 57.5 -23.5t24.5 -58.5q0 -33 -24.5 -57t-57.5 -24z" />
    <glyph glyph-name="uniFE92" unicode="&#x628;" horiz-adv-x="684" arabic-form="medial" 
d="M395 82q-58 -82 -178 -82h-251q-38 0 -38 29v69q0 29 38 29h221q51 0 76.5 15t36.5 48t11 90v492h129v-529q0 -25 -5 -57q106 -59 260 -59h21q16 0 28 -5.5t12 -17.5v-72q0 -21 -11.5 -26.5t-30.5 -5.5h-10q-100 0 -169 17.5t-140 64.5zM347 -355q-34 0 -57.5 23.5
t-23.5 57.5q0 35 23 58.5t58 23.5q33 0 57.5 -23.5t24.5 -58.5q0 -33 -24.5 -57t-57.5 -24z" />
    <glyph glyph-name="uniFE94" unicode="&#x629;" horiz-adv-x="995" arabic-form="final" 
d="M678 166q-98 -47 -174 -69.5t-179 -22.5q-84 0 -158.5 30.5t-120.5 92.5t-46 152q0 182 169.5 308.5t497.5 189.5v92h127v-640q0 -64 11 -100t42.5 -54t92.5 -18h87q16 0 28 -5.5t12 -17.5v-72q0 -21 -11.5 -26.5t-30.5 -5.5h-102q-97 0 -157 41t-88 125zM262 596
q-147 -97 -147 -222q0 -92 67.5 -139t166.5 -47q85 0 170 24t148 66v451q-257 -36 -405 -133zM337 1160q0 33 24.5 57t57.5 24q34 0 57.5 -24t23.5 -57q0 -35 -23.5 -58.5t-57.5 -23.5t-58 23.5t-24 58.5zM596 1160q0 33 24.5 57t57.5 24q35 0 58 -23.5t23 -57.5
q0 -35 -23 -58.5t-58 -23.5q-34 0 -58 23.5t-24 58.5z" />
    <glyph glyph-name="uniFE96" unicode="&#x62a;" horiz-adv-x="1822" arabic-form="final" 
d="M1670 18q-70 18 -137 64q-27 -39 -71.5 -60.5t-101.5 -21.5h-852q-155 0 -265.5 29.5t-176.5 108.5t-66 219q0 62 17 181l116 -11q-11 -57 -11 -127q0 -126 48 -179q47 -51 150.5 -72.5t270.5 -21.5h735q69 0 96 34t27 106v505h129v-533q0 -16 -5 -53q108 -59 261 -59h20
q16 0 28 -5.5t12 -17.5v-72q0 -21 -11.5 -26.5t-30.5 -5.5h-10q-101 0 -172 18zM640 1110q0 33 24.5 57t57.5 24q34 0 57.5 -24t23.5 -57q0 -35 -23.5 -58.5t-57.5 -23.5t-58 23.5t-24 58.5zM899 1110q0 33 24.5 57t57.5 24q35 0 58 -23.5t23 -57.5q0 -35 -23 -58.5
t-58 -23.5q-34 0 -58 23.5t-24 58.5z" />
    <glyph glyph-name="uniFE97" unicode="&#x62a;" horiz-adv-x="653" arabic-form="initial" 
d="M-72 29v69q0 29 38 29h398v646h129v-773h-527q-38 0 -38 29zM208 1110q0 33 24.5 57t57.5 24q34 0 57.5 -24t23.5 -57q0 -35 -23.5 -58.5t-57.5 -23.5t-58 23.5t-24 58.5zM467 1110q0 33 24.5 57t57.5 24q35 0 58 -23.5t23 -57.5q0 -35 -23 -58.5t-58 -23.5
q-34 0 -58 23.5t-24 58.5z" />
    <glyph glyph-name="uniFE98" unicode="&#x62a;" horiz-adv-x="684" arabic-form="medial" 
d="M395 82q-58 -82 -178 -82h-251q-38 0 -38 29v69q0 29 38 29h221q51 0 76.5 15t36.5 48t11 90v492h129v-529q0 -25 -5 -57q106 -59 260 -59h21q16 0 28 -5.5t12 -17.5v-72q0 -21 -11.5 -26.5t-30.5 -5.5h-10q-100 0 -169 17.5t-140 64.5zM164 1110q0 33 24.5 57t57.5 24
q34 0 57.5 -24t23.5 -57q0 -35 -23.5 -58.5t-57.5 -23.5t-58 23.5t-24 58.5zM423 1110q0 33 24.5 57t57.5 24q35 0 58 -23.5t23 -57.5q0 -35 -23 -58.5t-58 -23.5q-34 0 -58 23.5t-24 58.5z" />
    <glyph glyph-name="uniFE9A" unicode="&#x62b;" horiz-adv-x="1822" arabic-form="final" 
d="M1670 18q-70 18 -137 64q-27 -39 -71.5 -60.5t-101.5 -21.5h-852q-155 0 -265.5 29.5t-176.5 108.5t-66 219q0 62 17 181l116 -11q-11 -57 -11 -127q0 -126 48 -179q47 -51 150.5 -72.5t270.5 -21.5h735q69 0 96 34t27 106v505h129v-533q0 -16 -5 -53q108 -59 261 -59h20
q16 0 28 -5.5t12 -17.5v-72q0 -21 -11.5 -26.5t-30.5 -5.5h-10q-101 0 -172 18zM714 1298q0 33 24.5 57t57.5 24q35 0 58 -23.5t23 -57.5q0 -35 -23 -58.5t-58 -23.5q-34 0 -58 23.5t-24 58.5zM596 1110q0 33 24.5 57t57.5 24q34 0 57.5 -24t23.5 -57q0 -35 -23.5 -58.5
t-57.5 -23.5t-58 23.5t-24 58.5zM855 1110q0 33 24.5 57t57.5 24q35 0 58 -23.5t23 -57.5q0 -35 -23 -58.5t-58 -23.5q-34 0 -58 23.5t-24 58.5z" />
    <glyph glyph-name="uniFE9B" unicode="&#x62b;" horiz-adv-x="653" arabic-form="initial" 
d="M-72 29v69q0 29 38 29h398v646h129v-773h-527q-38 0 -38 29zM327 1298q0 33 24.5 57t57.5 24q35 0 58 -23.5t23 -57.5q0 -35 -23 -58.5t-58 -23.5q-34 0 -58 23.5t-24 58.5zM209 1110q0 33 24.5 57t57.5 24q34 0 57.5 -24t23.5 -57q0 -35 -23.5 -58.5t-57.5 -23.5
t-58 23.5t-24 58.5zM468 1110q0 33 24.5 57t57.5 24q35 0 58 -23.5t23 -57.5q0 -35 -23 -58.5t-58 -23.5q-34 0 -58 23.5t-24 58.5z" />
    <glyph glyph-name="uniFE9C" unicode="&#x62b;" horiz-adv-x="684" arabic-form="medial" 
d="M395 82q-58 -82 -178 -82h-251q-38 0 -38 29v69q0 29 38 29h221q51 0 76.5 15t36.5 48t11 90v492h129v-529q0 -25 -5 -57q106 -59 260 -59h21q16 0 28 -5.5t12 -17.5v-72q0 -21 -11.5 -26.5t-30.5 -5.5h-10q-100 0 -169 17.5t-140 64.5zM279 1298q0 33 24.5 57t57.5 24
q35 0 58 -23.5t23 -57.5q0 -35 -23 -58.5t-58 -23.5q-34 0 -58 23.5t-24 58.5zM161 1110q0 33 24.5 57t57.5 24q34 0 57.5 -24t23.5 -57q0 -35 -23.5 -58.5t-57.5 -23.5t-58 23.5t-24 58.5zM420 1110q0 33 24.5 57t57.5 24q35 0 58 -23.5t23 -57.5q0 -35 -23 -58.5
t-58 -23.5q-34 0 -58 23.5t-24 58.5z" />
    <glyph glyph-name="uniFE9E" unicode="&#x62c;" horiz-adv-x="1100" arabic-form="final" 
d="M507 -755q-145 0 -260 50.5t-181 147.5t-66 233q0 144 59.5 245.5t168.5 153.5t256 52h370q-39 31 -64 87t-38 142q-17 109 -45.5 184.5t-92.5 125.5t-174 50q-42 0 -85 -8t-106 -23v108q64 19 122 29.5t122 10.5q86 0 153.5 -30.5t117.5 -98.5q54 -71 70 -186l14 -103
q19 -143 64.5 -215.5t113.5 -72.5h106q16 0 28 -5.5t12 -17.5v-72q0 -21 -11.5 -26.5t-30.5 -5.5h-699q-144 0 -226.5 -81.5t-82.5 -232.5q0 -98 45.5 -171t134 -113t213.5 -40q67 0 177 17v-109q-54 -14 -95 -19.5t-90 -5.5zM544 -320q-31 0 -52 21t-21 52t20.5 52.5
t52.5 21.5q29 0 51.5 -21.5t22.5 -52.5q0 -30 -22.5 -51.5t-51.5 -21.5z" />
    <glyph glyph-name="uniFE9F" unicode="&#x62c;" horiz-adv-x="1030" arabic-form="initial" 
d="M-72 29v69q0 29 38 29h849q-37 27 -62.5 84t-40.5 155q-26 172 -93.5 259.5t-209.5 90.5q-41 0 -95.5 -8.5t-102.5 -23.5v109q64 19 122 29.5t121 10.5q145 0 233 -83.5t110 -240.5l12 -82q18 -126 48 -198q33 -80 98 -97v-132h-989q-38 0 -38 29zM488 -355
q-34 0 -57.5 23.5t-23.5 57.5q0 35 23 58.5t58 23.5q33 0 57.5 -23.5t24.5 -58.5q0 -33 -24.5 -57t-57.5 -24z" />
    <glyph glyph-name="uniFEA0" unicode="&#x62c;" horiz-adv-x="1061" arabic-form="medial" 
d="M-72 29v69q0 29 38 29h849q-39 31 -63.5 87t-38.5 142q-17 108 -42 181.5t-90.5 126t-179.5 52.5q-42 0 -85 -8t-106 -23v108q64 19 122 29.5t122 10.5q84 0 153.5 -31.5t117.5 -97.5q54 -71 70 -186l15 -103q42 -288 177 -288h106q16 0 28 -5.5t12 -17.5v-72
q0 -21 -11.5 -26.5t-30.5 -5.5h-1125q-38 0 -38 29zM454 -355q-34 0 -57.5 23.5t-23.5 57.5q0 35 23 58.5t58 23.5q33 0 57.5 -23.5t24.5 -58.5q0 -33 -24.5 -57t-57.5 -24z" />
    <glyph glyph-name="uniFEA2" unicode="&#x62d;" horiz-adv-x="1100" arabic-form="final" 
d="M507 -755q-145 0 -260 50.5t-181 147.5t-66 233q0 144 59.5 245.5t168.5 153.5t256 52h370q-39 31 -64 87t-38 142q-17 109 -45.5 184.5t-92.5 125.5t-174 50q-42 0 -85 -8t-106 -23v108q64 19 122 29.5t122 10.5q86 0 153.5 -30.5t117.5 -98.5q54 -71 70 -186l14 -103
q19 -143 64.5 -215.5t113.5 -72.5h106q16 0 28 -5.5t12 -17.5v-72q0 -21 -11.5 -26.5t-30.5 -5.5h-699q-144 0 -226.5 -81.5t-82.5 -232.5q0 -98 45.5 -171t134 -113t213.5 -40q67 0 177 17v-109q-54 -14 -95 -19.5t-90 -5.5z" />
    <glyph glyph-name="uniFEA3" unicode="&#x62d;" horiz-adv-x="1030" arabic-form="initial" 
d="M-72 29v69q0 29 38 29h849q-37 27 -62.5 84t-40.5 155q-26 172 -93.5 259.5t-209.5 90.5q-41 0 -95.5 -8.5t-102.5 -23.5v109q64 19 122 29.5t121 10.5q145 0 233 -83.5t110 -240.5l12 -82q18 -126 48 -198q33 -80 98 -97v-132h-989q-38 0 -38 29z" />
    <glyph glyph-name="uniFEA4" unicode="&#x62d;" horiz-adv-x="1061" arabic-form="medial" 
d="M-72 29v69q0 29 38 29h849q-39 31 -63.5 87t-38.5 142q-17 108 -42 181.5t-90.5 126t-179.5 52.5q-42 0 -85 -8t-106 -23v108q64 19 122 29.5t122 10.5q84 0 153.5 -31.5t117.5 -97.5q54 -71 70 -186l15 -103q42 -288 177 -288h106q16 0 28 -5.5t12 -17.5v-72
q0 -21 -11.5 -26.5t-30.5 -5.5h-1125q-38 0 -38 29z" />
    <glyph glyph-name="uniFEA6" unicode="&#x62e;" horiz-adv-x="1109" arabic-form="final" 
d="M516 -755q-145 0 -260 50.5t-181 147.5t-66 233q0 144 59.5 245.5t168.5 153.5t256 52h370q-39 31 -64 87t-38 142q-17 109 -45.5 184.5t-92.5 125.5t-174 50q-42 0 -85 -8t-106 -23v108q64 19 122 29.5t122 10.5q86 0 153.5 -30.5t117.5 -98.5q54 -71 70 -186l14 -103
q19 -143 64.5 -215.5t113.5 -72.5h106q16 0 28 -5.5t12 -17.5v-72q0 -21 -11.5 -26.5t-30.5 -5.5h-699q-144 0 -226.5 -81.5t-82.5 -232.5q0 -98 45.5 -171t134 -113t213.5 -40q67 0 177 17v-109q-54 -14 -95 -19.5t-90 -5.5zM447 1110q0 33 24.5 57t57.5 24t57 -24t24 -57
q0 -35 -23.5 -58.5t-57.5 -23.5q-33 0 -57.5 23.5t-24.5 58.5z" />
    <glyph glyph-name="uniFEA7" unicode="&#x62e;" horiz-adv-x="1030" arabic-form="initial" 
d="M-72 29v69q0 29 38 29h849q-37 27 -62.5 84t-40.5 155q-26 172 -93.5 259.5t-209.5 90.5q-41 0 -95.5 -8.5t-102.5 -23.5v109q64 19 122 29.5t121 10.5q145 0 233 -83.5t110 -240.5l12 -82q18 -126 48 -198q33 -80 98 -97v-132h-989q-38 0 -38 29zM336 1110q0 33 24.5 57
t57.5 24t57 -24t24 -57q0 -35 -23.5 -58.5t-57.5 -23.5q-33 0 -57.5 23.5t-24.5 58.5z" />
    <glyph glyph-name="uniFEA8" unicode="&#x62e;" horiz-adv-x="1061" arabic-form="medial" 
d="M-72 29v69q0 29 38 29h849q-39 31 -63.5 87t-38.5 142q-17 108 -42 181.5t-90.5 126t-179.5 52.5q-42 0 -85 -8t-106 -23v108q64 19 122 29.5t122 10.5q84 0 153.5 -31.5t117.5 -97.5q54 -71 70 -186l15 -103q42 -288 177 -288h106q16 0 28 -5.5t12 -17.5v-72
q0 -21 -11.5 -26.5t-30.5 -5.5h-1125q-38 0 -38 29zM333 1110q0 33 24.5 57t57.5 24t57 -24t24 -57q0 -35 -23.5 -58.5t-57.5 -23.5q-33 0 -57.5 23.5t-24.5 58.5z" />
    <glyph glyph-name="uniFEAA" unicode="&#x62f;" horiz-adv-x="1038" arabic-form="final" 
d="M737 90q-48 -45 -120.5 -67.5t-161.5 -22.5h-371v127h349q142 0 210 39t68 134q0 202 -337 486l95 95q172 -156 262 -300.5t90 -266.5q0 -74 -23 -133q106 -54 256 -54h16q16 0 28 -5.5t12 -17.5v-72q0 -32 -35 -32h-13q-98 0 -175 19.5t-150 70.5z" />
    <glyph glyph-name="uniFEAC" unicode="&#x630;" horiz-adv-x="1038" arabic-form="final" 
d="M737 90q-48 -45 -120.5 -67.5t-161.5 -22.5h-371v127h349q142 0 210 39t68 134q0 202 -337 486l95 95q172 -156 262 -300.5t90 -266.5q0 -74 -23 -133q106 -54 256 -54h16q16 0 28 -5.5t12 -17.5v-72q0 -32 -35 -32h-13q-98 0 -175 19.5t-150 70.5zM373 1110
q0 33 24.5 57t57.5 24t57 -24t24 -57q0 -35 -23.5 -58.5t-57.5 -23.5q-33 0 -57.5 23.5t-24.5 58.5z" />
    <glyph glyph-name="uniFEAE" unicode="&#x631;" horiz-adv-x="691" arabic-form="final" 
d="M11 -450l-16 120q130 26 206 71t114 134t38 243v655h128v-646h242q16 0 28 -5.5t12 -17.5v-72q0 -21 -11.5 -26.5t-30.5 -5.5h-244q-13 -147 -71.5 -238.5t-155.5 -140t-239 -71.5z" />
    <glyph glyph-name="uniFEB0" unicode="&#x632;" horiz-adv-x="691" arabic-form="final" 
d="M11 -450l-16 120q130 26 206 71t114 134t38 243v655h128v-646h242q16 0 28 -5.5t12 -17.5v-72q0 -21 -11.5 -26.5t-30.5 -5.5h-244q-13 -147 -71.5 -238.5t-155.5 -140t-239 -71.5zM336 1110q0 33 24.5 57t57.5 24t57 -24t24 -57q0 -35 -23.5 -58.5t-57.5 -23.5
q-33 0 -57.5 23.5t-24.5 58.5z" />
    <glyph glyph-name="uniFEB2" unicode="&#x633;" horiz-adv-x="2577" arabic-form="final" 
d="M2276 90q-42 -55 -101 -72.5t-147 -17.5q-101 0 -180.5 14.5t-144.5 59.5q-43 -43 -100.5 -58.5t-134.5 -15.5q-80 0 -146.5 9.5t-129.5 35.5q-25 -161 -105 -275.5t-211 -175.5t-304 -61q-162 0 -291.5 62.5t-205 184.5t-75.5 294q0 93 24 188.5t69 180.5l109 -58
q-30 -62 -47.5 -139t-17.5 -147q0 -131 56.5 -231t159 -155.5t235.5 -55.5q149 0 258.5 59.5t168.5 172.5t59 269q0 59 -17 156q-17 96 -51 190l124 36q28 -83 46 -176q21 -99 24 -193q50 -24 110 -34t147 -10q60 0 91 10t49 31q35 43 35 111v375h127v-433q0 -15 -5 -47
q50 -26 113.5 -36.5t149.5 -10.5q60 0 91 10t49 31q35 43 35 111v494h127v-566q0 -5 -2 -15q55 -34 124.5 -49.5t144.5 -15.5h23q16 0 28 -5.5t12 -17.5v-72q0 -21 -11.5 -26.5t-30.5 -5.5h-19q-94 0 -168.5 20.5t-143.5 69.5z" />
    <glyph glyph-name="uniFEB3" unicode="&#x633;" horiz-adv-x="1864" arabic-form="initial" 
d="M1077 84q-40 -51 -99 -67.5t-144 -16.5q-107 0 -194.5 17.5t-147.5 70.5q-68 -88 -252 -88h-274q-38 0 -38 29v69q0 29 38 29h241q94 0 144.5 31t50.5 112v291h127v-368q60 -41 129.5 -53.5t165.5 -12.5q90 0 132 33.5t42 118.5v375h127v-435q0 -14 -4 -38
q67 -34 155 -44t199 -10h100v646h129v-773h-265q-112 0 -205 17t-157 67z" />
    <glyph glyph-name="uniFEB4" unicode="&#x633;" horiz-adv-x="1962" arabic-form="medial" 
d="M1661 90q-42 -52 -100.5 -71t-147.5 -19q-130 0 -210 22t-126 61q-42 -49 -99 -66t-144 -17q-105 0 -190 16.5t-152 71.5q-68 -88 -252 -88h-274q-38 0 -38 29v69q0 29 38 29h241q99 0 147 36t48 112v286h127v-368q55 -37 123.5 -51.5t171.5 -14.5q86 0 130 31t44 121
v375h127v-436q0 -12 -3 -35q54 -32 121.5 -44t163.5 -12q86 0 128 34t42 118v494h127v-566q0 -5 -2 -15q55 -34 124.5 -49.5t144.5 -15.5h23q16 0 28 -5.5t12 -17.5v-72q0 -21 -11.5 -26.5t-30.5 -5.5h-19q-94 0 -168.5 20.5t-143.5 69.5z" />
    <glyph glyph-name="uniFEB6" unicode="&#x634;" horiz-adv-x="2577" arabic-form="final" 
d="M2276 90q-42 -55 -101 -72.5t-147 -17.5q-101 0 -180.5 14.5t-144.5 59.5q-43 -43 -100.5 -58.5t-134.5 -15.5q-80 0 -146.5 9.5t-129.5 35.5q-25 -161 -105 -275.5t-211 -175.5t-304 -61q-162 0 -291.5 62.5t-205 184.5t-75.5 294q0 93 24 188.5t69 180.5l109 -58
q-30 -62 -47.5 -139t-17.5 -147q0 -131 56.5 -231t159 -155.5t235.5 -55.5q149 0 258.5 59.5t168.5 172.5t59 269q0 59 -17 156q-17 96 -51 190l124 36q28 -83 46 -176q21 -99 24 -193q50 -24 110 -34t147 -10q60 0 91 10t49 31q35 43 35 111v375h127v-433q0 -15 -5 -47
q50 -26 113.5 -36.5t149.5 -10.5q60 0 91 10t49 31q35 43 35 111v494h127v-566q0 -5 -2 -15q55 -34 124.5 -49.5t144.5 -15.5h23q16 0 28 -5.5t12 -17.5v-72q0 -21 -11.5 -26.5t-30.5 -5.5h-19q-94 0 -168.5 20.5t-143.5 69.5zM1595 1298q0 33 24.5 57t57.5 24
q35 0 58 -23.5t23 -57.5q0 -35 -23 -58.5t-58 -23.5q-34 0 -58 23.5t-24 58.5zM1477 1110q0 33 24.5 57t57.5 24q34 0 57.5 -24t23.5 -57q0 -35 -23.5 -58.5t-57.5 -23.5t-58 23.5t-24 58.5zM1736 1110q0 33 24.5 57t57.5 24q35 0 58 -23.5t23 -57.5q0 -35 -23 -58.5
t-58 -23.5q-34 0 -58 23.5t-24 58.5z" />
    <glyph glyph-name="uniFEB7" unicode="&#x634;" horiz-adv-x="1864" arabic-form="initial" 
d="M1077 84q-40 -51 -99 -67.5t-144 -16.5q-107 0 -194.5 17.5t-147.5 70.5q-68 -88 -252 -88h-274q-38 0 -38 29v69q0 29 38 29h241q94 0 144.5 31t50.5 112v291h127v-368q60 -41 129.5 -53.5t165.5 -12.5q90 0 132 33.5t42 118.5v375h127v-435q0 -14 -4 -38
q67 -34 155 -44t199 -10h100v646h129v-773h-265q-112 0 -205 17t-157 67zM970 1298q0 33 24.5 57t57.5 24q35 0 58 -23.5t23 -57.5q0 -35 -23 -58.5t-58 -23.5q-34 0 -58 23.5t-24 58.5zM852 1110q0 33 24.5 57t57.5 24q34 0 57.5 -24t23.5 -57q0 -35 -23.5 -58.5
t-57.5 -23.5t-58 23.5t-24 58.5zM1111 1110q0 33 24.5 57t57.5 24q35 0 58 -23.5t23 -57.5q0 -35 -23 -58.5t-58 -23.5q-34 0 -58 23.5t-24 58.5z" />
    <glyph glyph-name="uniFEB8" unicode="&#x634;" horiz-adv-x="1962" arabic-form="medial" 
d="M1661 90q-42 -52 -100.5 -71t-147.5 -19q-130 0 -210 22t-126 61q-42 -49 -99 -66t-144 -17q-105 0 -190 16.5t-152 71.5q-68 -88 -252 -88h-274q-38 0 -38 29v69q0 29 38 29h241q99 0 147 36t48 112v286h127v-368q55 -37 123.5 -51.5t171.5 -14.5q86 0 130 31t44 121
v375h127v-436q0 -12 -3 -35q54 -32 121.5 -44t163.5 -12q86 0 128 34t42 118v494h127v-566q0 -5 -2 -15q55 -34 124.5 -49.5t144.5 -15.5h23q16 0 28 -5.5t12 -17.5v-72q0 -21 -11.5 -26.5t-30.5 -5.5h-19q-94 0 -168.5 20.5t-143.5 69.5zM970 1298q0 33 24.5 57t57.5 24
q35 0 58 -23.5t23 -57.5q0 -35 -23 -58.5t-58 -23.5q-34 0 -58 23.5t-24 58.5zM852 1110q0 33 24.5 57t57.5 24q34 0 57.5 -24t23.5 -57q0 -35 -23.5 -58.5t-57.5 -23.5t-58 23.5t-24 58.5zM1111 1110q0 33 24.5 57t57.5 24q35 0 58 -23.5t23 -57.5q0 -35 -23 -58.5
t-58 -23.5q-34 0 -58 23.5t-24 58.5z" />
    <glyph glyph-name="uniFEBA" unicode="&#x635;" horiz-adv-x="2760" arabic-form="final" 
d="M1194 56q-22 -164 -102 -281.5t-212 -179.5t-308 -62q-161 0 -291 63t-205.5 185.5t-75.5 292.5q0 89 25 188.5t68 180.5l109 -58q-30 -62 -47.5 -139t-17.5 -147q0 -133 56.5 -233t158.5 -154.5t236 -54.5q152 0 261.5 60t167 173t57.5 268q0 70 -20.5 169t-47.5 177
l124 36q31 -96 49.5 -190.5t20.5 -172.5q92 -50 205 -50q56 170 158.5 336t249.5 278t322 112q148 0 245 -64.5t143 -178.5t46 -263v-220h223q16 0 28 -5.5t12 -17.5v-72q0 -21 -11.5 -26.5t-30.5 -5.5h-1335q-158 0 -261 56zM2108 729q-138 0 -256 -91t-199 -228t-126 -283
h916v220q0 166 -78.5 274t-256.5 108z" />
    <glyph glyph-name="uniFEBB" unicode="&#x635;" horiz-adv-x="1982" arabic-form="initial" 
d="M374 112q-32 -58 -96 -85t-164 -27h-148q-38 0 -38 29v69q0 29 38 29h97q65 0 100 6t64 25q54 33 54 125v278h127v-351q60 -41 122.5 -62t137.5 -21q56 170 158.5 336.5t251 278t320.5 111.5q143 0 241 -62.5t145.5 -176t47.5 -267.5v-347h-1114q-108 0 -192.5 26.5
t-151.5 85.5zM1371 729q-138 0 -255.5 -91t-199 -228t-126.5 -283h916v209q0 187 -82 290t-253 103z" />
    <glyph glyph-name="uniFEBC" unicode="&#x635;" horiz-adv-x="2023" arabic-form="medial" 
d="M384 109q-61 -109 -270 -109h-148q-38 0 -38 29v69q0 29 38 29h97q65 0 100 6.5t64 24.5q54 33 54 125v278h127v-351q60 -41 122.5 -62t137.5 -21q56 170 158.5 336t250.5 278t321 112q145 0 242.5 -64.5t144.5 -178t47 -263.5v-220h223q16 0 28 -5.5t12 -17.5v-72
q0 -21 -11.5 -26.5t-30.5 -5.5h-1335q-108 0 -187.5 25t-146.5 84zM1371 729q-140 0 -257 -91t-198 -228t-126 -283h916v209q0 189 -82.5 291t-252.5 102z" />
    <glyph glyph-name="uniFEBE" unicode="&#x636;" horiz-adv-x="2760" arabic-form="final" 
d="M1194 56q-22 -164 -102 -281.5t-212 -179.5t-308 -62q-161 0 -291 63t-205.5 185.5t-75.5 292.5q0 89 25 188.5t68 180.5l109 -58q-30 -62 -47.5 -139t-17.5 -147q0 -133 56.5 -233t158.5 -154.5t236 -54.5q152 0 261.5 60t167 173t57.5 268q0 70 -20.5 169t-47.5 177
l124 36q31 -96 49.5 -190.5t20.5 -172.5q92 -50 205 -50q56 170 158.5 336t249.5 278t322 112q148 0 245 -64.5t143 -178.5t46 -263v-220h223q16 0 28 -5.5t12 -17.5v-72q0 -21 -11.5 -26.5t-30.5 -5.5h-1335q-158 0 -261 56zM2108 729q-138 0 -256 -91t-199 -228t-126 -283
h916v220q0 166 -78.5 274t-256.5 108zM1799 1110q0 33 24.5 57t57.5 24t57 -24t24 -57q0 -35 -23.5 -58.5t-57.5 -23.5q-33 0 -57.5 23.5t-24.5 58.5z" />
    <glyph glyph-name="uniFEBF" unicode="&#x636;" horiz-adv-x="1982" arabic-form="initial" 
d="M374 112q-32 -58 -96 -85t-164 -27h-148q-38 0 -38 29v69q0 29 38 29h97q65 0 100 6t64 25q54 33 54 125v278h127v-351q60 -41 122.5 -62t137.5 -21q56 170 158.5 336.5t251 278t320.5 111.5q143 0 241 -62.5t145.5 -176t47.5 -267.5v-347h-1114q-108 0 -192.5 26.5
t-151.5 85.5zM1371 729q-138 0 -255.5 -91t-199 -228t-126.5 -283h916v209q0 187 -82 290t-253 103zM1071 1110q0 33 24.5 57t57.5 24t57 -24t24 -57q0 -35 -23.5 -58.5t-57.5 -23.5q-33 0 -57.5 23.5t-24.5 58.5z" />
    <glyph glyph-name="uniFEC0" unicode="&#x636;" horiz-adv-x="2023" arabic-form="medial" 
d="M384 109q-61 -109 -270 -109h-148q-38 0 -38 29v69q0 29 38 29h97q65 0 100 6.5t64 24.5q54 33 54 125v278h127v-351q60 -41 122.5 -62t137.5 -21q56 170 158.5 336t250.5 278t321 112q145 0 242.5 -64.5t144.5 -178t47 -263.5v-220h223q16 0 28 -5.5t12 -17.5v-72
q0 -21 -11.5 -26.5t-30.5 -5.5h-1335q-108 0 -187.5 25t-146.5 84zM1371 729q-140 0 -257 -91t-198 -228t-126 -283h916v209q0 189 -82.5 291t-252.5 102zM1057 1110q0 33 24.5 57t57.5 24t57 -24t24 -57q0 -35 -23.5 -58.5t-57.5 -23.5q-33 0 -57.5 23.5t-24.5 58.5z" />
    <glyph glyph-name="uniFEC2" unicode="&#x637;" horiz-adv-x="1568" arabic-form="final" 
d="M0 127h208q49 150 109 252v1058h127v-865q226 281 493 281q149 0 246.5 -66t143 -180.5t45.5 -261.5v-218h228q15 0 27.5 -5t12.5 -18v-72q0 -20 -10.5 -26t-31.5 -6h-1598v127zM911 729q-139 0 -257.5 -93t-202 -231.5t-122.5 -277.5h916v206q0 183 -79 289.5
t-255 106.5z" />
    <glyph glyph-name="uniFEC3" unicode="&#x637;" horiz-adv-x="1516" arabic-form="initial" 
d="M-72 29v69q0 29 38 29h236q49 150 109 252v1058h127v-865q226 281 493 281q149 0 246.5 -66t143 -180.5t45.5 -261.5v-345h-1400q-38 0 -38 29zM905 729q-139 0 -258.5 -93t-202 -231.5t-121.5 -277.5h916v206q0 183 -79 289.5t-255 106.5z" />
    <glyph glyph-name="uniFEC4" unicode="&#x637;" horiz-adv-x="1557" arabic-form="medial" 
d="M-72 29v69q0 29 38 29h236q49 150 109 252v1058h127v-865q226 281 493 281q149 0 246.5 -66t143 -180.5t45.5 -261.5v-218h223q15 0 27.5 -5t12.5 -18v-72q0 -19 -11 -25.5t-31 -6.5h-1621q-38 0 -38 29zM905 729q-139 0 -258.5 -93t-202 -231.5t-121.5 -277.5h916v206
q0 183 -79 289.5t-255 106.5z" />
    <glyph glyph-name="uniFEC6" unicode="&#x638;" horiz-adv-x="1568" arabic-form="final" 
d="M0 127h208q49 150 109 252v1058h127v-865q226 281 493 281q149 0 246.5 -66t143 -180.5t45.5 -261.5v-218h228q15 0 27.5 -5t12.5 -18v-72q0 -20 -10.5 -26t-31.5 -6h-1598v127zM911 729q-139 0 -257.5 -93t-202 -231.5t-122.5 -277.5h916v206q0 183 -79 289.5
t-255 106.5zM863 1110q0 33 24.5 57t57.5 24t57 -24t24 -57q0 -35 -23.5 -58.5t-57.5 -23.5q-33 0 -57.5 23.5t-24.5 58.5z" />
    <glyph glyph-name="uniFEC7" unicode="&#x638;" horiz-adv-x="1516" arabic-form="initial" 
d="M-72 29v69q0 29 38 29h236q49 150 109 252v1058h127v-865q226 281 493 281q149 0 246.5 -66t143 -180.5t45.5 -261.5v-345h-1400q-38 0 -38 29zM905 729q-139 0 -258.5 -93t-202 -231.5t-121.5 -277.5h916v206q0 183 -79 289.5t-255 106.5zM857 1110q0 33 24.5 57
t57.5 24t57 -24t24 -57q0 -35 -23.5 -58.5t-57.5 -23.5q-33 0 -57.5 23.5t-24.5 58.5z" />
    <glyph glyph-name="uniFEC8" unicode="&#x638;" horiz-adv-x="1557" arabic-form="medial" 
d="M-72 29v69q0 29 38 29h236q49 150 109 252v1058h127v-865q226 281 493 281q149 0 246.5 -66t143 -180.5t45.5 -261.5v-218h223q15 0 27.5 -5t12.5 -18v-72q0 -19 -11 -25.5t-31 -6.5h-1621q-38 0 -38 29zM905 729q-139 0 -258.5 -93t-202 -231.5t-121.5 -277.5h916v206
q0 183 -79 289.5t-255 106.5zM855 1110q0 33 24.5 57t57.5 24t57 -24t24 -57q0 -35 -23.5 -58.5t-57.5 -23.5q-33 0 -57.5 23.5t-24.5 58.5z" />
    <glyph glyph-name="uniFECA" unicode="&#x639;" horiz-adv-x="1123" arabic-form="final" 
d="M508 -754q-137 0 -251.5 43t-185.5 137t-71 240q0 178 114.5 314.5t330.5 223.5q-130 106 -258 278q-74 102 -84 110q30 122 50 130q95 53 220.5 79t242.5 26q65 0 133.5 -15t118.5 -54.5t50 -107.5q0 -112 -75 -227.5t-189 -220.5q76 -36 184.5 -55.5t220.5 -19.5h96
q16 0 28 -5.5t12 -17.5v-72q0 -21 -11.5 -26.5t-30.5 -5.5h-160q-108 0 -233 33q-125 35 -229 97q-203 -80 -305 -192t-102 -253q0 -108 51.5 -180.5t139.5 -107t200 -34.5q65 0 178 17v-109q-52 -13 -94 -19t-91 -6zM802 596q0 34 -31.5 61.5t-90 43t-138.5 15.5
q-61 0 -143.5 -17.5t-183.5 -61.5q47 -85 147 -200q98 -113 186 -179q52 37 111.5 96t101 124.5t41.5 117.5z" />
    <glyph glyph-name="uniFECB" unicode="&#x639;" horiz-adv-x="979" arabic-form="initial" 
d="M-72 29v69q0 29 38 29h421q-76 42 -119.5 127t-43.5 177q0 117 54.5 206.5t149 138t211.5 48.5q77 0 175 -19l-13 -135q-89 22 -189 22q-120 0 -189.5 -69.5t-69.5 -189.5q0 -87 42 -157t116 -109.5t164 -39.5h229v-127h-938q-38 0 -38 29z" />
    <glyph glyph-name="uniFECC" unicode="&#x639;" horiz-adv-x="1183" arabic-form="medial" 
d="M822 33q-121 32 -233 98q-125 -75 -240 -104q-111 -27 -225 -27h-158q-38 0 -38 29v69q0 29 38 29h173q215 0 368 77q-131 107 -257 278q-74 102 -84 110q30 122 50 130q88 50 216 77.5t246 27.5q130 0 216 -48t86 -129q0 -111 -73.5 -225t-190.5 -223q82 -39 193.5 -57
t211.5 -18h94q16 0 28 -5.5t12 -17.5v-72q0 -21 -11.5 -26.5t-30.5 -5.5h-158q-108 0 -233 33zM789 434q75 104 75 162q0 34 -31.5 61.5t-90 43t-138.5 15.5q-61 0 -143 -18t-184 -61q47 -85 147 -200q98 -113 186 -179q107 75 179 176z" />
    <glyph glyph-name="uniFECE" unicode="&#x63a;" horiz-adv-x="1123" arabic-form="final" 
d="M508 -754q-137 0 -251.5 43t-185.5 137t-71 240q0 178 114.5 314.5t330.5 223.5q-130 106 -258 278q-74 102 -84 110q30 122 50 130q95 53 220.5 79t242.5 26q65 0 133.5 -15t118.5 -54.5t50 -107.5q0 -112 -75 -227.5t-189 -220.5q76 -36 184.5 -55.5t220.5 -19.5h96
q16 0 28 -5.5t12 -17.5v-72q0 -21 -11.5 -26.5t-30.5 -5.5h-160q-108 0 -233 33q-125 35 -229 97q-203 -80 -305 -192t-102 -253q0 -108 51.5 -180.5t139.5 -107t200 -34.5q65 0 178 17v-109q-52 -13 -94 -19t-91 -6zM802 596q0 34 -31.5 61.5t-90 43t-138.5 15.5
q-61 0 -143.5 -17.5t-183.5 -61.5q47 -85 147 -200q98 -113 186 -179q52 37 111.5 96t101 124.5t41.5 117.5zM443 1110q0 33 24.5 57t57.5 24t57 -24t24 -57q0 -35 -23.5 -58.5t-57.5 -23.5q-33 0 -57.5 23.5t-24.5 58.5z" />
    <glyph glyph-name="uniFECF" unicode="&#x63a;" horiz-adv-x="979" arabic-form="initial" 
d="M-72 29v69q0 29 38 29h421q-76 42 -119.5 127t-43.5 177q0 117 54.5 206.5t149 138t211.5 48.5q77 0 175 -19l-13 -135q-89 22 -189 22q-120 0 -189.5 -69.5t-69.5 -189.5q0 -87 42 -157t116 -109.5t164 -39.5h229v-127h-938q-38 0 -38 29zM481 1110q0 33 24.5 57
t57.5 24t57 -24t24 -57q0 -35 -23.5 -58.5t-57.5 -23.5q-33 0 -57.5 23.5t-24.5 58.5z" />
    <glyph glyph-name="uniFED0" unicode="&#x63a;" horiz-adv-x="1183" arabic-form="medial" 
d="M822 33q-121 32 -233 98q-125 -75 -240 -104q-111 -27 -225 -27h-158q-38 0 -38 29v69q0 29 38 29h173q215 0 368 77q-131 107 -257 278q-74 102 -84 110q30 122 50 130q88 50 216 77.5t246 27.5q130 0 216 -48t86 -129q0 -111 -73.5 -225t-190.5 -223q82 -39 193.5 -57
t211.5 -18h94q16 0 28 -5.5t12 -17.5v-72q0 -21 -11.5 -26.5t-30.5 -5.5h-158q-108 0 -233 33zM789 434q75 104 75 162q0 34 -31.5 61.5t-90 43t-138.5 15.5q-61 0 -143 -18t-184 -61q47 -85 147 -200q98 -113 186 -179q107 75 179 176zM487 1110q0 33 24.5 57t57.5 24
t57 -24t24 -57q0 -35 -23.5 -58.5t-57.5 -23.5q-33 0 -57.5 23.5t-24.5 58.5z" />
    <glyph glyph-name="uniFED2" unicode="&#x641;" horiz-adv-x="2088" arabic-form="final" 
d="M1588 35q-98 -16 -319 -25.5t-381 -9.5h-378q-155 0 -266.5 29.5t-177.5 108.5t-66 220q0 61 17 180l116 -11q-11 -57 -11 -125q0 -129 48 -182q47 -50 151.5 -71.5t269.5 -21.5h701q-84 50 -131 128t-47 166q0 116 52 205.5t144.5 139t208.5 49.5q112 0 198.5 -40
t135.5 -119.5t49 -192.5q0 -76 -27.5 -170.5t-69.5 -165.5h315q16 0 28 -5.5t12 -17.5v-72q0 -21 -11.5 -26.5t-30.5 -5.5h-108q-238 0 -422 35zM1779 428q0 77 -34 139.5t-96 98t-142 35.5q-74 0 -135.5 -30.5t-97.5 -90.5t-36 -144q0 -75 43 -146.5t122.5 -117
t184.5 -45.5h82q52 76 80.5 154.5t28.5 146.5zM1426 1110q0 33 24.5 57t57.5 24t57 -24t24 -57q0 -35 -23.5 -58.5t-57.5 -23.5q-33 0 -57.5 23.5t-24.5 58.5z" />
    <glyph glyph-name="uniFED3" unicode="&#x641;" horiz-adv-x="1178" arabic-form="initial" 
d="M-72 29v69q0 29 38 29h414q-63 41 -96.5 117t-33.5 160q0 115 53.5 209t147 148t210.5 54q113 0 196 -48.5t127 -138t44 -209.5v-419h-1062q-38 0 -38 29zM636 694q-76 0 -137.5 -36.5t-96.5 -101.5t-35 -147q0 -87 43 -151t115.5 -97.5t160.5 -33.5h216v249
q0 151 -69 234.5t-197 83.5zM582 1110q0 33 24.5 57t57.5 24t57 -24t24 -57q0 -35 -23.5 -58.5t-57.5 -23.5q-33 0 -57.5 23.5t-24.5 58.5z" />
    <glyph glyph-name="uniFED4" unicode="&#x641;" horiz-adv-x="1195" arabic-form="medial" 
d="M650 35q-148 -19 -281 -26.5t-343 -8.5h-60q-38 0 -38 29v69q0 29 38 29h384q-84 50 -131 128t-47 166q0 117 52 206.5t144.5 138.5t208.5 49q120 0 206.5 -45.5t131.5 -125t45 -181.5q0 -76 -27.5 -170.5t-69.5 -165.5h364q16 0 28 -5.5t12 -17.5v-72q0 -21 -11.5 -26.5
t-30.5 -5.5h-96q-142 0 -255 7t-224 28zM837 428q0 77 -33.5 139.5t-95.5 98t-143 35.5q-75 0 -137.5 -30t-100.5 -90t-38 -145q0 -88 49.5 -158.5t131 -110.5t174.5 -40h84q52 76 80.5 154.5t28.5 146.5zM481 1110q0 33 24.5 57t57.5 24t57 -24t24 -57q0 -35 -23.5 -58.5
t-57.5 -23.5q-33 0 -57.5 23.5t-24.5 58.5z" />
    <glyph glyph-name="uniFED6" unicode="&#x642;" horiz-adv-x="1506" arabic-form="final" 
d="M631 -608q-176 0 -319 55t-227.5 165t-84.5 267q0 187 94 370l106 -59q-32 -68 -47.5 -143t-15.5 -142q0 -134 71.5 -218.5t186.5 -122t251 -37.5q138 0 258 53t194 156t77 246v18h-251q-118 0 -214.5 45t-153 133t-56.5 212q0 122 55 217.5t153 148.5t221 53
q184 0 277.5 -121t93.5 -330v-231h238q16 0 28 -5.5t12 -17.5v-72q0 -21 -11.5 -26.5t-30.5 -5.5h-237q-11 -183 -95 -321t-231 -212.5t-342 -74.5zM895 689q-73 0 -135.5 -37.5t-100 -103t-37.5 -145.5q0 -90 42.5 -152.5t115.5 -93t165 -30.5h230v170q0 392 -280 392z
M702 1110q0 33 24.5 57t57.5 24q34 0 57.5 -24t23.5 -57q0 -35 -23.5 -58.5t-57.5 -23.5t-58 23.5t-24 58.5zM961 1110q0 33 24.5 57t57.5 24q35 0 58 -23.5t23 -57.5q0 -35 -23 -58.5t-58 -23.5q-34 0 -58 23.5t-24 58.5z" />
    <glyph glyph-name="uniFED7" unicode="&#x642;" horiz-adv-x="1178" arabic-form="initial" 
d="M-72 29v69q0 29 38 29h414q-63 41 -96.5 117t-33.5 160q0 115 53.5 209t147 148t210.5 54q113 0 196 -48.5t127 -138t44 -209.5v-419h-1062q-38 0 -38 29zM636 694q-76 0 -137.5 -36.5t-96.5 -101.5t-35 -147q0 -87 43 -151t115.5 -97.5t160.5 -33.5h216v249
q0 151 -69 234.5t-197 83.5zM424 1110q0 33 24.5 57t57.5 24q34 0 57.5 -24t23.5 -57q0 -35 -23.5 -58.5t-57.5 -23.5t-58 23.5t-24 58.5zM683 1110q0 33 24.5 57t57.5 24q35 0 58 -23.5t23 -57.5q0 -35 -23 -58.5t-58 -23.5q-34 0 -58 23.5t-24 58.5z" />
    <glyph glyph-name="uniFED8" unicode="&#x642;" horiz-adv-x="1195" arabic-form="medial" 
d="M650 35q-148 -19 -281 -26.5t-343 -8.5h-60q-38 0 -38 29v69q0 29 38 29h384q-84 50 -131 128t-47 166q0 117 52 206.5t144.5 138.5t208.5 49q120 0 206.5 -45.5t131.5 -125t45 -181.5q0 -76 -27.5 -170.5t-69.5 -165.5h364q16 0 28 -5.5t12 -17.5v-72q0 -21 -11.5 -26.5
t-30.5 -5.5h-96q-142 0 -255 7t-224 28zM837 428q0 77 -33.5 139.5t-95.5 98t-143 35.5q-75 0 -137.5 -30t-100.5 -90t-38 -145q0 -88 49.5 -158.5t131 -110.5t174.5 -40h84q52 76 80.5 154.5t28.5 146.5zM356 1110q0 33 24.5 57t57.5 24q34 0 57.5 -24t23.5 -57
q0 -35 -23.5 -58.5t-57.5 -23.5t-58 23.5t-24 58.5zM615 1110q0 33 24.5 57t57.5 24q35 0 58 -23.5t23 -57.5q0 -35 -23 -58.5t-58 -23.5q-34 0 -58 23.5t-24 58.5z" />
    <glyph glyph-name="uniFEDA" unicode="&#x643;" horiz-adv-x="1822" arabic-form="final" 
d="M1670 18q-70 18 -137 64q-27 -39 -71.5 -60.5t-101.5 -21.5h-849q-154 0 -265.5 30t-178.5 109t-67 221q0 59 17 178l115 -11q-10 -72 -10 -122q0 -132 48 -185q47 -50 151.5 -71.5t269.5 -21.5h735q69 0 96 34t27 116v1160h129v-1198q0 -14 -5 -53q108 -59 260 -59h21
q16 0 28 -5.5t12 -17.5v-72q0 -21 -11.5 -26.5t-30.5 -5.5h-10q-101 0 -172 18zM826 615q-28 21 -46.5 55t-18.5 71q0 72 46.5 112.5t131.5 40.5q40 0 78 -6l-13 -71q-24 6 -58 6q-54 0 -84.5 -23.5t-30.5 -65.5q0 -57 49 -88t142 -31v-70h-310v70h114z" />
    <glyph glyph-name="uniFEDB" unicode="&#x643;" horiz-adv-x="816" arabic-form="initial" 
d="M-72 29v69q0 29 38 29h344q266 0 266 168q0 110 -92 220t-284 233l391 670l89 -61l-326 -577q331 -200 331 -466q0 -163 -102 -238.5t-304 -75.5h-313q-38 0 -38 29z" />
    <glyph glyph-name="uniFEDC" unicode="&#x643;" horiz-adv-x="895" arabic-form="medial" 
d="M968 107v-85q0 -22 -42 -22h-11q-105 0 -175 19q-74 20 -142 68q-48 -43 -130 -65t-188 -22h-311q-40 0 -40 22v85q0 20 39 20h350q258 0 258 173q0 209 -376 448l391 670l89 -61l-326 -577q331 -200 331 -466q0 -77 -23 -136q49 -26 114 -38.5t130 -12.5h22q40 0 40 -20
z" />
    <glyph glyph-name="uniFEDE" unicode="&#x644;" horiz-adv-x="1430" arabic-form="final" 
d="M1149 77q-23 -166 -106 -280t-210 -170t-284 -56q-165 0 -289.5 62.5t-192 176.5t-67.5 264q0 93 24 188.5t69 180.5l109 -58q-30 -62 -47.5 -139t-17.5 -147q0 -115 46 -204t142 -140.5t239 -51.5q229 0 347.5 129.5t118.5 362.5v1242h127v-1236q115 -74 291 -74h14
q16 0 28 -5.5t12 -17.5v-72q0 -21 -11.5 -26.5t-30.5 -5.5h-10q-96 0 -167.5 17.5t-133.5 59.5z" />
    <glyph glyph-name="uniFEDF" unicode="&#x644;" horiz-adv-x="591" arabic-form="initial" 
d="M-72 29v69q0 29 38 29h337v1310h128v-1437h-465q-38 0 -38 29z" />
    <glyph glyph-name="uniFEE0" unicode="&#x644;" horiz-adv-x="684" arabic-form="medial" 
d="M532 18q-70 18 -137 64q-58 -82 -176 -82h-253q-38 0 -38 29v69q0 29 38 29h220q50 0 77 15.5t37.5 48.5t10.5 89v1158h129v-1196q0 -24 -5 -56q106 -59 260 -59h21q16 0 28 -5.5t12 -17.5v-72q0 -21 -11.5 -26.5t-30.5 -5.5h-10q-101 0 -172 18z" />
    <glyph glyph-name="uniFEE2" unicode="&#x645;" horiz-adv-x="1361" arabic-form="final" 
d="M1059 90q-106 -101 -280 -101q-110 0 -217 35t-190 103q-249 -31 -249 -350q0 -111 26 -232t80 -261l-115 -40q-60 184 -87 310t-27 215q0 134 30.5 223.5t99.5 155t191 123.5q67 253 185 385.5t273 132.5q116 0 204.5 -64t135.5 -162.5t47 -196.5q0 -102 -42 -186
q53 -27 117 -40t132 -13h20q16 0 28 -5.5t12 -17.5v-72q0 -21 -11.5 -26.5t-30.5 -5.5h-10q-103 0 -177.5 20t-144.5 70zM751 117q149 0 228 57t79 167q0 63 -33.5 139t-99 129.5t-155.5 53.5q-110 0 -201 -111.5t-144 -321.5q36 -32 97.5 -58t125 -40.5t103.5 -14.5z" />
    <glyph glyph-name="uniFEE3" unicode="&#x645;" horiz-adv-x="1183" arabic-form="initial" 
d="M-72 29v69q0 29 38 29h31q76 0 128.5 30.5t75.5 94.5l20 68q59 207 172 338t267 131q121 0 210.5 -65t135.5 -166t46 -207q0 -108 -46 -189.5t-133.5 -127t-207.5 -45.5q-108 0 -214.5 36t-192.5 102q-28 -49 -59.5 -76t-74 -38.5t-106.5 -12.5h-52q-38 0 -38 29z
M637 117q149 0 228 57t79 167q0 76 -38 151t-104 123t-146 48q-110 0 -201 -111.5t-144 -321.5q36 -32 97.5 -58t125 -40.5t103.5 -14.5z" />
    <glyph glyph-name="uniFEE4" unicode="&#x645;" horiz-adv-x="1248" arabic-form="medial" 
d="M946 91q-104 -102 -281 -102q-109 0 -216.5 36t-190.5 102q-39 -70 -95 -98.5t-145 -28.5h-52q-38 0 -38 29v69q0 29 38 29h31q74 0 127.5 31t76.5 94l21 69q58 204 171 336t267 132q119 0 209 -64.5t136.5 -164.5t46.5 -203q0 -41 -11 -87.5t-31 -89.5q58 -29 120.5 -41
t135.5 -12h14q16 0 28 -5.5t12 -17.5v-72q0 -21 -11.5 -26.5t-30.5 -5.5h-16q-97 0 -170.5 20.5t-145.5 70.5zM637 117q149 0 228 57t79 167q0 66 -33.5 141t-99.5 127.5t-155 53.5q-110 0 -201 -111.5t-144 -321.5q31 -29 92.5 -55t127.5 -42t106 -16z" />
    <glyph glyph-name="uniFEE6" unicode="&#x646;" horiz-adv-x="1430" arabic-form="final" 
d="M1152 75q-22 -157 -101 -270.5t-206.5 -173.5t-295.5 -60q-153 0 -277.5 57t-198 170.5t-73.5 275.5q0 97 28 199q28 103 65 170l109 -58q-30 -62 -47.5 -139t-17.5 -147q0 -124 55 -213.5t152.5 -136.5t222.5 -47q138 0 243 55t162.5 158.5t57.5 243.5q0 79 -17.5 163.5
t-49.5 181.5l127 35q55 -148 66 -337q111 -75 289 -75h17q16 0 28 -5.5t12 -17.5v-72q0 -21 -11.5 -26.5t-30.5 -5.5h-11q-102 0 -171 18.5t-126 56.5zM617 908q0 33 24.5 57t57.5 24t57 -24t24 -57q0 -35 -23.5 -58.5t-57.5 -23.5q-33 0 -57.5 23.5t-24.5 58.5z" />
    <glyph glyph-name="uniFEE7" unicode="&#x646;" horiz-adv-x="677" arabic-form="initial" 
d="M354 1110q0 33 24.5 57t57.5 24t57 -24t24 -57q0 -35 -23.5 -58.5t-57.5 -23.5q-33 0 -57.5 23.5t-24.5 58.5zM-72 29v69q0 29 38 29h398v646h129v-773h-527q-38 0 -38 29z" />
    <glyph glyph-name="uniFEE8" unicode="&#x646;" horiz-adv-x="684" arabic-form="medial" 
d="M395 82q-58 -82 -178 -82h-251q-38 0 -38 29v69q0 29 38 29h221q51 0 76.5 15t36.5 48t11 90v492h129v-529q0 -25 -5 -57q106 -59 260 -59h21q16 0 28 -5.5t12 -17.5v-72q0 -21 -11.5 -26.5t-30.5 -5.5h-10q-100 0 -169 17.5t-140 64.5zM296 1110q0 33 24.5 57t57.5 24
t57 -24t24 -57q0 -35 -23.5 -58.5t-57.5 -23.5q-33 0 -57.5 23.5t-24.5 58.5z" />
    <glyph glyph-name="uniFEE9" unicode="&#x647;" horiz-adv-x="895" arabic-form="isolated" 
d="M382 0q-109 0 -195.5 38.5t-136.5 117.5t-50 195q0 140 53 251t141.5 173t191.5 62q99 0 185.5 -57t139.5 -165t53 -253q0 -106 -49 -188.5t-136 -128t-197 -45.5zM384 721q-75 0 -134.5 -46t-93 -123.5t-33.5 -168.5q0 -120 69.5 -188t190.5 -68q127 0 194 65.5
t67 190.5q0 101 -39.5 178t-100 118.5t-120.5 41.5z" />
    <glyph glyph-name="uniFEEA" unicode="&#x647;" horiz-adv-x="995" arabic-form="final" 
d="M678 166q-98 -47 -174 -69.5t-179 -22.5q-84 0 -158.5 30.5t-120.5 92.5t-46 152q0 182 169.5 308.5t497.5 189.5v92h127v-640q0 -64 11 -100t42.5 -54t92.5 -18h87q16 0 28 -5.5t12 -17.5v-72q0 -21 -11.5 -26.5t-30.5 -5.5h-102q-97 0 -157 41t-88 125zM262 596
q-147 -97 -147 -222q0 -92 67.5 -139t166.5 -47q85 0 170 24t148 66v451q-257 -36 -405 -133z" />
    <glyph glyph-name="uniFEEB" unicode="&#x647;" horiz-adv-x="1464" arabic-form="initial" 
d="M112 -211h-87q-25 64 -25 137q0 97 63 149t182 52h109q-44 73 -64 149.5t-20 146.5q0 123 54 224.5t154 171.5l-64 18q15 34 61 106q341 -82 514 -166q117 -57 188 -125t104 -160.5t33 -222.5q0 -21 -10 -269h-1016q-73 0 -110.5 -18t-51.5 -62.5t-14 -130.5zM822 419
q0 94 -23.5 172t-71 124.5t-114.5 46.5t-121.5 -50.5t-84.5 -125t-30 -142.5q0 -50 14 -112t43 -118t70 -87h228q42 69 66 146t24 146zM1197 290q0 153 -80 250t-244 154q28 -53 41.5 -121.5t13.5 -141.5q0 -77 -16.5 -155.5t-49.5 -148.5h321q14 95 14 163z" />
    <glyph glyph-name="uniFEEC" unicode="&#x647;" horiz-adv-x="1173" arabic-form="medial" 
d="M978 -313q0 -93 -42 -169.5t-110.5 -120t-142.5 -43.5q-87 0 -164 41t-133.5 111t-87.5 156q-53 150 -53 338h-279q-38 0 -38 29v69q0 29 38 29h296q35 202 111 353q42 86 102 158.5t127.5 116t131.5 43.5q84 0 142.5 -56.5t88 -141t29.5 -166.5q0 -86 -32.5 -167.5
t-94.5 -139.5h338q16 0 28 -5.5t12 -17.5v-72q0 -21 -11.5 -26.5t-30.5 -5.5h-364q72 -70 105.5 -148t33.5 -165zM890 393q0 62 -18.5 124.5t-56.5 104.5t-93 42q-58 0 -131 -76.5t-131 -201t-77 -259.5h223q70 0 136 35t107 96t41 135zM414 -291q39 -98 112.5 -166.5
t169.5 -68.5q52 0 89.5 33t56 84.5t18.5 104.5q0 69 -32.5 140t-91.5 117.5t-135 46.5h-236q0 -171 49 -291z" />
    <glyph glyph-name="uniFEEE" unicode="&#x648;" horiz-adv-x="1161" arabic-form="final" 
d="M289 -427q-10 84 -14 119q241 23 379 103.5t157 204.5h-229q-119 0 -218.5 43t-159.5 130.5t-60 216.5q0 122 54.5 217.5t151.5 148.5t220 53q129 0 213 -59.5t123 -161t39 -230.5v-231h248q16 0 28 -5.5t12 -17.5v-72q0 -21 -11.5 -26.5t-30.5 -5.5h-259
q-34 -152 -126 -238.5t-214.5 -125.5t-302.5 -63zM540 694q-72 0 -135 -38.5t-100.5 -105.5t-37.5 -147q0 -140 86 -208t229 -68h237v166q0 199 -70 300t-209 101z" />
    <glyph glyph-name="uniFEF0" unicode="&#x649;" horiz-adv-x="1975" arabic-form="final" 
d="M1651 274v377h-59q-145 0 -214 -24q-73 -26 -108.5 -92t-35.5 -173v-286q0 -162 -85 -277t-226 -173.5t-305 -58.5q-196 0 -335.5 66t-211 180t-71.5 258q0 107 26.5 202.5t75.5 162.5q53 -31 102 -56q-36 -62 -56.5 -141t-20.5 -153q0 -131 70.5 -217.5t188.5 -127.5
t265 -41q130 0 233.5 43.5t162.5 125t59 192.5v312q0 202 103 301.5t310 99.5h258v-393q0 -88 7.5 -139t37 -83t93.5 -32h92q16 0 28 -5.5t12 -17.5v-72q0 -21 -11.5 -26.5t-30.5 -5.5h-111q-83 0 -137.5 38.5t-80 101t-25.5 134.5z" />
    <glyph glyph-name="uniFEF2" unicode="&#x64a;" horiz-adv-x="1975" arabic-form="final" 
d="M1651 274v377h-59q-145 0 -214 -24q-73 -26 -108.5 -92t-35.5 -173v-286q0 -162 -85 -277t-226 -173.5t-305 -58.5q-196 0 -335.5 66t-211 180t-71.5 258q0 107 26.5 202.5t75.5 162.5q53 -31 102 -56q-36 -62 -56.5 -141t-20.5 -153q0 -131 70.5 -217.5t188.5 -127.5
t265 -41q130 0 233.5 43.5t162.5 125t59 192.5v312q0 202 103 301.5t310 99.5h258v-393q0 -88 7.5 -139t37 -83t93.5 -32h92q16 0 28 -5.5t12 -17.5v-72q0 -21 -11.5 -26.5t-30.5 -5.5h-111q-83 0 -137.5 38.5t-80 101t-25.5 134.5zM542 -737q-35 0 -58 23.5t-23 57.5
q0 35 23 58.5t58 23.5q34 0 58 -23.5t24 -58.5q0 -33 -24.5 -57t-57.5 -24zM801 -737q-34 0 -57.5 24t-23.5 57q0 35 23.5 58.5t57.5 23.5t58 -23.5t24 -58.5q0 -33 -24.5 -57t-57.5 -24z" />
    <glyph glyph-name="uniFEF3" unicode="&#x64a;" horiz-adv-x="727" arabic-form="initial" 
d="M-72 29v69q0 29 38 29h398v646h129v-773h-527q-38 0 -38 29zM226 -355q-35 0 -58 23.5t-23 57.5q0 35 23 58.5t58 23.5q34 0 58 -23.5t24 -58.5q0 -33 -24.5 -57t-57.5 -24zM485 -355q-34 0 -57.5 24t-23.5 57q0 35 23.5 58.5t57.5 23.5t58 -23.5t24 -58.5
q0 -33 -24.5 -57t-57.5 -24z" />
    <glyph glyph-name="uniFEF4" unicode="&#x64a;" horiz-adv-x="684" arabic-form="medial" 
d="M395 82q-58 -82 -178 -82h-251q-38 0 -38 29v69q0 29 38 29h221q51 0 76.5 15t36.5 48t11 90v492h129v-529q0 -25 -5 -57q106 -59 260 -59h21q16 0 28 -5.5t12 -17.5v-72q0 -21 -11.5 -26.5t-30.5 -5.5h-10q-100 0 -169 17.5t-140 64.5zM207 -355q-35 0 -58 23.5
t-23 57.5q0 35 23 58.5t58 23.5q34 0 58 -23.5t24 -58.5q0 -33 -24.5 -57t-57.5 -24zM466 -355q-34 0 -57.5 24t-23.5 57q0 35 23.5 58.5t57.5 23.5t58 -23.5t24 -58.5q0 -33 -24.5 -57t-57.5 -24z" />
    <glyph glyph-name=".notdef" horiz-adv-x="1049" 
d="M1049 1470v-1470h-1049v1470h1049zM102 102h844v1264h-844v-1264zM457 541q0 51 8 86.5t31 73.5t69 87l33 34q43 42 62.5 72.5t19.5 76.5q0 49 -21.5 88.5t-57.5 62.5t-77 23q-69 0 -112 -48.5t-56 -146.5l-102 17q12 135 84.5 207.5t191.5 72.5q73 0 130.5 -33.5
t90.5 -94t33 -140.5q0 -75 -29 -127.5t-102 -120.5q-45 -42 -64 -66.5t-26.5 -60t-7.5 -104.5v-21h-94q-1 5 -2.5 23t-1.5 39zM569 377v-137h-114v137h114z" />
    <glyph glyph-name=".null" horiz-adv-x="0" 
 />
    <glyph glyph-name="nonmarkingreturn" unicode="&#xd;" horiz-adv-x="569" 
 />
    <glyph glyph-name="NULL" horiz-adv-x="0" 
 />
    <glyph glyph-name="NULL" horiz-adv-x="0" 
 />
    <glyph glyph-name="space" unicode=" " horiz-adv-x="569" 
 />
    <glyph glyph-name="space" unicode="&#xa0;" horiz-adv-x="569" 
 />
    <glyph glyph-name="exclam" unicode="!" horiz-adv-x="797" 
d="M481 1430l-24 -1084h-117l-25 1084h166zM481 172v-172h-166v172h166z" />
    <glyph glyph-name="quotedbl" unicode="&#x22;" 
d="M496 1430v-447h-129v447h129zM772 1430v-447h-129v447h129z" />
    <glyph glyph-name="numbersign" unicode="#" 
d="M408 449l-64 -449h-125l64 449h-213v110h227l45 311h-219v111h233l64 449h125l-64 -449h267l63 449h125l-64 -449h197v-111h-211l-43 -311h197v-110h-213l-64 -449h-125l64 449h-266zM424 559h266l43 311h-266z" />
    <glyph glyph-name="dollar" unicode="$" 
d="M496 -25q-89 0 -171.5 17t-146.5 45l15 145q61 -40 141 -62t168 -22q18 0 24 2v588q-189 97 -270.5 189.5t-81.5 203.5q0 94 43 170.5t122.5 127t186.5 67.5v133h105v-125q77 0 150.5 -13t125.5 -34l-22 -129q-45 25 -111 38t-143 15v-543l41 -22q92 -53 155 -102.5
t103.5 -120t40.5 -164.5q0 -152 -89 -254t-251 -137v-170h-105v159q-8 -2 -30 -2zM315 1085q0 -66 49 -122t162 -117v475q-102 -22 -156.5 -83t-54.5 -153zM829 389q0 65 -46.5 121t-151.5 119v-512q95 26 146.5 97t51.5 175z" />
    <glyph glyph-name="percent" unicode="%" horiz-adv-x="2048" 
d="M1505 1475l-846 -1520h-118l845 1520h119zM215 1061q0 181 83.5 282t240.5 101q156 0 239.5 -100t83.5 -283q0 -175 -80.5 -279t-242.5 -104q-158 0 -241 101t-83 282zM733 1061q0 126 -49 199t-147 73q-91 0 -142 -71t-51 -201q0 -125 49.5 -199t145.5 -74
q101 0 147.5 76.5t46.5 196.5zM1186 369q0 181 83 282t240 101q156 0 240 -100.5t84 -282.5q0 -175 -80.5 -279t-243.5 -104q-158 0 -240.5 101t-82.5 282zM1704 369q0 126 -49.5 199t-147.5 73q-91 0 -141.5 -71t-50.5 -201q0 -125 49 -199t145 -74q101 0 148 76t47 197z
" />
    <glyph glyph-name="ampersand" unicode="&#x26;" horiz-adv-x="1366" 
d="M571 -25q-129 0 -235.5 44.5t-170 135t-63.5 220.5q0 137 81 242t257 174q-108 117 -147 198.5t-39 151.5q0 99 55.5 170t144 107t187.5 36q85 0 161.5 -32.5t124.5 -99t48 -163.5q0 -84 -31.5 -148.5t-106.5 -122.5t-206 -118l377 -420q122 175 122 434h123
q0 -142 -40.5 -276t-118.5 -240l247 -268h-180l-155 164q-169 -189 -435 -189zM834 1137q0 97 -54 151.5t-151 54.5q-59 0 -113 -23t-87.5 -70t-33.5 -115q0 -63 36.5 -129.5t125.5 -161.5q96 43 155.5 83.5t90.5 91.5t31 118zM244 381q0 -94 46 -161t122 -100.5t163 -33.5
q96 0 193.5 45t159.5 121l-416 459q-123 -50 -195.5 -138.5t-72.5 -191.5z" />
    <glyph glyph-name="quotesingle" unicode="'" horiz-adv-x="569" 
d="M350 1430v-447h-129v447h129z" />
    <glyph glyph-name="parenleft" unicode="(" horiz-adv-x="569" 
d="M86 631q0 132 34 267t110.5 293.5t205.5 356.5h86q-125 -231 -192.5 -401t-91 -288.5t-23.5 -227.5t23.5 -228t91 -288.5t192.5 -401.5h-86q-191 293 -270.5 508t-79.5 410z" />
    <glyph glyph-name="parenright" unicode=")" horiz-adv-x="569" 
d="M354 631q0 115 -25 236.5t-92 288t-190 392.5h86q130 -199 206.5 -357t110 -292t33.5 -268q0 -132 -33.5 -266t-110 -293t-206.5 -359h-86q123 226 190 393t92 288.5t25 236.5z" />
    <glyph glyph-name="asterisk" unicode="*" 
d="M397 705l-100 77l192 244l-301 86l35 119l301 -115l-14 314h119l-15 -314l297 115l39 -119l-301 -86l199 -244l-103 -77l-176 268z" />
    <glyph glyph-name="plus" unicode="+" horiz-adv-x="1229" 
d="M94 449v141h449v448h141v-448h449v-141h-449v-449h-141v449h-449z" />
    <glyph glyph-name="comma" unicode="," horiz-adv-x="666" 
d="M450 172l-161 -446h-129l118 446h172z" />
    <glyph glyph-name="hyphen" unicode="-" horiz-adv-x="682" 
d="M598 623v-142h-514v142h514z" />
    <glyph glyph-name="hyphen" unicode="&#x2010;" horiz-adv-x="682" 
d="M598 623v-142h-514v142h514z" />
    <glyph glyph-name="hyphen" unicode="&#xad;" horiz-adv-x="682" 
d="M598 623v-142h-514v142h514z" />
    <glyph glyph-name="period" unicode="." horiz-adv-x="666" 
d="M416 172v-172h-166v172h166z" />
    <glyph glyph-name="slash" unicode="/" horiz-adv-x="569" 
d="M633 1454l-555 -1479h-141l555 1479h141z" />
    <glyph glyph-name="zero" unicode="0" 
d="M100 715q0 234 53.5 397t158 247.5t257.5 84.5q230 0 349.5 -188.5t119.5 -540.5q0 -359 -118 -544t-351 -185q-232 0 -350.5 184t-118.5 545zM897 715q0 307 -82 456.5t-248 149.5q-161 0 -243 -148.5t-82 -457.5q0 -315 83.5 -460.5t243.5 -145.5q161 0 244.5 146.5
t83.5 459.5z" />
    <glyph glyph-name="one" unicode="1" 
d="M330 1067l-78 92l323 271h127v-1430h-141v1270z" />
    <glyph glyph-name="two" unicode="2" 
d="M449 506q169 188 247 322.5t78 234.5q0 73 -32.5 132t-90.5 92.5t-133 33.5q-88 0 -171 -25.5t-169 -76.5l-24 129q97 46 191 71t169 25q128 0 221 -44t143 -128.5t50 -202.5q0 -108 -79.5 -256.5t-277.5 -366.5l-295 -323h685v-123h-859v123z" />
    <glyph glyph-name="three" unicode="3" 
d="M461 109q99 0 182.5 33t134.5 101t51 167q0 270 -383 270h-139v123h55q249 0 358 74t109 213q0 75 -47.5 127t-122.5 78t-157 26q-158 0 -320 -76l-12 133q179 66 346 66q129 0 232 -39t163 -118.5t60 -196.5q0 -126 -80 -217t-217 -125v-5q96 -4 163 -51.5t100.5 -124.5
t33.5 -170q0 -125 -67.5 -218t-185 -143t-263.5 -50q-98 0 -184.5 13t-168.5 44l17 135q145 -69 342 -69z" />
    <glyph glyph-name="four" unicode="4" 
d="M47 330v139l643 961h180v-977h211v-123h-211v-330h-141v330h-682zM176 453h553v835h-4z" />
    <glyph glyph-name="five" unicode="5" 
d="M481 109q99 0 185.5 36t140 109t53.5 178q0 157 -83 240.5t-275 83.5q-79 0 -153 -10t-156 -35l14 719h731v-123h-592l-10 -459q51 16 99 23.5t116 7.5q138 0 239.5 -50t156 -144t54.5 -224q0 -156 -67 -263t-184 -159.5t-269 -52.5q-175 0 -305 51v145q65 -36 146 -54.5
t159 -18.5z" />
    <glyph glyph-name="six" unicode="6" 
d="M731 1321q-178 0 -284.5 -88t-149.5 -221.5t-43 -284.5h4q55 86 141.5 131t192.5 45q116 0 217 -44t165 -143.5t64 -258.5q0 -141 -56.5 -247.5t-162 -165t-248.5 -58.5q-230 0 -344 167.5t-114 510.5q0 384 164.5 582t480.5 198q55 0 108.5 -8.5t120.5 -24.5l-12 -135
q-44 19 -109 32t-135 13zM897 446q0 160 -78 247t-227 87q-99 0 -172.5 -39.5t-112.5 -111t-39 -166.5q0 -92 34 -173t103.5 -131t169.5 -50q98 0 171 42t112 118t39 177z" />
    <glyph glyph-name="seven" unicode="7" 
d="M119 1307v123h872v-123l-553 -1307h-155l569 1307h-733z" />
    <glyph glyph-name="eight" unicode="8" 
d="M1044 367q0 -129 -65 -214.5t-172.5 -126t-237.5 -40.5q-120 0 -228.5 42t-177.5 128t-69 211q0 91 33 159.5t105.5 121.5t191.5 95q-141 67 -213 158t-72 209q0 113 68 188t167.5 110.5t194.5 35.5q115 0 212 -35.5t156.5 -110.5t59.5 -188q0 -208 -292 -367
q125 -43 199 -95t107 -120t33 -161zM856 1098q0 70 -41.5 120.5t-107.5 76.5t-140 26q-72 0 -137.5 -24t-107 -74.5t-41.5 -124.5q0 -95 71.5 -165t216.5 -138q149 72 218 145t69 158zM236 369q0 -79 48.5 -138t125.5 -90.5t159 -31.5q95 0 170.5 30t119.5 90.5t44 149.5
q0 70 -37 121t-88 82.5t-131 71.5l-78 36l-94 -39q-119 -48 -179 -115t-60 -167z" />
    <glyph glyph-name="nine" unicode="9" 
d="M545 526q-114 0 -214.5 44t-165.5 144t-65 259q0 141 56.5 247.5t162 165t248.5 58.5q229 0 344 -167t115 -509q0 -385 -164 -583.5t-479 -198.5q-56 0 -110 8t-121 24l12 136q46 -20 108.5 -32.5t133.5 -12.5q183 0 289.5 90.5t148 223.5t41.5 279h-4q-53 -84 -140 -130
t-196 -46zM561 1321q-96 0 -168 -41.5t-111.5 -118t-39.5 -178.5q0 -159 78 -246.5t225 -87.5q100 0 173.5 39.5t112.5 111.5t39 167q0 91 -33.5 172t-103 131.5t-172.5 50.5z" />
    <glyph glyph-name="colon" unicode=":" horiz-adv-x="666" 
d="M416 1044v-172h-166v172h166zM416 172v-172h-166v172h166z" />
    <glyph glyph-name="semicolon" unicode=";" horiz-adv-x="666" 
d="M416 1044v-172h-166v172h166zM450 172l-161 -446h-129l118 446h172z" />
    <glyph glyph-name="less" unicode="&#x3c;" horiz-adv-x="1229" 
d="M1133 1053v-135l-881 -400l881 -399v-135l-1039 471v127z" />
    <glyph glyph-name="equal" unicode="=" horiz-adv-x="1229" 
d="M1133 795v-142h-1039v142h1039zM1133 383v-141h-1039v141h1039z" />
    <glyph glyph-name="greater" unicode="&#x3e;" horiz-adv-x="1229" 
d="M979 518l-883 400v135l1039 -471v-127l-1039 -471v135z" />
    <glyph glyph-name="question" unicode="?" horiz-adv-x="1024" 
d="M555 743q62 68 95 111t55 100t22 131q0 77 -34.5 133t-93 84.5t-130.5 28.5q-76 0 -136 -14t-151 -43l-6 129q169 51 297 51q120 0 209 -43.5t137.5 -126.5t48.5 -197q0 -71 -19 -129t-57 -112t-102 -121q-90 -94 -131 -172t-41 -180v-27h-129v21q0 111 36 194.5
t130 181.5zM539 172v-172h-166v172h166z" />
    <glyph glyph-name="at" unicode="@" horiz-adv-x="1638" 
d="M821 -25q-237 0 -404.5 106.5t-251 276t-83.5 357.5q0 198 87 367t254.5 270.5t397.5 101.5q186 0 353 -73t270.5 -213t103.5 -332q0 -165 -76.5 -293.5t-185.5 -198.5t-201 -70q-137 0 -161 125h-4q-53 -61 -108.5 -93t-141.5 -32q-82 0 -145.5 42.5t-98.5 113.5
t-35 154q0 131 59.5 259.5t167 211t244.5 82.5q77 0 135.5 -40t92.5 -118l43 123h129l-168 -537q-16 -49 -21.5 -74t-5.5 -47q0 -20 11 -33.5t34 -13.5q77 0 146.5 60t112 161.5t42.5 217.5q0 153 -81.5 265t-217 171t-293.5 59q-168 0 -306.5 -79.5t-218 -219.5t-79.5 -315
q0 -177 79 -318t217 -221t308 -80q164 0 307.5 59.5t233.5 168.5h125q-102 -173 -277 -262t-389 -89zM1028 829q0 91 -45.5 138t-120.5 47q-67 0 -141.5 -56t-125 -151.5t-50.5 -206.5q0 -83 37 -143t110 -60q94 0 171 70.5t121 172.5t44 189z" />
    <glyph glyph-name="A" unicode="A" horiz-adv-x="1366" 
d="M317 383l-153 -383h-137l585 1430h160l567 -1430h-147l-154 383h-721zM991 506l-309 788l-311 -788h620z" />
    <glyph glyph-name="B" unicode="B" 
d="M506 1430q218 0 334 -89.5t116 -263.5q0 -137 -64.5 -218.5t-195.5 -106.5v-4q144 -26 223.5 -116t79.5 -224q0 -208 -145 -308t-405 -100h-285v1430h342zM815 1071q0 118 -81 177t-228 59h-197v-502h158q183 0 265.5 72t82.5 194zM858 401q0 150 -100 215.5t-309 65.5
h-144v-559h144q212 0 310.5 74t98.5 204z" />
    <glyph glyph-name="C" unicode="C" horiz-adv-x="1366" 
d="M838 -25q-220 0 -382.5 90.5t-250.5 258t-88 393.5q0 217 89 384t252.5 260t379.5 93q87 0 184.5 -14.5t142.5 -38.5l-8 -131q-55 29 -138.5 45t-180.5 16q-179 0 -310 -78t-200.5 -217.5t-69.5 -318.5q0 -187 68.5 -326.5t199 -216t312.5 -76.5q98 0 184 16t135 46
l8 -123q-46 -28 -138 -45t-189 -17z" />
    <glyph glyph-name="D" unicode="D" horiz-adv-x="1366" 
d="M522 1430q342 0 526.5 -180.5t184.5 -532.5q0 -345 -206 -531t-613 -186h-250v1430h358zM1092 725q0 289 -149.5 435.5t-430.5 146.5h-207v-1184h117q670 0 670 602z" />
    <glyph glyph-name="E" unicode="E" horiz-adv-x="1024" 
d="M877 1430v-123h-560v-510h531v-123h-531v-551h584v-123h-725v1430h701z" />
    <glyph glyph-name="F" unicode="F" horiz-adv-x="909" 
d="M838 1430v-123h-539v-510h514v-123h-514v-674h-141v1430h680z" />
    <glyph glyph-name="G" unicode="G" horiz-adv-x="1479" 
d="M823 774h473v-711q-108 -47 -216 -67.5t-226 -20.5q-223 0 -386.5 91.5t-250 259t-86.5 389.5q0 215 87.5 382.5t251 262t382.5 94.5q108 0 217 -19t166 -49l-16 -131q-77 42 -167 59t-198 17q-184 0 -315 -80t-199 -219.5t-68 -316.5q0 -180 66.5 -319.5t197 -218.5
t316.5 -79q96 0 178 13.5t125 38.5v501h-332v123z" />
    <glyph glyph-name="H" unicode="H" horiz-adv-x="1366" 
d="M319 674v-674h-141v1430h141v-633h723v633h142v-1430h-142v674h-723z" />
    <glyph glyph-name="I" unicode="I" horiz-adv-x="455" 
d="M299 1430v-1430h-141v1430h141z" />
    <glyph glyph-name="J" unicode="J" horiz-adv-x="682" 
d="M162 98q102 0 155.5 69.5t53.5 194.5v1068h141v-1061q0 -184 -86.5 -289t-249.5 -105q-36 0 -75.5 6.5t-71.5 18.5v125q26 -13 62.5 -20t70.5 -7z" />
    <glyph glyph-name="K" unicode="K" horiz-adv-x="1251" 
d="M336 0h-141v1430h141v-642l643 642h184l-692 -674l752 -756h-195l-692 715v-715z" />
    <glyph glyph-name="L" unicode="L" horiz-adv-x="909" 
d="M305 1430v-1307h574v-123h-715v1430h141z" />
    <glyph glyph-name="M" unicode="M" horiz-adv-x="1821" 
d="M1499 1288l-520 -1288h-121l-536 1288h-5v-1288h-141v1430h219l523 -1258l524 1258h203v-1430h-142v1288h-4z" />
    <glyph glyph-name="N" unicode="N" horiz-adv-x="1366" 
d="M299 1233v-1233h-141v1430h178l727 -1258h4v1258h141v-1430h-190l-715 1233h-4z" />
    <glyph glyph-name="O" unicode="O" horiz-adv-x="1479" 
d="M111 725q0 211 75 376.5t217 259t334 93.5q203 0 345.5 -98t214 -263.5t71.5 -367.5q0 -224 -71.5 -393t-213.5 -263t-346 -94q-199 0 -340 92t-213.5 261t-72.5 397zM1227 715q0 161 -54.5 301.5t-165 227.5t-270.5 87q-150 0 -260 -82.5t-167.5 -223t-57.5 -310.5
q0 -174 59.5 -314.5t169.5 -221.5t256 -81q157 0 268 85t166.5 226t55.5 306z" />
    <glyph glyph-name="P" unicode="P" horiz-adv-x="1024" 
d="M530 1430q138 0 237 -47t151.5 -138t52.5 -221q0 -126 -57.5 -217.5t-161 -140t-236.5 -48.5h-199v-618h-141v1430h354zM829 1024q0 138 -75 210.5t-205 72.5h-232v-566h134q148 0 231 36t115 97.5t32 149.5z" />
    <glyph glyph-name="Q" unicode="Q" horiz-adv-x="1479" 
d="M743 -25q-210 0 -352 97t-211 266t-69 387q0 213 76 378.5t218 258t332 92.5q207 0 349 -100t212 -265.5t70 -361.5q0 -259 -95 -443.5t-276 -258.5l301 -291h-188l-254 252q-46 -11 -113 -11zM1227 715q0 162 -54.5 302.5t-165 227t-270.5 86.5q-145 0 -255.5 -80.5
t-170 -220.5t-59.5 -315q0 -170 57.5 -311t167.5 -223.5t260 -82.5q161 0 271.5 87.5t164.5 228.5t54 301z" />
    <glyph glyph-name="R" unicode="R" 
d="M467 674h-145v-674h-142v1430h369q200 0 310 -91t110 -278q0 -89 -40.5 -160t-112.5 -115t-165 -57v-4q53 -7 84.5 -26.5t52.5 -52.5t50 -97l241 -549h-155l-195 455q-40 94 -75 140.5t-76.5 62.5t-110.5 16zM827 1061q0 93 -35 146.5t-106 76.5t-184 23h-180v-510h153
q85 0 164.5 24.5t133.5 83.5t54 156z" />
    <glyph glyph-name="S" unicode="S" horiz-adv-x="1024" 
d="M453 98q96 0 168.5 34.5t112.5 100t40 156.5q0 57 -33 104t-91 88t-150 91q-125 67 -203 120.5t-128 125t-50 163.5q0 115 61.5 199.5t165 129t225.5 44.5q72 0 147.5 -12t133.5 -35l-23 -129q-46 26 -115.5 39.5t-144.5 13.5q-84 0 -154 -25.5t-112.5 -81t-42.5 -139.5
q0 -58 34.5 -104.5t94 -86t162.5 -93.5q111 -58 186.5 -110.5t126.5 -130t51 -181.5q0 -132 -65 -223t-172 -136t-234 -45q-93 0 -174.5 17t-146.5 45l14 145q66 -41 142.5 -62.5t173.5 -21.5z" />
    <glyph glyph-name="T" unicode="T" horiz-adv-x="1024" 
d="M20 1307v123h986v-123h-422v-1307h-142v1307h-422z" />
    <glyph glyph-name="U" unicode="U" horiz-adv-x="1366" 
d="M1202 494q0 -181 -75 -297.5t-192.5 -169t-250.5 -52.5q-132 0 -249 51.5t-193 168.5t-76 301v934h141v-936q0 -110 41.5 -200t126.5 -143t209 -53q113 0 198 47t132 137.5t47 217.5v930h141v-936z" />
    <glyph glyph-name="V" unicode="V" horiz-adv-x="1251" 
d="M162 1430l461 -1289l477 1289h139l-543 -1430h-151l-533 1430h150z" />
    <glyph glyph-name="W" unicode="W" horiz-adv-x="1933" 
d="M967 1270l-369 -1270h-170l-410 1430h146l352 -1270h4l367 1270h170l360 -1270h4l359 1270h135l-414 -1430h-168l-362 1270h-4z" />
    <glyph glyph-name="X" unicode="X" horiz-adv-x="1251" 
d="M176 0h-162l533 752l-479 678h165l402 -578l405 578h158l-481 -678l520 -752h-172l-436 651z" />
    <glyph glyph-name="Y" unicode="Y" horiz-adv-x="1251" 
d="M25 1430h163l437 -699l448 699h154l-531 -824v-606h-141v606z" />
    <glyph glyph-name="Z" unicode="Z" horiz-adv-x="1024" 
d="M788 1307h-727v123h877v-123l-741 -1184h766v-123h-920v123z" />
    <glyph glyph-name="bracketleft" unicode="[" horiz-adv-x="569" 
d="M473 1548v-98h-203v-1638h203v-99h-332v1835h332z" />
    <glyph glyph-name="backslash" unicode="\" horiz-adv-x="569" 
d="M78 1454l555 -1479h-141l-555 1479h141z" />
    <glyph glyph-name="bracketright" unicode="]" horiz-adv-x="569" 
d="M299 -188v1638h-203v98h332v-1835h-332v99h203z" />
    <glyph glyph-name="asciicircum" unicode="^" horiz-adv-x="1229" 
d="M248 543h-146l447 887h131l446 -887h-145l-367 745z" />
    <glyph glyph-name="underscore" unicode="_" horiz-adv-x="1024" 
d="M1024 -154v-102h-1024v102h1024z" />
    <glyph glyph-name="grave" unicode="`" horiz-adv-x="455" 
d="M154 1466l190 -295h-94l-258 295h162z" />
    <glyph glyph-name="a" unicode="a" horiz-adv-x="1024" 
d="M758 168q-27 -58 -79 -102t-118 -67.5t-135 -23.5q-135 0 -212 49.5t-104.5 116.5t-27.5 129q0 131 67 212t199.5 118t337.5 37h64v55q0 140 -57 203t-181 63q-175 0 -307 -86v125q61 29 150 50.5t157 21.5q134 0 215 -43t116.5 -128t35.5 -216v-530q0 -30 3 -78t7 -74
h-127v168h-4zM223 274q0 -90 56.5 -139t160.5 -49q310 0 310 363v77h-60q-184 0 -287 -34t-141.5 -89t-38.5 -129z" />
    <glyph glyph-name="b" unicode="b" 
d="M279 1536v-668h4q24 56 72 101.5t112.5 72.5t140.5 27q213 0 321.5 -143t108.5 -404q0 -162 -50 -286t-147 -192.5t-233 -68.5q-114 0 -193.5 45.5t-131.5 145.5h-4v-166h-129v1536h129zM897 522q0 193 -74.5 314.5t-234.5 121.5q-98 0 -172.5 -62.5t-105.5 -162.5
t-31 -211q0 -115 34.5 -214.5t104 -160.5t170.5 -61q148 0 228.5 113.5t80.5 322.5z" />
    <glyph glyph-name="c" unicode="c" horiz-adv-x="909" 
d="M586 -25q-164 0 -277 75t-169 199.5t-56 272.5q0 163 66 287t183.5 192t266.5 68q62 0 122 -9t130 -32l-10 -123q-122 53 -226 53q-122 0 -210 -56t-134.5 -154.5t-46.5 -225.5q0 -117 45 -216.5t131 -159.5t203 -60q59 0 115.5 12t120.5 35l12 -121q-62 -21 -125.5 -29
t-140.5 -8z" />
    <glyph glyph-name="d" unicode="d" 
d="M856 166q-53 -100 -132.5 -145.5t-193.5 -45.5q-135 0 -232 68.5t-147.5 192.5t-50.5 286q0 266 110.5 406.5t317.5 140.5q84 0 151 -30t111.5 -76t65.5 -95h4v668h129v-1536h-129v166h-4zM860 522q0 107 -32 206.5t-101.5 164.5t-177.5 65q-147 0 -227 -113.5
t-80 -322.5q0 -196 76 -316t233 -120q104 0 174 63.5t102.5 163t32.5 209.5z" />
    <glyph glyph-name="e" unicode="e" horiz-adv-x="1024" 
d="M557 -25q-230 0 -351.5 139.5t-121.5 407.5q0 157 54.5 281.5t154.5 195t231 70.5q130 0 223.5 -61t143 -179.5t49.5 -287.5v-56h-715q1 -122 44.5 -212.5t121 -138.5t178.5 -48q69 0 157.5 24t135.5 54v-131q-65 -26 -144.5 -42t-160.5 -16zM530 958q-81 0 -150 -47.5
t-111 -130.5t-44 -184h574q-1 114 -33.5 195t-92.5 124t-143 43z" />
    <glyph glyph-name="f" unicode="f" horiz-adv-x="682" 
d="M39 934v110h211v134q0 142 31 226.5t91 120.5t152 36q35 0 70.5 -5.5t52.5 -15.5l-8 -113q-20 11 -47 17t-55 6q-80 0 -119 -53t-39 -174v-179h235v-110h-235v-934h-129v934h-211z" />
    <glyph glyph-name="g" unicode="g" 
d="M541 0q-151 0 -250.5 75t-145 193.5t-45.5 253.5q0 265 110.5 406t319.5 141q79 0 132.5 -10.5t100.5 -41.5t93 -91h4v118h129v-962q0 -164 -55.5 -281.5t-165 -180t-268.5 -62.5q-145 0 -316 55l11 129q70 -36 151.5 -55t155.5 -19q142 0 220.5 57.5t109 166t30.5 280.5
v33h-4q-92 -205 -317 -205zM860 524q0 220 -76.5 327t-234.5 107q-152 0 -229.5 -117t-77.5 -319q0 -113 32.5 -206t100 -149t168.5 -56q108 0 179.5 59.5t104.5 153.5t33 200z" />
    <glyph glyph-name="h" unicode="h" 
d="M600 958q-104 0 -173.5 -55.5t-102.5 -146.5t-33 -199v-557h-129v1536h129v-668h4q47 96 133 148.5t195 52.5q183 0 268.5 -108.5t85.5 -327.5v-633h-129v633q0 172 -59.5 248.5t-188.5 76.5z" />
    <glyph glyph-name="i" unicode="i" horiz-adv-x="455" 
d="M291 1495v-172h-129v172h129zM291 1044v-1044h-129v1044h129z" />
    <glyph glyph-name="j" unicode="j" horiz-adv-x="455" 
d="M291 1495v-172h-129v172h129zM20 -332q82 0 112 46t30 145v1185h129v-1198q0 -147 -57.5 -217.5t-180.5 -70.5q-57 0 -110 10v113q14 -5 36.5 -9t40.5 -4z" />
    <glyph glyph-name="k" unicode="k" horiz-adv-x="1024" 
d="M291 0h-129v1536h129v-920l467 428h166l-510 -462l571 -582h-178l-516 537v-537z" />
    <glyph glyph-name="l" unicode="l" horiz-adv-x="455" 
d="M291 1536v-1536h-129v1536h129z" />
    <glyph glyph-name="m" unicode="m" horiz-adv-x="1706" 
d="M1202 958q-75 0 -139 -43.5t-102.5 -129t-38.5 -205.5v-580h-129v696q0 125 -55 193.5t-167 68.5q-81 0 -144.5 -47t-99.5 -132t-36 -195v-584h-129v881q0 73 -8 163h125v-176l4 -2q53 109 131.5 156t191.5 47q110 0 185.5 -58t93.5 -163h4q41 103 131 162t203 59
q107 0 181.5 -47t111 -126t36.5 -175v-721h-129v696q0 123 -53.5 192.5t-167.5 69.5z" />
    <glyph glyph-name="n" unicode="n" 
d="M600 958q-110 0 -179.5 -56t-99.5 -143t-30 -179v-580h-129v866q0 88 -8 178h125v-186h4q48 110 131.5 160.5t206.5 50.5q183 0 269.5 -108.5t86.5 -292.5v-668h-129v637q0 321 -248 321z" />
    <glyph glyph-name="o" unicode="o" 
d="M82 522q0 156 56 280t166 195.5t265 71.5q157 0 267 -72t165.5 -196t55.5 -279q0 -153 -55 -277t-165 -197t-268 -73q-157 0 -267 73t-165 197t-55 277zM915 522q0 123 -40 222t-118.5 156.5t-189.5 57.5q-102 0 -180 -54.5t-121 -153t-43 -228.5q0 -125 41 -224
t119 -155.5t186 -56.5q109 0 187 57t118.5 155.5t40.5 223.5z" />
    <glyph glyph-name="p" unicode="p" 
d="M279 1044l-9 -190h4q58 112 142 163.5t192 51.5q207 0 318.5 -138t111.5 -409q0 -162 -50 -286t-147 -192.5t-233 -68.5q-119 0 -197.5 49.5t-127.5 153.5h-4v-608h-129v1474h129zM897 522q0 200 -77 318t-232 118q-104 0 -174 -63.5t-102.5 -163t-32.5 -209.5
q0 -109 32.5 -208.5t102 -163.5t174.5 -64q153 0 231 117t78 319z" />
    <glyph glyph-name="q" unicode="q" 
d="M856 178q-48 -103 -126.5 -153t-199.5 -50q-135 0 -232 68.5t-147.5 192.5t-50.5 286q0 265 110.5 406t319.5 141q104 0 185.5 -46t140.5 -149h4v170h129v-1474h-129v608h-4zM860 522q0 111 -33 210.5t-103 162.5t-175 63q-149 0 -228 -114.5t-79 -321.5
q0 -209 80 -322.5t229 -113.5q104 0 174 63.5t102.5 163t32.5 209.5z" />
    <glyph glyph-name="r" unicode="r" horiz-adv-x="682" 
d="M154 1044h129v-200h4q44 109 113.5 167t154.5 58q46 0 90 -12v-135q-40 12 -92 12q-133 0 -197.5 -118t-64.5 -302v-514h-129v899q0 72 -8 145z" />
    <glyph glyph-name="s" unicode="s" horiz-adv-x="797" 
d="M352 86q68 0 121 23.5t83 66t30 96.5t-31.5 95t-82.5 71t-134 68q-98 44 -154 88t-78 90t-22 100q0 97 46.5 161t123 94t170.5 30q56 0 127.5 -12.5t130.5 -34.5l-12 -113q-51 24 -115.5 36.5t-118.5 12.5q-115 0 -169 -43.5t-54 -130.5q0 -32 18 -58.5t67.5 -57.5
t143.5 -72q116 -49 179 -103t84.5 -107t21.5 -114q0 -100 -52.5 -167t-136.5 -98.5t-178 -31.5q-167 0 -290 50l12 127q61 -31 131 -48.5t139 -17.5z" />
    <glyph glyph-name="t" unicode="t" horiz-adv-x="682" 
d="M483 -25q-93 0 -144.5 34t-72 101t-20.5 175v649h-205v110h205v252l129 45v-297h237v-110h-237v-676q0 -82 34.5 -127t104.5 -45q32 0 58.5 6t60.5 19l8 -107q-29 -11 -72 -20t-86 -9z" />
    <glyph glyph-name="u" unicode="u" 
d="M856 186q-48 -109 -131.5 -160t-206.5 -51q-181 0 -268.5 107t-87.5 291v671h129v-638q0 -135 54 -227.5t194 -92.5q112 0 181 57.5t98.5 143t29.5 174.5v583h129v-872q0 -33 2.5 -89t5.5 -83h-125v186h-4z" />
    <glyph glyph-name="v" unicode="v" horiz-adv-x="909" 
d="M160 1044l289 -903h4l303 903h135l-367 -1044h-151l-355 1044h142z" />
    <glyph glyph-name="w" unicode="w" horiz-adv-x="1593" 
d="M791 903l-285 -903h-156l-336 1044h142l274 -903h4l291 903h156l276 -903h4l289 903h129l-344 -1044h-156l-284 903h-4z" />
    <glyph glyph-name="x" unicode="x" horiz-adv-x="909" 
d="M166 0h-150l367 553l-332 491h160l248 -389l252 389h147l-323 -491l358 -553h-160l-274 451z" />
    <glyph glyph-name="y" unicode="y" horiz-adv-x="909" 
d="M178 -332q56 0 91.5 34.5t56 85t45.5 138.5l18 62l-371 1056h142l293 -870h2l301 870h135l-420 -1206q-53 -152 -118 -216t-150 -64q-68 0 -137 16l12 111q22 -9 45 -13t55 -4z" />
    <glyph glyph-name="z" unicode="z" horiz-adv-x="909" 
d="M694 934h-604v110h754v-110l-629 -823h629v-111h-778v109z" />
    <glyph glyph-name="braceleft" unicode="{" horiz-adv-x="569" 
d="M238 -41v356q0 119 -42 193t-118 74v98q76 0 118 75.5t42 198.5v349q0 72 26 127.5t73.5 86.5t108.5 31h113v-98h-102q-45 0 -67.5 -53t-22.5 -137v-340q0 -73 -23 -132.5t-62 -99t-87 -55.5v-4q78 -26 125 -104.5t47 -184.5v-338q0 -86 23 -138t67 -52h102v-99h-115
q-60 0 -107 32t-73 88t-26 126z" />
    <glyph glyph-name="bar" unicode="|" horiz-adv-x="455" 
d="M299 1536v-2048h-141v2048h141z" />
    <glyph glyph-name="braceright" unicode="}" horiz-adv-x="569" 
d="M113 -188q45 0 67.5 53t22.5 137v340q0 73 23 132.5t62 99t87 55.5v4q-79 26 -125.5 104.5t-46.5 184.5v338q0 85 -23.5 137.5t-66.5 52.5h-103v98h115q60 0 107.5 -31.5t73.5 -87.5t26 -126v-357q0 -119 42 -192.5t118 -73.5v-98q-77 0 -118.5 -75.5t-41.5 -199.5v-348
q0 -72 -26 -128t-73.5 -87t-109.5 -31h-113v99h103z" />
    <glyph glyph-name="asciitilde" unicode="~" horiz-adv-x="1229" 
d="M831 373q-48 0 -104.5 20t-142.5 62q-69 34 -113 50.5t-76 16.5q-44 0 -86.5 -33t-93.5 -116l-74 104q50 96 113.5 141.5t142.5 45.5q51 0 111 -21t146 -64q67 -33 107.5 -49t72.5 -16q46 0 88.5 34t91.5 116l73 -105q-94 -186 -256 -186z" />
    <glyph glyph-name="exclamdown" unicode="&#xa1;" horiz-adv-x="797" 
d="M481 1044v-172h-166v172h166zM457 698l24 -1083h-166l25 1083h117z" />
    <glyph glyph-name="cent" unicode="&#xa2;" 
d="M705 -25q-94 0 -175 29l-63 -190h-96l75 225q-116 67 -179.5 195t-63.5 288t65 284.5t182.5 193.5t270.5 69q47 0 67 -4l46 139h96l-51 -151q44 -10 92 -25l-10 -123q-21 10 -53 21t-64 18l-275 -823q72 -35 156 -35q108 0 233 47l13 -121q-62 -21 -125.5 -29t-140.5 -8z
M739 958q-129 0 -217.5 -57.5t-133 -156t-44.5 -222.5q0 -108 38 -200t107 -152l263 786q-1 0 -4.5 1t-8.5 1z" />
    <glyph glyph-name="sterling" unicode="&#xa3;" 
d="M348 123v588h-186v110h186v94q0 529 449 529q67 0 129 -12t100 -31l-20 -127q-33 20 -86 33.5t-121 13.5q-159 0 -234.5 -97t-75.5 -298v-105h340v-110h-340v-588h504v-123h-856v123h211z" />
    <glyph glyph-name="currency" unicode="&#xa4;" 
d="M569 207q-88 0 -167.5 27t-141.5 81l-117 -114l-88 88l117 112q-111 140 -111 314q0 86 27 165t84 144l-117 113l88 92l117 -115q65 53 146.5 81t162.5 28q86 0 166.5 -28t145.5 -81l110 115l92 -92l-110 -113q51 -61 77.5 -142.5t26.5 -166.5q0 -88 -26 -168.5
t-78 -145.5l110 -112l-92 -88l-110 114q-61 -53 -142 -80.5t-170 -27.5zM936 715q0 106 -49 194t-132.5 139.5t-181.5 51.5q-93 0 -178.5 -50.5t-138.5 -139t-53 -195.5q0 -105 45.5 -193.5t126.5 -140t184 -51.5q122 0 207 57.5t127.5 146.5t42.5 181z" />
    <glyph glyph-name="yen" unicode="&#xa5;" 
d="M205 358v99h295v153l-6 13h-289v98h233l-399 709h156l374 -691l385 691h146l-398 -709h234v-98h-289l-6 -13v-153h295v-99h-295v-358h-141v358h-295z" />
    <glyph glyph-name="brokenbar" unicode="&#xa6;" horiz-adv-x="455" 
d="M299 1382v-716h-141v716h141zM299 358v-716h-141v716h141z" />
    <glyph glyph-name="section" unicode="&#xa7;" 
d="M539 -135q70 0 133.5 25t103 74t39.5 116q0 51 -32 88.5t-92.5 67.5t-166.5 69q-112 42 -183.5 82.5t-115 101t-43.5 146.5q0 68 41.5 133.5t138.5 146.5q-87 49 -127 105.5t-40 128.5q0 98 52.5 167t137.5 103.5t182 34.5q82 0 159.5 -13t135.5 -32l-14 -119
q-36 19 -108.5 36t-135.5 17q-55 0 -117.5 -18t-106.5 -57t-44 -99q0 -58 37 -100.5t90.5 -70.5t146.5 -66q110 -45 178 -82.5t115 -98t47 -147.5q0 -70 -32.5 -132.5t-120.5 -145.5q73 -42 116 -102.5t43 -139.5q0 -118 -69 -192t-165.5 -106t-182.5 -32q-177 0 -344 58
l14 120q148 -67 330 -67zM817 580q0 56 -23.5 93t-59.5 60t-102 54l-38 18l-131 61q-35 -18 -67 -53.5t-52 -80.5t-20 -89q0 -50 33 -92t100 -72l239 -104q61 55 91 101.5t30 103.5z" />
    <glyph glyph-name="dieresis" unicode="&#xa8;" horiz-adv-x="455" 
d="M129 1409v-172h-154v172h154zM479 1409v-172h-153v172h153z" />
    <glyph glyph-name="copyright" unicode="&#xa9;" horiz-adv-x="1638" 
d="M80 715q0 198 98.5 368t268.5 270.5t372 100.5q198 0 368.5 -98.5t271 -268.5t100.5 -372q0 -198 -98.5 -368.5t-268.5 -271t-373 -100.5q-201 0 -370.5 100t-269 270t-99.5 370zM1417 715q0 177 -78.5 320.5t-215.5 225.5t-304 82q-168 0 -305 -83.5t-215 -227
t-78 -317.5q0 -175 78 -319t215 -227t307 -83q165 0 301 81.5t215.5 225t79.5 322.5zM846 254q-129 0 -230 59.5t-157 164.5t-56 237q0 131 52 236.5t150.5 166t234.5 60.5q97 0 175.5 -36.5t128.5 -106.5t64 -167h-123q-18 91 -83 145t-160 54q-91 0 -158.5 -43t-103 -122
t-35.5 -185q0 -95 36 -175.5t104.5 -128.5t160.5 -48q93 0 158 55.5t81 152.5h125q-20 -98 -72 -170t-127.5 -110.5t-164.5 -38.5z" />
    <glyph glyph-name="ordfeminine" unicode="&#xaa;" horiz-adv-x="666" 
d="M492 909q-23 -52 -81 -83t-126 -31q-236 0 -236 186q0 66 31 115.5t117 80.5t237 31h53v37q0 123 -145 123q-111 0 -201 -49v94q112 41 213 41q122 0 180 -60t58 -169v-320q0 -29 2.5 -57.5t3.5 -36.5h-102v98h-4zM154 991q0 -110 153 -110q180 0 180 186v55h-22
q-154 0 -232.5 -33.5t-78.5 -97.5z" />
    <glyph glyph-name="guillemotleft" unicode="&#xab;" 
d="M473 971h121l-272 -420l272 -420h-121l-287 420zM831 971h121l-272 -420l272 -420h-121l-286 420z" />
    <glyph glyph-name="logicalnot" unicode="&#xac;" horiz-adv-x="1229" 
d="M94 653v142h1039v-562h-142v420h-897z" />
    <glyph glyph-name="registered" unicode="&#xae;" horiz-adv-x="1638" 
d="M80 715q0 198 98.5 368t268.5 270.5t372 100.5q198 0 368.5 -98.5t271 -268.5t100.5 -372q0 -198 -98.5 -368.5t-268.5 -271t-373 -100.5q-201 0 -370.5 100t-269 270t-99.5 370zM1417 715q0 177 -78.5 320.5t-215.5 225.5t-304 82q-168 0 -305 -83.5t-215 -227
t-78 -317.5q0 -175 78 -319t215 -227t307 -83q165 0 301 81.5t215.5 225t79.5 322.5zM678 666v-383h-141v866h333q141 0 218 -57.5t77 -186.5q0 -69 -27.5 -123.5t-78.5 -85t-117 -30.5l246 -383h-150l-241 383h-119zM1024 911q0 64 -48 95.5t-132 31.5h-166v-262h174
q92 0 132 31t40 104z" />
    <glyph glyph-name="macron" unicode="&#xaf;" horiz-adv-x="455" 
d="M477 1368v-111h-500v111h500z" />
    <glyph glyph-name="degree" unicode="&#xb0;" horiz-adv-x="819" 
d="M410 834q-89 0 -163.5 40t-117.5 110t-43 155q0 87 43.5 156.5t118 109t162.5 39.5q85 0 159.5 -38.5t119 -108t44.5 -158.5t-44.5 -158.5t-118.5 -108t-160 -38.5zM408 1346q-63 0 -112.5 -25.5t-77.5 -72.5t-28 -109q0 -57 31 -104.5t82 -75t107 -27.5t107 28
t81.5 75.5t30.5 103.5q0 62 -27.5 109t-77.5 72.5t-116 25.5z" />
    <glyph glyph-name="plusminus" unicode="&#xb1;" horiz-adv-x="1229" 
d="M543 205v346h-449v141h449v346h141v-346h449v-141h-449v-346h-141zM1133 141v-141h-1039v141h1039z" />
    <glyph glyph-name="twosuperior" unicode="&#xb2;" horiz-adv-x="739" 
d="M295 1143q93 87 160 183t67 175q0 65 -44.5 106.5t-112.5 41.5q-58 0 -112 -16.5t-112 -47.5l-16 105q56 26 119 41.5t121 15.5q131 0 202.5 -61.5t71.5 -178.5q0 -99 -60.5 -192t-193.5 -213l-139 -127h401v-98h-555v84z" />
    <glyph glyph-name="threesuperior" unicode="&#xb3;" horiz-adv-x="739" 
d="M324 963q52 0 102 17.5t82.5 54t32.5 91.5q0 84 -71 116t-191 32h-76v100h49q153 0 219 41t66 107q0 62 -51 94.5t-154 32.5q-52 0 -107 -12t-104 -35l-8 106q47 19 116 29t127 10q77 0 145 -23.5t110 -72t42 -121.5q0 -74 -51 -127.5t-143 -73.5v-4q91 -4 144.5 -63.5
t53.5 -151.5q0 -82 -50 -137t-128.5 -82t-165.5 -27q-71 0 -129.5 8t-113.5 27l10 107q107 -43 244 -43z" />
    <glyph glyph-name="acute" unicode="&#xb4;" horiz-adv-x="455" 
d="M461 1466l-258 -295h-94l190 295h162z" />
    <glyph glyph-name="uni00B5" unicode="&#xb5;" 
d="M856 186q-48 -109 -131.5 -160t-206.5 -51q-128 0 -227 60v-465h-129v1474h129v-641q0 -154 62 -235.5t186 -81.5q98 0 167.5 48t105.5 135t36 202v573h129v-876q0 -78 8 -168h-125v186h-4z" />
    <glyph glyph-name="paragraph" unicode="&#xb6;" horiz-adv-x="1229" 
d="M653 1319v-1540h-129v876q-122 0 -219 50.5t-152 137.5t-55 193q0 191 121 292.5t342 101.5h496v-1651h-129v1540h-275z" />
    <glyph glyph-name="periodcentered" unicode="&#xb7;" horiz-adv-x="569" 
d="M188 637q0 42 29.5 70t69.5 28q37 0 66.5 -27t29.5 -71q0 -41 -27.5 -68.5t-68.5 -27.5q-45 0 -72 27.5t-27 68.5z" />
    <glyph glyph-name="cedilla" unicode="&#xb8;" horiz-adv-x="455" 
d="M211 -317q51 0 78.5 20t27.5 55q0 34 -20.5 55t-58.5 21q-44 0 -84 -8l59 174h55l-39 -111q41 7 68 7q66 0 107.5 -37t41.5 -97q0 -66 -55 -103.5t-170 -37.5q-82 0 -207 45l15 76q39 -25 89.5 -42t92.5 -17z" />
    <glyph glyph-name="onesuperior" unicode="&#xb9;" horiz-adv-x="739" 
d="M203 1507l-45 68l211 164h106v-862h-117v749z" />
    <glyph glyph-name="ordmasculine" unicode="&#xba;" horiz-adv-x="739" 
d="M47 1122q0 93 35 168.5t106.5 119.5t176.5 44q115 0 188.5 -46t106 -121t32.5 -165q0 -87 -34 -161t-107.5 -120t-185.5 -46q-105 0 -176.5 43.5t-106.5 117.5t-35 166zM588 1122q0 66 -26 122t-75.5 90t-117.5 34q-66 0 -115.5 -34t-75.5 -90.5t-26 -121.5
q0 -70 26 -124.5t75.5 -85.5t117.5 -31q65 0 114 30t76 84.5t27 126.5z" />
    <glyph glyph-name="guillemotright" unicode="&#xbb;" 
d="M186 971h121l287 -420l-287 -420h-121l273 420zM545 971h121l286 -420l-286 -420h-121l272 420z" />
    <glyph glyph-name="onequarter" unicode="&#xbc;" horiz-adv-x="1708" 
d="M1274 1475l-846 -1520h-117l846 1520h117zM190 1208l-45 68l211 164h107v-862h-117v749zM883 186v101l426 575h139v-577h115v-99h-115v-186h-117v186h-448zM999 285h332v436h-4z" />
    <glyph glyph-name="onehalf" unicode="&#xbd;" horiz-adv-x="1708" 
d="M1239 1475l-846 -1520h-117l846 1520h117zM166 1208l-45 68l211 164h106v-862h-116v749zM1237 266q92 87 159.5 183.5t67.5 175.5q0 65 -44.5 106t-112.5 41q-59 0 -113 -16t-111 -47l-16 104q55 27 118 42t122 15q130 0 202 -61.5t72 -177.5q0 -99 -60.5 -192
t-193.5 -214l-139 -127h401v-98h-555v84z" />
    <glyph glyph-name="threequarters" unicode="&#xbe;" horiz-adv-x="1708" 
d="M1417 1475l-846 -1520h-116l845 1520h117zM362 664q52 0 102 17.5t83 54t33 91.5q0 84 -71 116t-192 32h-75v100h49q152 0 218 41t66 107q0 127 -204 127q-52 0 -107 -12t-104 -35l-8 106q47 19 116 29t127 10q77 0 145 -23.5t110 -72t42 -121.5q0 -74 -51 -127.5
t-143 -73.5v-4q91 -4 144.5 -63.5t53.5 -151.5q0 -82 -50 -137t-128.5 -82t-165.5 -27q-71 0 -129.5 8t-113.5 27l10 107q107 -43 243 -43zM922 186v101l426 575h139v-577h115v-99h-115v-186h-117v186h-448zM1038 285h332v436h-4z" />
    <glyph glyph-name="questiondown" unicode="&#xbf;" horiz-adv-x="1024" 
d="M651 1044v-172h-166v172h166zM551 -410q-115 0 -204 41.5t-140 124t-51 201.5q0 99 41.5 182t138.5 183q96 99 133 177.5t37 172.5v26h129v-28q0 -86 -23.5 -152.5t-55.5 -111.5t-80 -98q-38 -43 -37 -42q-43 -45 -71.5 -84t-49.5 -96t-21 -129t32.5 -127.5t91.5 -86
t134 -30.5t138 15t149 43l6 -129q-173 -52 -297 -52z" />
    <glyph glyph-name="Agrave" unicode="&#xc0;" horiz-adv-x="1366" 
d="M317 383l-153 -383h-137l585 1430h160l567 -1430h-147l-154 383h-721zM991 506l-309 788l-311 -788h620zM623 1781l190 -295h-94l-258 295h162z" />
    <glyph glyph-name="Aacute" unicode="&#xc1;" horiz-adv-x="1366" 
d="M317 383l-153 -383h-137l585 1430h160l567 -1430h-147l-154 383h-721zM991 506l-309 788l-311 -788h620zM934 1781l-258 -295h-94l190 295h162z" />
    <glyph glyph-name="Acircumflex" unicode="&#xc2;" horiz-adv-x="1366" 
d="M317 383l-153 -383h-137l585 1430h160l567 -1430h-147l-154 383h-721zM991 506l-309 788l-311 -788h620zM516 1486h-94l190 295h168l191 -295h-94l-181 209z" />
    <glyph glyph-name="Atilde" unicode="&#xc3;" horiz-adv-x="1366" 
d="M317 383l-153 -383h-137l585 1430h160l567 -1430h-147l-154 383h-721zM991 506l-309 788l-311 -788h620zM801 1556q-32 0 -63 7.5t-75 22.5q-30 11 -51.5 16t-33.5 5q-35 0 -55.5 -16t-35.5 -58h-73q19 89 63 136.5t105 47.5q29 0 66.5 -9t81.5 -24q9 -3 32.5 -10.5
t34.5 -7.5q32 0 60.5 18.5t37.5 51.5h76q-11 -84 -58 -132t-112 -48z" />
    <glyph glyph-name="Adieresis" unicode="&#xc4;" horiz-adv-x="1366" 
d="M317 383l-153 -383h-137l585 1430h160l567 -1430h-147l-154 383h-721zM991 506l-309 788l-311 -788h620zM598 1724v-172h-154v172h154zM948 1724v-172h-153v172h153z" />
    <glyph glyph-name="Aring" unicode="&#xc5;" horiz-adv-x="1366" 
d="M317 383l-153 -383h-137l585 1430h160l567 -1430h-147l-154 383h-721zM991 506l-309 788l-311 -788h620zM698 1477q-56 0 -100.5 26t-70 70t-25.5 98q0 53 25.5 98t70 71t100.5 26q55 0 100 -26.5t71 -71t26 -97.5q0 -54 -26 -98.5t-71 -70t-100 -25.5zM696 1792
q-30 0 -58 -15.5t-45.5 -43t-17.5 -62.5q0 -50 36.5 -85.5t86.5 -35.5q53 0 88 35t35 86q0 50 -35 85.5t-90 35.5z" />
    <glyph glyph-name="AE" unicode="&#xc6;" horiz-adv-x="1821" 
d="M393 383l-237 -383h-156l893 1430h780v-123h-555v-510h527v-123h-527v-551h580v-123h-721v383h-584zM469 506h508v813h-4z" />
    <glyph glyph-name="Ccedilla" unicode="&#xc7;" horiz-adv-x="1366" 
d="M834 -25q-11 0 -25 2l-31 -88q49 7 68 7q66 0 107.5 -37t41.5 -97q0 -71 -58.5 -106t-166.5 -35q-41 0 -95 12t-112 33l15 76q40 -26 90 -42.5t92 -16.5q48 0 77 19.5t29 55.5q0 32 -19 54t-61 22q-43 0 -84 -8l52 156q-200 16 -343.5 112t-218.5 256t-75 365
q0 217 88 384.5t251.5 261t381.5 93.5q92 0 189.5 -15t137.5 -38l-8 -131q-54 29 -138.5 45t-180.5 16q-177 0 -308 -77t-201.5 -217t-70.5 -322q0 -185 68.5 -324.5t199.5 -216t312 -76.5q98 0 185 16t134 46l8 -123q-44 -28 -135.5 -45t-195.5 -17z" />
    <glyph glyph-name="Egrave" unicode="&#xc8;" horiz-adv-x="1024" 
d="M877 1430v-123h-560v-510h531v-123h-531v-551h584v-123h-725v1430h701zM441 1781l190 -295h-94l-258 295h162z" />
    <glyph glyph-name="Eacute" unicode="&#xc9;" horiz-adv-x="1024" 
d="M877 1430v-123h-560v-510h531v-123h-531v-551h584v-123h-725v1430h701zM752 1781l-258 -295h-94l190 295h162z" />
    <glyph glyph-name="Ecircumflex" unicode="&#xca;" horiz-adv-x="1024" 
d="M877 1430v-123h-560v-510h531v-123h-531v-551h584v-123h-725v1430h701zM332 1486h-94l190 295h168l191 -295h-94l-181 209z" />
    <glyph glyph-name="Edieresis" unicode="&#xcb;" horiz-adv-x="1024" 
d="M877 1430v-123h-560v-510h531v-123h-531v-551h584v-123h-725v1430h701zM418 1724v-172h-154v172h154zM768 1724v-172h-153v172h153z" />
    <glyph glyph-name="Igrave" unicode="&#xcc;" horiz-adv-x="455" 
d="M299 1430v-1430h-141v1430h141zM152 1781l190 -295h-94l-258 295h162z" />
    <glyph glyph-name="Iacute" unicode="&#xcd;" horiz-adv-x="455" 
d="M299 1430v-1430h-141v1430h141zM461 1781l-258 -295h-94l190 295h162z" />
    <glyph glyph-name="Icircumflex" unicode="&#xce;" horiz-adv-x="455" 
d="M299 1430v-1430h-141v1430h141zM43 1486h-94l190 295h168l191 -295h-94l-181 209z" />
    <glyph glyph-name="Idieresis" unicode="&#xcf;" horiz-adv-x="455" 
d="M299 1430v-1430h-141v1430h141zM129 1724v-172h-154v172h154zM479 1724v-172h-153v172h153z" />
    <glyph glyph-name="Eth" unicode="&#xd0;" horiz-adv-x="1366" 
d="M23 674v123h141v633h358q342 0 526.5 -180.5t184.5 -532.5q0 -345 -206 -531t-613 -186h-250v674h-141zM1092 725q0 289 -149.5 435.5t-430.5 146.5h-207v-510h436v-123h-436v-551h117q670 0 670 602z" />
    <glyph glyph-name="Ntilde" unicode="&#xd1;" horiz-adv-x="1366" 
d="M299 1233v-1233h-141v1430h178l727 -1258h4v1258h141v-1430h-190l-715 1233h-4zM797 1556q-32 0 -63 7.5t-75 22.5q-30 11 -51.5 16t-33.5 5q-35 0 -55.5 -16t-35.5 -58h-73q19 89 63 136.5t105 47.5q29 0 66.5 -9t81.5 -24q9 -3 32.5 -10.5t34.5 -7.5q32 0 60.5 18.5
t37.5 51.5h76q-11 -84 -58 -132t-112 -48z" />
    <glyph glyph-name="Ograve" unicode="&#xd2;" horiz-adv-x="1479" 
d="M111 725q0 211 75 376.5t217 259t334 93.5q203 0 345.5 -98t214 -263.5t71.5 -367.5q0 -224 -71.5 -393t-213.5 -263t-346 -94q-199 0 -340 92t-213.5 261t-72.5 397zM1227 715q0 161 -54.5 301.5t-165 227.5t-270.5 87q-150 0 -260 -82.5t-167.5 -223t-57.5 -310.5
q0 -174 59.5 -314.5t169.5 -221.5t256 -81q157 0 268 85t166.5 226t55.5 306zM676 1781l190 -295h-94l-258 295h162z" />
    <glyph glyph-name="Oacute" unicode="&#xd3;" horiz-adv-x="1479" 
d="M111 725q0 211 75 376.5t217 259t334 93.5q203 0 345.5 -98t214 -263.5t71.5 -367.5q0 -224 -71.5 -393t-213.5 -263t-346 -94q-199 0 -340 92t-213.5 261t-72.5 397zM1227 715q0 161 -54.5 301.5t-165 227.5t-270.5 87q-150 0 -260 -82.5t-167.5 -223t-57.5 -310.5
q0 -174 59.5 -314.5t169.5 -221.5t256 -81q157 0 268 85t166.5 226t55.5 306zM987 1781l-258 -295h-94l190 295h162z" />
    <glyph glyph-name="Ocircumflex" unicode="&#xd4;" horiz-adv-x="1479" 
d="M111 725q0 211 75 376.5t217 259t334 93.5q203 0 345.5 -98t214 -263.5t71.5 -367.5q0 -224 -71.5 -393t-213.5 -263t-346 -94q-199 0 -340 92t-213.5 261t-72.5 397zM1227 715q0 161 -54.5 301.5t-165 227.5t-270.5 87q-150 0 -260 -82.5t-167.5 -223t-57.5 -310.5
q0 -174 59.5 -314.5t169.5 -221.5t256 -81q157 0 268 85t166.5 226t55.5 306zM567 1486h-94l190 295h168l191 -295h-94l-181 209z" />
    <glyph glyph-name="Otilde" unicode="&#xd5;" horiz-adv-x="1479" 
d="M111 725q0 211 75 376.5t217 259t334 93.5q203 0 345.5 -98t214 -263.5t71.5 -367.5q0 -224 -71.5 -393t-213.5 -263t-346 -94q-199 0 -340 92t-213.5 261t-72.5 397zM1227 715q0 161 -54.5 301.5t-165 227.5t-270.5 87q-150 0 -260 -82.5t-167.5 -223t-57.5 -310.5
q0 -174 59.5 -314.5t169.5 -221.5t256 -81q157 0 268 85t166.5 226t55.5 306zM852 1556q-32 0 -63 7.5t-75 22.5q-30 11 -51.5 16t-33.5 5q-35 0 -55.5 -16t-35.5 -58h-73q19 89 63 136.5t105 47.5q29 0 66.5 -9t81.5 -24q9 -3 32.5 -10.5t34.5 -7.5q32 0 60.5 18.5
t37.5 51.5h76q-11 -84 -58 -132t-112 -48z" />
    <glyph glyph-name="Odieresis" unicode="&#xd6;" horiz-adv-x="1479" 
d="M111 725q0 211 75 376.5t217 259t334 93.5q203 0 345.5 -98t214 -263.5t71.5 -367.5q0 -224 -71.5 -393t-213.5 -263t-346 -94q-199 0 -340 92t-213.5 261t-72.5 397zM1227 715q0 161 -54.5 301.5t-165 227.5t-270.5 87q-150 0 -260 -82.5t-167.5 -223t-57.5 -310.5
q0 -174 59.5 -314.5t169.5 -221.5t256 -81q157 0 268 85t166.5 226t55.5 306zM651 1724v-172h-154v172h154zM1001 1724v-172h-153v172h153z" />
    <glyph glyph-name="multiply" unicode="&#xd7;" horiz-adv-x="1229" 
d="M145 156l371 370l-371 369l101 100l370 -370l367 370l102 -100l-368 -369l368 -370l-102 -103l-367 373l-370 -373z" />
    <glyph glyph-name="Oslash" unicode="&#xd8;" horiz-adv-x="1479" 
d="M111 727q0 204 72.5 369t214.5 261.5t341 96.5q133 0 239.5 -42.5t184.5 -123.5l176 201l80 -68l-186 -215q67 -96 101 -218t34 -259q0 -231 -73 -400.5t-214.5 -261.5t-341.5 -92q-139 0 -249 44t-185 126l-166 -190l-80 68l181 206q-64 94 -96.5 223t-32.5 275z
M739 1331q-154 0 -264 -84t-166.5 -224.5t-56.5 -307.5q0 -100 22 -195t66 -174l731 836q-130 149 -332 149zM741 98q154 0 264 84.5t166 225.5t56 307q0 103 -23 200.5t-69 178.5l-734 -840q62 -75 147.5 -115.5t192.5 -40.5z" />
    <glyph glyph-name="Ugrave" unicode="&#xd9;" horiz-adv-x="1366" 
d="M1202 494q0 -181 -75 -297.5t-192.5 -169t-250.5 -52.5q-132 0 -249 51.5t-193 168.5t-76 301v934h141v-936q0 -110 41.5 -200t126.5 -143t209 -53q113 0 198 47t132 137.5t47 217.5v930h141v-936zM621 1781l190 -295h-94l-258 295h162z" />
    <glyph glyph-name="Uacute" unicode="&#xda;" horiz-adv-x="1366" 
d="M1202 494q0 -181 -75 -297.5t-192.5 -169t-250.5 -52.5q-132 0 -249 51.5t-193 168.5t-76 301v934h141v-936q0 -110 41.5 -200t126.5 -143t209 -53q113 0 198 47t132 137.5t47 217.5v930h141v-936zM930 1781l-258 -295h-94l190 295h162z" />
    <glyph glyph-name="Ucircumflex" unicode="&#xdb;" horiz-adv-x="1366" 
d="M1202 494q0 -181 -75 -297.5t-192.5 -169t-250.5 -52.5q-132 0 -249 51.5t-193 168.5t-76 301v934h141v-936q0 -110 41.5 -200t126.5 -143t209 -53q113 0 198 47t132 137.5t47 217.5v930h141v-936zM512 1486h-94l190 295h168l191 -295h-94l-181 209z" />
    <glyph glyph-name="Udieresis" unicode="&#xdc;" horiz-adv-x="1366" 
d="M1202 494q0 -181 -75 -297.5t-192.5 -169t-250.5 -52.5q-132 0 -249 51.5t-193 168.5t-76 301v934h141v-936q0 -110 41.5 -200t126.5 -143t209 -53q113 0 198 47t132 137.5t47 217.5v930h141v-936zM594 1724v-172h-154v172h154zM944 1724v-172h-153v172h153z" />
    <glyph glyph-name="Yacute" unicode="&#xdd;" horiz-adv-x="1251" 
d="M25 1430h163l437 -699l448 699h154l-531 -824v-606h-141v606zM875 1781l-258 -295h-94l190 295h162z" />
    <glyph glyph-name="Thorn" unicode="&#xde;" horiz-adv-x="1024" 
d="M317 1430v-267h213q137 0 236 -46.5t152 -137.5t53 -221q0 -131 -60.5 -222.5t-163.5 -137.5t-229 -46h-201v-352h-141v1430h141zM829 758q0 138 -75 210t-203 72h-234v-565h127q136 0 220.5 29.5t124.5 91.5t40 162z" />
    <glyph glyph-name="germandbls" unicode="&#xdf;" 
d="M594 96q93 0 161 43t104 120.5t36 178.5q0 159 -93.5 236.5t-297.5 77.5h-21v110h33q90 0 158 39.5t105.5 110.5t37.5 164q0 80 -30.5 142.5t-86 97t-129.5 34.5q-141 0 -210.5 -97.5t-69.5 -279.5v-1073h-129v1112q0 136 46 237t138 156.5t225 55.5q117 0 204.5 -46.5
t135 -133t47.5 -201.5q0 -140 -73 -234.5t-201 -122.5v-4q169 -13 260.5 -112.5t91.5 -266.5q0 -132 -53.5 -235t-154 -161t-234.5 -58q-108 0 -176 24l8 121q30 -19 75 -27t93 -8z" />
    <glyph glyph-name="agrave" unicode="&#xe0;" horiz-adv-x="1024" 
d="M758 168q-27 -58 -79 -102t-118 -67.5t-135 -23.5q-135 0 -212 49.5t-104.5 116.5t-27.5 129q0 131 67 212t199.5 118t337.5 37h64v55q0 140 -57 203t-181 63q-175 0 -307 -86v125q61 29 150 50.5t157 21.5q134 0 215 -43t116.5 -128t35.5 -216v-530q0 -30 3 -78t7 -74
h-127v168h-4zM223 274q0 -90 56.5 -139t160.5 -49q310 0 310 363v77h-60q-184 0 -287 -34t-141.5 -89t-38.5 -129zM443 1452l190 -295h-94l-258 295h162z" />
    <glyph glyph-name="aacute" unicode="&#xe1;" horiz-adv-x="1024" 
d="M758 168q-27 -58 -79 -102t-118 -67.5t-135 -23.5q-135 0 -212 49.5t-104.5 116.5t-27.5 129q0 131 67 212t199.5 118t337.5 37h64v55q0 140 -57 203t-181 63q-175 0 -307 -86v125q61 29 150 50.5t157 21.5q134 0 215 -43t116.5 -128t35.5 -216v-530q0 -30 3 -78t7 -74
h-127v168h-4zM223 274q0 -90 56.5 -139t160.5 -49q310 0 310 363v77h-60q-184 0 -287 -34t-141.5 -89t-38.5 -129zM750 1452l-258 -295h-94l190 295h162z" />
    <glyph glyph-name="acircumflex" unicode="&#xe2;" horiz-adv-x="1024" 
d="M758 168q-27 -58 -79 -102t-118 -67.5t-135 -23.5q-135 0 -212 49.5t-104.5 116.5t-27.5 129q0 131 67 212t199.5 118t337.5 37h64v55q0 140 -57 203t-181 63q-175 0 -307 -86v125q61 29 150 50.5t157 21.5q134 0 215 -43t116.5 -128t35.5 -216v-530q0 -30 3 -78t7 -74
h-127v168h-4zM223 274q0 -90 56.5 -139t160.5 -49q310 0 310 363v77h-60q-184 0 -287 -34t-141.5 -89t-38.5 -129zM334 1157h-94l190 295h168l191 -295h-94l-181 209z" />
    <glyph glyph-name="atilde" unicode="&#xe3;" horiz-adv-x="1024" 
d="M758 168q-27 -58 -79 -102t-118 -67.5t-135 -23.5q-135 0 -212 49.5t-104.5 116.5t-27.5 129q0 131 67 212t199.5 118t337.5 37h64v55q0 140 -57 203t-181 63q-175 0 -307 -86v125q61 29 150 50.5t157 21.5q134 0 215 -43t116.5 -128t35.5 -216v-530q0 -30 3 -78t7 -74
h-127v168h-4zM223 274q0 -90 56.5 -139t160.5 -49q310 0 310 363v77h-60q-184 0 -287 -34t-141.5 -89t-38.5 -129zM617 1227q-32 0 -63 7.5t-75 22.5q-30 11 -51.5 16t-33.5 5q-35 0 -55.5 -16t-35.5 -58h-73q19 89 63 136.5t105 47.5q29 0 66.5 -9t81.5 -24
q9 -3 32.5 -10.5t34.5 -7.5q32 0 60.5 18.5t37.5 51.5h76q-11 -84 -58 -132t-112 -48z" />
    <glyph glyph-name="adieresis" unicode="&#xe4;" horiz-adv-x="1024" 
d="M758 168q-27 -58 -79 -102t-118 -67.5t-135 -23.5q-135 0 -212 49.5t-104.5 116.5t-27.5 129q0 131 67 212t199.5 118t337.5 37h64v55q0 140 -57 203t-181 63q-175 0 -307 -86v125q61 29 150 50.5t157 21.5q134 0 215 -43t116.5 -128t35.5 -216v-530q0 -30 3 -78t7 -74
h-127v168h-4zM223 274q0 -90 56.5 -139t160.5 -49q310 0 310 363v77h-60q-184 0 -287 -34t-141.5 -89t-38.5 -129zM416 1395v-172h-154v172h154zM766 1395v-172h-153v172h153z" />
    <glyph glyph-name="aring" unicode="&#xe5;" horiz-adv-x="1024" 
d="M758 168q-27 -58 -79 -102t-118 -67.5t-135 -23.5q-135 0 -212 49.5t-104.5 116.5t-27.5 129q0 131 67 212t199.5 118t337.5 37h64v55q0 140 -57 203t-181 63q-175 0 -307 -86v125q61 29 150 50.5t157 21.5q134 0 215 -43t116.5 -128t35.5 -216v-530q0 -30 3 -78t7 -74
h-127v168h-4zM223 274q0 -90 56.5 -139t160.5 -49q310 0 310 363v77h-60q-184 0 -287 -34t-141.5 -89t-38.5 -129zM514 1133q-56 0 -100.5 26t-70 70t-25.5 98q0 53 25.5 98t70 71t100.5 26q55 0 100 -26.5t71 -71t26 -97.5q0 -54 -26 -98.5t-71 -70t-100 -25.5zM512 1448
q-30 0 -58 -15.5t-45.5 -43t-17.5 -62.5q0 -50 36.5 -85.5t86.5 -35.5q53 0 88 35t35 86q0 50 -35 85.5t-90 35.5z" />
    <glyph glyph-name="ae" unicode="&#xe6;" horiz-adv-x="1706" 
d="M1231 -25q-152 0 -253 56t-144 155q-73 -105 -170.5 -158t-225.5 -53q-163 0 -253.5 74t-90.5 205q0 174 134.5 258t398.5 84h135v57q0 160 -57 232.5t-181 72.5q-175 0 -307 -86v125q65 31 152.5 51.5t154.5 20.5q134 0 211.5 -45t122.5 -143q59 88 148.5 138t189.5 50
q130 0 223.5 -61t143 -179t49.5 -284v-60h-709v-43q0 -176 89 -266t247 -90q70 0 159 24t136 54v-131q-65 -26 -144.5 -42t-158.5 -16zM1204 958q-83 0 -151.5 -48.5t-108.5 -131.5t-41 -182h567q-1 112 -33 193.5t-91.5 125t-141.5 43.5zM236 256q0 -54 31 -92.5t81 -58
t107 -19.5q143 0 225 84.5t82 263.5v51h-96q-430 0 -430 -229z" />
    <glyph glyph-name="ccedilla" unicode="&#xe7;" horiz-adv-x="909" 
d="M580 -25l-31 -86q8 1 29 4t38 3q65 0 107.5 -36.5t42.5 -97.5q0 -69 -57 -105t-166 -36q-84 0 -209 45l14 76q39 -25 89.5 -42t92.5 -17q50 0 78.5 19.5t28.5 55.5q0 38 -22.5 57t-57.5 19q-45 0 -84 -8l53 154q-139 13 -238.5 86.5t-151.5 191.5t-52 264q0 160 64 284
t181.5 193.5t270.5 69.5q133 0 252 -41l-10 -123q-56 25 -115.5 39t-110.5 14q-120 0 -208 -55t-135.5 -153.5t-47.5 -227.5q0 -119 46.5 -219t132.5 -158.5t200 -58.5q61 0 117.5 12t118.5 35l12 -121q-65 -22 -125.5 -29.5t-146.5 -7.5z" />
    <glyph glyph-name="egrave" unicode="&#xe8;" horiz-adv-x="1024" 
d="M557 -25q-230 0 -351.5 139.5t-121.5 407.5q0 157 54.5 281.5t154.5 195t231 70.5q130 0 223.5 -61t143 -179.5t49.5 -287.5v-56h-715q1 -122 44.5 -212.5t121 -138.5t178.5 -48q69 0 157.5 24t135.5 54v-131q-65 -26 -144.5 -42t-160.5 -16zM530 958q-81 0 -150 -47.5
t-111 -130.5t-44 -184h574q-1 114 -33.5 195t-92.5 124t-143 43zM441 1452l190 -295h-94l-258 295h162z" />
    <glyph glyph-name="eacute" unicode="&#xe9;" horiz-adv-x="1024" 
d="M557 -25q-230 0 -351.5 139.5t-121.5 407.5q0 157 54.5 281.5t154.5 195t231 70.5q130 0 223.5 -61t143 -179.5t49.5 -287.5v-56h-715q1 -122 44.5 -212.5t121 -138.5t178.5 -48q69 0 157.5 24t135.5 54v-131q-65 -26 -144.5 -42t-160.5 -16zM530 958q-81 0 -150 -47.5
t-111 -130.5t-44 -184h574q-1 114 -33.5 195t-92.5 124t-143 43zM752 1452l-258 -295h-94l190 295h162z" />
    <glyph glyph-name="ecircumflex" unicode="&#xea;" horiz-adv-x="1024" 
d="M557 -25q-230 0 -351.5 139.5t-121.5 407.5q0 157 54.5 281.5t154.5 195t231 70.5q130 0 223.5 -61t143 -179.5t49.5 -287.5v-56h-715q1 -122 44.5 -212.5t121 -138.5t178.5 -48q69 0 157.5 24t135.5 54v-131q-65 -26 -144.5 -42t-160.5 -16zM530 958q-81 0 -150 -47.5
t-111 -130.5t-44 -184h574q-1 114 -33.5 195t-92.5 124t-143 43zM336 1157h-94l190 295h168l191 -295h-94l-181 209z" />
    <glyph glyph-name="edieresis" unicode="&#xeb;" horiz-adv-x="1024" 
d="M557 -25q-230 0 -351.5 139.5t-121.5 407.5q0 157 54.5 281.5t154.5 195t231 70.5q130 0 223.5 -61t143 -179.5t49.5 -287.5v-56h-715q1 -122 44.5 -212.5t121 -138.5t178.5 -48q69 0 157.5 24t135.5 54v-131q-65 -26 -144.5 -42t-160.5 -16zM530 958q-81 0 -150 -47.5
t-111 -130.5t-44 -184h574q-1 114 -33.5 195t-92.5 124t-143 43zM418 1395v-172h-154v172h154zM768 1395v-172h-153v172h153z" />
    <glyph glyph-name="igrave" unicode="&#xec;" horiz-adv-x="455" 
d="M154 1452l190 -295h-94l-258 295h162zM291 1044v-1044h-129v1044h129z" />
    <glyph glyph-name="iacute" unicode="&#xed;" horiz-adv-x="455" 
d="M461 1452l-258 -295h-94l190 295h162zM291 1044v-1044h-129v1044h129z" />
    <glyph glyph-name="icircumflex" unicode="&#xee;" horiz-adv-x="455" 
d="M47 1157h-94l190 295h168l191 -295h-94l-181 209zM291 1044v-1044h-129v1044h129z" />
    <glyph glyph-name="idieresis" unicode="&#xef;" horiz-adv-x="455" 
d="M291 1044v-1044h-129v1044h129zM129 1395v-172h-154v172h154zM479 1395v-172h-153v172h153z" />
    <glyph glyph-name="eth" unicode="&#xf0;" 
d="M655 1292l-221 -137l-61 86l186 117q-123 73 -276 104l24 99q214 -30 373 -129l219 135l62 -86l-191 -117q141 -123 214 -315t73 -443q0 -313 -123 -472t-365 -159q-158 0 -267.5 73t-164.5 197t-55 277q0 158 57 282t166.5 194.5t261.5 70.5q194 0 324 -162h4
q-27 118 -89 215.5t-151 169.5zM915 522q0 127 -41.5 225.5t-120 154.5t-186.5 56q-102 0 -180 -54.5t-121 -153t-43 -228.5q0 -122 40.5 -221.5t118.5 -157t187 -57.5q108 0 186.5 56.5t119 155.5t40.5 224z" />
    <glyph glyph-name="ntilde" unicode="&#xf1;" 
d="M600 958q-110 0 -179.5 -56t-99.5 -143t-30 -179v-580h-129v866q0 88 -8 178h125v-186h4q48 110 131.5 160.5t206.5 50.5q183 0 269.5 -108.5t86.5 -292.5v-668h-129v637q0 321 -248 321zM678 1227q-32 0 -63 7.5t-75 22.5q-30 11 -51.5 16t-33.5 5q-35 0 -55.5 -16
t-35.5 -58h-73q19 89 63 136.5t105 47.5q29 0 66.5 -9t81.5 -24q9 -3 32.5 -10.5t34.5 -7.5q32 0 60.5 18.5t37.5 51.5h76q-11 -84 -58 -132t-112 -48z" />
    <glyph glyph-name="ograve" unicode="&#xf2;" 
d="M82 522q0 156 56 280t166 195.5t265 71.5q157 0 267 -72t165.5 -196t55.5 -279q0 -153 -55 -277t-165 -197t-268 -73q-157 0 -267 73t-165 197t-55 277zM915 522q0 123 -40 222t-118.5 156.5t-189.5 57.5q-102 0 -180 -54.5t-121 -153t-43 -228.5q0 -125 41 -224
t119 -155.5t186 -56.5q109 0 187 57t118.5 155.5t40.5 223.5zM504 1452l190 -295h-94l-258 295h162z" />
    <glyph glyph-name="oacute" unicode="&#xf3;" 
d="M82 522q0 156 56 280t166 195.5t265 71.5q157 0 267 -72t165.5 -196t55.5 -279q0 -153 -55 -277t-165 -197t-268 -73q-157 0 -267 73t-165 197t-55 277zM915 522q0 123 -40 222t-118.5 156.5t-189.5 57.5q-102 0 -180 -54.5t-121 -153t-43 -228.5q0 -125 41 -224
t119 -155.5t186 -56.5q109 0 187 57t118.5 155.5t40.5 223.5zM815 1452l-258 -295h-94l190 295h162z" />
    <glyph glyph-name="ocircumflex" unicode="&#xf4;" 
d="M82 522q0 156 56 280t166 195.5t265 71.5q157 0 267 -72t165.5 -196t55.5 -279q0 -153 -55 -277t-165 -197t-268 -73q-157 0 -267 73t-165 197t-55 277zM915 522q0 123 -40 222t-118.5 156.5t-189.5 57.5q-102 0 -180 -54.5t-121 -153t-43 -228.5q0 -125 41 -224
t119 -155.5t186 -56.5q109 0 187 57t118.5 155.5t40.5 223.5zM395 1157h-94l190 295h168l191 -295h-94l-181 209z" />
    <glyph glyph-name="otilde" unicode="&#xf5;" 
d="M82 522q0 156 56 280t166 195.5t265 71.5q157 0 267 -72t165.5 -196t55.5 -279q0 -153 -55 -277t-165 -197t-268 -73q-157 0 -267 73t-165 197t-55 277zM915 522q0 123 -40 222t-118.5 156.5t-189.5 57.5q-102 0 -180 -54.5t-121 -153t-43 -228.5q0 -125 41 -224
t119 -155.5t186 -56.5q109 0 187 57t118.5 155.5t40.5 223.5zM680 1227q-32 0 -63 7.5t-75 22.5q-30 11 -51.5 16t-33.5 5q-35 0 -55.5 -16t-35.5 -58h-73q19 89 63 136.5t105 47.5q29 0 66.5 -9t81.5 -24q9 -3 32.5 -10.5t34.5 -7.5q32 0 60.5 18.5t37.5 51.5h76
q-11 -84 -58 -132t-112 -48z" />
    <glyph glyph-name="odieresis" unicode="&#xf6;" 
d="M82 522q0 156 56 280t166 195.5t265 71.5q157 0 267 -72t165.5 -196t55.5 -279q0 -153 -55 -277t-165 -197t-268 -73q-157 0 -267 73t-165 197t-55 277zM915 522q0 123 -40 222t-118.5 156.5t-189.5 57.5q-102 0 -180 -54.5t-121 -153t-43 -228.5q0 -125 41 -224
t119 -155.5t186 -56.5q109 0 187 57t118.5 155.5t40.5 223.5zM479 1395v-172h-154v172h154zM829 1395v-172h-153v172h153z" />
    <glyph glyph-name="divide" unicode="&#xf7;" horiz-adv-x="1229" 
d="M483 922q0 35 18 65t48 48t65 18q34 0 64.5 -18t48.5 -48t18 -65q0 -33 -18 -63t-48.5 -49t-64.5 -19q-35 0 -65 18.5t-48 48.5t-18 64zM1133 590v-141h-1039v141h1039zM483 117q0 35 18.5 65t48.5 48t64 18t64 -18t48.5 -48t18.5 -65q0 -32 -18 -62.5t-48 -49.5t-65 -19
t-65 18.5t-48 48.5t-18 64z" />
    <glyph glyph-name="oslash" unicode="&#xf8;" 
d="M82 522q0 154 55 278t165 196.5t267 72.5q202 0 320 -115l139 162l72 -59l-150 -172q54 -71 80.5 -164.5t26.5 -198.5q0 -155 -56 -279t-166 -196t-266 -72q-190 0 -315 109l-143 -166l-72 59l154 177q-56 73 -83.5 167.5t-27.5 200.5zM567 958q-104 0 -182 -55.5
t-120 -154t-42 -226.5q0 -150 62 -262l520 598q-94 100 -238 100zM569 86q108 0 186.5 56.5t119 155.5t40.5 224q0 152 -57 256l-518 -596q43 -46 101 -71t128 -25z" />
    <glyph glyph-name="ugrave" unicode="&#xf9;" 
d="M856 186q-48 -109 -131.5 -160t-206.5 -51q-181 0 -268.5 107t-87.5 291v671h129v-638q0 -135 54 -227.5t194 -92.5q112 0 181 57.5t98.5 143t29.5 174.5v583h129v-872q0 -33 2.5 -89t5.5 -83h-125v186h-4zM498 1452l190 -295h-94l-258 295h162z" />
    <glyph glyph-name="uacute" unicode="&#xfa;" 
d="M856 186q-48 -109 -131.5 -160t-206.5 -51q-181 0 -268.5 107t-87.5 291v671h129v-638q0 -135 54 -227.5t194 -92.5q112 0 181 57.5t98.5 143t29.5 174.5v583h129v-872q0 -33 2.5 -89t5.5 -83h-125v186h-4zM809 1452l-258 -295h-94l190 295h162z" />
    <glyph glyph-name="ucircumflex" unicode="&#xfb;" 
d="M856 186q-48 -109 -131.5 -160t-206.5 -51q-181 0 -268.5 107t-87.5 291v671h129v-638q0 -135 54 -227.5t194 -92.5q112 0 181 57.5t98.5 143t29.5 174.5v583h129v-872q0 -33 2.5 -89t5.5 -83h-125v186h-4zM391 1157h-94l190 295h168l191 -295h-94l-181 209z" />
    <glyph glyph-name="udieresis" unicode="&#xfc;" 
d="M856 186q-48 -109 -131.5 -160t-206.5 -51q-181 0 -268.5 107t-87.5 291v671h129v-638q0 -135 54 -227.5t194 -92.5q112 0 181 57.5t98.5 143t29.5 174.5v583h129v-872q0 -33 2.5 -89t5.5 -83h-125v186h-4zM475 1395v-172h-154v172h154zM825 1395v-172h-153v172h153z" />
    <glyph glyph-name="yacute" unicode="&#xfd;" horiz-adv-x="909" 
d="M178 -332q56 0 91.5 34.5t56 85t45.5 138.5l18 62l-371 1056h142l293 -870h2l301 870h135l-420 -1206q-53 -152 -118 -216t-150 -64q-68 0 -137 16l12 111q22 -9 45 -13t55 -4zM697 1452l-258 -295h-94l190 295h162z" />
    <glyph glyph-name="thorn" unicode="&#xfe;" 
d="M279 1536v-682h4q44 100 125 157.5t200 57.5q213 0 321.5 -143t108.5 -404q0 -162 -50 -286t-147 -192.5t-233 -68.5q-122 0 -199.5 52t-125.5 163h-4v-620h-129v1966h129zM897 522q0 207 -79 321.5t-230 114.5q-104 0 -173.5 -63t-102.5 -162.5t-33 -210.5
q0 -115 34.5 -214.5t104 -160.5t170.5 -61q148 0 228.5 113.5t80.5 322.5z" />
    <glyph glyph-name="ydieresis" unicode="&#xff;" horiz-adv-x="909" 
d="M178 -332q56 0 91.5 34.5t56 85t45.5 138.5l18 62l-371 1056h142l293 -870h2l301 870h135l-420 -1206q-53 -152 -118 -216t-150 -64q-68 0 -137 16l12 111q22 -9 45 -13t55 -4zM360 1395v-172h-154v172h154zM710 1395v-172h-153v172h153z" />
    <glyph glyph-name="dotlessi" unicode="&#x131;" horiz-adv-x="455" 
d="M291 1044v-1044h-129v1044h129z" />
    <glyph glyph-name="Lslash" unicode="&#x141;" horiz-adv-x="909" 
d="M16 391v141l148 105v793h141v-693l359 252v-139l-359 -254v-473h574v-123h-715v496z" />
    <glyph glyph-name="lslash" unicode="&#x142;" horiz-adv-x="455" 
d="M27 592v141l135 109v694h129v-592l135 109v-142l-135 -108v-803h-129v700z" />
    <glyph glyph-name="OE" unicode="&#x152;" horiz-adv-x="1821" 
d="M1010 1430h663v-123h-555v-510h527v-123h-527v-551h580v-123h-690q-28 0 -150 -7t-178 -7q-195 0 -322.5 103t-187 268.5t-59.5 357.5q0 187 58.5 353t186 271t324.5 105q56 0 185 -7t145 -7zM913 1311q-118 8 -200 8q-131 0 -234.5 -62.5t-165 -196.5t-61.5 -339
q0 -245 75 -380.5t178 -182.5t210 -47q73 0 121 2.5t141 9.5v1184q-42 2 -64 4z" />
    <glyph glyph-name="oe" unicode="&#x153;" horiz-adv-x="1821" 
d="M1364 -25q-285 0 -401 213q-63 -105 -165 -159t-237 -54q-153 0 -263 71t-167 195t-57 281q0 156 56 280t166 195.5t265 71.5q147 0 245.5 -59t147.5 -166q116 225 375 225q128 0 221.5 -62t144 -180t50.5 -282v-60h-715q1 -122 44 -212t120.5 -138.5t179.5 -48.5
q68 0 158 24t135 54v-131q-63 -26 -146 -42t-157 -16zM889 522q0 216 -82 326t-248 110q-103 0 -181 -54.5t-120.5 -153.5t-42.5 -228q0 -128 42 -227t120 -154t184 -55q165 0 246.5 107.5t81.5 328.5zM1335 958q-89 0 -158.5 -42.5t-108 -124.5t-38.5 -195h574
q0 96 -30 178.5t-91 133t-148 50.5z" />
    <glyph glyph-name="Scaron" unicode="&#x160;" horiz-adv-x="1024" 
d="M453 98q96 0 168.5 34.5t112.5 100t40 156.5q0 57 -33 104t-91 88t-150 91q-125 67 -203 120.5t-128 125t-50 163.5q0 115 61.5 199.5t165 129t225.5 44.5q72 0 147.5 -12t133.5 -35l-23 -129q-46 26 -115.5 39.5t-144.5 13.5q-84 0 -154 -25.5t-112.5 -81t-42.5 -139.5
q0 -58 34.5 -104.5t94 -86t162.5 -93.5q111 -58 186.5 -110.5t126.5 -130t51 -181.5q0 -132 -65 -223t-172 -136t-234 -45q-93 0 -174.5 17t-146.5 45l14 145q66 -41 142.5 -62.5t173.5 -21.5zM336 1781l180 -209l181 209h94l-191 -295h-168l-190 295h94z" />
    <glyph glyph-name="scaron" unicode="&#x161;" horiz-adv-x="797" 
d="M352 86q68 0 121 23.5t83 66t30 96.5t-31.5 95t-82.5 71t-134 68q-98 44 -154 88t-78 90t-22 100q0 97 46.5 161t123 94t170.5 30q56 0 127.5 -12.5t130.5 -34.5l-12 -113q-51 24 -115.5 36.5t-118.5 12.5q-115 0 -169 -43.5t-54 -130.5q0 -32 18 -58.5t67.5 -57.5
t143.5 -72q116 -49 179 -103t84.5 -107t21.5 -114q0 -100 -52.5 -167t-136.5 -98.5t-178 -31.5q-167 0 -290 50l12 127q61 -31 131 -48.5t139 -17.5zM219 1452l180 -209l181 209h94l-191 -295h-168l-190 295h94z" />
    <glyph glyph-name="Ydieresis" unicode="&#x178;" horiz-adv-x="1251" 
d="M25 1430h163l437 -699l448 699h154l-531 -824v-606h-141v606zM541 1724v-172h-154v172h154zM891 1724v-172h-153v172h153z" />
    <glyph glyph-name="Zcaron" unicode="&#x17d;" horiz-adv-x="1024" 
d="M788 1307h-727v123h877v-123l-741 -1184h766v-123h-920v123zM332 1781l180 -209l181 209h94l-191 -295h-168l-190 295h94z" />
    <glyph glyph-name="zcaron" unicode="&#x17e;" horiz-adv-x="909" 
d="M694 934h-604v110h754v-110l-629 -823h629v-111h-778v109zM274 1466l180 -209l181 209h94l-191 -295h-168l-190 295h94z" />
    <glyph glyph-name="florin" unicode="&#x192;" 
d="M105 -319q17 -5 34.5 -9t32.5 -4q55 0 96 26t74 96t57 196l146 762h-228v110h250l39 205q30 155 85 239t121.5 113t148.5 29q32 0 66.5 -9.5t64.5 -25.5l-27 -102q-63 26 -115 26q-54 0 -92.5 -26t-67.5 -89t-51 -174l-37 -186h236v-110h-258l-145 -742
q-35 -175 -79.5 -271t-111.5 -136.5t-174 -40.5q-52 0 -119 20l33 109z" />
    <glyph glyph-name="circumflex" unicode="&#x2c6;" horiz-adv-x="455" 
d="M47 1171h-94l190 295h168l191 -295h-94l-181 209z" />
    <glyph glyph-name="caron" unicode="&#x2c7;" horiz-adv-x="455" 
d="M47 1466l180 -209l181 209h94l-191 -295h-168l-190 295h94z" />
    <glyph glyph-name="breve" unicode="&#x2d8;" horiz-adv-x="455" 
d="M227 1194q-101 0 -168.5 63.5t-83.5 174.5h62q15 -55 64.5 -85t125.5 -30q78 0 126.5 30t64.5 85h61q-15 -111 -83 -174.5t-169 -63.5z" />
    <glyph glyph-name="dotaccent" unicode="&#x2d9;" horiz-adv-x="455" 
d="M305 1409v-172h-153v172h153z" />
    <glyph glyph-name="ring" unicode="&#x2da;" horiz-adv-x="455" 
d="M227 1133q-56 0 -100.5 26t-70 70t-25.5 98q0 53 25.5 98t70 71t100.5 26q55 0 100 -26.5t71 -71t26 -97.5q0 -54 -26 -98.5t-71 -70t-100 -25.5zM225 1448q-30 0 -58 -15.5t-45.5 -43t-17.5 -62.5q0 -50 36.5 -85.5t86.5 -35.5q53 0 88 35t35 86q0 50 -35 85.5t-90 35.5
z" />
    <glyph glyph-name="ogonek" unicode="&#x2db;" horiz-adv-x="455" 
d="M342 -430q-47 0 -88 18.5t-66.5 52.5t-25.5 78q0 72 61.5 141t186.5 140h57q-91 -73 -133.5 -131t-42.5 -123q0 -50 28 -76t78 -26q42 0 73.5 22t49.5 53l29 -16q-26 -62 -81.5 -97.5t-125.5 -35.5z" />
    <glyph glyph-name="tilde" unicode="&#x2dc;" horiz-adv-x="455" 
d="M332 1241q-32 0 -63 7.5t-75 22.5q-30 11 -51.5 16t-33.5 5q-35 0 -55.5 -16t-35.5 -58h-73q19 89 63 136.5t105 47.5q29 0 66.5 -9t81.5 -24q9 -3 32.5 -10.5t34.5 -7.5q32 0 60.5 18.5t37.5 51.5h76q-11 -84 -58 -132t-112 -48z" />
    <glyph glyph-name="hungarumlaut" unicode="&#x2dd;" horiz-adv-x="455" 
d="M287 1671l-258 -295h-95l191 295h162zM635 1671l-258 -295h-94l190 295h162z" />
    <glyph glyph-name="pi" unicode="&#x3c0;" horiz-adv-x="1186" 
d="M1016 -25q-197 0 -197 220v739h-471v-934h-129v934h-182v110h1093v-110h-182v-715q0 -133 84 -133q30 0 51 6t45 19l7 -111q-40 -13 -64 -19t-55 -6z" />
    <glyph glyph-name="uni060C" unicode="&#x60c;" horiz-adv-x="760" 
d="M514 445l-118 -446h-172l161 446h129z" />
    <glyph glyph-name="uni0615" unicode="&#x615;" horiz-adv-x="0" 
d="M27 1165v486h78v-336q32 53 82.5 82.5t102.5 29.5q86 0 132.5 -53.5t46.5 -145.5v-143h-532v80h90zM280 1349q-60 0 -111 -54q-50 -55 -62 -130h285v56q0 65 -27.5 96.5t-84.5 31.5z" />
    <glyph glyph-name="uni061B" unicode="&#x61b;" horiz-adv-x="760" 
d="M514 800l-118 -446h-172l161 446h129zM397 172v-172h-166v172h166z" />
    <glyph glyph-name="uni061F" unicode="&#x61f;" horiz-adv-x="864" 
d="M268 664q-54 56 -88.5 102t-56 103.5t-21.5 128.5q0 109 45.5 184.5t127 114t189.5 38.5q118 0 273 -47l-5 -118q-79 26 -137 39t-126 13q-67 0 -121 -26.5t-85.5 -77t-31.5 -121.5q0 -89 38.5 -161.5t119.5 -152.5q80 -79 118.5 -165.5t34.5 -199.5h-119q1 73 -16 130.5
t-50.5 107t-88.5 108.5zM556 158v-158h-152v158h152z" />
    <glyph glyph-name="uni0640" unicode="&#x640;" horiz-adv-x="274" 
d="M-72 29v69q0 29 38 29h340q16 0 28 -5.5t12 -17.5v-72q0 -16 -8.5 -24t-29.5 -8h-342q-38 0 -38 29z" />
    <glyph glyph-name="uni0647" unicode="&#x647;" horiz-adv-x="895" 
d="M382 0q-109 0 -195.5 38.5t-136.5 117.5t-50 195q0 140 53 251t141.5 173t191.5 62q99 0 185.5 -57t139.5 -165t53 -253q0 -106 -49 -188.5t-136 -128t-197 -45.5zM384 721q-75 0 -134.5 -46t-93 -123.5t-33.5 -168.5q0 -120 69.5 -188t190.5 -68q127 0 194 65.5
t67 190.5q0 101 -39.5 178t-100 118.5t-120.5 41.5z" />
    <glyph glyph-name="uni064B" unicode="&#x64b;" horiz-adv-x="0" 
d="M214 1642v-57h-432v57h432zM214 1488v-57h-432v57h432z" />
    <glyph glyph-name="uni064C" unicode="&#x64c;" horiz-adv-x="0" 
d="M-207 1628q44 -63 92 -95t96 -32q35 0 83 20q-41 29 -61 65.5t-20 75.5q0 37 17.5 69t48.5 51.5t68 19.5q57 0 92 -34.5t35 -99.5q0 -93 -87 -161q-44 -33 -90 -49.5t-88 -16.5q-116 0 -185 104l-86 -82l-38 42zM188 1664q0 35 -20 57t-53 22t-54 -23t-21 -57
q0 -35 20.5 -65t52.5 -50q34 22 54.5 52t20.5 64z" />
    <glyph glyph-name="uni064D" unicode="&#x64d;" horiz-adv-x="0" 
d="M214 -314v-57h-432v57h432zM214 -468v-57h-432v57h432z" />
    <glyph glyph-name="uni064E" unicode="&#x64e;" horiz-adv-x="0" 
d="M214 1488v-57h-432v57h432z" />
    <glyph glyph-name="uni064F" unicode="&#x64f;" horiz-adv-x="0" 
d="M-34 1501q44 0 97 21q-40 28 -60 64.5t-20 75.5q0 37 17.5 69t48.5 51.5t68 19.5q56 0 91.5 -34t35.5 -100q0 -47 -22.5 -88.5t-66.5 -73.5q-46 -33 -93.5 -49t-97.5 -16q-47 0 -94 9t-86 23l14 60q32 -13 83 -22.5t85 -9.5zM188 1664q0 35 -20 57t-53 22q-31 0 -53 -23
t-22 -57q0 -27 16.5 -59.5t55.5 -55.5q35 23 55.5 53t20.5 63z" />
    <glyph glyph-name="uni0650" unicode="&#x650;" horiz-adv-x="0" 
d="M214 -314v-57h-432v57h432z" />
    <glyph glyph-name="uni0651" unicode="&#x651;" horiz-adv-x="0" 
d="M272 1589q0 -70 -39.5 -114t-107.5 -44q-41 0 -74 16.5t-51 44.5q-22 -28 -54.5 -44.5t-72.5 -16.5q-68 0 -107.5 40.5t-39.5 107.5v160h68v-156q0 -38 24 -60.5t65 -22.5q36 0 60 23t24 63v131h65v-139q0 -37 25 -57.5t61 -20.5q40 0 63 20t23 58v162h68v-151z" />
    <glyph glyph-name="uni0652" unicode="&#x652;" horiz-adv-x="0" 
d="M0 1438q-48 0 -89 23t-65 64.5t-24 93.5q0 50 23.5 91t64 65t90.5 24q48 0 89 -23t65.5 -64t25.5 -93q0 -48 -23.5 -89.5t-64.5 -66.5t-92 -25zM0 1497q50 0 85.5 35.5t35.5 85.5t-35.5 85.5t-85.5 35.5t-86 -35.5t-36 -85.5t36 -85.5t86 -35.5z" />
    <glyph glyph-name="uni0653" unicode="&#x653;" horiz-adv-x="0" 
d="M158 1270q-41 0 -80.5 13t-109.5 45t-112 46t-84 14q-27 0 -53 -14t-47 -35l-44 47q73 79 155 79q39 0 81.5 -14t113.5 -46q70 -32 114.5 -46t83.5 -14q40 0 65 18t48 65l53 -25q-23 -51 -43.5 -77t-53.5 -41t-87 -15z" />
    <glyph glyph-name="uni0654" unicode="&#x654;" horiz-adv-x="0" 
d="M-47 1503q-28 21 -46.5 55.5t-18.5 70.5q0 72 46.5 112.5t131.5 40.5q40 0 78 -6l-13 -71q-24 6 -58 6q-56 0 -85.5 -23.5t-29.5 -65.5q0 -56 44 -87.5t117 -31.5h30v-70h-310v70h114z" />
    <glyph glyph-name="uni0655" unicode="&#x655;" horiz-adv-x="0" 
d="M-47 -424q-28 21 -46.5 55.5t-18.5 70.5q0 72 46.5 112.5t131.5 40.5q40 0 78 -6l-13 -71q-24 6 -58 6q-54 0 -84.5 -23.5t-30.5 -65.5q0 -56 44 -87.5t117 -31.5h30v-70h-310v70h114z" />
    <glyph glyph-name="uni0656" unicode="&#x656;" horiz-adv-x="0" 
d="M33 -344v-356h-65v356h65z" />
    <glyph glyph-name="uni0658" unicode="&#x658;" horiz-adv-x="0" 
d="M162 1532q0 -46 -19.5 -86t-56.5 -64t-88 -24q-52 0 -92 20.5t-62 57.5t-22 83q0 51 24 95.5t62 74.5l33 -24q-29 -31 -41 -58.5t-12 -68.5q0 -46 29.5 -75t79.5 -29q49 0 76.5 28.5t27.5 77.5q0 65 -35 113l33 25q29 -26 46 -65.5t17 -80.5z" />
    <glyph glyph-name="uni0660" unicode="&#x660;" horiz-adv-x="1024" 
d="M610 435l-100 -100l-95 95l100 100z" />
    <glyph glyph-name="uni0661" unicode="&#x661;" horiz-adv-x="1024" 
d="M597 1393v-1393h-134v1393h134z" />
    <glyph glyph-name="uni0662" unicode="&#x662;" horiz-adv-x="1024" 
d="M933 1393v-131h-523l163 -1262h-125l-190 1393h675z" />
    <glyph glyph-name="uni0663" unicode="&#x663;" horiz-adv-x="1024" 
d="M201 1393l28 -245q63 -21 113 -21q84 0 130 55.5t46 160.5q0 32 -4 52h124q0 -82 -10 -142.5t-40 -107.5q71 -29 131 -29q99 0 144 65t45 175q0 29 -2 39h125q-1 -101 -30 -187t-95 -140t-172 -54q-91 0 -201 47q-40 -26 -77 -37t-77 -11q-52 0 -133 22l131 -1035h-126
l-182 1393h132z" />
    <glyph glyph-name="uni0664" unicode="&#x664;" horiz-adv-x="1024" 
d="M426 1164q-82 -79 -82 -138q0 -61 62 -97q69 -39 165 -86q104 -50 104 -86q0 -32 -74 -115q-65 -73 -161 -195q-87 -112 -87 -205q0 -68 73 -104t207 -36q99 0 222 32q-2 -32 -12 -124q-57 -21 -130.5 -32.5t-152.5 -11.5q-151 0 -246 66q-94 66 -94 168q0 104 68 219
q67 114 233 302q-109 48 -170.5 90.5t-87.5 86t-26 96.5q0 85 58.5 173.5t156 157t206.5 96.5v-127q-151 -50 -232 -130z" />
    <glyph glyph-name="uni0665" unicode="&#x665;" horiz-adv-x="1024" 
d="M515 -40q-134 0 -226 61.5t-137 168.5t-45 243q0 156 57 303q31 81 81.5 153.5t122 119.5t155.5 47q132 0 223.5 -103.5t134 -254.5t42.5 -288q0 -110 -45.5 -212t-137.5 -170t-225 -68zM795 450q0 110 -36 214.5t-102 171.5t-151 67q-86 0 -149.5 -72.5t-94.5 -177
t-31 -196.5q0 -168 76 -266q76 -99 216 -99q94 0 155 50.5t89 131.5t28 176z" />
    <glyph glyph-name="uni0666" unicode="&#x666;" horiz-adv-x="1024" 
d="M100 1262v131h626l176 -1393h-124l-167 1262h-511z" />
    <glyph glyph-name="uni0667" unicode="&#x667;" horiz-adv-x="1024" 
d="M148 1393l412 -1158l330 1158h128l-426 -1393h-76l-510 1393h142z" />
    <glyph glyph-name="uni0668" unicode="&#x668;" horiz-adv-x="1024" 
d="M135 0h-129l447 1393h77l489 -1393h-143l-392 1158z" />
    <glyph glyph-name="uni0669" unicode="&#x669;" horiz-adv-x="1024" 
d="M509 694q-130 0 -223 48.5t-140.5 129.5t-47.5 176q0 119 50 210.5t135 142t188 50.5q85 0 158 -41t121 -112.5t60 -160.5l159 -1137h-124l-116 694h-220zM450 1319q-64 0 -115 -31.5t-80 -87t-29 -125.5q0 -126 75.5 -188t213.5 -62h196l-33 261q-14 108 -74.5 170.5
t-153.5 62.5z" />
    <glyph glyph-name="uni066A" unicode="&#x66a;" horiz-adv-x="998" 
d="M330 1149l103 -103l-101 -100l-103 102zM860 1091l-632 -1112l-74 46l637 1112zM653 189l103 -103l-101 -100l-103 102z" />
    <glyph glyph-name="uni066B" unicode="&#x66b;" horiz-adv-x="536" 
d="M401 172l-161 -446h-129l118 446h172z" />
    <glyph glyph-name="uni066C" unicode="&#x66c;" horiz-adv-x="536" 
d="M401 708l-161 -446h-129l118 446h172z" />
    <glyph glyph-name="uni066D" unicode="&#x66d;" horiz-adv-x="954" 
d="M260 721l-29 22l107 250l-236 140l11 43l280 -37l60 270h32l56 -270l282 37l11 -43l-244 -140l112 -250l-28 -22l-205 184z" />
    <glyph glyph-name="uni0670" unicode="&#x670;" horiz-adv-x="0" 
d="M33 1792v-356h-65v356h65z" />
    <glyph glyph-name="uni06C0" unicode="&#x6c0;" horiz-adv-x="895" 
d="M382 0q-109 0 -195.5 38.5t-136.5 117.5t-50 195q0 140 53 251t141.5 173t191.5 62q99 0 185.5 -57t139.5 -165t53 -253q0 -106 -49 -188.5t-136 -128t-197 -45.5zM384 721q-75 0 -134.5 -46t-93 -123.5t-33.5 -168.5q0 -120 69.5 -188t190.5 -68q127 0 194 65.5
t67 190.5q0 101 -39.5 178t-100 118.5t-120.5 41.5zM311 1185q-36 25 -60 70.5t-24 92.5q0 93 60 146t170 53q56 0 102 -8l-17 -92q-41 8 -76 8q-70 0 -109.5 -30t-39.5 -86q0 -71 55.5 -112.5t159.5 -41.5h33v-91h-402v91h148z" />
    <glyph glyph-name="uni06C2" unicode="&#x6c2;" horiz-adv-x="895" 
d="M382 0q-109 0 -195.5 38.5t-136.5 117.5t-50 195q0 140 53 251t141.5 173t191.5 62q99 0 185.5 -57t139.5 -165t53 -253q0 -106 -49 -188.5t-136 -128t-197 -45.5zM384 721q-75 0 -134.5 -46t-93 -123.5t-33.5 -168.5q0 -120 69.5 -188t190.5 -68q127 0 194 65.5
t67 190.5q0 101 -39.5 178t-100 118.5t-120.5 41.5zM321 1185q-36 25 -60 70.5t-24 92.5q0 93 60 146t170 53q56 0 102 -8l-17 -92q-41 8 -76 8q-70 0 -109.5 -30t-39.5 -86q0 -71 55.5 -112.5t159.5 -41.5h33v-91h-402v91h148z" />
    <glyph glyph-name="uni06C3" unicode="&#x6c3;" horiz-adv-x="895" 
d="M382 0q-109 0 -195.5 38.5t-136.5 117.5t-50 195q0 140 53 251t141.5 173t191.5 62q99 0 185.5 -57t139.5 -165t53 -253q0 -106 -49 -188.5t-136 -128t-197 -45.5zM384 721q-75 0 -134.5 -46t-93 -123.5t-33.5 -168.5q0 -120 69.5 -188t190.5 -68q127 0 194 65.5
t67 190.5q0 101 -39.5 178t-100 118.5t-120.5 41.5zM171 1110q0 33 24.5 57t57.5 24q34 0 57.5 -24t23.5 -57q0 -35 -23.5 -58.5t-57.5 -23.5t-58 23.5t-24 58.5zM430 1110q0 33 24.5 57t57.5 24q35 0 58 -23.5t23 -57.5q0 -35 -23 -58.5t-58 -23.5q-34 0 -58 23.5t-24 58.5
z" />
    <glyph glyph-name="uni06D4" unicode="&#x6d4;" horiz-adv-x="634" 
d="M133 69l28 92q44 -19 92.5 -26.5t91.5 -7.5h188v-127h-185q-74 0 -125.5 16t-89.5 53z" />
    <glyph glyph-name="uni06D5" unicode="&#x6d5;" horiz-adv-x="895" 
d="M382 0q-109 0 -195.5 38.5t-136.5 117.5t-50 195q0 140 53 251t141.5 173t191.5 62q99 0 185.5 -57t139.5 -165t53 -253q0 -106 -49 -188.5t-136 -128t-197 -45.5zM384 721q-75 0 -134.5 -46t-93 -123.5t-33.5 -168.5q0 -120 69.5 -188t190.5 -68q127 0 194 65.5
t67 190.5q0 101 -39.5 178t-100 118.5t-120.5 41.5z" />
    <glyph glyph-name="uni06F0" unicode="&#x6f0;" horiz-adv-x="1024" 
d="M610 435l-100 -100l-95 95l100 100z" />
    <glyph glyph-name="uni06F1" unicode="&#x6f1;" horiz-adv-x="1024" 
d="M597 1393v-1393h-134v1393h134z" />
    <glyph glyph-name="uni06F2" unicode="&#x6f2;" horiz-adv-x="1024" 
d="M933 1393v-131h-523l163 -1262h-125l-190 1393h675z" />
    <glyph glyph-name="uni06F3" unicode="&#x6f3;" horiz-adv-x="1024" 
d="M201 1393l28 -245q63 -21 113 -21q84 0 130 55.5t46 160.5q0 32 -4 52h124q0 -82 -10 -142.5t-40 -107.5q71 -29 131 -29q99 0 144 65t45 175q0 29 -2 39h125q-1 -101 -30 -187t-95 -140t-172 -54q-91 0 -201 47q-40 -26 -77 -37t-77 -11q-52 0 -133 22l131 -1035h-126
l-182 1393h132z" />
    <glyph glyph-name="uni06F4" unicode="&#x6f4;" horiz-adv-x="1024" 
d="M144 1393l39 -311q66 -22 137.5 -36t159.5 -26q-55 35 -87.5 99.5t-32.5 133.5q0 78 36.5 134t99.5 84.5t141 28.5q27 0 49 -3v-97q-112 0 -164 -40.5t-52 -122.5q0 -128 151 -222q94 8 148.5 41t83 95.5t44.5 161.5h124q-18 -202 -123 -312.5t-279 -110.5
q-98 0 -198.5 15.5t-219.5 50.5l123 -956h-129l-186 1393h135z" />
    <glyph glyph-name="uni06F5" unicode="&#x6f5;" horiz-adv-x="1024" 
d="M316 -16q-133 0 -204.5 118t-71.5 336q0 141 25.5 290.5t83 290t144.5 242.5q115 133 224 133q125 0 239 -124q128 -139 187.5 -357.5t59.5 -450.5q0 -234 -70 -356.5t-200 -122.5q-60 0 -109.5 17t-101.5 58q-43 -35 -99.5 -54.5t-106.5 -19.5zM680 114q185 0 185 414
q0 162 -46.5 327t-137.5 283q-86 110 -166 110q-74 0 -156 -112q-88 -118 -136.5 -283.5t-48.5 -327.5q0 -210 49.5 -309.5t158.5 -99.5q44 0 78 14.5t65 45.5q32 -32 67.5 -47t87.5 -15z" />
    <glyph glyph-name="uni06F6" unicode="&#x6f6;" horiz-adv-x="1024" 
d="M514 531q-150 89 -228.5 210.5t-78.5 258.5q0 131 60 231t165.5 155t237.5 55q47 0 110 -8t126 -23v-128q-49 15 -95 20.5t-115 5.5q-91 0 -170 -33.5t-127.5 -103.5t-48.5 -172q0 -111 67.5 -211.5t193.5 -172.5q174 146 330 251l82 -99q-302 -217 -499 -402t-389 -426
l-100 94q225 269 479 498z" />
    <glyph glyph-name="uni06F7" unicode="&#x6f7;" horiz-adv-x="1024" 
d="M151 1393l412 -1158l330 1158h128l-426 -1393h-76l-510 1393h142z" />
    <glyph glyph-name="uni06F8" unicode="&#x6f8;" horiz-adv-x="1024" 
d="M158 0h-129l447 1393h77l489 -1393h-143l-392 1158z" />
    <glyph glyph-name="uni06F9" unicode="&#x6f9;" horiz-adv-x="1024" 
d="M509 694q-130 0 -223 48.5t-140.5 129.5t-47.5 176q0 119 50 210.5t135 142t188 50.5q85 0 158 -41t121 -112.5t60 -160.5l159 -1137h-124l-116 694h-220zM450 1319q-64 0 -115 -31.5t-80 -87t-29 -125.5q0 -126 75.5 -188t213.5 -62h196l-33 261q-14 108 -74.5 170.5
t-153.5 62.5z" />
    <glyph glyph-name="uni2002" unicode="&#x2002;" horiz-adv-x="1024" 
 />
    <glyph glyph-name="uni2003" unicode="&#x2003;" horiz-adv-x="2048" 
 />
    <glyph glyph-name="uni2009" unicode="&#x2009;" horiz-adv-x="205" 
 />
    <glyph glyph-name="uni200A" unicode="&#x200a;" horiz-adv-x="41" 
 />
    <glyph glyph-name="uni200C" unicode="&#x200c;" horiz-adv-x="0" 
d="M139 1858l-106 -107l106 -106l-33 -33l-106 104l-109 -106l-32 35l106 106l-106 107l32 34l109 -108l106 106z" />
    <glyph glyph-name="uni200D" unicode="&#x200d;" horiz-adv-x="0" 
d="M158 1634v95h-314v-95h-47v142h408v-142h-47z" />
    <glyph glyph-name="uni200E" unicode="&#x200e;" horiz-adv-x="0" 
d="M20 1645l84 84h-258v47h258l-84 82l33 34l142 -141l-142 -141z" />
    <glyph glyph-name="uni200F" unicode="&#x200f;" horiz-adv-x="0" 
d="M-104 1776h260v-47h-258l82 -84l-33 -33l-142 139l142 141l33 -32z" />
    <glyph glyph-name="endash" unicode="&#x2013;" horiz-adv-x="1024" 
d="M1024 606v-110h-1024v110h1024z" />
    <glyph glyph-name="emdash" unicode="&#x2014;" horiz-adv-x="2048" 
d="M2048 606v-110h-2048v110h2048z" />
    <glyph glyph-name="quoteleft" unicode="&#x2018;" horiz-adv-x="569" 
d="M422 1430l-121 -447h-154l158 447h117z" />
    <glyph glyph-name="quoteright" unicode="&#x2019;" horiz-adv-x="569" 
d="M422 1430l-158 -447h-117l121 447h154z" />
    <glyph glyph-name="quotesinglbase" unicode="&#x201a;" horiz-adv-x="569" 
d="M422 172l-158 -446h-117l121 446h154z" />
    <glyph glyph-name="quotedblleft" unicode="&#x201c;" 
d="M526 1430l-120 -447h-154l158 447h116zM887 1430l-121 -447h-154l158 447h117z" />
    <glyph glyph-name="quotedblright" unicode="&#x201d;" 
d="M526 1430l-157 -447h-117l121 447h153zM887 1430l-158 -447h-117l121 447h154z" />
    <glyph glyph-name="quotedblbase" unicode="&#x201e;" 
d="M526 172l-155 -446h-119l121 446h153zM887 172l-158 -446h-117l121 446h154z" />
    <glyph glyph-name="dagger" unicode="&#x2020;" 
d="M145 934v110h359v386h129v-386h360v-110h-360v-934h-129v934h-359z" />
    <glyph glyph-name="daggerdbl" unicode="&#x2021;" 
d="M145 385v111h359v438h-359v110h359v386h129v-386h360v-110h-360v-438h360v-111h-360v-385h-129v385h-359z" />
    <glyph glyph-name="bullet" unicode="&#x2022;" horiz-adv-x="1024" 
d="M512 358q-95 0 -177 47.5t-130.5 129.5t-48.5 180q0 95 47 177.5t129 131.5t180 49q95 0 177.5 -48t131.5 -130t49 -180t-48.5 -179.5t-131 -129.5t-178.5 -48z" />
    <glyph glyph-name="ellipsis" unicode="&#x2026;" horiz-adv-x="2048" 
d="M426 172v-172h-166v172h166zM1108 172v-172h-166v172h166zM1790 172v-172h-166v172h166z" />
    <glyph glyph-name="uni202A" unicode="&#x202a;" horiz-adv-x="0" 
d="M20 1645l84 84h-102v47h102l-84 82l33 34l142 -141l-142 -141zM-57 1729h-117v47h117v-47z" />
    <glyph glyph-name="uni202B" unicode="&#x202b;" horiz-adv-x="0" 
d="M-104 1776h102v-47h-100l82 -84l-33 -33l-142 139l142 141l33 -32zM174 1729h-117v47h117v-47z" />
    <glyph glyph-name="uni202C" unicode="&#x202c;" horiz-adv-x="0" 
d="M23 1817v-209h-48v207l-81 -82l-35 32l141 142l141 -142l-35 -32z" />
    <glyph glyph-name="uni202D" unicode="&#x202d;" horiz-adv-x="0" 
d="M-43 1610l-33 35l84 84h-219v47h217l-82 82l33 34l141 -141zM90 1610l-33 35l109 106l-109 107l33 34l141 -141z" />
    <glyph glyph-name="uni202E" unicode="&#x202e;" horiz-adv-x="0" 
d="M-164 1800l107 -106l-33 -35l-141 141l141 142l33 -35zM-6 1823h219v-47h-219l84 -82l-35 -35l-139 141l139 142l35 -35z" />
    <glyph glyph-name="perthousand" unicode="&#x2030;" horiz-adv-x="2048" 
d="M1186 1475l-846 -1520h-119l846 1520h119zM86 1081q0 185 66.5 274t203.5 89q139 0 205 -90t66 -273q0 -186 -67 -274t-204 -88q-136 0 -203 89t-67 273zM498 1085q0 85 -11 141t-42.5 88t-90.5 32q-80 0 -109.5 -66t-29.5 -195q0 -80 8 -135.5t39 -94t94 -38.5
q64 0 95 39t39 94t8 135zM778 348q0 185 66.5 274t204.5 89t204 -90t66 -273q0 -186 -67 -274t-203 -88q-137 0 -204 88.5t-67 273.5zM1421 348q0 185 66.5 274t204.5 89t204 -90t66 -273q0 -186 -67 -274t-203 -88q-137 0 -204 88.5t-67 273.5zM1190 352q0 85 -11 140.5
t-42.5 87.5t-89.5 32q-81 0 -110.5 -65.5t-29.5 -194.5q0 -81 8.5 -136.5t39.5 -93.5t94 -38q64 0 94.5 39t38.5 94t8 135zM1833 352q0 85 -11 140.5t-42.5 87.5t-89.5 32q-81 0 -110.5 -65.5t-29.5 -194.5q0 -81 8.5 -136.5t39.5 -93.5t94 -38q64 0 94.5 39t38.5 94t8 135z
" />
    <glyph glyph-name="guilsinglleft" unicode="&#x2039;" horiz-adv-x="569" 
d="M367 971h120l-272 -420l272 -420h-120l-287 420z" />
    <glyph glyph-name="guilsinglright" unicode="&#x203a;" horiz-adv-x="569" 
d="M82 971h121l286 -420l-286 -420h-121l272 420z" />
    <glyph glyph-name="fraction" unicode="&#x2044;" horiz-adv-x="342" 
d="M651 1475l-846 -1520h-116l846 1520h116z" />
    <glyph glyph-name="Euro" unicode="&#x20ac;" 
d="M864 -25q-169 0 -304 64.5t-224 188t-123 296.5h-184l22 99h150q-4 56 -4 96q0 18 4 88h-172l22 98h164q31 159 118 283.5t224 195t309 70.5q179 0 293 -51l-26 -129q-103 59 -267 59q-126 0 -229 -50t-174 -146.5t-103 -231.5h699l-23 -98h-694q-4 -29 -4 -90
q0 -64 4 -94h657l-20 -99h-619q30 -132 100 -228t173 -147t231 -51q160 0 269 56l12 -131q-111 -48 -281 -48z" />
    <glyph glyph-name="afii61289" unicode="&#x2113;" horiz-adv-x="1024" 
d="M586 -29q-117 0 -180.5 67.5t-63.5 182.5v271l-123 -134l-45 58l168 172v549q0 98 30 175.5t85 121t127 43.5q94 0 148 -68t54 -184q0 -290 -340 -658v-327q0 -88 42.5 -137.5t117.5 -49.5q94 0 182 82l43 -57q-106 -107 -245 -107zM698 1214q0 52 -15 95t-41.5 67.5
t-59.5 24.5q-40 0 -71 -30.5t-48 -87.5t-17 -134v-483q122 141 187 282.5t65 265.5z" />
    <glyph glyph-name="trademark" unicode="&#x2122;" horiz-adv-x="2028" 
d="M131 1331v99h666v-99h-269v-749h-129v749h-268zM1763 1319l-282 -737h-88l-281 737h-4v-737h-129v848h209l250 -654l250 654h208v-848h-129v737h-4z" />
    <glyph glyph-name="uni2126" unicode="&#x2126;" horiz-adv-x="1524" 
d="M1239 752q0 162 -58 294t-165.5 208.5t-251.5 76.5q-152 0 -262.5 -74t-168 -204.5t-57.5 -298.5q0 -175 84.5 -340t235.5 -291l6 -123h-477v123h305q-146 126 -220.5 286.5t-74.5 342.5q0 183 70.5 343t212.5 259.5t346 99.5q220 0 358.5 -106t198 -261.5t59.5 -312.5
q0 -155 -49.5 -285t-117.5 -220.5t-134 -145.5h320v-123h-486l7 123q153 123 236 286.5t83 342.5z" />
    <glyph glyph-name="estimated" unicode="&#x212e;" horiz-adv-x="1229" 
d="M618 -35q-155 0 -275.5 74t-186.5 203t-66 288q0 160 66 289t186 203t276 74q151 0 272 -69.5t190 -198t69 -298.5h-827v-370q119 -121 296 -121q132 0 225.5 59.5t170.5 186.5l71 -43q-64 -102 -132 -162.5t-149 -87.5t-186 -27zM614 1024q-169 0 -292 -123v-297h596
v297q-129 123 -304 123z" />
    <glyph glyph-name="partialdiff" unicode="&#x2202;" horiz-adv-x="1104" 
d="M874 842q0 205 -57 348.5t-147.5 215t-190.5 71.5q-149 0 -272 -97l-47 93q136 110 332 110q141 0 256 -88.5t183 -260.5t68 -411t-61 -427t-179 -295t-284 -107q-122 0 -209.5 63.5t-132.5 169t-45 230.5q0 152 60.5 268t159.5 179t212 63q111 0 205 -58t143 -147h4
q2 14 2 80zM539 862q-88 0 -162 -55t-117 -147.5t-43 -200.5q0 -102 32.5 -183.5t93.5 -128.5t142 -47q98 0 176.5 70t127.5 190t65 269q-23 60 -69.5 113.5t-110 86.5t-135.5 33z" />
    <glyph glyph-name="uni2206" unicode="&#x2206;" horiz-adv-x="1346" 
d="M762 1430l547 -1430h-1272l565 1430h160zM1114 123l-438 1171l-453 -1171h891z" />
    <glyph glyph-name="product" unicode="&#x220f;" horiz-adv-x="1473" 
d="M299 1462v-1900h-160v2048h1192v-2048h-160v1900h-872z" />
    <glyph glyph-name="summation" unicode="&#x2211;" horiz-adv-x="1260" 
d="M711 594l-631 885v131h1102v-148h-895l616 -868l-653 -885h956v-147h-1155v131z" />
    <glyph glyph-name="minus" unicode="&#x2212;" horiz-adv-x="1229" 
d="M1133 590v-141h-1039v141h1039z" />
    <glyph glyph-name="radical" unicode="&#x221a;" horiz-adv-x="1032" 
d="M39 201l-57 123l229 106l309 -649l377 1829h156l-432 -2048h-154l-332 684z" />
    <glyph glyph-name="infinity" unicode="&#x221e;" horiz-adv-x="1554" 
d="M387 203q-89 0 -157 40t-106 111.5t-38 161.5q0 91 37 164t105 114.5t155 41.5q93 0 183.5 -53.5t211.5 -180.5l84 84q68 68 143 111t160 43q88 0 157 -40.5t107.5 -113t38.5 -164.5q0 -93 -37.5 -166t-106 -114t-157.5 -41q-91 0 -185.5 53t-203.5 170l-98 -88
q-71 -63 -141 -98t-152 -35zM1174 340q73 0 117 48t44 128q0 83 -45.5 133.5t-124.5 50.5q-60 0 -130.5 -45t-168.5 -141q100 -97 168.5 -135.5t139.5 -38.5zM383 698q-47 0 -84.5 -23.5t-58.5 -65t-21 -93.5q0 -81 46.5 -128.5t123.5 -47.5q129 0 301 174
q-104 98 -175.5 141t-131.5 43z" />
    <glyph glyph-name="integral" unicode="&#x222b;" horiz-adv-x="1135" 
d="M696 1610q73 0 118.5 -31t45.5 -84q0 -36 -24.5 -57t-61.5 -21q-25 0 -42.5 14.5t-35.5 40.5q-12 17 -20 25t-17 8q-63 0 -63 -190q0 -35 4 -178v-1133q0 -250 -69.5 -345t-188.5 -95q-58 0 -99.5 29.5t-41.5 76.5q0 29 23 51.5t52 22.5q25 0 41.5 -14.5t33.5 -40.5
q11 -16 17.5 -23.5t14.5 -7.5q30 0 43.5 57.5t13.5 182.5v1325q0 387 256 387z" />
    <glyph glyph-name="approxequal" unicode="&#x2248;" horiz-adv-x="1214" 
d="M883 551q-59 0 -131.5 20t-181.5 61q-90 33 -146.5 49.5t-97.5 16.5q-58 0 -101 -43.5t-53 -115.5h-106q22 148 89.5 225.5t174.5 77.5q57 0 124 -19t165 -56q98 -36 158.5 -53.5t113.5 -17.5q59 0 98.5 39t54.5 113h103q-16 -142 -84.5 -219.5t-179.5 -77.5zM883 182
q-59 0 -131 20t-183 61q-88 33 -144.5 50t-98.5 17q-58 0 -100.5 -44t-53.5 -116h-106q22 149 89.5 226t174.5 77q58 0 124.5 -18.5t167.5 -56.5q99 -37 158 -53.5t111 -16.5q59 0 98.5 38.5t54.5 112.5h103q-16 -142 -84.5 -219.5t-179.5 -77.5z" />
    <glyph glyph-name="notequal" unicode="&#x2260;" horiz-adv-x="1214" 
d="M256 0l121 233h-289v148h365l137 260h-502v145h580l157 304l127 -66l-125 -238h299v-145h-374l-138 -260h512v-148h-587l-156 -299z" />
    <glyph glyph-name="lessequal" unicode="&#x2264;" horiz-adv-x="1214" 
d="M1126 1081v-159l-835 -299l835 -297v-158l-1038 377v153zM1126 86v-147h-1038v147h1038z" />
    <glyph glyph-name="greaterequal" unicode="&#x2265;" horiz-adv-x="1214" 
d="M924 623l-836 299v159l1038 -383v-153l-1038 -377v158zM1126 86v-147h-1038v147h1038z" />
    <glyph glyph-name="lozenge" unicode="&#x25ca;" horiz-adv-x="1214" 
d="M532 1530h148l352 -801l-352 -801h-148l-350 801zM338 729l268 -645l271 645l-271 645z" />
    <glyph glyph-name="uni25CC" unicode="&#x25cc;" horiz-adv-x="823" 
d="M412 598q-50 0 -50 51q0 49 50 49q49 0 49 -49q0 -25 -12.5 -38t-36.5 -13zM256 561q-45 0 -45 49t45 49q25 0 38 -12.5t13 -36.5q0 -49 -51 -49zM565 561q-23 0 -37 13t-14 36q0 24 14 36.5t37 12.5q47 0 47 -49t-47 -49zM143 446q-47 0 -47 52q0 47 47 47q52 0 52 -47
q0 -52 -52 -52zM680 446q-49 0 -49 52q0 47 49 47q47 0 47 -47q0 -52 -47 -52zM104 295q-47 0 -47 47q0 49 47 49q26 0 39 -11.5t13 -37.5q0 -47 -52 -47zM717 295q-47 0 -47 47q0 49 47 49q49 0 49 -49q0 -47 -49 -47zM143 141q-47 0 -47 47q0 50 47 50q52 0 52 -50
q0 -47 -52 -47zM680 141q-49 0 -49 47q0 50 49 50q47 0 47 -50q0 -47 -47 -47zM256 27q-45 0 -45 47q0 51 45 51q51 0 51 -51q0 -47 -51 -47zM565 27q-23 0 -37 11.5t-14 35.5q0 23 14.5 37t36.5 14q47 0 47 -51q0 -47 -47 -47zM412 -12q-50 0 -50 49t50 49q49 0 49 -49
t-49 -49z" />
    <glyph glyph-name="uni274A" unicode="&#x274a;" horiz-adv-x="778" 
d="M186 995l-30 21l112 160l-186 61l14 41l187 -64v203h39v-205l190 64l12 -37l-184 -65l115 -156l-31 -25l-117 164z" />
    <glyph glyph-name="fi" unicode="&#xfb01;" 
d="M39 934v110h211v134q0 142 31 226.5t91 120.5t152 36q35 0 70.5 -5.5t52.5 -15.5l-8 -113q-20 11 -47 17t-55 6q-80 0 -119 -53t-39 -174v-179h235v-110h-235v-934h-129v934h-211zM955 1495v-172h-129v172h129zM955 1044v-1044h-129v1044h129z" />
    <glyph glyph-name="fl" unicode="&#xfb02;" 
d="M39 934v110h211v134q0 142 31 226.5t91 120.5t152 36q35 0 70.5 -5.5t52.5 -15.5l-8 -113q-20 11 -47 17t-55 6q-80 0 -119 -53t-39 -174v-179h235v-110h-235v-934h-129v934h-211zM955 1536v-1536h-129v1536h129z" />
    <glyph glyph-name="uniFD3E" unicode="&#xfd3e;" horiz-adv-x="1251" 
d="M692 205q12 -114 79 -237q69 -128 155 -228q91 -108 103 -120q15 -15 15 -29q0 -7 -4.5 -13t-13.5 -6q-43 0 -165 113q-121 112 -228 258q-105 145 -135 260l-162 -29q-25 0 -25 23q0 16 39 68l56 75l23 31q40 53 40 68q0 12 -6 19t-17 7q-21 0 -114 -87
q-91 -87 -117 -87q-29 0 -29 52v114q-131 48 -131 108q0 48 131 113v131q0 17 7.5 27t21.5 10q10 0 30 -17q14 -11 147 -125l20 -18q19 -16 33 -16q12 0 19 6.5t7 16.5q0 15 -46 76q-12 18 -22.5 31.5t-18.5 24.5q-37 50 -54 75.5t-17 35.5q0 23 25 23l162 -29
q31 117 137 262q104 144 226 257q121 112 165 112q9 0 13.5 -6t4.5 -12q0 -10 -8 -21l-98 -115q-92 -108 -161 -232q-72 -128 -85 -247l68 10q46 7 58 7q10 0 16 -5.5t6 -15.5q0 -15 -39 -57l-88 -98q-49 -55 -49 -72q0 -19 22 -19q21 0 64 34q28 22 101 76q56 43 71 43
q18 0 18 -40v-113q64 -23 98.5 -53t34.5 -58q0 -57 -133 -112v-115q0 -45 -18 -45q-10 0 -23 10l-87 66q-18 13 -31.5 24t-24.5 19l-36 27q-19 14 -36 14q-22 0 -22 -21q0 -22 88 -113t88 -112t-22 -21l-19 2zM627 867q9 63 25 113q18 56 48 124v97q-48 -51 -95 -145
q-44 -86 -71 -187l-141 33l107 -152v66h49l39 67h4v-67h47v-60l125 129l-6 6zM303 543q-27 4 -63 24q21 19 63 25v41h96v4l-157 123v-119q-70 -23 -101.5 -40t-31.5 -32q0 -20 32.5 -38.5t100.5 -36.5v-115l157 115v4h-96v45zM1022 567q0 19 -42 41q-40 22 -89 33v117
l-156 -117l2 -4h88v-43q42 -5 70 -27q-28 -18 -69 -24v-41h-91l-6 -4l162 -119v117q131 39 131 71zM676 571q0 44 -31.5 76.5t-76.5 32.5q-42 0 -73.5 -32t-31.5 -75q0 -44 30.5 -75t75.5 -33q43 0 75 31t32 75zM625 266l131 -24l6 6l-125 129v-60h-47v-67h-4l-39 67h-49v66
l-107 -152l137 32h4q26 -97 72 -191q47 -93 94 -140v97q-30 63 -47 118.5t-26 118.5z" />
    <glyph glyph-name="uniFD3F" unicode="&#xfd3f;" horiz-adv-x="1251" 
d="M613 -58q-102 -141 -227 -257q-122 -113 -165 -113q-9 0 -13.5 6t-4.5 13q0 11 7 19l97 113q88 103 161 232q73 127 87 250l-54 -8q-25 -5 -52 -8l-20 -1q-10 0 -16 5.5t-6 15.5q0 20 88 111q88 92 88 114q0 21 -22 21q-17 0 -37 -14l-88 -68q-71 -53 -87 -66
q-16 -12 -26 -12q-18 0 -18 45v115q-133 55 -133 112q0 29 35.5 58t97.5 53v113q0 40 18 40q15 0 70 -43q73 -54 101 -76q43 -34 65 -34t22 19q0 24 -88 116t-88 111q0 21 22 21l29 -3l97 -14q-13 125 -89 255q-73 129 -164 234l-95 110q-4 5 -4 16q0 8 4.5 13t13.5 5
q43 0 165 -113q123 -113 227 -257q104 -143 136 -261l162 29q25 0 25 -23q0 -17 -34 -61l-79 -106q-45 -61 -45 -76q0 -10 7 -16.5t19 -6.5q22 0 116 88q95 88 114 88q14 0 21.5 -10.5t7.5 -26.5v-131q67 -36 99 -63t32 -50q0 -60 -131 -108v-114q0 -52 -29 -52
q-22 0 -117 87q-94 87 -114 87q-23 0 -23 -26q0 -12 51 -83l34 -46q43 -58 58 -80t15 -33q0 -23 -24 -23l-163 29q-32 -117 -136 -261zM642 1057q-48 95 -95 144v-97q32 -73 48 -124q16 -50 25 -113l-131 24l-6 -6l125 -129v60h47v67h4l39 -67h49v-66l107 152l-141 -33
q-27 101 -71 188zM1138 569q0 14 -32 31.5t-101 40.5v119l-157 -123v-4h96v-41q41 -6 63 -25q-31 -19 -62 -24v-45h-97v-4l157 -115v115q133 34 133 75zM422 543q-44 6 -70 24q28 22 70 27v43h88l2 4l-156 117v-117q-48 -11 -90 -33q-41 -23 -41 -41q0 -32 131 -71v-117
l162 119l-6 4h-90v41zM678 465q43 0 74.5 32t31.5 76q0 43 -31 75t-76 32q-43 0 -74.5 -32t-31.5 -77q0 -43 31.5 -74.5t75.5 -31.5zM700 317l-39 -67h-4v67h-47v60l-125 -129l6 -6l131 24q-9 -62 -26.5 -117t-46.5 -120v-97q47 47 93 140q47 92 73 192l141 -33l-107 152
v-66h-49z" />
    <glyph glyph-name="uni0640.narrow" horiz-adv-x="68" 
d="M-72 29v69q0 29 38 29h134q18 0 29 -6t11 -17v-72q0 -16 -8.5 -24t-29.5 -8h-136q-38 0 -38 29z" />
    <glyph glyph-name="uni0640.long" horiz-adv-x="345" 
d="M-72 29v69q0 29 38 29h411q16 0 28 -5.5t12 -17.5v-72q0 -19 -10.5 -25.5t-26.5 -6.5h-414q-38 0 -38 29z" />
    <glyph glyph-name="uni064B0651" horiz-adv-x="0" 
d="M272 1589q0 -70 -39.5 -114t-107.5 -44q-41 0 -74 16.5t-51 44.5q-22 -28 -54.5 -44.5t-72.5 -16.5q-68 0 -107.5 40.5t-39.5 107.5v160h68v-156q0 -38 24 -60.5t65 -22.5q36 0 60 23t24 63v131h65v-139q0 -37 25 -57.5t61 -20.5q40 0 63 20t23 58v162h68v-151zM214 2067
v-57h-432v57h432zM214 1913v-57h-432v57h432z" />
    <glyph glyph-name="uni06540651" horiz-adv-x="0" 
d="M-47 1503q-28 21 -46.5 55.5t-18.5 70.5q0 72 46.5 112.5t131.5 40.5q40 0 78 -6l-13 -71q-24 6 -58 6q-56 0 -85.5 -23.5t-29.5 -65.5q0 -56 44 -87.5t117 -31.5h30v-70h-310v70h114zM214 2142v-57h-432v57h432zM214 1988v-57h-432v57h432z" />
    <glyph glyph-name="uni0654064E" horiz-adv-x="0" 
d="M-47 1503q-28 21 -46.5 55.5t-18.5 70.5q0 72 46.5 112.5t131.5 40.5q40 0 78 -6l-13 -71q-24 6 -58 6q-56 0 -85.5 -23.5t-29.5 -65.5q0 -56 44 -87.5t117 -31.5h30v-70h-310v70h114zM214 1988v-57h-432v57h432z" />
    <glyph glyph-name="uni0654064C" horiz-adv-x="0" 
d="M-47 1503q-28 21 -46.5 55.5t-18.5 70.5q0 72 46.5 112.5t131.5 40.5q40 0 78 -6l-13 -71q-24 6 -58 6q-56 0 -85.5 -23.5t-29.5 -65.5q0 -56 44 -87.5t117 -31.5h30v-70h-310v70h114zM-207 2128q44 -63 92 -95t96 -32q35 0 83 20q-41 29 -61 65.5t-20 75.5q0 37 17.5 69
t48.5 51.5t68 19.5q57 0 92 -34.5t35 -99.5q0 -93 -87 -161q-44 -33 -90 -49.5t-88 -16.5q-116 0 -185 104l-86 -82l-38 42zM188 2164q0 35 -20 57t-53 22t-54 -23t-21 -57q0 -35 20.5 -65t52.5 -50q34 22 54.5 52t20.5 64z" />
    <glyph glyph-name="uni0654064F" horiz-adv-x="0" 
d="M-47 1503q-28 21 -46.5 55.5t-18.5 70.5q0 72 46.5 112.5t131.5 40.5q40 0 78 -6l-13 -71q-24 6 -58 6q-56 0 -85.5 -23.5t-29.5 -65.5q0 -56 44 -87.5t117 -31.5h30v-70h-310v70h114zM-34 2001q44 0 97 21q-40 28 -60 64.5t-20 75.5q0 37 17.5 69t48.5 51.5t68 19.5
q56 0 91.5 -34t35.5 -100q0 -47 -22.5 -88.5t-66.5 -73.5q-46 -33 -93.5 -49t-97.5 -16q-47 0 -94 9t-86 23l14 60q32 -13 83 -22.5t85 -9.5zM188 2164q0 35 -20 57t-53 22q-31 0 -53 -23t-22 -57q0 -27 16.5 -59.5t55.5 -55.5q35 23 55.5 53t20.5 63z" />
    <glyph glyph-name="uni06540652" horiz-adv-x="0" 
d="M-47 1503q-28 21 -46.5 55.5t-18.5 70.5q0 72 46.5 112.5t131.5 40.5q40 0 78 -6l-13 -71q-24 6 -58 6q-56 0 -85.5 -23.5t-29.5 -65.5q0 -56 44 -87.5t117 -31.5h30v-70h-310v70h114zM0 1938q-48 0 -89 23t-65 64.5t-24 93.5q0 50 23.5 91t64 65t90.5 24q48 0 89 -23
t65.5 -64t25.5 -93q0 -48 -23.5 -89.5t-64.5 -66.5t-92 -25zM0 1997q50 0 85.5 35.5t35.5 85.5t-35.5 85.5t-85.5 35.5t-86 -35.5t-36 -85.5t36 -85.5t86 -35.5z" />
    <glyph glyph-name="uni06550650" horiz-adv-x="0" 
d="M-47 -424q-28 21 -46.5 55.5t-18.5 70.5q0 72 46.5 112.5t131.5 40.5q40 0 78 -6l-13 -71q-24 6 -58 6q-54 0 -84.5 -23.5t-30.5 -65.5q0 -56 44 -87.5t117 -31.5h30v-70h-310v70h114zM214 -609v-57h-432v57h432z" />
    <glyph glyph-name="uni0655064D" horiz-adv-x="0" 
d="M-47 -424q-28 21 -46.5 55.5t-18.5 70.5q0 72 46.5 112.5t131.5 40.5q40 0 78 -6l-13 -71q-24 6 -58 6q-54 0 -84.5 -23.5t-30.5 -65.5q0 -56 44 -87.5t117 -31.5h30v-70h-310v70h114zM214 -609v-57h-432v57h432zM214 -763v-57h-432v57h432z" />
    <glyph glyph-name="uni064406440647" horiz-adv-x="2315" 
d="M1414 82q-27 -39 -72 -60.5t-101 -21.5h-320q-189 0 -243 166q-92 -47 -173.5 -69.5t-179.5 -22.5q-84 0 -158.5 30.5t-120.5 92.5t-46 152q0 182 170 308t497 190v92h127v-642q0 -60 11 -96t42.5 -55t93.5 -19h268q66 0 93.5 33.5t27.5 116.5v1161h129v-1199
q0 -16 -5 -53q108 -59 252 -59h321v1310h128v-1437h-450q-84 0 -153.5 18t-137.5 64zM262 596q-147 -97 -147 -222q0 -87 64 -136q65 -50 170 -50q85 0 170 24t148 66v451q-257 -36 -405 -133z" />
    <glyph glyph-name="uniFDFA.Farsi" horiz-adv-x="2165" 
d="M1395 1391q116 51 192 92q-19 -54 -87 -85l-370 -169l46 74q103 36 219 88zM403 1428q0 17 17 30q12 -16 19 -34.5t7 -33.5q0 -20 -9.5 -30t-22.5 -10q-7 0 -15 3t-14 7q-10 -19 -35 -19q-22 0 -36.5 15t-14.5 43q0 17 3.5 24.5t12.5 8.5h2q0 -50 29 -50q14 0 14 15
q0 6 -5 17.5t-5 16.5q0 17 11 17q10 0 14 -19q4 -16 11.5 -27t24.5 -11h7q-15 33 -15 37zM1797 1298q-92 -45 -298 -135q16 -12 16 -27q0 -31 -30 -70q-26 -34 -42 -34h-5l-2 6q0 4 12 26q12 23 12 38q0 21 -24 22q-24 2 -24 5q0 18 37 49q36 31 60 40l446 197l-34 -51
q-38 -24 -124 -66zM734 1083q-83 174 -89 197q-2 12 -2 20q0 24 7 52q11 47 23 51q9 0 13 -13q4 -11 37 -50q29 -34 61 -58q14 -11 15 -15v-2q0 -5 -17 -5l-51 4q61 -128 83 -195q24 -71 24 -152q0 -17 -2 -30t-9 -29l-6 -4q-4 56 -87 229zM1647 842q-5 -8 -22.5 -33
t-26.5 -35t-15 -10q-4 0 -4 4v4q0 11 8.5 32.5t20.5 45.5q-25 19 -46 47.5t-30 63.5h-4q-12 -69 -66 -90t-180 -21q-116 0 -157 27q-42 29 -58 94h-4q-6 -23 -22 -46t-31 -34v-4q31 0 58 -13q30 -12 32 -26l-21 -73q0 -3 -49 -37q-53 -37 -116 -61t-121 -24q-200 0 -200 228
l2 34q-51 13 -93 91q-13 -50 -37.5 -76.5t-55.5 -26.5q-42 0 -69.5 20.5t-50.5 69.5q-71 -48 -125 -48q-26 0 -44 12t-18 27q0 71 54 101q55 30 55 50q0 16 -27 43l17 78q1 4 8 4q16 0 45 -53t60 -126q33 -73 104 -73q22 0 36.5 8.5t14.5 23.5q0 18 -23.5 65.5t-68.5 117.5
q15 49 25 69q2 4 5 4q9 0 27 -29q29 -49 44 -79l14 -28q35 -71 64.5 -109.5t70.5 -38.5l41 6q-107 132 -137 174q-33 47 -33 82q0 24 11 54q12 28 23 28q10 0 23 -30q14 -31 51 -62q38 -32 41 -40q0 -16 -41 -16q66 -86 88 -137q21 -48 21 -102q0 -27 -19 -43t-49 -16h-11
q-13 0 -18 3q6 -67 68 -114q62 -45 125 -45q41 0 98 11.5t111 35.5v8q-65 5 -102 13.5t-44 15.5l29 57q78 27 99 42q22 15 22 55q0 48 -37 132q-37 88 -82 162l13 51q9 37 18 37q5 0 14 -14q7 -11 82 -171q75 -161 91 -186q21 -30 56 -43q39 -14 141 -14q101 0 152 19t51 49
q0 5 -2 11.5t-2 8.5q0 4 3 7t6 3q13 0 45 -51q33 -51 92 -51q55 70 111.5 106.5t109.5 36.5q83 0 114 -73q32 -72 46 -72q-22 -77 -25 -79q-2 -2 -20 -10q-15 -5 -278 -13h-41q-31 0 -35 4zM162 1032q7 -7 38 -7q32 0 72 5l-36 74q-11 -19 -32.5 -39t-41.5 -33zM1932 988
q-41 24 -69 24q-37 0 -80 -25q-44 -24 -65 -53q89 0 169 2q57 1 100 8q-16 22 -55 44zM523 819q-18 0 -71 -35t-83 -35q0 -32 -3 -47t-10 -18q-5 30 -28 57.5t-47 34.5q-7 21 -7 34q0 17 11 17q4 0 27 -12q22 -12 40 -12q33 0 100 34q68 35 75 35q16 0 29 -10t13 -22
q0 -8 -2.5 -14.5t-11.5 -20.5q-11 14 -32 14zM2025 383q0 -16 -22 -64q-151 -19 -225 -19q-34 0 -51 5q-45 17 -74 92h-4q-30 -102 -83 -102q-32 0 -56 18.5t-27 41.5h-4q-17 -68 -111 -68q-50 0 -94 25q-44 26 -57 61q-45 -28 -86.5 -41t-75.5 -13q-20 0 -48 11
q-26 11 -26 35q0 10 11 41q10 31 22 39l116 87l-30 52q10 54 15 67q4 13 13 13q8 0 16 -12t28 -51q7 -14 14 -27.5t14 -27.5l50 -95q16 -28 59 -47q44 -18 89 -18q57 0 75 24q4 20 8 45q5 32 12 32q10 0 10 -20t26 -49q26 -27 55 -27q19 0 32 19q0 62 -29 138t-88 187l12 56
q8 30 16 30q10 -3 22 -29q12 -22 81 -190q67 -163 100 -185q32 -20 50 -20q3 65 34 112q32 48 72 48q37 0 71 -43q36 -43 36 -60q0 -10 -6 -10q-9 0 -36 21q-25 22 -66 22q-24 0 -40 -9.5t-16 -26.5q0 -20 24 -40q25 -19 41 -18l107 6q10 0 17 -4t7 -12zM1994 720
q-7 -4 -296 -136l22 51l308 140q-28 -51 -34 -55zM549 325l-75 150q-56 115 -56 143q0 21 13 51q14 32 23 32q9 -7 12 -18q3 -9 35 -54q33 -41 53 -54q21 -10 21 -23q0 -4 -3 -5.5t-16 -1.5q-9 0 -20 3t-17 9l-5 -4q90 -169 90 -249q0 -21 -9 -66q-7 -45 -21 -45l-5 2
q0 93 -20 130zM358 463q-67 112 -67 141q0 16 11 47q12 31 20 31q12 0 22 -25t47 -63q37 -37 37 -43q0 -7 -7.5 -10.5t-29.5 -3.5q50 -91 63 -124q15 -33 15 -73q0 -113 -77 -113q-44 0 -69.5 20t-39.5 68q-55 -34 -102 -34q-32 0 -46 6.5t-14 20.5q0 38 9 56q8 18 41 46
q31 26 48 34l-22 39q10 10 15 40q6 30 10 30q9 0 13 -7q8 -13 47 -97q44 -91 63 -107t55 -16h10q12 0 14 3l2 5q0 16 -68 129zM738 537l-146 -78l20 51q34 13 108 55q71 41 117 71l-32 -52l-21 -17q-22 -17 -46 -30zM692 247q48 9 110 49q64 40 64 62q0 11 -19 24
q-15 -5 -34 -5q-26 0 -42.5 10.5t-16.5 30.5q0 25 17 68q18 42 44 42q29 0 58 -44q30 -43 30 -113q0 -71 -31 -112.5t-80 -41.5q-21 0 -79 3q-57 3 -64 8v3q0 9 43 16zM1040 412v-4l77 -2q46 0 82 6l-48 94q-12 -24 -42 -49.5t-69 -44.5zM219 350q12 0 27 3.5t22 4.5l-30 60
l-71 -62q31 -6 52 -6zM1360 125l39 88l84 -43l28 57l82 -49l-45 -78l-71 39l-35 -53zM1240 182q-16 -24 -107 -70l-86 -42l-238 -99q9 -12 9 -27q0 -24 -21 -48.5t-47 -28.5q17 25 17 48q0 31 -19 34q-15 2 -16 5v5q0 3 3 8l36 42l246 98q141 57 184 83q44 27 51 27l5 -5
q0 -4 -17 -30zM1980 139q-48 -20 -262 -123l19 56l252 116l49 27q-6 -52 -58 -76zM1698 -23q17 0 39 -39q22 -38 22 -72q0 -47 -21 -74.5t-53 -27.5q-20 0 -35 7.5t-30 23.5q-14 -18 -29 -25.5t-34 -7.5q-28 0 -57 18t-50 48q-78 -41 -259 -71q-179 -31 -374 -31
q-175 0 -247 31q-74 32 -101 108h-4q-9 -32 -27.5 -53.5t-44.5 -21.5q-17 -54 -36.5 -76.5t-47.5 -22.5q-25 0 -44.5 20.5t-22.5 65.5v2h-4q-23 -42 -86 -74q-61 -33 -89 -33h-9l-1 4q0 11 21 17q25 8 90 79q67 72 69 134q11 6 20 26t9 38q0 17 12 22q24 -4 57 -57
q33 -52 68 -52q17 0 28 9.5t11 23.5q0 29 -31 98q-30 73 -61 121q0 3 8 40q8 36 17 38q16 -3 62 -115q45 -106 83 -175q36 -62 122 -79q83 -16 185 -16q219 0 364 22q147 22 206 48q58 26 55 26q10 0 47 -29q36 -30 63 -30l27 4q0 92 20 92h2h1q3 0 4 -22q2 -26 27 -51
q26 -27 69 -27l-37 53q4 27 11.5 45t15.5 18zM1868 -122q0 36 17 73q17 35 42 35q31 0 59 -43q29 -44 29 -113q0 -73 -34 -113q-35 -41 -69 -41q-19 0 -78 7q-63 6 -82 15v7l3 1q81 9 152 45t71 67q0 6 -6.5 13.5t-13.5 10.5l-33 -3q-26 0 -41.5 9.5t-15.5 29.5zM326 -217
q12 0 28 8l-80 88q0 -41 14.5 -68.5t37.5 -27.5zM1393 -276q6 -8 6 -21q0 -20 -11 -32.5t-26 -12.5q-14 0 -25 12q-14 -22 -47 -22q-9 0 -21 12q-12 10 -19 10q-11 0 -59 -33q-47 -34 -121 -34l-31 1q-24 1 -28 7v4q0 4 33 4q53 0 132 44q80 44 84 44q8 0 21.5 -11t18.5 -11
q23 0 32 17q11 17 14 17l5 -2q1 0 4.5 -12t14.5 -12l8 2q0 11 3.5 17.5t11.5 11.5z" />
    <glyph glyph-name="uni0660.pnum" horiz-adv-x="587" 
d="M400 435l-100 -100l-95 95l100 100z" />
    <glyph glyph-name="uni0661.pnum" horiz-adv-x="587" 
d="M375 1393v-1393h-134v1393h134z" />
    <glyph glyph-name="uni0662.pnum" horiz-adv-x="838" 
d="M803 1393v-131h-523l163 -1262h-125l-190 1393h675z" />
    <glyph glyph-name="uni0663.pnum" horiz-adv-x="1100" 
d="M255 1393l28 -245q63 -21 113 -21q84 0 130 55.5t46 160.5q0 32 -4 52h124q0 -82 -10 -142.5t-40 -107.5q71 -29 131 -29q99 0 144 65t45 175q0 29 -2 39h125q-1 -101 -30 -187t-95 -140t-172 -54q-91 0 -201 47q-40 -26 -77 -37t-77 -11q-52 0 -133 22l131 -1035h-126
l-182 1393h132z" />
    <glyph glyph-name="uni0664.pnum" horiz-adv-x="849" 
d="M384 1164q-82 -79 -82 -138q0 -61 62 -97q69 -39 165 -86q104 -50 104 -86q0 -32 -74 -115q-65 -73 -161 -195q-87 -112 -87 -205q0 -68 73 -104t207 -36q99 0 222 32q-2 -32 -12 -124q-57 -21 -130.5 -32.5t-152.5 -11.5q-151 0 -246 66q-94 66 -94 168q0 104 68 219
q67 114 233 302q-109 48 -170.5 90.5t-87.5 86t-26 96.5q0 85 58.5 173.5t156 157t206.5 96.5v-127q-151 -50 -232 -130z" />
    <glyph glyph-name="uni0665.pnum" horiz-adv-x="1012" 
d="M529 -40q-134 0 -226 61.5t-137 168.5t-45 243q0 156 57 303q31 81 81.5 153.5t122 119.5t155.5 47q132 0 223.5 -103.5t134 -254.5t42.5 -288q0 -110 -45.5 -212t-137.5 -170t-225 -68zM809 450q0 110 -36 214.5t-102 171.5t-151 67q-86 0 -149.5 -72.5t-94.5 -177
t-31 -196.5q0 -168 76 -266q76 -99 216 -99q94 0 155 50.5t89 131.5t28 176z" />
    <glyph glyph-name="uni0666.pnum" horiz-adv-x="954" 
d="M77 1262v131h626l176 -1393h-124l-167 1262h-511z" />
    <glyph glyph-name="uni0667.pnum" horiz-adv-x="1118" 
d="M202 1393l412 -1158l330 1158h128l-426 -1393h-76l-510 1393h142z" />
    <glyph glyph-name="uni0668.pnum" horiz-adv-x="1118" 
d="M211 0h-129l447 1393h77l489 -1393h-143l-392 1158z" />
    <glyph glyph-name="uni0669.pnum" horiz-adv-x="1000" 
d="M482 694q-130 0 -223 48.5t-140.5 129.5t-47.5 176q0 119 50 210.5t135 142t188 50.5q85 0 158 -41t121 -112.5t60 -160.5l159 -1137h-124l-116 694h-220zM423 1319q-64 0 -115 -31.5t-80 -87t-29 -125.5q0 -126 75.5 -188t213.5 -62h196l-33 261q-14 108 -74.5 170.5
t-153.5 62.5z" />
    <glyph glyph-name="uni06F0.pnum" horiz-adv-x="587" 
d="M400 435l-100 -100l-95 95l100 100z" />
    <glyph glyph-name="uni06F1.pnum" horiz-adv-x="587" 
d="M375 1393v-1393h-134v1393h134z" />
    <glyph glyph-name="uni06F2.pnum" horiz-adv-x="838" 
d="M804 1393v-131h-523l163 -1262h-125l-190 1393h675z" />
    <glyph glyph-name="uni06F3.pnum" horiz-adv-x="1100" 
d="M255 1393l28 -245q63 -21 113 -21q84 0 130 55.5t46 160.5q0 32 -4 52h124q0 -82 -10 -142.5t-40 -107.5q71 -29 131 -29q99 0 144 65t45 175q0 29 -2 39h125q-1 -101 -30 -187t-95 -140t-172 -54q-91 0 -201 47q-40 -26 -77 -37t-77 -11q-52 0 -133 22l131 -1035h-126
l-182 1393h132z" />
    <glyph glyph-name="uni06F4.pnum" horiz-adv-x="1150" 
d="M258 1393l39 -311q66 -22 137.5 -36t159.5 -26q-55 35 -87.5 99.5t-32.5 133.5q0 78 36.5 134t99.5 84.5t141 28.5q27 0 49 -3v-97q-112 0 -164 -40.5t-52 -122.5q0 -128 151 -222q94 8 148.5 41t83 95.5t44.5 161.5h124q-18 -202 -123 -312.5t-279 -110.5
q-98 0 -198.5 15.5t-219.5 50.5l123 -956h-129l-186 1393h135z" />
    </font>
</defs>
</svg>
